<?xml version="1.0" encoding="UTF-8" standalone="no"?>
<!DOCTYPE svg PUBLIC "-//W3C//DTD SVG 1.1//EN"
 "http://www.w3.org/Graphics/SVG/1.1/DTD/svg11.dtd">
<!-- Generated by graphviz version 2.43.0 (0)
 -->
<!-- Title: Chess3By3 Pages: 1 -->
<svg width="383pt" height="365pt"
 viewBox="0.00 0.00 382.86 364.86" xmlns="http://www.w3.org/2000/svg" xmlns:xlink="http://www.w3.org/1999/xlink">
<g id="graph0" class="graph" transform="scale(1 1) rotate(0) translate(4 360.86)">
<title>Chess3By3</title>
<!-- A1 -->
<g id="node1" class="node">
<title>A1</title>
<ellipse fill="white" stroke="red" cx="300.87" cy="-64.99" rx="27" ry="18"/>
<text text-anchor="middle" x="300.87" y="-61.29" font-family="Times,serif" font-size="14.00">A1</text>
</g>
<!-- B3 -->
<g id="node2" class="node">
<title>B3</title>
<ellipse fill="white" stroke="red" cx="187.43" cy="-18" rx="27" ry="18"/>
<text text-anchor="middle" x="187.43" y="-14.3" font-family="Times,serif" font-size="14.00">B3</text>
</g>
<!-- A1&#45;&#45;B3 -->
<g id="edge1" class="edge">
<title>A1&#45;&#45;B3</title>
<path fill="none" stroke="#777777" stroke-width="3" d="M277.91,-55.48C258.36,-47.38 230.39,-35.8 210.74,-27.66"/>
</g>
<!-- C2 -->
<g id="node3" class="node">
<title>C2</title>
<ellipse fill="white" stroke="red" cx="347.86" cy="-178.43" rx="27" ry="18"/>
<text text-anchor="middle" x="347.86" y="-174.73" font-family="Times,serif" font-size="14.00">C2</text>
</g>
<!-- A1&#45;&#45;C2 -->
<g id="edge2" class="edge">
<title>A1&#45;&#45;C2</title>
<path fill="none" stroke="#777777" stroke-width="3" d="M308.21,-82.71C317.04,-104.02 331.76,-139.57 340.57,-160.83"/>
</g>
<!-- A3 -->
<g id="node5" class="node">
<title>A3</title>
<ellipse fill="white" stroke="red" cx="300.87" cy="-291.87" rx="27" ry="18"/>
<text text-anchor="middle" x="300.87" y="-288.17" font-family="Times,serif" font-size="14.00">A3</text>
</g>
<!-- C2&#45;&#45;A3 -->
<g id="edge8" class="edge">
<title>C2&#45;&#45;A3</title>
<path fill="none" stroke="#777777" stroke-width="3" d="M340.51,-196.15C331.69,-217.46 316.96,-253.01 308.16,-274.27"/>
</g>
<!-- B1 -->
<g id="node4" class="node">
<title>B1</title>
<ellipse fill="white" stroke="red" cx="187.43" cy="-338.86" rx="27" ry="18"/>
<text text-anchor="middle" x="187.43" y="-335.16" font-family="Times,serif" font-size="14.00">B1</text>
</g>
<!-- B1&#45;&#45;A3 -->
<g id="edge3" class="edge">
<title>B1&#45;&#45;A3</title>
<path fill="none" stroke="#777777" stroke-width="3" d="M210.38,-329.35C229.94,-321.25 257.9,-309.66 277.56,-301.52"/>
</g>
<!-- C3 -->
<g id="node6" class="node">
<title>C3</title>
<ellipse fill="white" stroke="red" cx="73.99" cy="-291.87" rx="27" ry="18"/>
<text text-anchor="middle" x="73.99" y="-288.17" font-family="Times,serif" font-size="14.00">C3</text>
</g>
<!-- B1&#45;&#45;C3 -->
<g id="edge4" class="edge">
<title>B1&#45;&#45;C3</title>
<path fill="none" stroke="#777777" stroke-width="3" d="M164.47,-329.35C144.92,-321.25 116.95,-309.66 97.3,-301.52"/>
</g>
<!-- C1 -->
<g id="node7" class="node">
<title>C1</title>
<ellipse fill="white" stroke="red" cx="73.99" cy="-64.99" rx="27" ry="18"/>
<text text-anchor="middle" x="73.99" y="-61.29" font-family="Times,serif" font-size="14.00">C1</text>
</g>
<!-- C1&#45;&#45;B3 -->
<g id="edge5" class="edge">
<title>C1&#45;&#45;B3</title>
<path fill="none" stroke="#777777" stroke-width="3" d="M96.94,-55.48C116.5,-47.38 144.46,-35.8 164.12,-27.66"/>
</g>
<!-- A2 -->
<g id="node8" class="node">
<title>A2</title>
<ellipse fill="white" stroke="red" cx="27" cy="-178.43" rx="27" ry="18"/>
<text text-anchor="middle" x="27" y="-174.73" font-family="Times,serif" font-size="14.00">A2</text>
</g>
<!-- C1&#45;&#45;A2 -->
<g id="edge6" class="edge">
<title>C1&#45;&#45;A2</title>
<path fill="none" stroke="#777777" stroke-width="3" d="M66.65,-82.71C57.82,-104.02 43.09,-139.57 34.29,-160.83"/>
</g>
<!-- A2&#45;&#45;C3 -->
<g id="edge7" class="edge">
<title>A2&#45;&#45;C3</title>
<path fill="none" stroke="#777777" stroke-width="3" d="M34.34,-196.15C43.17,-217.46 57.89,-253.01 66.7,-274.27"/>
</g>
<!-- B2 -->
<g id="node9" class="node">
<title>B2</title>
<ellipse fill="white" stroke="red" cx="230.43" cy="-192.43" rx="27" ry="18"/>
<text text-anchor="middle" x="230.43" y="-188.73" font-family="Times,serif" font-size="14.00">B2</text>
</g>
</g>
</svg>
