<?xml version="1.0" encoding="UTF-8" standalone="no"?>
<!DOCTYPE svg PUBLIC "-//W3C//DTD SVG 1.1//EN"
 "http://www.w3.org/Graphics/SVG/1.1/DTD/svg11.dtd">
<!-- Generated by graphviz version 2.43.0 (0)
 -->
<!-- Title: Chess3By3NoneCycle Pages: 1 -->
<svg width="266pt" height="231pt"
 viewBox="0.00 0.00 266.00 231.00" xmlns="http://www.w3.org/2000/svg" xmlns:xlink="http://www.w3.org/1999/xlink">
<g id="page0,1_graph0" class="graph" transform="scale(1 1) rotate(0) translate(4 227)">
<title>Chess3By3NoneCycle</title>
<!-- A1 -->
<g id="node1" class="node">
<title>A1</title>
<ellipse fill="white" stroke="red" cx="26.65" cy="-69.3" rx="27" ry="18"/>
<text text-anchor="middle" x="26.65" y="-65.6" font-family="Times,serif" font-size="14.00">A1</text>
</g>
<!-- B3 -->
<g id="node2" class="node">
<title>B3</title>
<ellipse fill="white" stroke="red" cx="125.93" cy="-66.65" rx="27" ry="18"/>
<text text-anchor="middle" x="125.93" y="-62.95" font-family="Times,serif" font-size="14.00">B3</text>
</g>
<!-- A1&#45;&#45;B3 -->
<g id="edge1" class="edge">
<title>A1&#45;&#45;B3</title>
<path fill="none" stroke="#777777" stroke-width="3" d="M53.78,-68.58C67.79,-68.2 84.83,-67.75 98.84,-67.38"/>
</g>
<!-- C2 -->
<g id="node3" class="node">
<title>C2</title>
<ellipse fill="white" stroke="red" cx="71.97" cy="-17.65" rx="27" ry="18"/>
<text text-anchor="middle" x="71.97" y="-13.95" font-family="Times,serif" font-size="14.00">C2</text>
</g>
<!-- A1&#45;&#45;C2 -->
<g id="edge2" class="edge">
<title>A1&#45;&#45;C2</title>
<path fill="none" stroke="#777777" stroke-width="3" d="M40.49,-53.52C46.11,-47.12 52.6,-39.73 58.21,-33.33"/>
</g>
<!-- A3 -->
<g id="node5" class="node">
<title>A3</title>
<ellipse fill="white" stroke="red" cx="55.71" cy="-117.97" rx="27" ry="18"/>
<text text-anchor="middle" x="55.71" y="-114.27" font-family="Times,serif" font-size="14.00">A3</text>
</g>
<!-- C2&#45;&#45;A3 -->
<g id="edge8" class="edge">
<title>C2&#45;&#45;A3</title>
<path fill="none" stroke="#777777" stroke-width="3" d="M69.06,-35.58C66.12,-53.73 61.6,-81.64 58.65,-99.85"/>
</g>
<!-- B1 -->
<g id="node4" class="node">
<title>B1</title>
<ellipse fill="white" stroke="red" cx="125.92" cy="-164.28" rx="27" ry="18"/>
<text text-anchor="middle" x="125.92" y="-160.58" font-family="Times,serif" font-size="14.00">B1</text>
</g>
<!-- B1&#45;&#45;A3 -->
<g id="edge3" class="edge">
<title>B1&#45;&#45;A3</title>
<path fill="none" stroke="#777777" stroke-width="3" d="M106.37,-151.38C96.63,-144.96 84.89,-137.21 75.17,-130.8"/>
</g>
<!-- C3 -->
<g id="node6" class="node">
<title>C3</title>
<ellipse fill="white" stroke="red" cx="200.4" cy="-146.43" rx="27" ry="18"/>
<text text-anchor="middle" x="200.4" y="-142.73" font-family="Times,serif" font-size="14.00">C3</text>
</g>
<!-- B1&#45;&#45;C3 -->
<g id="edge4" class="edge">
<title>B1&#45;&#45;C3</title>
<path fill="none" stroke="#777777" stroke-width="3" d="M151.55,-158.14C159.13,-156.32 167.41,-154.34 174.97,-152.52"/>
</g>
<!-- C1 -->
<g id="node7" class="node">
<title>C1</title>
<ellipse fill="white" stroke="red" cx="183.14" cy="-19.4" rx="27" ry="18"/>
<text text-anchor="middle" x="183.14" y="-15.7" font-family="Times,serif" font-size="14.00">C1</text>
</g>
<!-- C1&#45;&#45;B3 -->
<g id="edge5" class="edge">
<title>C1&#45;&#45;B3</title>
<path fill="none" stroke="#777777" stroke-width="3" d="M165.98,-33.58C158.74,-39.56 150.33,-46.5 143.09,-52.48"/>
</g>
<!-- A2 -->
<g id="node8" class="node">
<title>A2</title>
<ellipse fill="white" stroke="red" cx="207.64" cy="-94.78" rx="27" ry="18"/>
<text text-anchor="middle" x="207.64" y="-91.08" font-family="Times,serif" font-size="14.00">A2</text>
</g>
<!-- C1&#45;&#45;A2 -->
<g id="edge6" class="edge">
<title>C1&#45;&#45;A2</title>
<path fill="none" stroke="#777777" stroke-width="3" d="M188.95,-37.26C192.85,-49.28 197.98,-65.06 201.87,-77.05"/>
</g>
<!-- A2&#45;&#45;C3 -->
<g id="edge7" class="edge">
<title>A2&#45;&#45;C3</title>
<path fill="none" stroke="#777777" stroke-width="3" d="M205.1,-112.85C204.4,-117.85 203.64,-123.28 202.94,-128.29"/>
</g>
<!-- B2 -->
<g id="node9" class="node">
<title>B2</title>
<ellipse fill="white" stroke="red" cx="231.24" cy="-204.64" rx="27" ry="18"/>
<text text-anchor="middle" x="231.24" y="-200.94" font-family="Times,serif" font-size="14.00">B2</text>
</g>
</g>
</svg>
