<?xml version="1.0" encoding="UTF-8" standalone="no"?>
<!DOCTYPE svg PUBLIC "-//W3C//DTD SVG 1.1//EN"
 "http://www.w3.org/Graphics/SVG/1.1/DTD/svg11.dtd">
<!-- Generated by graphviz version 2.43.0 (0)
 -->
<!-- Title: S6 Pages: 1 -->
<svg width="290pt" height="284pt"
 viewBox="0.00 0.00 289.94 283.67" xmlns="http://www.w3.org/2000/svg" xmlns:xlink="http://www.w3.org/1999/xlink">
<g id="page0,1_graph0" class="graph" transform="scale(1 1) rotate(0) translate(4 279.67)">
<title>S6</title>
<!-- 0 -->
<g id="node1" class="node">
<title>0</title>
<ellipse fill="white" stroke="red" cx="128.94" cy="-137.83" rx="27" ry="18"/>
<text text-anchor="middle" x="128.94" y="-134.13" font-family="Times,serif" font-size="14.00">0</text>
</g>
<!-- 1 -->
<g id="node2" class="node">
<title>1</title>
<ellipse fill="white" stroke="red" cx="254.94" cy="-137.83" rx="27" ry="18"/>
<text text-anchor="middle" x="254.94" y="-134.13" font-family="Times,serif" font-size="14.00">1</text>
</g>
<!-- 0&#45;&#45;1 -->
<g id="edge1" class="edge">
<title>0&#45;&#45;1</title>
<path fill="none" stroke="#777777" stroke-width="3" d="M155.97,-137.83C177.08,-137.83 206.3,-137.83 227.52,-137.83"/>
</g>
<!-- 2 -->
<g id="node3" class="node">
<title>2</title>
<ellipse fill="white" stroke="red" cx="167.87" cy="-257.67" rx="27" ry="18"/>
<text text-anchor="middle" x="167.87" y="-253.97" font-family="Times,serif" font-size="14.00">2</text>
</g>
<!-- 0&#45;&#45;2 -->
<g id="edge2" class="edge">
<title>0&#45;&#45;2</title>
<path fill="none" stroke="#777777" stroke-width="3" d="M134.68,-155.51C142.04,-178.17 154.73,-217.22 162.1,-239.91"/>
</g>
<!-- 3 -->
<g id="node4" class="node">
<title>3</title>
<ellipse fill="white" stroke="red" cx="27" cy="-211.89" rx="27" ry="18"/>
<text text-anchor="middle" x="27" y="-208.19" font-family="Times,serif" font-size="14.00">3</text>
</g>
<!-- 0&#45;&#45;3 -->
<g id="edge3" class="edge">
<title>0&#45;&#45;3</title>
<path fill="none" stroke="#777777" stroke-width="3" d="M110.24,-151.42C91.85,-164.78 63.93,-185.06 45.58,-198.4"/>
</g>
<!-- 4 -->
<g id="node5" class="node">
<title>4</title>
<ellipse fill="white" stroke="red" cx="27" cy="-63.77" rx="27" ry="18"/>
<text text-anchor="middle" x="27" y="-60.07" font-family="Times,serif" font-size="14.00">4</text>
</g>
<!-- 0&#45;&#45;4 -->
<g id="edge4" class="edge">
<title>0&#45;&#45;4</title>
<path fill="none" stroke="#777777" stroke-width="3" d="M110.24,-124.25C91.85,-110.89 63.93,-90.6 45.58,-77.27"/>
</g>
<!-- 5 -->
<g id="node6" class="node">
<title>5</title>
<ellipse fill="white" stroke="red" cx="167.87" cy="-18" rx="27" ry="18"/>
<text text-anchor="middle" x="167.87" y="-14.3" font-family="Times,serif" font-size="14.00">5</text>
</g>
<!-- 0&#45;&#45;5 -->
<g id="edge5" class="edge">
<title>0&#45;&#45;5</title>
<path fill="none" stroke="#777777" stroke-width="3" d="M134.68,-120.15C142.04,-97.49 154.73,-58.45 162.1,-35.75"/>
</g>
</g>
</svg>
