<?xml version="1.0" encoding="UTF-8" standalone="no"?>
<!DOCTYPE svg PUBLIC "-//W3C//DTD SVG 1.1//EN"
 "http://www.w3.org/Graphics/SVG/1.1/DTD/svg11.dtd">
<!-- Generated by graphviz version 2.43.0 (0)
 -->
<!-- Title: K3_2 Pages: 1 -->
<svg width="206pt" height="116pt"
 viewBox="0.00 0.00 206.00 116.00" xmlns="http://www.w3.org/2000/svg" xmlns:xlink="http://www.w3.org/1999/xlink">
<g id="page0,1_graph0" class="graph" transform="scale(1 1) rotate(0) translate(4 112)">
<title>K3_2</title>
<!-- a -->
<g id="node1" class="node">
<title>a</title>
<ellipse fill="white" stroke="red" cx="63" cy="-90" rx="27" ry="18"/>
<text text-anchor="middle" x="63" y="-86.3" font-family="Times,serif" font-size="14.00">a</text>
</g>
<!-- c -->
<g id="node3" class="node">
<title>c</title>
<ellipse fill="white" stroke="red" cx="27" cy="-18" rx="27" ry="18"/>
<text text-anchor="middle" x="27" y="-14.3" font-family="Times,serif" font-size="14.00">c</text>
</g>
<!-- a&#45;&#45;c -->
<g id="edge1" class="edge">
<title>a&#45;&#45;c</title>
<path fill="none" stroke="#777777" stroke-width="3" d="M54.65,-72.76C48.83,-61.46 41.11,-46.44 35.3,-35.15"/>
</g>
<!-- d -->
<g id="node4" class="node">
<title>d</title>
<ellipse fill="white" stroke="red" cx="99" cy="-18" rx="27" ry="18"/>
<text text-anchor="middle" x="99" y="-14.3" font-family="Times,serif" font-size="14.00">d</text>
</g>
<!-- a&#45;&#45;d -->
<g id="edge2" class="edge">
<title>a&#45;&#45;d</title>
<path fill="none" stroke="#777777" stroke-width="3" d="M71.35,-72.76C77.17,-61.46 84.89,-46.44 90.7,-35.15"/>
</g>
<!-- e -->
<g id="node5" class="node">
<title>e</title>
<ellipse fill="white" stroke="red" cx="171" cy="-18" rx="27" ry="18"/>
<text text-anchor="middle" x="171" y="-14.3" font-family="Times,serif" font-size="14.00">e</text>
</g>
<!-- a&#45;&#45;e -->
<g id="edge3" class="edge">
<title>a&#45;&#45;e</title>
<path fill="none" stroke="#777777" stroke-width="3" d="M81.81,-76.81C101.63,-63.96 132.66,-43.85 152.4,-31.05"/>
</g>
<!-- b -->
<g id="node2" class="node">
<title>b</title>
<ellipse fill="white" stroke="red" cx="135" cy="-90" rx="27" ry="18"/>
<text text-anchor="middle" x="135" y="-86.3" font-family="Times,serif" font-size="14.00">b</text>
</g>
<!-- b&#45;&#45;c -->
<g id="edge4" class="edge">
<title>b&#45;&#45;c</title>
<path fill="none" stroke="#777777" stroke-width="3" d="M116.19,-76.81C96.37,-63.96 65.34,-43.85 45.6,-31.05"/>
</g>
<!-- b&#45;&#45;d -->
<g id="edge5" class="edge">
<title>b&#45;&#45;d</title>
<path fill="none" stroke="#777777" stroke-width="3" d="M126.65,-72.76C120.83,-61.46 113.11,-46.44 107.3,-35.15"/>
</g>
<!-- b&#45;&#45;e -->
<g id="edge6" class="edge">
<title>b&#45;&#45;e</title>
<path fill="none" stroke="#777777" stroke-width="3" d="M143.35,-72.76C149.17,-61.46 156.89,-46.44 162.7,-35.15"/>
</g>
</g>
</svg>
