<?xml version="1.0" encoding="UTF-8" standalone="no"?>
<!DOCTYPE svg PUBLIC "-//W3C//DTD SVG 1.1//EN"
 "http://www.w3.org/Graphics/SVG/1.1/DTD/svg11.dtd">
<!-- Generated by graphviz version 2.43.0 (0)
 -->
<!-- Title: Disconnected Pages: 1 -->
<svg width="344pt" height="212pt"
 viewBox="0.00 0.00 344.16 212.10" xmlns="http://www.w3.org/2000/svg" xmlns:xlink="http://www.w3.org/1999/xlink">
<g id="page0,1_graph0" class="graph" transform="scale(1 1) rotate(0) translate(4 208.1)">
<title>Disconnected</title>
<!-- 1 -->
<g id="node1" class="node">
<title>1</title>
<ellipse fill="white" stroke="red" cx="153" cy="-18" rx="27" ry="18"/>
<text text-anchor="middle" x="153" y="-14.3" font-family="Times,serif" font-size="14.00">1</text>
</g>
<!-- 2 -->
<g id="node2" class="node">
<title>2</title>
<ellipse fill="white" stroke="red" cx="279" cy="-18" rx="27" ry="18"/>
<text text-anchor="middle" x="279" y="-14.3" font-family="Times,serif" font-size="14.00">2</text>
</g>
<!-- 1&#45;&#45;2 -->
<g id="edge1" class="edge">
<title>1&#45;&#45;2</title>
<path fill="none" stroke="#777777" stroke-width="3" d="M180.03,-18C201.14,-18 230.37,-18 251.58,-18"/>
</g>
<!-- 3 -->
<g id="node3" class="node">
<title>3</title>
<ellipse fill="white" stroke="red" cx="27" cy="-18" rx="27" ry="18"/>
<text text-anchor="middle" x="27" y="-14.3" font-family="Times,serif" font-size="14.00">3</text>
</g>
<!-- 1&#45;&#45;3 -->
<g id="edge2" class="edge">
<title>1&#45;&#45;3</title>
<path fill="none" stroke="#777777" stroke-width="3" d="M125.97,-18C104.86,-18 75.63,-18 54.42,-18"/>
</g>
<!-- 4 -->
<g id="node4" class="node">
<title>4</title>
<ellipse fill="white" stroke="red" cx="218.92" cy="-81.9" rx="27" ry="18"/>
<text text-anchor="middle" x="218.92" y="-78.2" font-family="Times,serif" font-size="14.00">4</text>
</g>
<!-- 5 -->
<g id="node5" class="node">
<title>5</title>
<ellipse fill="white" stroke="red" cx="218.92" cy="-186.1" rx="27" ry="18"/>
<text text-anchor="middle" x="218.92" y="-182.4" font-family="Times,serif" font-size="14.00">5</text>
</g>
<!-- 4&#45;&#45;5 -->
<g id="edge3" class="edge">
<title>4&#45;&#45;5</title>
<path fill="none" stroke="#777777" stroke-width="3" d="M218.92,-100.05C218.92,-119.06 218.92,-148.75 218.92,-167.81"/>
</g>
<!-- 6 -->
<g id="node6" class="node">
<title>6</title>
<ellipse fill="white" stroke="red" cx="309.16" cy="-134" rx="27" ry="18"/>
<text text-anchor="middle" x="309.16" y="-130.3" font-family="Times,serif" font-size="14.00">6</text>
</g>
<!-- 5&#45;&#45;6 -->
<g id="edge4" class="edge">
<title>5&#45;&#45;6</title>
<path fill="none" stroke="#777777" stroke-width="3" d="M239.4,-174.28C254.06,-165.81 273.74,-154.45 288.45,-145.96"/>
</g>
<!-- 6&#45;&#45;4 -->
<g id="edge5" class="edge">
<title>6&#45;&#45;4</title>
<path fill="none" stroke="#777777" stroke-width="3" d="M288.68,-122.18C274.02,-113.71 254.34,-102.35 239.63,-93.86"/>
</g>
</g>
</svg>
