<?xml version="1.0" encoding="UTF-8" standalone="no"?>
<!DOCTYPE svg PUBLIC "-//W3C//DTD SVG 1.1//EN"
 "http://www.w3.org/Graphics/SVG/1.1/DTD/svg11.dtd">
<!-- Generated by graphviz version 2.43.0 (0)
 -->
<!-- Title: CutVertex Pages: 1 -->
<svg width="385pt" height="204pt"
 viewBox="0.00 0.00 384.67 204.43" xmlns="http://www.w3.org/2000/svg" xmlns:xlink="http://www.w3.org/1999/xlink">
<g id="page0,1_graph0" class="graph" transform="scale(1 1) rotate(0) translate(4 200.43)">
<title>CutVertex</title>
<!-- 1 -->
<g id="node1" class="node">
<title>1</title>
<ellipse fill="white" stroke="red" cx="117.24" cy="-98.21" rx="27" ry="18"/>
<text text-anchor="middle" x="117.24" y="-94.51" font-family="Times,serif" font-size="14.00">1</text>
</g>
<!-- 2 -->
<g id="node2" class="node">
<title>2</title>
<ellipse fill="white" stroke="red" cx="27" cy="-46.11" rx="27" ry="18"/>
<text text-anchor="middle" x="27" y="-42.41" font-family="Times,serif" font-size="14.00">2</text>
</g>
<!-- 1&#45;&#45;2 -->
<g id="edge1" class="edge">
<title>1&#45;&#45;2</title>
<path fill="none" stroke="#777777" stroke-width="3" d="M96.76,-86.39C82.1,-77.93 62.43,-66.57 47.71,-58.07"/>
</g>
<!-- 4 -->
<g id="node4" class="node">
<title>4</title>
<ellipse fill="white" stroke="red" cx="189.24" cy="-98.21" rx="27" ry="18"/>
<text text-anchor="middle" x="189.24" y="-94.51" font-family="Times,serif" font-size="14.00">4</text>
</g>
<!-- 1&#45;&#45;4 -->
<g id="edge4" class="edge">
<title>1&#45;&#45;4</title>
<path fill="none" stroke="#777777" stroke-width="3" d="M144.46,-98.21C150.2,-98.21 156.25,-98.21 161.98,-98.21"/>
</g>
<!-- 3 -->
<g id="node3" class="node">
<title>3</title>
<ellipse fill="white" stroke="red" cx="27" cy="-150.31" rx="27" ry="18"/>
<text text-anchor="middle" x="27" y="-146.61" font-family="Times,serif" font-size="14.00">3</text>
</g>
<!-- 2&#45;&#45;3 -->
<g id="edge2" class="edge">
<title>2&#45;&#45;3</title>
<path fill="none" stroke="#777777" stroke-width="3" d="M27,-64.26C27,-83.27 27,-112.96 27,-132.02"/>
</g>
<!-- 3&#45;&#45;1 -->
<g id="edge3" class="edge">
<title>3&#45;&#45;1</title>
<path fill="none" stroke="#777777" stroke-width="3" d="M47.48,-138.49C62.14,-130.03 81.82,-118.67 96.53,-110.17"/>
</g>
<!-- 5 -->
<g id="node5" class="node">
<title>5</title>
<ellipse fill="white" stroke="red" cx="269.45" cy="-178.43" rx="27" ry="18"/>
<text text-anchor="middle" x="269.45" y="-174.73" font-family="Times,serif" font-size="14.00">5</text>
</g>
<!-- 4&#45;&#45;5 -->
<g id="edge5" class="edge">
<title>4&#45;&#45;5</title>
<path fill="none" stroke="#777777" stroke-width="3" d="M204.33,-113.3C218.67,-127.64 240.12,-149.09 254.43,-163.41"/>
</g>
<!-- 6 -->
<g id="node6" class="node">
<title>6</title>
<ellipse fill="white" stroke="red" cx="269.45" cy="-18" rx="27" ry="18"/>
<text text-anchor="middle" x="269.45" y="-14.3" font-family="Times,serif" font-size="14.00">6</text>
</g>
<!-- 5&#45;&#45;6 -->
<g id="edge6" class="edge">
<title>5&#45;&#45;6</title>
<path fill="none" stroke="#777777" stroke-width="3" d="M269.45,-160.34C269.45,-129.53 269.45,-67.21 269.45,-36.27"/>
</g>
<!-- 6&#45;&#45;4 -->
<g id="edge9" class="edge">
<title>6&#45;&#45;4</title>
<path fill="none" stroke="#777777" stroke-width="3" d="M254.37,-33.09C240.03,-47.43 218.58,-68.88 204.26,-83.19"/>
</g>
<!-- 7 -->
<g id="node7" class="node">
<title>7</title>
<ellipse fill="white" stroke="red" cx="349.67" cy="-98.21" rx="27" ry="18"/>
<text text-anchor="middle" x="349.67" y="-94.51" font-family="Times,serif" font-size="14.00">7</text>
</g>
<!-- 6&#45;&#45;7 -->
<g id="edge7" class="edge">
<title>6&#45;&#45;7</title>
<path fill="none" stroke="#777777" stroke-width="3" d="M284.54,-33.09C298.88,-47.43 320.33,-68.88 334.65,-83.19"/>
</g>
<!-- 7&#45;&#45;5 -->
<g id="edge8" class="edge">
<title>7&#45;&#45;5</title>
<path fill="none" stroke="#777777" stroke-width="3" d="M334.58,-113.3C320.24,-127.64 298.79,-149.09 284.47,-163.41"/>
</g>
</g>
</svg>
