<?xml version="1.0" encoding="UTF-8" standalone="no"?>
<!DOCTYPE svg PUBLIC "-//W3C//DTD SVG 1.1//EN"
 "http://www.w3.org/Graphics/SVG/1.1/DTD/svg11.dtd">
<!-- Generated by graphviz version 2.43.0 (0)
 -->
<!-- Title: TreeFourLeaves Pages: 1 -->
<svg width="474pt" height="433pt"
 viewBox="0.00 0.00 474.46 432.62" xmlns="http://www.w3.org/2000/svg" xmlns:xlink="http://www.w3.org/1999/xlink">
<g id="page0,1_graph0" class="graph" transform="scale(1 1) rotate(0) translate(4 428.62)">
<title>TreeFourLeaves</title>
<!-- 0 -->
<g id="node1" class="node">
<title>0</title>
<ellipse fill="white" stroke="red" cx="187.46" cy="-212.31" rx="27" ry="18"/>
<text text-anchor="middle" x="187.46" y="-208.61" font-family="Times,serif" font-size="14.00">0</text>
</g>
<!-- 1 -->
<g id="node2" class="node">
<title>1</title>
<ellipse fill="white" stroke="red" cx="439.46" cy="-212.31" rx="27" ry="18"/>
<text text-anchor="middle" x="439.46" y="-208.61" font-family="Times,serif" font-size="14.00">1</text>
</g>
<!-- 0&#45;&#45;1 -->
<g id="edge1" class="edge">
<title>0&#45;&#45;1</title>
<path fill="none" stroke="#777777" stroke-width="3" d="M214.91,-212.31C263.51,-212.31 364.12,-212.31 412.43,-212.31"/>
</g>
<!-- 5 -->
<g id="node6" class="node">
<title>5</title>
<ellipse fill="white" stroke="red" cx="27" cy="-406.62" rx="27" ry="18"/>
<text text-anchor="middle" x="27" y="-402.92" font-family="Times,serif" font-size="14.00">5</text>
</g>
<!-- 0&#45;&#45;5 -->
<g id="edge5" class="edge">
<title>0&#45;&#45;5</title>
<path fill="none" stroke="#777777" stroke-width="3" d="M174.33,-228.21C144.16,-264.74 70.21,-354.3 40.09,-390.77"/>
</g>
<!-- 3 -->
<g id="node4" class="node">
<title>3</title>
<ellipse fill="white" stroke="red" cx="439.46" cy="-86.31" rx="27" ry="18"/>
<text text-anchor="middle" x="439.46" y="-82.61" font-family="Times,serif" font-size="14.00">3</text>
</g>
<!-- 1&#45;&#45;3 -->
<g id="edge3" class="edge">
<title>1&#45;&#45;3</title>
<path fill="none" stroke="#777777" stroke-width="3" d="M439.46,-194.26C439.46,-170.31 439.46,-128.27 439.46,-104.33"/>
</g>
<!-- 2 -->
<g id="node3" class="node">
<title>2</title>
<ellipse fill="white" stroke="red" cx="439.46" cy="-338.31" rx="27" ry="18"/>
<text text-anchor="middle" x="439.46" y="-334.61" font-family="Times,serif" font-size="14.00">2</text>
</g>
<!-- 2&#45;&#45;1 -->
<g id="edge2" class="edge">
<title>2&#45;&#45;1</title>
<path fill="none" stroke="#777777" stroke-width="3" d="M439.46,-320.26C439.46,-296.31 439.46,-254.27 439.46,-230.33"/>
</g>
<!-- 4 -->
<g id="node5" class="node">
<title>4</title>
<ellipse fill="white" stroke="red" cx="27" cy="-18" rx="27" ry="18"/>
<text text-anchor="middle" x="27" y="-14.3" font-family="Times,serif" font-size="14.00">4</text>
</g>
<!-- 4&#45;&#45;0 -->
<g id="edge4" class="edge">
<title>4&#45;&#45;0</title>
<path fill="none" stroke="#777777" stroke-width="3" d="M40.13,-33.9C70.29,-70.43 144.25,-159.99 174.37,-196.46"/>
</g>
</g>
</svg>
