<svg version="1.1" xmlns="http://www.w3.org/2000/svg" viewBox="0 0 884 545.5" width="1768" height="1091">
  <!-- svg-source:excalidraw -->
  
  <defs>
    <style class="style-fonts">
      @font-face {
        font-family: "Virgil";
        src: url("https://excalidraw.com/Virgil.woff2");
      }
      @font-face {
        font-family: "Cascadia";
        src: url("https://excalidraw.com/Cascadia.woff2");
      }
      @font-face {
        font-family: "Assistant";
        src: url("https://excalidraw.com/Assistant-Regular.woff2");
      }
    </style>
    
  </defs>
  <rect x="0" y="0" width="884" height="545.5" fill="#777777"></rect><g transform="translate(201.5 81) rotate(0 240.5 191.75)" stroke="none"><path d="M-0.76 0.04 C0.32 3.14, 4.84 14.18, 8.49 20.6 C12.13 27.03, 17.52 33.64, 21.11 38.59 C24.69 43.54, 26.31 47.46, 29.97 50.32 C33.64 53.17, 38 54.31, 43.1 55.71 C48.19 57.12, 55.73 58.02, 60.53 58.72 C65.33 59.42, 66.5 60.17, 71.9 59.92 C77.31 59.67, 81.5 61.62, 92.94 57.2 C104.38 52.79, 124.18 41.2, 140.56 33.42 C156.94 25.64, 178.23 16.18, 191.23 10.54 C204.24 4.91, 209.93 2.58, 218.57 -0.4 C227.21 -3.38, 234.34 -6.04, 243.06 -7.35 C251.77 -8.66, 261.21 -7.45, 270.87 -8.27 C280.52 -9.09, 291.51 -12.99, 300.99 -12.28 C310.47 -11.57, 319.55 -6.73, 327.75 -4.04 C335.96 -1.34, 342.81 1.28, 350.23 3.88 C357.65 6.48, 365.94 8.13, 372.27 11.56 C378.6 14.98, 383.73 20.51, 388.22 24.45 C392.72 28.39, 396.07 31.16, 399.24 35.22 C402.4 39.27, 404.49 40.99, 407.21 48.78 C409.94 56.58, 412.92 73.26, 415.59 81.98 C418.25 90.7, 420.35 96.96, 423.19 101.11 C426.03 105.27, 427.56 103.55, 432.64 106.92 C437.72 110.29, 443.78 116.59, 453.67 121.31 C463.55 126.03, 471.07 131.39, 491.94 135.24 C512.81 139.1, 558.7 142.17, 578.89 144.44 C599.09 146.72, 603.81 147.22, 613.11 148.9 C622.42 150.57, 628.68 152.33, 634.72 154.49 C640.75 156.65, 644.54 158.47, 649.31 161.86 C654.09 165.25, 660.22 170.21, 663.36 174.84 C666.5 179.47, 666.92 183.58, 668.16 189.64 C669.41 195.7, 670.25 203.53, 670.82 211.19 C671.4 218.85, 672.66 227.32, 671.62 235.58 C670.58 243.84, 667 252.4, 664.57 260.75 C662.14 269.1, 659.27 276.81, 657.02 285.69 C654.76 294.58, 653.88 304.71, 651.07 314.05 C648.25 323.4, 644.7 333.69, 640.11 341.76 C635.52 349.84, 629.16 355.28, 623.53 362.51 C617.9 369.75, 612.53 378.79, 606.34 385.17 C600.15 391.55, 592.76 396.05, 586.38 400.78 C580.01 405.52, 574.37 410.35, 568.07 413.59 C561.77 416.82, 555.05 418.38, 548.6 420.2 C542.14 422.03, 536.17 423.38, 529.34 424.56 C522.52 425.73, 514.16 426.52, 507.64 427.25 C501.12 427.97, 496.58 429.31, 490.23 428.91 C483.88 428.52, 476.67 426.26, 469.54 424.87 C462.42 423.48, 454.68 423.24, 447.48 420.57 C440.28 417.91, 432.46 412.59, 426.34 408.87 C420.22 405.15, 416.83 402, 410.75 398.26 C404.68 394.51, 395.88 390.23, 389.91 386.43 C383.93 382.62, 380.95 378.8, 374.92 375.43 C368.89 372.07, 360.74 368.79, 353.72 366.25 C346.71 363.71, 339.26 361.47, 332.84 360.2 C326.43 358.93, 322.69 358.47, 315.23 358.64 C307.77 358.8, 295.88 359.71, 288.09 361.19 C280.3 362.68, 276.15 365.15, 268.47 367.53 C260.8 369.91, 252.89 369.53, 242.03 375.49 C231.18 381.44, 212.95 396.35, 203.33 403.25 C193.71 410.15, 193.11 410.55, 184.34 416.89 C175.57 423.22, 159.94 436.21, 150.7 441.23 C141.46 446.26, 136 445.29, 128.9 447.02 C121.81 448.76, 114.99 450.28, 108.13 451.64 C101.28 453, 94.99 454.76, 87.78 455.19 C80.57 455.62, 72.35 454.56, 64.87 454.24 C57.38 453.92, 50.52 454.92, 42.87 453.28 C35.21 451.64, 29.87 448.46, 18.91 444.39 C7.96 440.32, -12.06 432.83, -22.87 428.86 C-33.68 424.89, -38.2 424.15, -45.94 420.58 C-53.68 417.02, -62.96 411.34, -69.33 407.49 C-75.69 403.65, -78.56 402.59, -84.12 397.51 C-89.69 392.43, -97.29 383, -102.74 377.01 C-108.18 371.02, -112.73 367.7, -116.79 361.57 C-120.85 355.45, -124.52 347.1, -127.09 340.25 C-129.66 333.4, -129.75 330.37, -132.22 320.48 C-134.69 310.6, -139.65 289.41, -141.91 280.91 C-144.18 272.41, -145.08 273.71, -145.81 269.47 C-146.54 265.24, -146.86 261.14, -146.29 255.5 C-145.72 249.87, -147.55 248.42, -142.4 235.67 C-137.24 222.92, -120.98 192.31, -115.35 179 C-109.72 165.69, -109.14 162.35, -108.61 155.81 C-108.08 149.28, -110.79 144.18, -112.17 139.78 C-113.56 135.39, -114.75 133.11, -116.93 129.46 C-119.11 125.81, -117.99 125.6, -125.27 117.89 C-132.56 110.17, -153.38 91.3, -160.64 83.18 C-167.89 75.06, -164.86 75.34, -168.83 69.17 C-172.8 62.99, -181.52 52.2, -184.46 46.14 C-187.39 40.09, -185.28 37.63, -186.45 32.83 C-187.63 28.03, -190.64 23.74, -191.51 17.34 C-192.39 10.93, -192.06 0.04, -191.72 -5.61 C-191.38 -11.25, -190.64 -12, -189.48 -16.56 C-188.32 -21.11, -187.06 -27.96, -184.74 -32.95 C-182.41 -37.94, -178.85 -42.98, -175.52 -46.51 C-172.2 -50.04, -168.78 -51.27, -164.77 -54.12 C-160.76 -56.98, -155.12 -61.23, -151.47 -63.63 C-147.81 -66.04, -146.27 -67.61, -142.83 -68.56 C-139.39 -69.52, -135.09 -69.24, -130.81 -69.39 C-126.54 -69.53, -120.91 -69.69, -117.18 -69.42 C-113.45 -69.14, -111.67 -68.75, -108.44 -67.74 C-105.21 -66.73, -102.69 -67.22, -97.8 -63.36 C-92.91 -59.49, -83.21 -48.97, -79.09 -44.54 C-74.97 -40.11, -74.86 -40.09, -73.07 -36.76 C-71.29 -33.42, -70.24 -36.13, -68.39 -24.54 C-66.54 -12.95, -62.71 18.08, -61.98 32.78 C-61.25 47.47, -64.23 56.2, -64.02 63.63 C-63.82 71.06, -62.12 73.61, -60.77 77.35 C-59.43 81.08, -57.49 83.64, -55.96 86.04 C-54.44 88.43, -54.25 89.64, -51.65 91.72 C-49.05 93.79, -43.72 96.85, -40.35 98.49 C-36.99 100.13, -34.37 100.87, -31.46 101.56 C-28.55 102.25, -25.2 102.6, -22.89 102.65 C-20.57 102.71, -20.75 102.59, -17.58 101.91 C-14.41 101.22, -6.87 99.1, -3.86 98.56 C-0.86 98.02, -0.27 99.27, 0.44 98.69 C1.14 98.12, -0.16 97.25, 0.37 95.11 C0.9 92.96, 3.92 89.46, 3.62 85.84 C3.32 82.21, 1.66 81.82, -1.42 73.34 C-4.5 64.86, -12.84 42.78, -14.88 34.93 C-16.91 27.09, -13.99 28.24, -13.63 26.28 C-13.27 24.32, -13.53 25.79, -12.73 23.17 C-11.93 20.55, -11.08 13.59, -8.84 10.58 C-6.6 7.57, -0.65 6.69, 0.73 5.13 C2.1 3.56, -0.78 2.39, -0.59 1.19" stroke="none" stroke-width="0" fill="#a5d8ff" fill-rule="evenodd"></path><path fill="#1e1e1e" d="M 2.47,-0.87 Q 2.47,-0.87 4.77,5.58 7.07,12.04 11.53,19.45 15.99,26.85 20.70,32.68 25.41,38.50 31.41,43.13 37.41,47.76 43.67,50.67 49.94,53.58 56.80,54.49 63.66,55.39 71.59,54.53 79.52,53.66 88.78,50.48 98.04,47.30 109.30,42.09 120.56,36.88 132.73,31.20 144.89,25.52 157.71,19.93 170.54,14.33 183.81,9.49 197.08,4.64 209.96,0.85 222.84,-2.94 236.31,-5.44 249.79,-7.93 264.06,-9.29 278.33,-10.64 292.44,-9.91 306.56,-9.19 319.54,-6.85 332.52,-4.51 344.08,-0.30 355.64,3.90 365.08,8.90 374.52,13.90 382.37,19.69 390.22,25.49 395.86,32.14 401.50,38.80 405.14,46.42 408.77,54.03 411.44,62.19 414.12,70.34 417.77,78.50 421.42,86.67 425.05,92.30 428.67,97.94 435.74,103.71 442.80,109.49 457.41,115.91 472.02,122.33 487.21,126.22 502.40,130.10 517.17,132.62 531.94,135.15 545.69,136.94 559.44,138.73 568.33,139.93 577.21,141.12 587.33,142.64 597.45,144.16 607.87,146.40 618.28,148.64 627.77,152.38 637.26,156.12 645.03,161.12 652.81,166.11 658.32,172.63 663.83,179.14 667.12,188.06 670.42,196.99 671.51,207.69 672.60,218.39 671.74,230.36 670.89,242.33 668.20,255.39 665.51,268.46 661.62,281.67 657.73,294.87 652.75,308.15 647.77,321.43 641.29,334.21 634.82,346.99 626.97,358.27 619.12,369.55 610.54,379.01 601.96,388.47 593.21,396.00 584.46,403.53 575.01,409.25 565.56,414.98 555.10,419.17 544.64,423.37 534.32,425.61 524.00,427.85 513.65,428.80 503.30,429.74 493.52,429.71 483.75,429.68 473.55,428.06 463.35,426.45 452.83,422.69 442.31,418.93 432.47,413.99 422.64,409.05 413.24,403.18 403.84,397.31 394.90,392.13 385.96,386.96 376.61,382.34 367.26,377.73 357.61,373.93 347.95,370.13 337.94,367.68 327.93,365.24 317.19,364.35 306.46,363.47 295.33,364.94 284.20,366.41 272.82,370.01 261.44,373.61 250.52,379.10 239.60,384.60 229.36,390.80 219.12,397.00 209.79,403.77 200.46,410.53 191.54,416.62 182.62,422.70 173.33,428.47 164.04,434.24 154.52,438.77 145.00,443.29 135.12,446.67 125.24,450.06 114.74,452.10 104.25,454.13 93.39,455.00 82.53,455.86 71.51,455.51 60.49,455.15 48.95,453.40 37.42,451.65 25.82,448.44 14.22,445.23 2.68,441.41 -8.85,437.60 -20.27,433.09 -31.69,428.57 -42.21,423.46 -52.73,418.35 -62.58,412.40 -72.44,406.45 -81.62,399.10 -90.79,391.75 -98.51,383.36 -106.23,374.97 -112.74,365.27 -119.25,355.56 -124.20,345.31 -129.16,335.06 -132.73,325.03 -136.29,315.00 -138.81,305.82 -141.34,296.63 -142.99,288.36 -144.65,280.10 -145.37,272.75 -146.08,265.40 -145.52,256.94 -144.95,248.48 -142.36,239.40 -139.78,230.31 -137.66,224.46 -135.55,218.62 -132.90,212.63 -130.26,206.65 -127.86,201.13 -125.46,195.62 -123.29,190.41 -121.13,185.21 -119.39,179.51 -117.65,173.82 -116.49,167.89 -115.33,161.96 -115.28,155.60 -115.23,149.24 -116.46,143.56 -117.69,137.88 -120.71,131.92 -123.72,125.95 -127.93,120.63 -132.14,115.31 -137.11,109.55 -142.08,103.79 -147.35,97.89 -152.63,91.99 -157.65,85.84 -162.67,79.68 -167.00,73.57 -171.32,67.45 -175.32,61.39 -179.32,55.34 -182.52,49.06 -185.72,42.78 -187.98,36.10 -190.25,29.43 -191.37,22.58 -192.50,15.73 -192.97,9.34 -193.44,2.96 -193.06,-3.33 -192.68,-9.63 -190.74,-16.26 -188.80,-22.89 -185.32,-29.69 -181.84,-36.49 -177.24,-42.36 -172.65,-48.24 -167.60,-52.96 -162.54,-57.67 -157.28,-61.32 -152.02,-64.96 -146.01,-67.45 -140.00,-69.94 -133.82,-71.02 -127.64,-72.10 -121.64,-71.68 -115.64,-71.25 -110.29,-69.26 -104.93,-67.27 -99.97,-64.03 -95.01,-60.78 -90.42,-56.76 -85.83,-52.74 -82.04,-47.88 -78.26,-43.01 -75.30,-37.37 -72.34,-31.74 -70.47,-25.00 -68.59,-18.27 -67.52,-11.34 -66.44,-4.42 -65.42,2.34 -64.40,9.11 -63.53,15.89 -62.67,22.68 -62.01,30.05 -61.35,37.43 -60.78,44.73 -60.21,52.03 -59.26,58.63 -58.31,65.23 -56.80,70.48 -55.28,75.73 -53.00,79.94 -50.72,84.14 -47.74,87.35 -44.76,90.57 -40.93,92.98 -37.11,95.40 -33.15,96.98 -29.20,98.56 -25.39,99.20 -21.57,99.84 -17.95,99.70 -14.33,99.56 -11.31,98.95 -8.29,98.35 -5.42,96.25 -2.55,94.14 -1.91,92.03 -1.28,89.92 -1.26,87.49 -1.25,85.06 -1.49,82.30 -1.74,79.53 -2.83,75.06 -3.92,70.58 -4.80,67.94 -5.67,65.30 -6.73,62.82 -7.79,60.34 -8.85,57.62 -9.90,54.91 -10.93,52.17 -11.95,49.44 -12.95,46.86 -13.95,44.28 -14.69,42.12 -15.42,39.96 -16.33,35.67 -17.23,31.39 -16.75,28.12 -16.28,24.86 -15.15,21.79 -14.02,18.73 -12.60,16.31 -11.19,13.90 -9.49,11.91 -7.79,9.93 -5.93,8.29 -4.06,6.66 -3.30,3.00 -2.54,-0.66 -2.37,-1.04 -2.19,-1.43 -1.91,-1.75 -1.62,-2.06 -1.25,-2.26 -0.88,-2.47 -0.46,-2.55 -0.04,-2.62 0.37,-2.56 0.79,-2.50 1.17,-2.31 1.55,-2.11 1.85,-1.81 2.14,-1.51 2.33,-1.12 2.51,-0.74 2.57,-0.32 2.62,0.09 2.54,0.51 2.45,0.93 2.24,1.29 2.02,1.66 1.71,1.94 1.39,2.22 0.99,2.39 0.60,2.55 0.18,2.58 -0.24,2.61 -0.65,2.50 -1.06,2.40 -1.41,2.16 -1.77,1.93 -2.03,1.60 -2.29,1.26 -2.44,0.86 -2.58,0.46 -2.59,0.04 -2.59,-0.38 -2.46,-0.78 -2.34,-1.19 -2.08,-1.53 -1.83,-1.87 -1.48,-2.12 -1.14,-2.36 -0.73,-2.48 -0.32,-2.60 0.09,-2.59 0.52,-2.57 0.91,-2.42 1.31,-2.27 1.64,-2.00 1.97,-1.73 2.19,-1.37 2.42,-1.01 2.52,-0.59 2.62,-0.18 2.58,0.23 2.54,0.66 2.54,0.66 2.54,0.66 1.12,5.40 -0.29,10.14 -2.06,11.76 -3.83,13.38 -5.26,14.99 -6.69,16.60 -7.90,18.60 -9.11,20.59 -10.10,23.15 -11.10,25.72 -11.56,28.27 -12.02,30.82 -11.23,34.54 -10.45,38.27 -9.75,40.32 -9.06,42.38 -8.04,44.99 -7.03,47.60 -6.02,50.30 -5.01,53.00 -3.98,55.64 -2.96,58.29 -1.82,60.97 -0.68,63.65 0.21,66.40 1.12,69.15 1.89,71.88 2.66,74.62 3.07,76.85 3.48,79.08 3.74,82.15 4.00,85.21 3.84,88.39 3.69,91.56 2.58,94.52 1.46,97.48 -0.34,99.39 -2.16,101.29 -4.71,102.40 -7.26,103.50 -10.71,104.15 -14.15,104.81 -18.31,104.91 -22.46,105.02 -26.80,104.23 -31.14,103.43 -35.54,101.63 -39.94,99.82 -44.27,96.98 -48.61,94.14 -51.97,90.39 -55.33,86.65 -57.82,81.93 -60.32,77.20 -61.92,71.59 -63.51,65.98 -64.48,59.21 -65.45,52.43 -66.01,45.17 -66.58,37.90 -67.23,30.62 -67.88,23.34 -68.74,16.62 -69.60,9.89 -70.62,3.13 -71.63,-3.62 -72.64,-10.25 -73.66,-16.88 -75.33,-23.11 -77.01,-29.33 -79.72,-34.57 -82.42,-39.81 -85.86,-44.31 -89.31,-48.81 -93.61,-52.61 -97.91,-56.41 -102.37,-59.39 -106.83,-62.37 -111.47,-64.20 -116.11,-66.03 -121.45,-66.48 -126.80,-66.92 -132.42,-66.00 -138.03,-65.07 -143.55,-62.85 -149.07,-60.62 -154.02,-57.22 -158.97,-53.82 -163.75,-49.40 -168.53,-44.99 -172.85,-39.53 -177.18,-34.07 -180.47,-27.72 -183.77,-21.37 -185.60,-15.32 -187.44,-9.28 -187.82,-3.34 -188.20,2.58 -187.76,8.74 -187.31,14.89 -186.29,21.33 -185.27,27.76 -183.15,34.08 -181.03,40.40 -177.98,46.43 -174.93,52.45 -170.98,58.43 -167.03,64.42 -162.82,70.39 -158.60,76.37 -153.66,82.43 -148.71,88.49 -143.41,94.43 -138.10,100.36 -133.05,106.21 -128.00,112.07 -123.52,117.83 -119.03,123.59 -115.80,130.17 -112.57,136.75 -111.27,143.01 -109.98,149.27 -110.08,156.11 -110.18,162.96 -111.40,169.16 -112.62,175.36 -114.45,181.29 -116.28,187.22 -118.46,192.47 -120.64,197.71 -123.05,203.24 -125.45,208.78 -128.03,214.59 -130.61,220.41 -132.67,226.08 -134.73,231.76 -137.22,240.32 -139.71,248.87 -140.28,256.89 -140.85,264.91 -140.18,271.99 -139.50,279.07 -137.89,287.16 -136.27,295.24 -133.80,304.25 -131.34,313.25 -127.88,323.01 -124.43,332.78 -119.65,342.71 -114.87,352.65 -108.62,362.04 -102.36,371.43 -94.93,379.55 -87.50,387.66 -78.61,394.81 -69.72,401.96 -60.07,407.79 -50.43,413.63 -40.09,418.66 -29.75,423.69 -18.48,428.15 -7.20,432.61 4.20,436.39 15.62,440.17 26.92,443.31 38.21,446.46 49.44,448.18 60.66,449.90 71.39,450.26 82.12,450.63 92.69,449.80 103.26,448.97 113.40,447.03 123.55,445.09 133.15,441.81 142.75,438.54 152.01,434.16 161.27,429.78 170.47,424.07 179.66,418.36 188.52,412.32 197.38,406.28 206.89,399.39 216.40,392.51 226.82,386.21 237.24,379.91 248.55,374.25 259.86,368.60 271.68,364.90 283.51,361.21 295.19,359.72 306.87,358.23 318.02,359.18 329.17,360.13 339.52,362.69 349.88,365.24 359.73,369.13 369.59,373.02 379.09,377.71 388.59,382.41 397.61,387.63 406.63,392.86 415.81,398.61 425.00,404.36 434.55,409.18 444.09,413.99 454.14,417.63 464.19,421.27 473.98,422.85 483.78,424.43 493.30,424.47 502.83,424.51 512.86,423.61 522.90,422.71 532.80,420.60 542.70,418.49 552.78,414.48 562.85,410.47 571.95,405.01 581.05,399.54 589.56,392.24 598.08,384.94 606.44,375.74 614.81,366.54 622.47,355.58 630.14,344.61 636.49,332.09 642.85,319.58 647.77,306.48 652.69,293.39 656.53,280.39 660.36,267.40 663.00,254.67 665.65,241.94 666.51,230.41 667.37,218.89 666.42,208.81 665.47,198.73 662.60,190.57 659.74,182.41 654.82,176.45 649.90,170.48 642.60,165.74 635.30,161.00 626.23,157.38 617.17,153.77 606.92,151.56 596.67,149.35 586.59,147.84 576.51,146.33 567.64,145.13 558.76,143.94 544.91,142.13 531.06,140.32 516.07,137.76 501.09,135.19 485.50,131.16 469.90,127.14 454.70,120.35 439.50,113.56 431.90,107.20 424.30,100.83 420.46,94.82 416.63,88.81 412.88,80.40 409.13,71.98 406.57,64.12 404.01,56.26 400.74,49.20 397.46,42.14 392.26,35.92 387.07,29.69 379.56,24.11 372.05,18.53 362.94,13.68 353.82,8.83 342.70,4.74 331.57,0.65 318.93,-1.64 306.28,-3.95 292.55,-4.68 278.82,-5.41 264.78,-4.09 250.74,-2.77 237.53,-0.33 224.32,2.09 211.60,5.83 198.88,9.58 185.76,14.36 172.64,19.15 159.88,24.71 147.12,30.28 134.94,35.97 122.76,41.65 111.25,46.96 99.73,52.27 89.91,55.58 80.09,58.88 71.53,59.74 62.96,60.60 55.37,59.48 47.77,58.35 40.99,55.14 34.20,51.92 27.77,46.87 21.34,41.82 16.41,35.69 11.49,29.56 6.81,21.69 2.12,13.82 -0.17,7.35 -2.47,0.87 -2.54,0.57 -2.61,0.26 -2.60,-0.05 -2.60,-0.37 -2.51,-0.67 -2.43,-0.98 -2.28,-1.25 -2.13,-1.53 -1.91,-1.76 -1.70,-2.00 -1.43,-2.17 -1.17,-2.35 -0.87,-2.45 -0.57,-2.56 -0.26,-2.59 0.05,-2.62 0.36,-2.58 0.68,-2.53 0.97,-2.41 1.26,-2.29 1.52,-2.11 1.78,-1.92 1.98,-1.68 2.19,-1.44 2.33,-1.16 2.47,-0.87 2.47,-0.87 L 2.47,-0.87 Z"></path></g></svg>