<?xml version="1.0" encoding="UTF-8" standalone="no"?>
<!DOCTYPE svg PUBLIC "-//W3C//DTD SVG 1.1//EN"
 "http://www.w3.org/Graphics/SVG/1.1/DTD/svg11.dtd">
<!-- Generated by graphviz version 2.43.0 (0)
 -->
<!-- Title: NoFaceC3 Pages: 1 -->
<svg width="147pt" height="260pt"
 viewBox="0.00 0.00 147.24 260.00" xmlns="http://www.w3.org/2000/svg" xmlns:xlink="http://www.w3.org/1999/xlink">
<g id="page0,1_graph0" class="graph" transform="scale(1 1) rotate(0) translate(4 256)">
<title>NoFaceC3</title>
<!-- 0 -->
<g id="node1" class="node">
<title>0</title>
<ellipse fill="white" stroke="red" cx="99" cy="-234" rx="27" ry="18"/>
<text text-anchor="middle" x="99" y="-230.3" font-family="Times,serif" font-size="14.00">0</text>
</g>
<!-- 1 -->
<g id="node2" class="node">
<title>1</title>
<ellipse fill="white" stroke="red" cx="27" cy="-162" rx="27" ry="18"/>
<text text-anchor="middle" x="27" y="-158.3" font-family="Times,serif" font-size="14.00">1</text>
</g>
<!-- 0&#45;&#45;1 -->
<g id="edge1" class="edge">
<title>0&#45;&#45;1</title>
<path fill="none" stroke="#777777" stroke-width="3" d="M84.43,-218.83C72.02,-206.77 54.27,-189.51 41.8,-177.38"/>
</g>
<!-- 4 -->
<g id="node5" class="node">
<title>4</title>
<ellipse fill="white" stroke="red" cx="99" cy="-162" rx="27" ry="18"/>
<text text-anchor="middle" x="99" y="-158.3" font-family="Times,serif" font-size="14.00">4</text>
</g>
<!-- 0&#45;&#45;4 -->
<g id="edge6" class="edge">
<title>0&#45;&#45;4</title>
<path fill="none" stroke="#777777" stroke-width="3" d="M99,-215.7C99,-204.85 99,-190.92 99,-180.1"/>
</g>
<!-- 2 -->
<g id="node3" class="node">
<title>2</title>
<ellipse fill="white" stroke="red" cx="82" cy="-90" rx="27" ry="18"/>
<text text-anchor="middle" x="82" y="-86.3" font-family="Times,serif" font-size="14.00">2</text>
</g>
<!-- 1&#45;&#45;2 -->
<g id="edge2" class="edge">
<title>1&#45;&#45;2</title>
<path fill="none" stroke="#777777" stroke-width="3" d="M38.93,-145.81C48.16,-134.07 60.87,-117.89 70.09,-106.16"/>
</g>
<!-- 2&#45;&#45;0 -->
<g id="edge3" class="edge">
<title>2&#45;&#45;0</title>
<path fill="none" stroke="#777777" stroke-width="3" d="M100.49,-103.42C112.83,-112.9 128.03,-127.17 135,-144 141.12,-158.78 139.7,-164.71 135,-180 130.62,-194.25 120.96,-208.1 112.75,-218.07"/>
</g>
<!-- 3 -->
<g id="node4" class="node">
<title>3</title>
<ellipse fill="white" stroke="red" cx="54" cy="-18" rx="27" ry="18"/>
<text text-anchor="middle" x="54" y="-14.3" font-family="Times,serif" font-size="14.00">3</text>
</g>
<!-- 2&#45;&#45;3 -->
<g id="edge4" class="edge">
<title>2&#45;&#45;3</title>
<path fill="none" stroke="#777777" stroke-width="3" d="M75.36,-72.41C70.9,-61.25 65.04,-46.6 60.59,-35.47"/>
</g>
<!-- 3&#45;&#45;1 -->
<g id="edge5" class="edge">
<title>3&#45;&#45;1</title>
<path fill="none" stroke="#777777" stroke-width="3" d="M50.73,-36.19C45.53,-63.52 35.45,-116.58 30.26,-143.87"/>
</g>
</g>
</svg>
