<svg version="1.1" xmlns="http://www.w3.org/2000/svg" viewBox="0 0 579.6698048909504 600.333333333333" width="1739.0094146728513" height="1800.999999999999">
  <!-- svg-source:excalidraw -->
  
  <defs>
    <style class="style-fonts">
      @font-face {
        font-family: "Virgil";
        src: url("https://excalidraw.com/Virgil.woff2");
      }
      @font-face {
        font-family: "Cascadia";
        src: url("https://excalidraw.com/Cascadia.woff2");
      }
      @font-face {
        font-family: "Assistant";
        src: url("https://excalidraw.com/Assistant-Regular.woff2");
      }
    </style>
    
  </defs>
  <g transform="translate(158.99999999999977 75.99999999999997) rotate(0 33.83333333333337 106.33333333333331)" stroke="none"><path fill="#777777" d="M 0.60,-1.16 Q 0.60,-1.16 3.57,0.36 6.54,1.89 8.63,2.82 10.72,3.74 13.81,4.99 16.90,6.25 20.42,7.64 23.94,9.04 27.99,10.39 32.04,11.74 36.05,12.88 40.06,14.03 43.94,14.89 47.82,15.76 51.49,16.51 55.15,17.26 58.57,18.16 62.00,19.07 65.65,20.12 69.31,21.18 72.72,22.41 76.13,23.63 79.59,25.02 83.06,26.40 86.45,27.86 89.85,29.31 92.96,30.91 96.06,32.50 98.78,34.36 101.50,36.23 103.94,38.50 106.39,40.77 108.44,43.52 110.48,46.28 112.13,49.31 113.78,52.34 115.15,55.36 116.53,58.38 117.79,61.60 119.04,64.81 120.44,68.37 121.83,71.92 123.28,75.44 124.73,78.95 126.30,82.54 127.87,86.14 129.12,89.32 130.38,92.51 131.40,95.61 132.42,98.72 133.15,102.30 133.89,105.88 134.39,109.32 134.89,112.77 135.30,116.64 135.71,120.51 135.69,124.52 135.67,128.52 135.08,132.77 134.49,137.02 133.46,141.16 132.44,145.30 131.13,149.09 129.82,152.89 128.29,156.63 126.77,160.36 124.45,164.05 122.13,167.73 118.51,171.83 114.90,175.93 110.95,179.69 107.01,183.45 103.31,186.68 99.62,189.91 96.62,192.52 93.62,195.13 90.78,197.32 87.95,199.50 84.68,201.52 81.42,203.53 77.49,205.27 73.56,207.01 70.64,208.13 67.73,209.25 63.16,210.32 58.59,211.40 53.45,212.04 48.32,212.69 42.67,213.06 37.03,213.43 31.75,213.59 26.47,213.74 21.33,213.62 16.18,213.49 11.77,213.15 7.36,212.81 3.36,212.28 -0.64,211.74 -3.87,211.23 -7.11,210.72 -10.35,209.91 -13.60,209.11 -16.96,207.78 -20.31,206.46 -23.73,204.32 -27.14,202.18 -30.46,199.22 -33.77,196.26 -36.71,193.17 -39.65,190.08 -42.06,187.32 -44.46,184.57 -46.52,182.26 -48.58,179.96 -50.44,177.71 -52.29,175.46 -54.24,172.86 -56.19,170.26 -58.00,167.39 -59.81,164.53 -61.28,161.34 -62.75,158.15 -63.95,154.96 -65.14,151.77 -66.05,148.56 -66.95,145.35 -67.44,141.61 -67.93,137.88 -68.14,134.08 -68.34,130.28 -68.24,126.23 -68.13,122.19 -67.80,118.35 -67.46,114.50 -66.93,110.84 -66.40,107.17 -65.79,103.60 -65.19,100.03 -64.64,96.70 -64.10,93.37 -63.68,90.35 -63.26,87.32 -62.98,84.70 -62.71,82.09 -62.59,79.85 -62.48,77.62 -62.24,75.18 -61.99,72.75 -61.60,70.16 -61.20,67.57 -60.65,65.01 -60.09,62.45 -59.46,60.19 -58.84,57.93 -58.19,55.90 -57.53,53.88 -56.66,51.91 -55.78,49.94 -54.83,48.13 -53.87,46.33 -52.89,44.60 -51.91,42.87 -50.90,41.34 -49.88,39.81 -48.88,38.39 -47.87,36.97 -46.98,35.63 -46.09,34.28 -45.24,32.87 -44.40,31.45 -43.35,29.77 -42.31,28.10 -41.07,26.47 -39.82,24.85 -38.56,23.05 -37.29,21.26 -35.79,19.14 -34.29,17.03 -32.66,15.04 -31.04,13.05 -29.67,11.53 -28.30,10.00 -27.01,8.84 -25.71,7.67 -24.57,6.78 -23.43,5.89 -22.01,4.85 -20.58,3.81 -19.16,2.69 -17.74,1.58 -16.21,0.79 -14.68,0.00 -12.62,-0.40 -10.55,-0.81 -8.71,-0.88 -6.86,-0.95 -5.28,-0.57 -3.70,-0.19 -2.42,-0.41 -1.14,-0.63 -1.01,-0.80 -0.88,-0.97 -0.70,-1.08 -0.52,-1.20 -0.32,-1.25 -0.11,-1.30 0.09,-1.29 0.30,-1.27 0.50,-1.19 0.69,-1.11 0.85,-0.97 1.01,-0.83 1.12,-0.64 1.22,-0.46 1.27,-0.25 1.31,-0.04 1.28,0.16 1.25,0.37 1.16,0.56 1.07,0.75 0.92,0.90 0.77,1.06 0.58,1.15 0.39,1.25 0.18,1.28 -0.02,1.31 -0.23,1.27 -0.44,1.23 -0.62,1.13 -0.81,1.03 -0.95,0.87 -1.10,0.71 -1.18,0.52 -1.27,0.32 -1.29,0.11 -1.30,-0.09 -1.26,-0.30 -1.21,-0.50 -1.09,-0.68 -0.98,-0.86 -0.82,-1.00 -0.65,-1.13 -0.45,-1.21 -0.25,-1.28 -0.04,-1.29 0.16,-1.30 0.37,-1.24 0.57,-1.18 0.74,-1.05 0.92,-0.93 1.04,-0.76 1.17,-0.59 1.23,-0.39 1.29,-0.18 1.29,0.02 1.29,0.23 1.22,0.43 1.14,0.63 1.14,0.63 1.14,0.63 -1.59,1.49 -4.34,2.34 -5.58,2.01 -6.83,1.67 -8.55,1.73 -10.27,1.79 -11.92,2.08 -13.58,2.38 -14.92,3.07 -16.27,3.76 -17.63,4.83 -18.99,5.90 -20.40,6.93 -21.82,7.97 -22.89,8.80 -23.96,9.62 -25.15,10.69 -26.35,11.76 -27.68,13.24 -29.01,14.71 -30.58,16.63 -32.15,18.55 -33.65,20.66 -35.15,22.77 -36.44,24.61 -37.74,26.45 -38.91,27.97 -40.08,29.49 -41.11,31.14 -42.14,32.80 -43.02,34.27 -43.90,35.73 -44.81,37.11 -45.73,38.49 -46.71,39.88 -47.69,41.26 -48.66,42.72 -49.63,44.17 -50.59,45.86 -51.55,47.56 -52.47,49.28 -53.38,51.01 -54.21,52.85 -55.03,54.69 -55.67,56.66 -56.31,58.63 -56.92,60.82 -57.52,63.00 -58.07,65.49 -58.61,67.97 -58.99,70.49 -59.38,73.01 -59.62,75.38 -59.86,77.75 -59.98,80.06 -60.10,82.36 -60.37,85.02 -60.65,87.68 -61.08,90.74 -61.50,93.80 -62.05,97.13 -62.60,100.47 -63.20,104.01 -63.80,107.55 -64.32,111.14 -64.85,114.73 -65.18,118.50 -65.51,122.26 -65.61,126.20 -65.72,130.14 -65.52,133.84 -65.33,137.54 -64.87,141.09 -64.42,144.64 -63.55,147.75 -62.69,150.85 -61.52,153.95 -60.36,157.05 -58.97,160.09 -57.59,163.13 -55.84,165.91 -54.09,168.68 -52.18,171.24 -50.27,173.79 -48.45,176.00 -46.63,178.20 -44.55,180.52 -42.48,182.84 -40.12,185.56 -37.75,188.27 -34.88,191.29 -32.01,194.30 -28.88,197.13 -25.74,199.97 -22.54,201.99 -19.34,204.02 -16.15,205.29 -12.96,206.56 -9.83,207.34 -6.70,208.12 -3.49,208.63 -0.29,209.14 3.63,209.67 7.57,210.19 11.91,210.53 16.25,210.87 21.32,210.99 26.39,211.12 31.63,210.96 36.86,210.81 42.43,210.45 47.99,210.09 52.99,209.46 57.99,208.84 62.39,207.82 66.79,206.80 69.64,205.71 72.50,204.61 76.27,202.95 80.05,201.29 83.20,199.36 86.34,197.42 89.12,195.28 91.90,193.15 94.90,190.54 97.89,187.93 101.54,184.74 105.20,181.55 109.06,177.87 112.93,174.19 116.42,170.26 119.91,166.32 122.13,162.84 124.34,159.36 125.84,155.70 127.33,152.03 128.61,148.35 129.89,144.66 130.89,140.66 131.89,136.66 132.47,132.58 133.05,128.50 133.07,124.64 133.09,120.78 132.69,116.96 132.30,113.15 131.81,109.78 131.32,106.40 130.62,102.97 129.92,99.53 128.93,96.50 127.93,93.47 126.70,90.33 125.46,87.19 123.88,83.57 122.30,79.95 120.84,76.42 119.38,72.88 117.99,69.32 116.60,65.77 115.37,62.62 114.13,59.47 112.80,56.53 111.47,53.59 109.92,50.71 108.36,47.83 106.48,45.26 104.59,42.68 102.30,40.54 100.01,38.39 97.43,36.61 94.86,34.84 91.84,33.28 88.81,31.73 85.45,30.29 82.08,28.84 78.66,27.47 75.24,26.10 71.91,24.90 68.58,23.70 64.95,22.65 61.32,21.61 57.97,20.72 54.63,19.83 50.94,19.08 47.25,18.32 43.29,17.44 39.33,16.55 35.27,15.39 31.21,14.23 27.09,12.86 22.97,11.48 19.44,10.08 15.91,8.68 12.78,7.41 9.66,6.14 7.50,5.19 5.33,4.23 2.36,2.70 -0.60,1.16 -0.73,1.07 -0.86,0.98 -0.96,0.87 -1.07,0.75 -1.15,0.61 -1.22,0.47 -1.26,0.32 -1.30,0.16 -1.30,0.00 -1.30,-0.14 -1.26,-0.30 -1.23,-0.45 -1.15,-0.59 -1.08,-0.73 -0.98,-0.85 -0.87,-0.97 -0.74,-1.06 -0.61,-1.15 -0.47,-1.21 -0.32,-1.27 -0.16,-1.29 -0.00,-1.31 0.14,-1.29 0.30,-1.27 0.45,-1.22 0.60,-1.16 0.60,-1.16 L 0.60,-1.16 Z"></path></g><g transform="translate(428.9999999999998 71.6666666666666) rotate(0 33.83333333333337 106.33333333333331)" stroke="none"><path fill="#777777" d="M 0.60,-1.16 Q 0.60,-1.16 3.57,0.36 6.54,1.89 8.63,2.82 10.72,3.74 13.81,4.99 16.90,6.25 20.42,7.64 23.94,9.04 27.99,10.39 32.04,11.74 36.05,12.88 40.06,14.03 43.94,14.89 47.82,15.76 51.49,16.51 55.15,17.26 58.57,18.16 62.00,19.07 65.65,20.12 69.31,21.18 72.72,22.41 76.13,23.63 79.59,25.02 83.06,26.40 86.45,27.86 89.85,29.31 92.96,30.91 96.06,32.50 98.78,34.36 101.50,36.23 103.94,38.50 106.39,40.77 108.44,43.52 110.48,46.28 112.13,49.31 113.78,52.34 115.15,55.36 116.53,58.38 117.79,61.60 119.04,64.81 120.44,68.37 121.83,71.92 123.28,75.44 124.73,78.95 126.30,82.54 127.87,86.14 129.12,89.32 130.38,92.51 131.40,95.61 132.42,98.72 133.15,102.30 133.89,105.88 134.39,109.32 134.89,112.77 135.30,116.64 135.71,120.51 135.69,124.52 135.67,128.52 135.08,132.77 134.49,137.02 133.46,141.16 132.44,145.30 131.13,149.09 129.82,152.89 128.29,156.63 126.77,160.36 124.45,164.05 122.13,167.73 118.51,171.83 114.90,175.93 110.95,179.69 107.01,183.45 103.31,186.68 99.62,189.91 96.62,192.52 93.62,195.13 90.78,197.32 87.95,199.50 84.68,201.52 81.42,203.53 77.49,205.27 73.56,207.01 70.64,208.13 67.73,209.25 63.16,210.32 58.59,211.40 53.45,212.04 48.32,212.69 42.67,213.06 37.03,213.43 31.75,213.59 26.47,213.74 21.33,213.62 16.18,213.49 11.77,213.15 7.36,212.81 3.36,212.28 -0.64,211.74 -3.87,211.23 -7.11,210.72 -10.35,209.91 -13.60,209.11 -16.96,207.78 -20.31,206.46 -23.73,204.32 -27.14,202.18 -30.46,199.22 -33.77,196.26 -36.71,193.17 -39.65,190.08 -42.06,187.32 -44.46,184.57 -46.52,182.26 -48.58,179.96 -50.44,177.71 -52.29,175.46 -54.24,172.86 -56.19,170.26 -58.00,167.39 -59.81,164.53 -61.28,161.34 -62.75,158.15 -63.95,154.96 -65.14,151.77 -66.05,148.56 -66.95,145.35 -67.44,141.61 -67.93,137.88 -68.14,134.08 -68.34,130.28 -68.24,126.23 -68.13,122.19 -67.80,118.35 -67.46,114.50 -66.93,110.84 -66.40,107.17 -65.79,103.60 -65.19,100.03 -64.64,96.70 -64.10,93.37 -63.68,90.35 -63.26,87.32 -62.98,84.70 -62.71,82.09 -62.59,79.85 -62.48,77.62 -62.24,75.18 -61.99,72.75 -61.60,70.16 -61.20,67.57 -60.65,65.01 -60.09,62.45 -59.46,60.19 -58.84,57.93 -58.19,55.90 -57.53,53.88 -56.66,51.91 -55.78,49.94 -54.83,48.13 -53.87,46.33 -52.89,44.60 -51.91,42.87 -50.90,41.34 -49.88,39.81 -48.88,38.39 -47.87,36.97 -46.98,35.63 -46.09,34.28 -45.24,32.87 -44.40,31.45 -43.35,29.77 -42.31,28.10 -41.07,26.47 -39.82,24.85 -38.56,23.05 -37.29,21.26 -35.79,19.14 -34.29,17.03 -32.66,15.04 -31.04,13.05 -29.67,11.53 -28.30,10.00 -27.01,8.84 -25.71,7.67 -24.57,6.78 -23.43,5.89 -22.01,4.85 -20.58,3.81 -19.16,2.69 -17.74,1.58 -16.21,0.79 -14.68,0.00 -12.62,-0.40 -10.55,-0.81 -8.71,-0.88 -6.86,-0.95 -5.28,-0.57 -3.70,-0.19 -2.42,-0.41 -1.14,-0.63 -1.01,-0.80 -0.88,-0.97 -0.70,-1.08 -0.52,-1.20 -0.32,-1.25 -0.11,-1.30 0.09,-1.29 0.30,-1.27 0.50,-1.19 0.69,-1.11 0.85,-0.97 1.01,-0.83 1.12,-0.64 1.22,-0.46 1.27,-0.25 1.31,-0.04 1.28,0.16 1.25,0.37 1.16,0.56 1.07,0.75 0.92,0.90 0.77,1.06 0.58,1.15 0.39,1.25 0.18,1.28 -0.02,1.31 -0.23,1.27 -0.44,1.23 -0.62,1.13 -0.81,1.03 -0.95,0.87 -1.10,0.71 -1.18,0.52 -1.27,0.32 -1.29,0.11 -1.30,-0.09 -1.26,-0.30 -1.21,-0.50 -1.09,-0.68 -0.98,-0.86 -0.82,-1.00 -0.65,-1.13 -0.45,-1.21 -0.25,-1.28 -0.04,-1.29 0.16,-1.30 0.37,-1.24 0.57,-1.18 0.74,-1.05 0.92,-0.93 1.04,-0.76 1.17,-0.59 1.23,-0.39 1.29,-0.18 1.29,0.02 1.29,0.23 1.22,0.43 1.14,0.63 1.14,0.63 1.14,0.63 -1.59,1.49 -4.34,2.34 -5.58,2.01 -6.83,1.67 -8.55,1.73 -10.27,1.79 -11.92,2.08 -13.58,2.38 -14.92,3.07 -16.27,3.76 -17.63,4.83 -18.99,5.90 -20.40,6.93 -21.82,7.97 -22.89,8.80 -23.96,9.62 -25.15,10.69 -26.35,11.76 -27.68,13.24 -29.01,14.71 -30.58,16.63 -32.15,18.55 -33.65,20.66 -35.15,22.77 -36.44,24.61 -37.74,26.45 -38.91,27.97 -40.08,29.49 -41.11,31.14 -42.14,32.80 -43.02,34.27 -43.90,35.73 -44.81,37.11 -45.73,38.49 -46.71,39.88 -47.69,41.26 -48.66,42.72 -49.63,44.17 -50.59,45.86 -51.55,47.56 -52.47,49.28 -53.38,51.01 -54.21,52.85 -55.03,54.69 -55.67,56.66 -56.31,58.63 -56.92,60.82 -57.52,63.00 -58.07,65.49 -58.61,67.97 -58.99,70.49 -59.38,73.01 -59.62,75.38 -59.86,77.75 -59.98,80.06 -60.10,82.36 -60.37,85.02 -60.65,87.68 -61.08,90.74 -61.50,93.80 -62.05,97.13 -62.60,100.47 -63.20,104.01 -63.80,107.55 -64.32,111.14 -64.85,114.73 -65.18,118.50 -65.51,122.26 -65.61,126.20 -65.72,130.14 -65.52,133.84 -65.33,137.54 -64.87,141.09 -64.42,144.64 -63.55,147.75 -62.69,150.85 -61.52,153.95 -60.36,157.05 -58.97,160.09 -57.59,163.13 -55.84,165.91 -54.09,168.68 -52.18,171.24 -50.27,173.79 -48.45,176.00 -46.63,178.20 -44.55,180.52 -42.48,182.84 -40.12,185.56 -37.75,188.27 -34.88,191.29 -32.01,194.30 -28.88,197.13 -25.74,199.97 -22.54,201.99 -19.34,204.02 -16.15,205.29 -12.96,206.56 -9.83,207.34 -6.70,208.12 -3.49,208.63 -0.29,209.14 3.63,209.67 7.57,210.19 11.91,210.53 16.25,210.87 21.32,210.99 26.39,211.12 31.63,210.96 36.86,210.81 42.43,210.45 47.99,210.09 52.99,209.46 57.99,208.84 62.39,207.82 66.79,206.80 69.64,205.71 72.50,204.61 76.27,202.95 80.05,201.29 83.20,199.36 86.34,197.42 89.12,195.28 91.90,193.15 94.90,190.54 97.89,187.93 101.54,184.74 105.20,181.55 109.06,177.87 112.93,174.19 116.42,170.26 119.91,166.32 122.13,162.84 124.34,159.36 125.84,155.70 127.33,152.03 128.61,148.35 129.89,144.66 130.89,140.66 131.89,136.66 132.47,132.58 133.05,128.50 133.07,124.64 133.09,120.78 132.69,116.96 132.30,113.15 131.81,109.78 131.32,106.40 130.62,102.97 129.92,99.53 128.93,96.50 127.93,93.47 126.70,90.33 125.46,87.19 123.88,83.57 122.30,79.95 120.84,76.42 119.38,72.88 117.99,69.32 116.60,65.77 115.37,62.62 114.13,59.47 112.80,56.53 111.47,53.59 109.92,50.71 108.36,47.83 106.48,45.26 104.59,42.68 102.30,40.54 100.01,38.39 97.43,36.61 94.86,34.84 91.84,33.28 88.81,31.73 85.45,30.29 82.08,28.84 78.66,27.47 75.24,26.10 71.91,24.90 68.58,23.70 64.95,22.65 61.32,21.61 57.97,20.72 54.63,19.83 50.94,19.08 47.25,18.32 43.29,17.44 39.33,16.55 35.27,15.39 31.21,14.23 27.09,12.86 22.97,11.48 19.44,10.08 15.91,8.68 12.78,7.41 9.66,6.14 7.50,5.19 5.33,4.23 2.36,2.70 -0.60,1.16 -0.73,1.07 -0.86,0.98 -0.96,0.87 -1.07,0.75 -1.15,0.61 -1.22,0.47 -1.26,0.32 -1.30,0.16 -1.30,0.00 -1.30,-0.14 -1.26,-0.30 -1.23,-0.45 -1.15,-0.59 -1.08,-0.73 -0.98,-0.85 -0.87,-0.97 -0.74,-1.06 -0.61,-1.15 -0.47,-1.21 -0.32,-1.27 -0.16,-1.29 -0.00,-1.31 0.14,-1.29 0.30,-1.27 0.45,-1.22 0.60,-1.16 0.60,-1.16 L 0.60,-1.16 Z"></path></g><g transform="translate(111.99999999999977 377.66666666666646) rotate(0 33.83333333333337 106.33333333333331)" stroke="none"><path fill="#777777" d="M 0.60,-1.16 Q 0.60,-1.16 3.57,0.36 6.54,1.89 8.63,2.82 10.72,3.74 13.81,4.99 16.90,6.25 20.42,7.64 23.94,9.04 27.99,10.39 32.04,11.74 36.05,12.88 40.06,14.03 43.94,14.89 47.82,15.76 51.49,16.51 55.15,17.26 58.57,18.16 62.00,19.07 65.65,20.12 69.31,21.18 72.72,22.41 76.13,23.63 79.59,25.02 83.06,26.40 86.45,27.86 89.85,29.31 92.96,30.91 96.06,32.50 98.78,34.36 101.50,36.23 103.94,38.50 106.39,40.77 108.44,43.52 110.48,46.28 112.13,49.31 113.78,52.34 115.15,55.36 116.53,58.38 117.79,61.60 119.04,64.81 120.44,68.37 121.83,71.92 123.28,75.44 124.73,78.95 126.30,82.54 127.87,86.14 129.12,89.32 130.38,92.51 131.40,95.61 132.42,98.72 133.15,102.30 133.89,105.88 134.39,109.32 134.89,112.77 135.30,116.64 135.71,120.51 135.69,124.52 135.67,128.52 135.08,132.77 134.49,137.02 133.46,141.16 132.44,145.30 131.13,149.09 129.82,152.89 128.29,156.63 126.77,160.36 124.45,164.05 122.13,167.73 118.51,171.83 114.90,175.93 110.95,179.69 107.01,183.45 103.31,186.68 99.62,189.91 96.62,192.52 93.62,195.13 90.78,197.32 87.95,199.50 84.68,201.52 81.42,203.53 77.49,205.27 73.56,207.01 70.64,208.13 67.73,209.25 63.16,210.32 58.59,211.40 53.45,212.04 48.32,212.69 42.67,213.06 37.03,213.43 31.75,213.59 26.47,213.74 21.33,213.62 16.18,213.49 11.77,213.15 7.36,212.81 3.36,212.28 -0.64,211.74 -3.87,211.23 -7.11,210.72 -10.35,209.91 -13.60,209.11 -16.96,207.78 -20.31,206.46 -23.73,204.32 -27.14,202.18 -30.46,199.22 -33.77,196.26 -36.71,193.17 -39.65,190.08 -42.06,187.32 -44.46,184.57 -46.52,182.26 -48.58,179.96 -50.44,177.71 -52.29,175.46 -54.24,172.86 -56.19,170.26 -58.00,167.39 -59.81,164.53 -61.28,161.34 -62.75,158.15 -63.95,154.96 -65.14,151.77 -66.05,148.56 -66.95,145.35 -67.44,141.61 -67.93,137.88 -68.14,134.08 -68.34,130.28 -68.24,126.23 -68.13,122.19 -67.80,118.35 -67.46,114.50 -66.93,110.84 -66.40,107.17 -65.79,103.60 -65.19,100.03 -64.64,96.70 -64.10,93.37 -63.68,90.35 -63.26,87.32 -62.98,84.70 -62.71,82.09 -62.59,79.85 -62.48,77.62 -62.24,75.18 -61.99,72.75 -61.60,70.16 -61.20,67.57 -60.65,65.01 -60.09,62.45 -59.46,60.19 -58.84,57.93 -58.19,55.90 -57.53,53.88 -56.66,51.91 -55.78,49.94 -54.83,48.13 -53.87,46.33 -52.89,44.60 -51.91,42.87 -50.90,41.34 -49.88,39.81 -48.88,38.39 -47.87,36.97 -46.98,35.63 -46.09,34.28 -45.24,32.87 -44.40,31.45 -43.35,29.77 -42.31,28.10 -41.07,26.47 -39.82,24.85 -38.56,23.05 -37.29,21.26 -35.79,19.14 -34.29,17.03 -32.66,15.04 -31.04,13.05 -29.67,11.53 -28.30,10.00 -27.01,8.84 -25.71,7.67 -24.57,6.78 -23.43,5.89 -22.01,4.85 -20.58,3.81 -19.16,2.69 -17.74,1.58 -16.21,0.79 -14.68,0.00 -12.62,-0.40 -10.55,-0.81 -8.71,-0.88 -6.86,-0.95 -5.28,-0.57 -3.70,-0.19 -2.42,-0.41 -1.14,-0.63 -1.01,-0.80 -0.88,-0.97 -0.70,-1.08 -0.52,-1.20 -0.32,-1.25 -0.11,-1.30 0.09,-1.29 0.30,-1.27 0.50,-1.19 0.69,-1.11 0.85,-0.97 1.01,-0.83 1.12,-0.64 1.22,-0.46 1.27,-0.25 1.31,-0.04 1.28,0.16 1.25,0.37 1.16,0.56 1.07,0.75 0.92,0.90 0.77,1.06 0.58,1.15 0.39,1.25 0.18,1.28 -0.02,1.31 -0.23,1.27 -0.44,1.23 -0.62,1.13 -0.81,1.03 -0.95,0.87 -1.10,0.71 -1.18,0.52 -1.27,0.32 -1.29,0.11 -1.30,-0.09 -1.26,-0.30 -1.21,-0.50 -1.09,-0.68 -0.98,-0.86 -0.82,-1.00 -0.65,-1.13 -0.45,-1.21 -0.25,-1.28 -0.04,-1.29 0.16,-1.30 0.37,-1.24 0.57,-1.18 0.74,-1.05 0.92,-0.93 1.04,-0.76 1.17,-0.59 1.23,-0.39 1.29,-0.18 1.29,0.02 1.29,0.23 1.22,0.43 1.14,0.63 1.14,0.63 1.14,0.63 -1.59,1.49 -4.34,2.34 -5.58,2.01 -6.83,1.67 -8.55,1.73 -10.27,1.79 -11.92,2.08 -13.58,2.38 -14.92,3.07 -16.27,3.76 -17.63,4.83 -18.99,5.90 -20.40,6.93 -21.82,7.97 -22.89,8.80 -23.96,9.62 -25.15,10.69 -26.35,11.76 -27.68,13.24 -29.01,14.71 -30.58,16.63 -32.15,18.55 -33.65,20.66 -35.15,22.77 -36.44,24.61 -37.74,26.45 -38.91,27.97 -40.08,29.49 -41.11,31.14 -42.14,32.80 -43.02,34.27 -43.90,35.73 -44.81,37.11 -45.73,38.49 -46.71,39.88 -47.69,41.26 -48.66,42.72 -49.63,44.17 -50.59,45.86 -51.55,47.56 -52.47,49.28 -53.38,51.01 -54.21,52.85 -55.03,54.69 -55.67,56.66 -56.31,58.63 -56.92,60.82 -57.52,63.00 -58.07,65.49 -58.61,67.97 -58.99,70.49 -59.38,73.01 -59.62,75.38 -59.86,77.75 -59.98,80.06 -60.10,82.36 -60.37,85.02 -60.65,87.68 -61.08,90.74 -61.50,93.80 -62.05,97.13 -62.60,100.47 -63.20,104.01 -63.80,107.55 -64.32,111.14 -64.85,114.73 -65.18,118.50 -65.51,122.26 -65.61,126.20 -65.72,130.14 -65.52,133.84 -65.33,137.54 -64.87,141.09 -64.42,144.64 -63.55,147.75 -62.69,150.85 -61.52,153.95 -60.36,157.05 -58.97,160.09 -57.59,163.13 -55.84,165.91 -54.09,168.68 -52.18,171.24 -50.27,173.79 -48.45,176.00 -46.63,178.20 -44.55,180.52 -42.48,182.84 -40.12,185.56 -37.75,188.27 -34.88,191.29 -32.01,194.30 -28.88,197.13 -25.74,199.97 -22.54,201.99 -19.34,204.02 -16.15,205.29 -12.96,206.56 -9.83,207.34 -6.70,208.12 -3.49,208.63 -0.29,209.14 3.63,209.67 7.57,210.19 11.91,210.53 16.25,210.87 21.32,210.99 26.39,211.12 31.63,210.96 36.86,210.81 42.43,210.45 47.99,210.09 52.99,209.46 57.99,208.84 62.39,207.82 66.79,206.80 69.64,205.71 72.50,204.61 76.27,202.95 80.05,201.29 83.20,199.36 86.34,197.42 89.12,195.28 91.90,193.15 94.90,190.54 97.89,187.93 101.54,184.74 105.20,181.55 109.06,177.87 112.93,174.19 116.42,170.26 119.91,166.32 122.13,162.84 124.34,159.36 125.84,155.70 127.33,152.03 128.61,148.35 129.89,144.66 130.89,140.66 131.89,136.66 132.47,132.58 133.05,128.50 133.07,124.64 133.09,120.78 132.69,116.96 132.30,113.15 131.81,109.78 131.32,106.40 130.62,102.97 129.92,99.53 128.93,96.50 127.93,93.47 126.70,90.33 125.46,87.19 123.88,83.57 122.30,79.95 120.84,76.42 119.38,72.88 117.99,69.32 116.60,65.77 115.37,62.62 114.13,59.47 112.80,56.53 111.47,53.59 109.92,50.71 108.36,47.83 106.48,45.26 104.59,42.68 102.30,40.54 100.01,38.39 97.43,36.61 94.86,34.84 91.84,33.28 88.81,31.73 85.45,30.29 82.08,28.84 78.66,27.47 75.24,26.10 71.91,24.90 68.58,23.70 64.95,22.65 61.32,21.61 57.97,20.72 54.63,19.83 50.94,19.08 47.25,18.32 43.29,17.44 39.33,16.55 35.27,15.39 31.21,14.23 27.09,12.86 22.97,11.48 19.44,10.08 15.91,8.68 12.78,7.41 9.66,6.14 7.50,5.19 5.33,4.23 2.36,2.70 -0.60,1.16 -0.73,1.07 -0.86,0.98 -0.96,0.87 -1.07,0.75 -1.15,0.61 -1.22,0.47 -1.26,0.32 -1.30,0.16 -1.30,0.00 -1.30,-0.14 -1.26,-0.30 -1.23,-0.45 -1.15,-0.59 -1.08,-0.73 -0.98,-0.85 -0.87,-0.97 -0.74,-1.06 -0.61,-1.15 -0.47,-1.21 -0.32,-1.27 -0.16,-1.29 -0.00,-1.31 0.14,-1.29 0.30,-1.27 0.45,-1.22 0.60,-1.16 0.60,-1.16 L 0.60,-1.16 Z"></path></g><g transform="translate(427.9999999999998 368.6666666666665) rotate(0 33.83333333333337 106.33333333333331)" stroke="none"><path fill="#777777" d="M 0.60,-1.16 Q 0.60,-1.16 3.57,0.36 6.54,1.89 8.63,2.82 10.72,3.74 13.81,4.99 16.90,6.25 20.42,7.64 23.94,9.04 27.99,10.39 32.04,11.74 36.05,12.88 40.06,14.03 43.94,14.89 47.82,15.76 51.49,16.51 55.15,17.26 58.57,18.16 62.00,19.07 65.65,20.12 69.31,21.18 72.72,22.41 76.13,23.63 79.59,25.02 83.06,26.40 86.45,27.86 89.85,29.31 92.96,30.91 96.06,32.50 98.78,34.36 101.50,36.23 103.94,38.50 106.39,40.77 108.44,43.52 110.48,46.28 112.13,49.31 113.78,52.34 115.15,55.36 116.53,58.38 117.79,61.60 119.04,64.81 120.44,68.37 121.83,71.92 123.28,75.44 124.73,78.95 126.30,82.54 127.87,86.14 129.12,89.32 130.38,92.51 131.40,95.61 132.42,98.72 133.15,102.30 133.89,105.88 134.39,109.32 134.89,112.77 135.30,116.64 135.71,120.51 135.69,124.52 135.67,128.52 135.08,132.77 134.49,137.02 133.46,141.16 132.44,145.30 131.13,149.09 129.82,152.89 128.29,156.63 126.77,160.36 124.45,164.05 122.13,167.73 118.51,171.83 114.90,175.93 110.95,179.69 107.01,183.45 103.31,186.68 99.62,189.91 96.62,192.52 93.62,195.13 90.78,197.32 87.95,199.50 84.68,201.52 81.42,203.53 77.49,205.27 73.56,207.01 70.64,208.13 67.73,209.25 63.16,210.32 58.59,211.40 53.45,212.04 48.32,212.69 42.67,213.06 37.03,213.43 31.75,213.59 26.47,213.74 21.33,213.62 16.18,213.49 11.77,213.15 7.36,212.81 3.36,212.28 -0.64,211.74 -3.87,211.23 -7.11,210.72 -10.35,209.91 -13.60,209.11 -16.96,207.78 -20.31,206.46 -23.73,204.32 -27.14,202.18 -30.46,199.22 -33.77,196.26 -36.71,193.17 -39.65,190.08 -42.06,187.32 -44.46,184.57 -46.52,182.26 -48.58,179.96 -50.44,177.71 -52.29,175.46 -54.24,172.86 -56.19,170.26 -58.00,167.39 -59.81,164.53 -61.28,161.34 -62.75,158.15 -63.95,154.96 -65.14,151.77 -66.05,148.56 -66.95,145.35 -67.44,141.61 -67.93,137.88 -68.14,134.08 -68.34,130.28 -68.24,126.23 -68.13,122.19 -67.80,118.35 -67.46,114.50 -66.93,110.84 -66.40,107.17 -65.79,103.60 -65.19,100.03 -64.64,96.70 -64.10,93.37 -63.68,90.35 -63.26,87.32 -62.98,84.70 -62.71,82.09 -62.59,79.85 -62.48,77.62 -62.24,75.18 -61.99,72.75 -61.60,70.16 -61.20,67.57 -60.65,65.01 -60.09,62.45 -59.46,60.19 -58.84,57.93 -58.19,55.90 -57.53,53.88 -56.66,51.91 -55.78,49.94 -54.83,48.13 -53.87,46.33 -52.89,44.60 -51.91,42.87 -50.90,41.34 -49.88,39.81 -48.88,38.39 -47.87,36.97 -46.98,35.63 -46.09,34.28 -45.24,32.87 -44.40,31.45 -43.35,29.77 -42.31,28.10 -41.07,26.47 -39.82,24.85 -38.56,23.05 -37.29,21.26 -35.79,19.14 -34.29,17.03 -32.66,15.04 -31.04,13.05 -29.67,11.53 -28.30,10.00 -27.01,8.84 -25.71,7.67 -24.57,6.78 -23.43,5.89 -22.01,4.85 -20.58,3.81 -19.16,2.69 -17.74,1.58 -16.21,0.79 -14.68,0.00 -12.62,-0.40 -10.55,-0.81 -8.71,-0.88 -6.86,-0.95 -5.28,-0.57 -3.70,-0.19 -2.42,-0.41 -1.14,-0.63 -1.01,-0.80 -0.88,-0.97 -0.70,-1.08 -0.52,-1.20 -0.32,-1.25 -0.11,-1.30 0.09,-1.29 0.30,-1.27 0.50,-1.19 0.69,-1.11 0.85,-0.97 1.01,-0.83 1.12,-0.64 1.22,-0.46 1.27,-0.25 1.31,-0.04 1.28,0.16 1.25,0.37 1.16,0.56 1.07,0.75 0.92,0.90 0.77,1.06 0.58,1.15 0.39,1.25 0.18,1.28 -0.02,1.31 -0.23,1.27 -0.44,1.23 -0.62,1.13 -0.81,1.03 -0.95,0.87 -1.10,0.71 -1.18,0.52 -1.27,0.32 -1.29,0.11 -1.30,-0.09 -1.26,-0.30 -1.21,-0.50 -1.09,-0.68 -0.98,-0.86 -0.82,-1.00 -0.65,-1.13 -0.45,-1.21 -0.25,-1.28 -0.04,-1.29 0.16,-1.30 0.37,-1.24 0.57,-1.18 0.74,-1.05 0.92,-0.93 1.04,-0.76 1.17,-0.59 1.23,-0.39 1.29,-0.18 1.29,0.02 1.29,0.23 1.22,0.43 1.14,0.63 1.14,0.63 1.14,0.63 -1.59,1.49 -4.34,2.34 -5.58,2.01 -6.83,1.67 -8.55,1.73 -10.27,1.79 -11.92,2.08 -13.58,2.38 -14.92,3.07 -16.27,3.76 -17.63,4.83 -18.99,5.90 -20.40,6.93 -21.82,7.97 -22.89,8.80 -23.96,9.62 -25.15,10.69 -26.35,11.76 -27.68,13.24 -29.01,14.71 -30.58,16.63 -32.15,18.55 -33.65,20.66 -35.15,22.77 -36.44,24.61 -37.74,26.45 -38.91,27.97 -40.08,29.49 -41.11,31.14 -42.14,32.80 -43.02,34.27 -43.90,35.73 -44.81,37.11 -45.73,38.49 -46.71,39.88 -47.69,41.26 -48.66,42.72 -49.63,44.17 -50.59,45.86 -51.55,47.56 -52.47,49.28 -53.38,51.01 -54.21,52.85 -55.03,54.69 -55.67,56.66 -56.31,58.63 -56.92,60.82 -57.52,63.00 -58.07,65.49 -58.61,67.97 -58.99,70.49 -59.38,73.01 -59.62,75.38 -59.86,77.75 -59.98,80.06 -60.10,82.36 -60.37,85.02 -60.65,87.68 -61.08,90.74 -61.50,93.80 -62.05,97.13 -62.60,100.47 -63.20,104.01 -63.80,107.55 -64.32,111.14 -64.85,114.73 -65.18,118.50 -65.51,122.26 -65.61,126.20 -65.72,130.14 -65.52,133.84 -65.33,137.54 -64.87,141.09 -64.42,144.64 -63.55,147.75 -62.69,150.85 -61.52,153.95 -60.36,157.05 -58.97,160.09 -57.59,163.13 -55.84,165.91 -54.09,168.68 -52.18,171.24 -50.27,173.79 -48.45,176.00 -46.63,178.20 -44.55,180.52 -42.48,182.84 -40.12,185.56 -37.75,188.27 -34.88,191.29 -32.01,194.30 -28.88,197.13 -25.74,199.97 -22.54,201.99 -19.34,204.02 -16.15,205.29 -12.96,206.56 -9.83,207.34 -6.70,208.12 -3.49,208.63 -0.29,209.14 3.63,209.67 7.57,210.19 11.91,210.53 16.25,210.87 21.32,210.99 26.39,211.12 31.63,210.96 36.86,210.81 42.43,210.45 47.99,210.09 52.99,209.46 57.99,208.84 62.39,207.82 66.79,206.80 69.64,205.71 72.50,204.61 76.27,202.95 80.05,201.29 83.20,199.36 86.34,197.42 89.12,195.28 91.90,193.15 94.90,190.54 97.89,187.93 101.54,184.74 105.20,181.55 109.06,177.87 112.93,174.19 116.42,170.26 119.91,166.32 122.13,162.84 124.34,159.36 125.84,155.70 127.33,152.03 128.61,148.35 129.89,144.66 130.89,140.66 131.89,136.66 132.47,132.58 133.05,128.50 133.07,124.64 133.09,120.78 132.69,116.96 132.30,113.15 131.81,109.78 131.32,106.40 130.62,102.97 129.92,99.53 128.93,96.50 127.93,93.47 126.70,90.33 125.46,87.19 123.88,83.57 122.30,79.95 120.84,76.42 119.38,72.88 117.99,69.32 116.60,65.77 115.37,62.62 114.13,59.47 112.80,56.53 111.47,53.59 109.92,50.71 108.36,47.83 106.48,45.26 104.59,42.68 102.30,40.54 100.01,38.39 97.43,36.61 94.86,34.84 91.84,33.28 88.81,31.73 85.45,30.29 82.08,28.84 78.66,27.47 75.24,26.10 71.91,24.90 68.58,23.70 64.95,22.65 61.32,21.61 57.97,20.72 54.63,19.83 50.94,19.08 47.25,18.32 43.29,17.44 39.33,16.55 35.27,15.39 31.21,14.23 27.09,12.86 22.97,11.48 19.44,10.08 15.91,8.68 12.78,7.41 9.66,6.14 7.50,5.19 5.33,4.23 2.36,2.70 -0.60,1.16 -0.73,1.07 -0.86,0.98 -0.96,0.87 -1.07,0.75 -1.15,0.61 -1.22,0.47 -1.26,0.32 -1.30,0.16 -1.30,0.00 -1.30,-0.14 -1.26,-0.30 -1.23,-0.45 -1.15,-0.59 -1.08,-0.73 -0.98,-0.85 -0.87,-0.97 -0.74,-1.06 -0.61,-1.15 -0.47,-1.21 -0.32,-1.27 -0.16,-1.29 -0.00,-1.31 0.14,-1.29 0.30,-1.27 0.45,-1.22 0.60,-1.16 0.60,-1.16 L 0.60,-1.16 Z"></path></g><g transform="translate(46.666666666666515 96.66666666666663) rotate(0 2 41.66666666666666)" stroke="none"><path fill="#777777" d="M 0.22,-1.29 Q 0.22,-1.29 3.58,-0.71 6.94,-0.14 8.90,0.72 10.87,1.59 11.93,2.29 12.99,2.98 13.75,3.98 14.51,4.99 15.41,6.89 16.31,8.79 16.99,10.25 17.67,11.70 18.84,13.42 20.01,15.14 20.85,16.08 21.68,17.01 22.61,17.98 23.55,18.96 24.49,19.83 25.44,20.70 26.25,21.47 27.06,22.25 28.29,22.96 29.52,23.67 31.06,24.88 32.60,26.10 33.28,27.29 33.97,28.49 34.45,30.01 34.94,31.54 35.15,33.11 35.36,34.68 35.25,36.29 35.14,37.90 34.89,39.63 34.65,41.36 34.36,43.32 34.06,45.29 33.74,47.19 33.42,49.09 33.10,50.77 32.77,52.46 32.22,54.02 31.67,55.59 31.05,57.02 30.43,58.46 29.85,59.49 29.28,60.53 28.57,61.80 27.86,63.08 26.65,64.74 25.44,66.41 24.16,67.98 22.88,69.55 21.34,71.11 19.81,72.67 17.87,74.23 15.93,75.79 13.59,77.07 11.26,78.35 9.15,79.45 7.04,80.55 4.84,81.42 2.64,82.30 0.51,82.87 -1.61,83.45 -3.60,83.79 -5.59,84.13 -7.22,84.09 -8.84,84.05 -10.20,83.72 -11.55,83.38 -12.83,82.59 -14.10,81.81 -14.94,81.06 -15.77,80.31 -16.52,79.50 -17.26,78.68 -18.42,77.25 -19.57,75.82 -20.48,74.44 -21.38,73.07 -22.74,71.33 -24.10,69.58 -24.94,68.60 -25.77,67.62 -26.53,66.60 -27.30,65.57 -28.02,64.44 -28.74,63.31 -29.37,61.90 -30.00,60.48 -30.47,58.88 -30.94,57.27 -31.15,55.56 -31.36,53.85 -31.44,52.17 -31.52,50.48 -31.56,48.81 -31.59,47.14 -31.61,45.66 -31.62,44.18 -31.63,42.79 -31.63,41.39 -31.64,40.13 -31.64,38.86 -31.44,37.64 -31.24,36.42 -31.06,35.28 -30.89,34.15 -30.61,33.03 -30.33,31.91 -30.02,30.69 -29.72,29.47 -29.28,28.31 -28.84,27.14 -28.12,25.31 -27.40,23.48 -26.34,21.59 -25.29,19.70 -24.57,18.53 -23.84,17.36 -23.13,16.35 -22.42,15.34 -21.40,13.92 -20.38,12.50 -19.44,11.56 -18.50,10.63 -17.27,9.36 -16.03,8.10 -15.13,7.53 -14.22,6.95 -12.99,5.89 -11.76,4.82 -10.50,3.95 -9.25,3.09 -7.91,2.38 -6.57,1.66 -5.10,0.97 -3.62,0.28 -2.22,-0.36 -0.83,-1.01 -0.64,-1.12 -0.46,-1.22 -0.25,-1.27 -0.04,-1.31 0.16,-1.28 0.37,-1.25 0.56,-1.16 0.75,-1.07 0.90,-0.92 1.05,-0.77 1.15,-0.58 1.25,-0.39 1.28,-0.18 1.31,0.02 1.27,0.23 1.23,0.44 1.13,0.62 1.03,0.81 0.87,0.95 0.71,1.10 0.52,1.18 0.32,1.27 0.11,1.29 -0.09,1.30 -0.30,1.26 -0.50,1.21 -0.68,1.09 -0.86,0.98 -1.00,0.82 -1.13,0.65 -1.21,0.45 -1.28,0.25 -1.29,0.04 -1.30,-0.16 -1.24,-0.36 -1.18,-0.57 -1.05,-0.74 -0.93,-0.92 -0.76,-1.04 -0.59,-1.17 -0.39,-1.23 -0.18,-1.29 0.02,-1.29 0.23,-1.29 0.43,-1.22 0.63,-1.14 0.80,-1.01 0.96,-0.88 1.08,-0.70 1.20,-0.52 1.25,-0.32 1.30,-0.11 1.29,0.09 1.27,0.30 1.19,0.50 1.11,0.69 0.97,0.85 0.83,1.01 0.83,1.01 0.83,1.01 -1.60,2.17 -4.05,3.33 -5.35,4.00 -6.65,4.67 -7.82,5.33 -8.99,5.99 -10.12,6.94 -11.24,7.89 -12.76,8.97 -14.28,10.05 -15.47,11.28 -16.66,12.50 -17.45,13.26 -18.24,14.01 -19.26,15.44 -20.28,16.86 -20.94,17.80 -21.61,18.74 -22.33,19.90 -23.05,21.06 -24.00,22.75 -24.96,24.45 -25.67,26.26 -26.38,28.08 -26.78,29.10 -27.17,30.12 -27.73,32.33 -28.29,34.55 -28.65,36.71 -29.01,38.86 -29.01,40.12 -29.01,41.38 -29.00,42.77 -28.99,44.16 -28.98,45.62 -28.97,47.08 -28.93,48.72 -28.90,50.36 -28.82,51.95 -28.75,53.55 -28.58,55.05 -28.42,56.55 -28.01,57.99 -27.60,59.43 -27.06,60.67 -26.52,61.90 -25.86,62.96 -25.19,64.01 -24.48,64.96 -23.77,65.92 -22.95,66.89 -22.12,67.85 -20.68,69.71 -19.23,71.57 -18.36,72.88 -17.50,74.20 -16.41,75.56 -15.32,76.91 -13.99,78.26 -12.67,79.61 -11.77,80.23 -10.86,80.86 -9.80,81.14 -8.74,81.43 -7.38,81.49 -6.03,81.55 -4.16,81.23 -2.29,80.91 -0.30,80.38 1.67,79.85 3.75,79.04 5.83,78.22 7.92,77.13 10.01,76.04 12.15,74.89 14.29,73.74 16.11,72.28 17.94,70.83 19.39,69.36 20.84,67.88 22.08,66.37 23.32,64.86 24.44,63.33 25.57,61.80 26.79,59.61 28.02,57.41 28.61,56.06 29.20,54.71 29.69,53.33 30.19,51.95 30.51,50.30 30.83,48.65 31.15,46.78 31.46,44.90 31.76,42.94 32.05,40.99 32.28,39.35 32.52,37.70 32.64,36.35 32.75,35.00 32.59,33.65 32.43,32.31 31.59,30.13 30.74,27.95 29.58,27.00 28.43,26.06 26.83,25.10 25.24,24.15 24.45,23.39 23.66,22.63 22.65,21.70 21.65,20.77 20.68,19.76 19.72,18.76 18.81,17.73 17.90,16.71 17.16,15.71 16.42,14.71 15.86,13.77 15.31,12.84 14.59,11.31 13.88,9.78 13.13,8.14 12.37,6.50 11.07,5.24 9.78,3.98 8.12,3.21 6.47,2.44 3.12,1.86 -0.22,1.29 -0.37,1.24 -0.52,1.20 -0.66,1.12 -0.79,1.04 -0.91,0.93 -1.02,0.82 -1.10,0.68 -1.19,0.55 -1.24,0.40 -1.28,0.25 -1.30,0.09 -1.31,-0.06 -1.28,-0.22 -1.25,-0.37 -1.19,-0.52 -1.13,-0.66 -1.03,-0.79 -0.93,-0.91 -0.81,-1.01 -0.69,-1.11 -0.54,-1.18 -0.40,-1.24 -0.24,-1.27 -0.09,-1.30 0.06,-1.30 0.22,-1.29 0.22,-1.29 L 0.22,-1.29 Z"></path></g><g transform="translate(46.666666666666515 96.99999999999997) rotate(0 -0.5 17.666666666666657)" stroke="none"><path fill="#777777" d="M 2.06,0.20 Q 2.06,0.20 1.58,4.12 1.09,8.03 0.95,11.07 0.82,14.11 0.83,16.83 0.84,19.55 0.94,21.55 1.05,23.56 1.09,25.60 1.14,27.64 1.34,29.02 1.55,30.40 1.84,32.82 2.13,35.24 2.09,35.53 2.06,35.82 1.94,36.09 1.81,36.35 1.61,36.56 1.41,36.77 1.15,36.90 0.89,37.04 0.60,37.08 0.32,37.13 0.03,37.08 -0.25,37.03 -0.51,36.89 -0.76,36.75 -0.96,36.54 -1.16,36.33 -1.28,36.06 -1.40,35.80 -1.43,35.51 -1.46,35.22 -1.40,34.93 -1.33,34.65 -1.18,34.40 -1.03,34.15 -0.80,33.97 -0.58,33.78 -0.31,33.67 -0.04,33.57 0.24,33.55 0.54,33.54 0.82,33.62 1.10,33.70 1.34,33.86 1.58,34.03 1.75,34.26 1.93,34.50 2.02,34.77 2.11,35.05 2.11,35.34 2.10,35.63 2.01,35.91 1.91,36.18 1.74,36.41 1.56,36.65 1.32,36.81 1.07,36.97 0.79,37.04 0.51,37.12 0.22,37.10 -0.06,37.08 -0.33,36.98 -0.60,36.87 -0.82,36.67 -1.04,36.48 -1.19,36.23 -1.34,35.98 -1.40,35.70 -1.46,35.41 -1.46,35.41 -1.46,35.41 -1.68,33.05 -1.90,30.69 -1.93,29.21 -1.96,27.72 -2.02,25.74 -2.08,23.75 -2.23,21.69 -2.37,19.62 -2.50,16.83 -2.62,14.03 -2.62,10.85 -2.63,7.67 -2.34,3.73 -2.06,-0.20 -2.01,-0.44 -1.95,-0.69 -1.84,-0.91 -1.73,-1.13 -1.57,-1.33 -1.41,-1.52 -1.21,-1.66 -1.00,-1.81 -0.77,-1.90 -0.54,-2.00 -0.29,-2.04 -0.04,-2.07 0.20,-2.05 0.44,-2.02 0.68,-1.94 0.92,-1.86 1.13,-1.72 1.34,-1.58 1.51,-1.40 1.68,-1.21 1.80,-1.00 1.92,-0.78 1.98,-0.54 2.05,-0.29 2.06,-0.04 2.06,0.20 2.06,0.20 L 2.06,0.20 Z"></path></g><g stroke-linecap="round" transform="translate(37.66666666666663 132.3333333333333) rotate(0 9 8.5)"><path d="M18 8.5 C18 8.99, 17.95 9.49, 17.86 9.98 C17.77 10.46, 17.64 10.94, 17.46 11.41 C17.28 11.87, 17.05 12.32, 16.79 12.75 C16.53 13.18, 16.23 13.59, 15.89 13.96 C15.56 14.34, 15.18 14.7, 14.79 15.01 C14.39 15.33, 13.95 15.62, 13.5 15.86 C13.05 16.11, 12.57 16.32, 12.08 16.49 C11.59 16.66, 11.08 16.79, 10.56 16.87 C10.05 16.96, 9.52 17, 9 17 C8.48 17, 7.95 16.96, 7.44 16.87 C6.92 16.79, 6.41 16.66, 5.92 16.49 C5.43 16.32, 4.95 16.11, 4.5 15.86 C4.05 15.62, 3.61 15.33, 3.21 15.01 C2.82 14.7, 2.44 14.34, 2.11 13.96 C1.77 13.59, 1.47 13.18, 1.21 12.75 C0.95 12.32, 0.72 11.87, 0.54 11.41 C0.36 10.94, 0.23 10.46, 0.14 9.98 C0.05 9.49, 0 8.99, 0 8.5 C0 8.01, 0.05 7.51, 0.14 7.02 C0.23 6.54, 0.36 6.06, 0.54 5.59 C0.72 5.13, 0.95 4.68, 1.21 4.25 C1.47 3.82, 1.77 3.41, 2.11 3.04 C2.44 2.66, 2.82 2.3, 3.21 1.99 C3.61 1.67, 4.05 1.38, 4.5 1.14 C4.95 0.89, 5.43 0.68, 5.92 0.51 C6.41 0.34, 6.92 0.21, 7.44 0.13 C7.95 0.04, 8.48 0, 9 0 C9.52 0, 10.05 0.04, 10.56 0.13 C11.08 0.21, 11.59 0.34, 12.08 0.51 C12.57 0.68, 13.05 0.89, 13.5 1.14 C13.95 1.38, 14.39 1.67, 14.79 1.99 C15.18 2.3, 15.56 2.66, 15.89 3.04 C16.23 3.41, 16.53 3.82, 16.79 4.25 C17.05 4.68, 17.28 5.13, 17.46 5.59 C17.64 6.06, 17.77 6.54, 17.86 7.02 C17.95 7.51, 17.98 8.25, 18 8.5 C18.02 8.75, 18.02 8.25, 18 8.5" stroke="#777777" stroke-width="1" fill="none"></path></g><g stroke-linecap="round" transform="translate(402.0000000000002 155.99999999999994) rotate(0 9 8.5)"><path d="M18 8.5 C18 8.99, 17.95 9.49, 17.86 9.98 C17.77 10.46, 17.64 10.94, 17.46 11.41 C17.28 11.87, 17.05 12.32, 16.79 12.75 C16.53 13.18, 16.23 13.59, 15.89 13.96 C15.56 14.34, 15.18 14.7, 14.79 15.01 C14.39 15.33, 13.95 15.62, 13.5 15.86 C13.05 16.11, 12.57 16.32, 12.08 16.49 C11.59 16.66, 11.08 16.79, 10.56 16.87 C10.05 16.96, 9.52 17, 9 17 C8.48 17, 7.95 16.96, 7.44 16.87 C6.92 16.79, 6.41 16.66, 5.92 16.49 C5.43 16.32, 4.95 16.11, 4.5 15.86 C4.05 15.62, 3.61 15.33, 3.21 15.01 C2.82 14.7, 2.44 14.34, 2.11 13.96 C1.77 13.59, 1.47 13.18, 1.21 12.75 C0.95 12.32, 0.72 11.87, 0.54 11.41 C0.36 10.94, 0.23 10.46, 0.14 9.98 C0.05 9.49, 0 8.99, 0 8.5 C0 8.01, 0.05 7.51, 0.14 7.02 C0.23 6.54, 0.36 6.06, 0.54 5.59 C0.72 5.13, 0.95 4.68, 1.21 4.25 C1.47 3.82, 1.77 3.41, 2.11 3.04 C2.44 2.66, 2.82 2.3, 3.21 1.99 C3.61 1.67, 4.05 1.38, 4.5 1.14 C4.95 0.89, 5.43 0.68, 5.92 0.51 C6.41 0.34, 6.92 0.21, 7.44 0.13 C7.95 0.04, 8.48 0, 9 0 C9.52 0, 10.05 0.04, 10.56 0.13 C11.08 0.21, 11.59 0.34, 12.08 0.51 C12.57 0.68, 13.05 0.89, 13.5 1.14 C13.95 1.38, 14.39 1.67, 14.79 1.99 C15.18 2.3, 15.56 2.66, 15.89 3.04 C16.23 3.41, 16.53 3.82, 16.79 4.25 C17.05 4.68, 17.28 5.13, 17.46 5.59 C17.64 6.06, 17.77 6.54, 17.86 7.02 C17.95 7.51, 17.98 8.25, 18 8.5 C18.02 8.75, 18.02 8.25, 18 8.5" stroke="#777777" stroke-width="1" fill="none"></path></g><g stroke-linecap="round" transform="translate(85.00000000000023 461.99999999999983) rotate(0 9 8.5)"><path d="M18 8.5 C18 8.99, 17.95 9.49, 17.86 9.98 C17.77 10.46, 17.64 10.94, 17.46 11.41 C17.28 11.87, 17.05 12.32, 16.79 12.75 C16.53 13.18, 16.23 13.59, 15.89 13.96 C15.56 14.34, 15.18 14.7, 14.79 15.01 C14.39 15.33, 13.95 15.62, 13.5 15.86 C13.05 16.11, 12.57 16.32, 12.08 16.49 C11.59 16.66, 11.08 16.79, 10.56 16.87 C10.05 16.96, 9.52 17, 9 17 C8.48 17, 7.95 16.96, 7.44 16.87 C6.92 16.79, 6.41 16.66, 5.92 16.49 C5.43 16.32, 4.95 16.11, 4.5 15.86 C4.05 15.62, 3.61 15.33, 3.21 15.01 C2.82 14.7, 2.44 14.34, 2.11 13.96 C1.77 13.59, 1.47 13.18, 1.21 12.75 C0.95 12.32, 0.72 11.87, 0.54 11.41 C0.36 10.94, 0.23 10.46, 0.14 9.98 C0.05 9.49, 0 8.99, 0 8.5 C0 8.01, 0.05 7.51, 0.14 7.02 C0.23 6.54, 0.36 6.06, 0.54 5.59 C0.72 5.13, 0.95 4.68, 1.21 4.25 C1.47 3.82, 1.77 3.41, 2.11 3.04 C2.44 2.66, 2.82 2.3, 3.21 1.99 C3.61 1.67, 4.05 1.38, 4.5 1.14 C4.95 0.89, 5.43 0.68, 5.92 0.51 C6.41 0.34, 6.92 0.21, 7.44 0.13 C7.95 0.04, 8.48 0, 9 0 C9.52 0, 10.05 0.04, 10.56 0.13 C11.08 0.21, 11.59 0.34, 12.08 0.51 C12.57 0.68, 13.05 0.89, 13.5 1.14 C13.95 1.38, 14.39 1.67, 14.79 1.99 C15.18 2.3, 15.56 2.66, 15.89 3.04 C16.23 3.41, 16.53 3.82, 16.79 4.25 C17.05 4.68, 17.28 5.13, 17.46 5.59 C17.64 6.06, 17.77 6.54, 17.86 7.02 C17.95 7.51, 17.98 8.25, 18 8.5 C18.02 8.75, 18.02 8.25, 18 8.5" stroke="#777777" stroke-width="1" fill="none"></path></g><g stroke-linecap="round" transform="translate(436.66666666666674 476.6666666666665) rotate(0 9 8.5)"><path d="M18 8.5 C18 8.99, 17.95 9.49, 17.86 9.98 C17.77 10.46, 17.64 10.94, 17.46 11.41 C17.28 11.87, 17.05 12.32, 16.79 12.75 C16.53 13.18, 16.23 13.59, 15.89 13.96 C15.56 14.34, 15.18 14.7, 14.79 15.01 C14.39 15.33, 13.95 15.62, 13.5 15.86 C13.05 16.11, 12.57 16.32, 12.08 16.49 C11.59 16.66, 11.08 16.79, 10.56 16.87 C10.05 16.96, 9.52 17, 9 17 C8.48 17, 7.95 16.96, 7.44 16.87 C6.92 16.79, 6.41 16.66, 5.92 16.49 C5.43 16.32, 4.95 16.11, 4.5 15.86 C4.05 15.62, 3.61 15.33, 3.21 15.01 C2.82 14.7, 2.44 14.34, 2.11 13.96 C1.77 13.59, 1.47 13.18, 1.21 12.75 C0.95 12.32, 0.72 11.87, 0.54 11.41 C0.36 10.94, 0.23 10.46, 0.14 9.98 C0.05 9.49, 0 8.99, 0 8.5 C0 8.01, 0.05 7.51, 0.14 7.02 C0.23 6.54, 0.36 6.06, 0.54 5.59 C0.72 5.13, 0.95 4.68, 1.21 4.25 C1.47 3.82, 1.77 3.41, 2.11 3.04 C2.44 2.66, 2.82 2.3, 3.21 1.99 C3.61 1.67, 4.05 1.38, 4.5 1.14 C4.95 0.89, 5.43 0.68, 5.92 0.51 C6.41 0.34, 6.92 0.21, 7.44 0.13 C7.95 0.04, 8.48 0, 9 0 C9.52 0, 10.05 0.04, 10.56 0.13 C11.08 0.21, 11.59 0.34, 12.08 0.51 C12.57 0.68, 13.05 0.89, 13.5 1.14 C13.95 1.38, 14.39 1.67, 14.79 1.99 C15.18 2.3, 15.56 2.66, 15.89 3.04 C16.23 3.41, 16.53 3.82, 16.79 4.25 C17.05 4.68, 17.28 5.13, 17.46 5.59 C17.64 6.06, 17.77 6.54, 17.86 7.02 C17.95 7.51, 17.98 8.25, 18 8.5 C18.02 8.75, 18.02 8.25, 18 8.5" stroke="#777777" stroke-width="1" fill="none"></path></g><g transform="translate(43.33333333333326 130.3333333333333) rotate(0 4.1840057373046875 10)"><text x="0" y="14.016" font-family="Virgil, Segoe UI Emoji" font-size="16px" fill="#777777" text-anchor="start" style="white-space: pre;" direction="ltr" dominant-baseline="alphabetic">v</text></g><g transform="translate(407.66666666666674 153.99999999999994) rotate(0 4.1840057373046875 10)"><text x="0" y="14.016" font-family="Virgil, Segoe UI Emoji" font-size="16px" fill="#777777" text-anchor="start" style="white-space: pre;" direction="ltr" dominant-baseline="alphabetic">v</text></g><g transform="translate(90.66666666666674 459.99999999999983) rotate(0 4.1840057373046875 10)"><text x="0" y="14.016" font-family="Virgil, Segoe UI Emoji" font-size="16px" fill="#777777" text-anchor="start" style="white-space: pre;" direction="ltr" dominant-baseline="alphabetic">v</text></g><g transform="translate(442.33333333333326 474.6666666666665) rotate(0 4.1840057373046875 10)"><text x="0" y="14.016" font-family="Virgil, Segoe UI Emoji" font-size="16px" fill="#777777" text-anchor="start" style="white-space: pre;" direction="ltr" dominant-baseline="alphabetic">v</text></g><g transform="translate(10 10) rotate(0 138.32028198242188 20)"><text x="0" y="14.016" font-family="Virgil, Segoe UI Emoji" font-size="16px" fill="#777777" text-anchor="start" style="white-space: pre;" direction="ltr" dominant-baseline="alphabetic">case 1:</text><text x="0" y="34.016" font-family="Virgil, Segoe UI Emoji" font-size="16px" fill="#777777" text-anchor="start" style="white-space: pre;" direction="ltr" dominant-baseline="alphabetic">v belongs to a different component</text></g><g transform="translate(343.33333333333326 10.333333333333314) rotate(0 113.1682357788086 20)"><text x="0" y="14.016" font-family="Virgil, Segoe UI Emoji" font-size="16px" fill="#777777" text-anchor="start" style="white-space: pre;" direction="ltr" dominant-baseline="alphabetic">case 2:</text><text x="0" y="34.016" font-family="Virgil, Segoe UI Emoji" font-size="16px" fill="#777777" text-anchor="start" style="white-space: pre;" direction="ltr" dominant-baseline="alphabetic">v connected by a single path</text></g><g transform="translate(26.333333333333258 316.3333333333332) rotate(0 101.68020629882812 20)"><text x="0" y="14.016" font-family="Virgil, Segoe UI Emoji" font-size="16px" fill="#777777" text-anchor="start" style="white-space: pre;" direction="ltr" dominant-baseline="alphabetic">case 3:</text><text x="0" y="34.016" font-family="Virgil, Segoe UI Emoji" font-size="16px" fill="#777777" text-anchor="start" style="white-space: pre;" direction="ltr" dominant-baseline="alphabetic">v connected by two paths</text></g><g transform="translate(342.33333333333314 307.33333333333326) rotate(0 98.30419921875006 20)"><text x="0" y="14.016" font-family="Virgil, Segoe UI Emoji" font-size="16px" fill="#777777" text-anchor="start" style="white-space: pre;" direction="ltr" dominant-baseline="alphabetic">case 3:</text><text x="0" y="34.016" font-family="Virgil, Segoe UI Emoji" font-size="16px" fill="#777777" text-anchor="start" style="white-space: pre;" direction="ltr" dominant-baseline="alphabetic">v connected by 3+ paths</text></g><g transform="translate(448 78.66666666666666) rotate(0 4.333333333333371 58.83333333333333)" stroke="none"><path fill="#777777" d="M 1.49,0.45 Q 1.49,0.45 0.69,2.94 -0.10,5.42 -0.53,7.62 -0.95,9.82 -0.48,12.37 -0.01,14.93 1.18,17.38 2.37,19.83 4.80,22.52 7.24,25.22 9.68,27.22 12.12,29.22 15.25,30.69 18.39,32.16 21.01,33.29 23.62,34.42 25.69,35.29 27.77,36.16 29.68,37.23 31.59,38.30 32.82,39.09 34.05,39.88 34.94,40.92 35.84,41.95 36.40,43.08 36.95,44.20 37.24,46.27 37.52,48.33 37.58,50.45 37.64,52.56 37.62,54.99 37.60,57.42 37.57,60.56 37.54,63.70 37.42,66.21 37.29,68.72 37.42,71.23 37.55,73.74 38.14,75.84 38.74,77.95 39.62,79.75 40.51,81.55 41.82,83.54 43.13,85.53 44.15,87.08 45.18,88.63 45.66,91.07 46.14,93.52 45.82,95.83 45.50,98.15 44.33,100.48 43.16,102.82 41.63,104.54 40.10,106.25 37.16,108.18 34.21,110.11 30.11,111.71 26.02,113.30 21.40,114.64 16.78,115.98 11.69,116.75 6.59,117.53 3.09,117.85 -0.41,118.17 -3.35,118.31 -6.30,118.45 -7.98,118.68 -9.66,118.91 -11.28,119.05 -12.91,119.20 -14.24,119.23 -15.58,119.26 -16.66,119.31 -17.75,119.37 -19.38,119.19 -21.01,119.01 -22.09,119.00 -23.16,118.98 -24.36,118.90 -25.56,118.82 -27.17,118.71 -28.78,118.61 -30.56,118.05 -32.34,117.50 -33.24,116.78 -34.14,116.06 -34.85,114.93 -35.56,113.80 -36.06,110.87 -36.56,107.95 -36.95,105.49 -37.33,103.03 -37.73,101.47 -38.13,99.90 -38.51,97.95 -38.89,95.99 -38.88,95.63 -38.88,95.26 -38.75,94.92 -38.63,94.58 -38.41,94.29 -38.18,94.00 -37.88,93.80 -37.57,93.60 -37.22,93.51 -36.87,93.42 -36.51,93.45 -36.14,93.47 -35.81,93.61 -35.47,93.75 -35.20,93.99 -34.92,94.23 -34.74,94.55 -34.56,94.86 -34.49,95.22 -34.41,95.58 -34.46,95.94 -34.50,96.30 -34.66,96.63 -34.82,96.95 -35.07,97.21 -35.33,97.47 -35.65,97.64 -35.98,97.81 -36.34,97.86 -36.70,97.91 -37.06,97.85 -37.41,97.78 -37.73,97.61 -38.05,97.43 -38.30,97.16 -38.54,96.89 -38.69,96.56 -38.84,96.23 -38.87,95.87 -38.91,95.50 -38.82,95.15 -38.74,94.80 -38.55,94.49 -38.35,94.18 -38.07,93.95 -37.79,93.71 -37.45,93.59 -37.11,93.46 -36.75,93.44 -36.38,93.43 -36.03,93.53 -35.68,93.63 -35.39,93.84 -35.09,94.05 -34.87,94.35 -34.66,94.64 -34.55,94.99 -34.44,95.33 -34.44,95.33 -34.44,95.33 -34.20,97.08 -33.97,98.83 -33.54,100.47 -33.11,102.12 -32.44,104.50 -31.77,106.89 -31.02,109.48 -30.27,112.08 -29.29,112.83 -28.32,113.57 -26.67,113.90 -25.03,114.23 -23.93,114.42 -22.83,114.60 -21.65,114.76 -20.47,114.92 -19.05,115.14 -17.64,115.37 -16.51,115.49 -15.38,115.60 -14.21,115.77 -13.04,115.93 -11.48,115.95 -9.92,115.96 -8.17,115.88 -6.42,115.81 -3.54,115.67 -0.66,115.54 2.77,115.22 6.20,114.90 11.12,114.16 16.04,113.42 20.54,112.11 25.05,110.80 28.90,109.32 32.75,107.83 35.42,106.12 38.09,104.41 39.40,102.97 40.71,101.54 41.72,99.61 42.72,97.69 43.02,95.84 43.31,93.99 42.97,92.06 42.64,90.12 41.74,88.58 40.85,87.04 39.44,84.91 38.02,82.78 37.02,80.75 36.02,78.73 35.34,76.33 34.65,73.93 34.47,71.27 34.29,68.61 34.34,66.16 34.39,63.72 34.32,60.60 34.26,57.48 34.14,55.12 34.03,52.75 33.88,50.80 33.72,48.86 33.50,47.22 33.27,45.59 32.69,43.96 32.11,42.33 31.20,41.47 30.28,40.61 28.51,39.61 26.74,38.60 24.66,37.74 22.57,36.87 19.91,35.72 17.25,34.58 13.83,32.95 10.42,31.32 7.82,29.18 5.21,27.04 2.55,24.05 -0.10,21.06 -1.44,18.25 -2.77,15.45 -3.28,12.40 -3.79,9.36 -3.37,6.95 -2.96,4.54 -2.22,2.04 -1.49,-0.45 -1.41,-0.63 -1.33,-0.80 -1.22,-0.95 -1.10,-1.10 -0.96,-1.21 -0.81,-1.33 -0.64,-1.41 -0.47,-1.48 -0.28,-1.52 -0.09,-1.55 0.08,-1.54 0.27,-1.53 0.45,-1.48 0.63,-1.42 0.79,-1.32 0.95,-1.23 1.09,-1.10 1.22,-0.96 1.32,-0.80 1.42,-0.64 1.47,-0.46 1.53,-0.28 1.54,-0.09 1.55,0.08 1.52,0.27 1.49,0.45 1.49,0.45 L 1.49,0.45 Z"></path></g><g transform="translate(131 384.6666666666666) rotate(0 4.333333333333428 58.833333333333314)" stroke="none"><path fill="#777777" d="M 1.49,0.45 Q 1.49,0.45 0.69,2.94 -0.10,5.42 -0.53,7.62 -0.95,9.82 -0.48,12.37 -0.01,14.93 1.18,17.38 2.37,19.83 4.80,22.52 7.24,25.22 9.68,27.22 12.12,29.22 15.25,30.69 18.39,32.16 21.01,33.29 23.62,34.42 25.69,35.29 27.77,36.16 29.68,37.23 31.59,38.30 32.82,39.09 34.05,39.88 34.94,40.92 35.84,41.95 36.40,43.08 36.95,44.20 37.24,46.27 37.52,48.33 37.58,50.45 37.64,52.56 37.62,54.99 37.60,57.42 37.57,60.56 37.54,63.70 37.42,66.21 37.29,68.72 37.42,71.23 37.55,73.74 38.14,75.84 38.74,77.95 39.62,79.75 40.51,81.55 41.82,83.54 43.13,85.53 44.15,87.08 45.18,88.63 45.66,91.07 46.14,93.52 45.82,95.83 45.50,98.15 44.33,100.48 43.16,102.82 41.63,104.54 40.10,106.25 37.16,108.18 34.21,110.11 30.11,111.71 26.02,113.30 21.40,114.64 16.78,115.98 11.69,116.75 6.59,117.53 3.09,117.85 -0.41,118.17 -3.35,118.31 -6.30,118.45 -7.98,118.68 -9.66,118.91 -11.28,119.05 -12.91,119.20 -14.24,119.23 -15.58,119.26 -16.66,119.31 -17.75,119.37 -19.38,119.19 -21.01,119.01 -22.09,119.00 -23.16,118.98 -24.36,118.90 -25.56,118.82 -27.17,118.71 -28.78,118.61 -30.56,118.05 -32.34,117.50 -33.24,116.78 -34.14,116.06 -34.85,114.93 -35.56,113.80 -36.06,110.87 -36.56,107.95 -36.95,105.49 -37.33,103.03 -37.73,101.47 -38.13,99.90 -38.51,97.95 -38.89,95.99 -38.88,95.63 -38.88,95.26 -38.75,94.92 -38.63,94.58 -38.41,94.29 -38.18,94.00 -37.88,93.80 -37.57,93.60 -37.22,93.51 -36.87,93.42 -36.51,93.45 -36.14,93.47 -35.81,93.61 -35.47,93.75 -35.20,93.99 -34.92,94.23 -34.74,94.55 -34.56,94.86 -34.49,95.22 -34.41,95.58 -34.46,95.94 -34.50,96.30 -34.66,96.63 -34.82,96.95 -35.07,97.21 -35.33,97.47 -35.65,97.64 -35.98,97.81 -36.34,97.86 -36.70,97.91 -37.06,97.85 -37.41,97.78 -37.73,97.61 -38.05,97.43 -38.30,97.16 -38.54,96.89 -38.69,96.56 -38.84,96.23 -38.87,95.87 -38.91,95.50 -38.82,95.15 -38.74,94.80 -38.55,94.49 -38.35,94.18 -38.07,93.95 -37.79,93.71 -37.45,93.59 -37.11,93.46 -36.75,93.44 -36.38,93.43 -36.03,93.53 -35.68,93.63 -35.39,93.84 -35.09,94.05 -34.87,94.35 -34.66,94.64 -34.55,94.99 -34.44,95.33 -34.44,95.33 -34.44,95.33 -34.20,97.08 -33.97,98.83 -33.54,100.47 -33.11,102.12 -32.44,104.50 -31.77,106.89 -31.02,109.48 -30.27,112.08 -29.29,112.83 -28.32,113.57 -26.67,113.90 -25.03,114.23 -23.93,114.42 -22.83,114.60 -21.65,114.76 -20.47,114.92 -19.05,115.14 -17.64,115.37 -16.51,115.49 -15.38,115.60 -14.21,115.77 -13.04,115.93 -11.48,115.95 -9.92,115.96 -8.17,115.88 -6.42,115.81 -3.54,115.67 -0.66,115.54 2.77,115.22 6.20,114.90 11.12,114.16 16.04,113.42 20.54,112.11 25.05,110.80 28.90,109.32 32.75,107.83 35.42,106.12 38.09,104.41 39.40,102.97 40.71,101.54 41.72,99.61 42.72,97.69 43.02,95.84 43.31,93.99 42.97,92.06 42.64,90.12 41.74,88.58 40.85,87.04 39.44,84.91 38.02,82.78 37.02,80.75 36.02,78.73 35.34,76.33 34.65,73.93 34.47,71.27 34.29,68.61 34.34,66.16 34.39,63.72 34.32,60.60 34.26,57.48 34.14,55.12 34.03,52.75 33.88,50.80 33.72,48.86 33.50,47.22 33.27,45.59 32.69,43.96 32.11,42.33 31.20,41.47 30.28,40.61 28.51,39.61 26.74,38.60 24.66,37.74 22.57,36.87 19.91,35.72 17.25,34.58 13.83,32.95 10.42,31.32 7.82,29.18 5.21,27.04 2.55,24.05 -0.10,21.06 -1.44,18.25 -2.77,15.45 -3.28,12.40 -3.79,9.36 -3.37,6.95 -2.96,4.54 -2.22,2.04 -1.49,-0.45 -1.41,-0.63 -1.33,-0.80 -1.22,-0.95 -1.10,-1.10 -0.96,-1.21 -0.81,-1.33 -0.64,-1.41 -0.47,-1.48 -0.28,-1.52 -0.09,-1.55 0.08,-1.54 0.27,-1.53 0.45,-1.48 0.63,-1.42 0.79,-1.32 0.95,-1.23 1.09,-1.10 1.22,-0.96 1.32,-0.80 1.42,-0.64 1.47,-0.46 1.53,-0.28 1.54,-0.09 1.55,0.08 1.52,0.27 1.49,0.45 1.49,0.45 L 1.49,0.45 Z"></path></g><g transform="translate(493.33333333333303 391.33333333333337) rotate(0 4.333333333333371 58.83333333333334)" stroke="none"><path fill="#777777" d="M 1.49,0.45 Q 1.49,0.45 0.69,2.94 -0.10,5.42 -0.53,7.62 -0.95,9.82 -0.48,12.37 -0.01,14.93 1.18,17.38 2.37,19.83 4.80,22.52 7.24,25.22 9.68,27.22 12.12,29.22 15.25,30.69 18.39,32.16 21.01,33.29 23.62,34.42 25.69,35.29 27.77,36.16 29.68,37.23 31.59,38.30 32.82,39.09 34.05,39.88 34.94,40.92 35.84,41.95 36.40,43.08 36.95,44.20 37.24,46.27 37.52,48.33 37.58,50.45 37.64,52.56 37.62,54.99 37.60,57.42 37.57,60.56 37.54,63.70 37.42,66.21 37.29,68.72 37.42,71.23 37.55,73.74 38.14,75.84 38.74,77.95 39.62,79.75 40.51,81.55 41.82,83.54 43.13,85.53 44.15,87.08 45.18,88.63 45.66,91.07 46.14,93.52 45.82,95.83 45.50,98.15 44.33,100.48 43.16,102.82 41.63,104.54 40.10,106.25 37.16,108.18 34.21,110.11 30.11,111.71 26.02,113.30 21.40,114.64 16.78,115.98 11.69,116.75 6.59,117.53 3.09,117.85 -0.41,118.17 -3.35,118.31 -6.30,118.45 -7.98,118.68 -9.66,118.91 -11.28,119.05 -12.91,119.20 -14.24,119.23 -15.58,119.26 -16.66,119.31 -17.75,119.37 -19.38,119.19 -21.01,119.01 -22.09,119.00 -23.16,118.98 -24.36,118.90 -25.56,118.82 -27.17,118.71 -28.78,118.61 -30.56,118.05 -32.34,117.50 -33.24,116.78 -34.14,116.06 -34.85,114.93 -35.56,113.80 -36.06,110.87 -36.56,107.95 -36.95,105.49 -37.33,103.03 -37.73,101.47 -38.13,99.90 -38.51,97.95 -38.89,95.99 -38.88,95.63 -38.88,95.26 -38.75,94.92 -38.63,94.58 -38.41,94.29 -38.18,94.00 -37.88,93.80 -37.57,93.60 -37.22,93.51 -36.87,93.42 -36.51,93.45 -36.14,93.47 -35.81,93.61 -35.47,93.75 -35.20,93.99 -34.92,94.23 -34.74,94.55 -34.56,94.86 -34.49,95.22 -34.41,95.58 -34.46,95.94 -34.50,96.30 -34.66,96.63 -34.82,96.95 -35.07,97.21 -35.33,97.47 -35.65,97.64 -35.98,97.81 -36.34,97.86 -36.70,97.91 -37.06,97.85 -37.41,97.78 -37.73,97.61 -38.05,97.43 -38.30,97.16 -38.54,96.89 -38.69,96.56 -38.84,96.23 -38.87,95.87 -38.91,95.50 -38.82,95.15 -38.74,94.80 -38.55,94.49 -38.35,94.18 -38.07,93.95 -37.79,93.71 -37.45,93.59 -37.11,93.46 -36.75,93.44 -36.38,93.43 -36.03,93.53 -35.68,93.63 -35.39,93.84 -35.09,94.05 -34.87,94.35 -34.66,94.64 -34.55,94.99 -34.44,95.33 -34.44,95.33 -34.44,95.33 -34.20,97.08 -33.97,98.83 -33.54,100.47 -33.11,102.12 -32.44,104.50 -31.77,106.89 -31.02,109.48 -30.27,112.08 -29.29,112.83 -28.32,113.57 -26.67,113.90 -25.03,114.23 -23.93,114.42 -22.83,114.60 -21.65,114.76 -20.47,114.92 -19.05,115.14 -17.64,115.37 -16.51,115.49 -15.38,115.60 -14.21,115.77 -13.04,115.93 -11.48,115.95 -9.92,115.96 -8.17,115.88 -6.42,115.81 -3.54,115.67 -0.66,115.54 2.77,115.22 6.20,114.90 11.12,114.16 16.04,113.42 20.54,112.11 25.05,110.80 28.90,109.32 32.75,107.83 35.42,106.12 38.09,104.41 39.40,102.97 40.71,101.54 41.72,99.61 42.72,97.69 43.02,95.84 43.31,93.99 42.97,92.06 42.64,90.12 41.74,88.58 40.85,87.04 39.44,84.91 38.02,82.78 37.02,80.75 36.02,78.73 35.34,76.33 34.65,73.93 34.47,71.27 34.29,68.61 34.34,66.16 34.39,63.72 34.32,60.60 34.26,57.48 34.14,55.12 34.03,52.75 33.88,50.80 33.72,48.86 33.50,47.22 33.27,45.59 32.69,43.96 32.11,42.33 31.20,41.47 30.28,40.61 28.51,39.61 26.74,38.60 24.66,37.74 22.57,36.87 19.91,35.72 17.25,34.58 13.83,32.95 10.42,31.32 7.82,29.18 5.21,27.04 2.55,24.05 -0.10,21.06 -1.44,18.25 -2.77,15.45 -3.28,12.40 -3.79,9.36 -3.37,6.95 -2.96,4.54 -2.22,2.04 -1.49,-0.45 -1.41,-0.63 -1.33,-0.80 -1.22,-0.95 -1.10,-1.10 -0.96,-1.21 -0.81,-1.33 -0.64,-1.41 -0.47,-1.48 -0.28,-1.52 -0.09,-1.55 0.08,-1.54 0.27,-1.53 0.45,-1.48 0.63,-1.42 0.79,-1.32 0.95,-1.23 1.09,-1.10 1.22,-0.96 1.32,-0.80 1.42,-0.64 1.47,-0.46 1.53,-0.28 1.54,-0.09 1.55,0.08 1.52,0.27 1.49,0.45 1.49,0.45 L 1.49,0.45 Z"></path></g><g transform="translate(85.33333333333337 468.99999999999994) rotate(0 -6.666666666666629 46.99999999999994)" stroke="none"><path fill="#777777" d="M 1.25,1.31 Q 1.25,1.31 -0.71,3.08 -2.67,4.86 -4.80,7.35 -6.92,9.84 -8.38,12.17 -9.83,14.50 -10.92,17.05 -12.01,19.61 -12.66,21.81 -13.32,24.01 -13.59,26.40 -13.86,28.78 -13.82,30.45 -13.77,32.12 -13.50,33.28 -13.23,34.45 -12.46,35.79 -11.69,37.12 -10.51,38.41 -9.34,39.69 -7.41,41.66 -5.49,43.62 -4.06,45.16 -2.64,46.70 -1.48,48.02 -0.31,49.33 0.43,50.14 1.18,50.95 1.75,51.94 2.32,52.94 2.69,54.46 3.06,55.98 3.24,57.31 3.41,58.65 3.59,59.91 3.76,61.17 4.17,62.87 4.58,64.57 4.79,66.17 5.00,67.77 4.95,70.04 4.90,72.32 4.14,74.14 3.38,75.96 2.67,77.25 1.97,78.54 1.26,79.63 0.55,80.72 -0.13,81.68 -0.81,82.63 -1.62,83.78 -2.44,84.92 -3.38,86.51 -4.33,88.10 -5.09,89.20 -5.84,90.29 -6.44,91.33 -7.04,92.37 -8.89,94.52 -10.74,96.67 -11.22,96.91 -11.70,97.14 -12.23,97.21 -12.76,97.29 -13.28,97.18 -13.80,97.08 -14.26,96.82 -14.73,96.56 -15.08,96.16 -15.44,95.76 -15.65,95.27 -15.86,94.78 -15.90,94.25 -15.94,93.72 -15.81,93.21 -15.68,92.69 -15.40,92.24 -15.11,91.79 -14.69,91.46 -14.28,91.13 -13.78,90.94 -13.28,90.76 -12.74,90.75 -12.21,90.73 -11.70,90.89 -11.19,91.05 -10.76,91.36 -10.33,91.67 -10.02,92.10 -9.71,92.54 -9.55,93.05 -9.40,93.56 -9.41,94.09 -9.43,94.62 -9.61,95.12 -9.80,95.62 -10.13,96.03 -10.47,96.45 -10.92,96.74 -11.37,97.02 -11.88,97.15 -12.40,97.28 -12.93,97.23 -13.46,97.19 -13.95,96.98 -14.44,96.77 -14.84,96.41 -15.23,96.05 -15.49,95.59 -15.75,95.13 -15.85,94.60 -15.95,94.08 -15.88,93.55 -15.81,93.02 -15.57,92.55 -15.33,92.07 -14.95,91.69 -14.58,91.32 -14.58,91.32 -14.58,91.32 -13.74,90.46 -12.90,89.60 -12.13,88.39 -11.36,87.17 -10.65,86.31 -9.95,85.44 -9.22,84.59 -8.50,83.74 -7.78,82.62 -7.06,81.50 -6.14,80.44 -5.22,79.37 -3.97,77.67 -2.73,75.97 -2.15,74.89 -1.56,73.82 -1.10,72.80 -0.63,71.77 -0.52,69.87 -0.42,67.98 -0.41,66.74 -0.40,65.50 -0.62,63.59 -0.85,61.68 -0.96,60.36 -1.07,59.04 -1.11,57.92 -1.15,56.79 -1.28,55.68 -1.42,54.58 -2.15,53.02 -2.88,51.46 -3.89,50.15 -4.90,48.84 -6.32,47.38 -7.74,45.92 -9.81,43.96 -11.88,42.00 -13.34,40.39 -14.79,38.77 -15.71,36.88 -16.63,34.99 -16.73,33.53 -16.82,32.08 -16.72,30.27 -16.62,28.47 -16.33,25.85 -16.04,23.23 -15.37,20.86 -14.69,18.49 -13.55,15.71 -12.41,12.93 -10.89,10.37 -9.36,7.82 -7.17,5.12 -4.99,2.42 -3.12,0.55 -1.25,-1.31 -1.07,-1.44 -0.90,-1.57 -0.69,-1.66 -0.49,-1.74 -0.27,-1.78 -0.06,-1.81 0.15,-1.79 0.37,-1.77 0.58,-1.70 0.78,-1.63 0.97,-1.52 1.15,-1.40 1.30,-1.24 1.45,-1.08 1.56,-0.89 1.67,-0.70 1.73,-0.49 1.79,-0.28 1.80,-0.06 1.81,0.15 1.76,0.37 1.72,0.58 1.62,0.78 1.53,0.98 1.39,1.14 1.25,1.31 1.25,1.31 L 1.25,1.31 Z"></path></g><g transform="translate(436.9999999999998 483.66666666666663) rotate(0 -6.666666666666515 46.99999999999994)" stroke="none"><path fill="#777777" d="M 1.25,1.31 Q 1.25,1.31 -0.71,3.08 -2.67,4.86 -4.80,7.35 -6.92,9.84 -8.38,12.17 -9.83,14.50 -10.92,17.05 -12.01,19.61 -12.66,21.81 -13.32,24.01 -13.59,26.40 -13.86,28.78 -13.82,30.45 -13.77,32.12 -13.50,33.28 -13.23,34.45 -12.46,35.79 -11.69,37.12 -10.51,38.41 -9.34,39.69 -7.41,41.66 -5.49,43.62 -4.06,45.16 -2.64,46.70 -1.48,48.02 -0.31,49.33 0.43,50.14 1.18,50.95 1.75,51.94 2.32,52.94 2.69,54.46 3.06,55.98 3.24,57.31 3.41,58.65 3.59,59.91 3.76,61.17 4.17,62.87 4.58,64.57 4.79,66.17 5.00,67.77 4.95,70.04 4.90,72.32 4.14,74.14 3.38,75.96 2.67,77.25 1.97,78.54 1.26,79.63 0.55,80.72 -0.13,81.68 -0.81,82.63 -1.62,83.78 -2.44,84.92 -3.38,86.51 -4.33,88.10 -5.09,89.20 -5.84,90.29 -6.44,91.33 -7.04,92.37 -8.89,94.52 -10.74,96.67 -11.22,96.91 -11.70,97.14 -12.23,97.21 -12.76,97.29 -13.28,97.18 -13.80,97.08 -14.26,96.82 -14.73,96.56 -15.08,96.16 -15.44,95.76 -15.65,95.27 -15.86,94.78 -15.90,94.25 -15.94,93.72 -15.81,93.21 -15.68,92.69 -15.40,92.24 -15.11,91.79 -14.69,91.46 -14.28,91.13 -13.78,90.94 -13.28,90.76 -12.74,90.75 -12.21,90.73 -11.70,90.89 -11.19,91.05 -10.76,91.36 -10.33,91.67 -10.02,92.10 -9.71,92.54 -9.55,93.05 -9.40,93.56 -9.41,94.09 -9.43,94.62 -9.61,95.12 -9.80,95.62 -10.13,96.03 -10.47,96.45 -10.92,96.74 -11.37,97.02 -11.88,97.15 -12.40,97.28 -12.93,97.23 -13.46,97.19 -13.95,96.98 -14.44,96.77 -14.84,96.41 -15.23,96.05 -15.49,95.59 -15.75,95.13 -15.85,94.60 -15.95,94.08 -15.88,93.55 -15.81,93.02 -15.57,92.55 -15.33,92.07 -14.95,91.69 -14.58,91.32 -14.58,91.32 -14.58,91.32 -13.74,90.46 -12.90,89.60 -12.13,88.39 -11.36,87.17 -10.65,86.31 -9.95,85.44 -9.22,84.59 -8.50,83.74 -7.78,82.62 -7.06,81.50 -6.14,80.44 -5.22,79.37 -3.97,77.67 -2.73,75.97 -2.15,74.89 -1.56,73.82 -1.10,72.80 -0.63,71.77 -0.52,69.87 -0.42,67.98 -0.41,66.74 -0.40,65.50 -0.62,63.59 -0.85,61.68 -0.96,60.36 -1.07,59.04 -1.11,57.92 -1.15,56.79 -1.28,55.68 -1.42,54.58 -2.15,53.02 -2.88,51.46 -3.89,50.15 -4.90,48.84 -6.32,47.38 -7.74,45.92 -9.81,43.96 -11.88,42.00 -13.34,40.39 -14.79,38.77 -15.71,36.88 -16.63,34.99 -16.73,33.53 -16.82,32.08 -16.72,30.27 -16.62,28.47 -16.33,25.85 -16.04,23.23 -15.37,20.86 -14.69,18.49 -13.55,15.71 -12.41,12.93 -10.89,10.37 -9.36,7.82 -7.17,5.12 -4.99,2.42 -3.12,0.55 -1.25,-1.31 -1.07,-1.44 -0.90,-1.57 -0.69,-1.66 -0.49,-1.74 -0.27,-1.78 -0.06,-1.81 0.15,-1.79 0.37,-1.77 0.58,-1.70 0.78,-1.63 0.97,-1.52 1.15,-1.40 1.30,-1.24 1.45,-1.08 1.56,-0.89 1.67,-0.70 1.73,-0.49 1.79,-0.28 1.80,-0.06 1.81,0.15 1.76,0.37 1.72,0.58 1.62,0.78 1.53,0.98 1.39,1.14 1.25,1.31 1.25,1.31 L 1.25,1.31 Z"></path></g><g transform="translate(443.9999999999998 477.3333333333332) rotate(0 -18.166666666666515 -50.99999999999997)" stroke="none"><path fill="#777777" d="M -1.25,0.98 Q -1.25,0.98 -2.34,-0.32 -3.44,-1.63 -5.29,-4.16 -7.14,-6.69 -9.41,-10.83 -11.68,-14.98 -13.05,-19.33 -14.41,-23.67 -15.27,-29.02 -16.13,-34.36 -16.49,-38.17 -16.84,-41.97 -16.89,-45.73 -16.94,-49.50 -16.87,-52.34 -16.79,-55.19 -16.65,-57.47 -16.52,-59.74 -16.45,-61.49 -16.37,-63.24 -16.76,-64.50 -17.14,-65.77 -18.24,-65.90 -19.33,-66.03 -20.73,-66.24 -22.13,-66.46 -23.75,-66.88 -25.38,-67.30 -27.28,-68.65 -29.18,-70.00 -30.45,-71.68 -31.73,-73.37 -32.62,-76.30 -33.51,-79.23 -33.92,-81.91 -34.33,-84.59 -34.57,-87.07 -34.82,-89.55 -35.03,-90.88 -35.25,-92.21 -35.49,-93.54 -35.72,-94.86 -36.22,-95.95 -36.71,-97.04 -37.01,-98.15 -37.31,-99.26 -37.79,-99.69 -38.26,-100.11 -38.51,-100.47 -38.76,-100.83 -38.89,-101.24 -39.01,-101.66 -38.99,-102.10 -38.98,-102.54 -38.82,-102.95 -38.66,-103.35 -38.39,-103.69 -38.11,-104.03 -37.74,-104.26 -37.36,-104.49 -36.94,-104.59 -36.51,-104.69 -36.08,-104.65 -35.64,-104.61 -35.24,-104.43 -34.84,-104.25 -34.52,-103.96 -34.20,-103.66 -33.99,-103.28 -33.78,-102.89 -33.70,-102.46 -33.63,-102.03 -33.69,-101.60 -33.76,-101.17 -33.96,-100.78 -34.15,-100.39 -34.47,-100.09 -34.78,-99.78 -35.17,-99.59 -35.57,-99.40 -36.00,-99.35 -36.44,-99.30 -36.86,-99.38 -37.29,-99.47 -37.67,-99.69 -38.05,-99.91 -38.34,-100.24 -38.62,-100.57 -38.79,-100.97 -38.96,-101.38 -38.99,-101.81 -39.02,-102.25 -38.91,-102.67 -38.80,-103.09 -38.56,-103.46 -38.32,-103.82 -37.97,-104.09 -37.63,-104.36 -37.22,-104.51 -36.80,-104.65 -36.37,-104.66 -35.93,-104.67 -35.51,-104.53 -35.10,-104.40 -34.75,-104.14 -34.39,-103.88 -34.39,-103.88 -34.39,-103.88 -33.47,-100.78 -32.54,-97.68 -32.04,-96.40 -31.54,-95.12 -31.63,-93.83 -31.71,-92.54 -31.68,-91.24 -31.66,-89.93 -31.33,-87.56 -31.00,-85.18 -30.50,-82.76 -30.01,-80.34 -29.23,-78.02 -28.45,-75.71 -27.60,-74.51 -26.76,-73.32 -25.46,-72.42 -24.16,-71.52 -22.77,-71.14 -21.39,-70.76 -19.75,-70.46 -18.12,-70.15 -16.41,-69.45 -14.69,-68.74 -13.96,-66.98 -13.23,-65.23 -13.31,-64.11 -13.39,-62.99 -13.62,-61.29 -13.84,-59.59 -13.96,-57.36 -14.08,-55.12 -14.14,-52.33 -14.21,-49.54 -14.14,-45.89 -14.07,-42.24 -13.70,-38.53 -13.33,-34.82 -12.48,-29.69 -11.63,-24.55 -10.33,-20.50 -9.03,-16.44 -6.82,-12.52 -4.61,-8.61 -2.69,-6.17 -0.77,-3.73 0.23,-2.35 1.25,-0.98 1.35,-0.82 1.45,-0.65 1.51,-0.47 1.56,-0.28 1.58,-0.09 1.59,0.09 1.55,0.28 1.52,0.47 1.44,0.64 1.36,0.82 1.24,0.97 1.12,1.12 0.97,1.24 0.82,1.36 0.65,1.44 0.47,1.52 0.28,1.55 0.09,1.59 -0.09,1.58 -0.28,1.56 -0.46,1.51 -0.65,1.45 -0.81,1.35 -0.98,1.25 -1.11,1.12 -1.25,0.98 -1.25,0.98 L -1.25,0.98 Z"></path></g></svg>