<svg version="1.1" xmlns="http://www.w3.org/2000/svg" viewBox="0 0 203.4375 289.6874999999999" width="203.4375" height="289.6874999999999">
  <!-- svg-source:excalidraw -->
  
  <defs>
    <style class="style-fonts">
      @font-face {
        font-family: "Virgil";
        src: url("https://excalidraw.com/Virgil.woff2");
      }
      @font-face {
        font-family: "Cascadia";
        src: url("https://excalidraw.com/Cascadia.woff2");
      }
      @font-face {
        font-family: "Assistant";
        src: url("https://excalidraw.com/Assistant-Regular.woff2");
      }
    </style>
    
  </defs>
  <g transform="translate(114.0625 29.062499999999986) rotate(0 34.375 55.15624999999997)" stroke="none"><path fill="#777777" d="M 1.21,-0.50 Q 1.21,-0.50 2.64,2.90 4.08,6.31 5.30,8.71 6.52,11.10 7.71,12.77 8.90,14.44 10.39,15.60 11.88,16.76 13.40,17.71 14.92,18.66 16.28,19.43 17.64,20.19 19.09,20.86 20.53,21.53 22.36,22.16 24.19,22.79 26.21,23.32 28.22,23.85 30.09,24.66 31.96,25.46 33.53,26.47 35.10,27.48 36.43,28.67 37.77,29.86 38.83,31.23 39.90,32.61 40.86,33.88 41.82,35.15 42.81,36.93 43.81,38.71 44.69,40.86 45.58,43.00 46.06,45.15 46.55,47.31 46.84,49.59 47.13,51.86 47.26,54.20 47.38,56.54 47.43,58.70 47.48,60.86 47.77,62.86 48.05,64.87 48.44,67.17 48.83,69.47 49.44,71.75 50.04,74.02 50.74,76.14 51.44,78.27 52.26,80.21 53.09,82.16 54.06,84.14 55.03,86.12 56.14,88.02 57.26,89.91 58.36,91.60 59.45,93.30 60.44,94.63 61.43,95.95 62.38,97.14 63.34,98.33 64.19,99.37 65.05,100.42 65.78,101.32 66.51,102.22 67.44,103.72 68.37,105.22 69.16,107.49 69.94,109.76 70.00,109.97 70.05,110.17 70.04,110.38 70.03,110.60 69.95,110.79 69.87,110.99 69.73,111.15 69.59,111.31 69.41,111.42 69.23,111.53 69.02,111.57 68.81,111.62 68.60,111.60 68.39,111.57 68.20,111.48 68.00,111.39 67.85,111.24 67.70,111.10 67.60,110.91 67.50,110.72 67.47,110.51 67.43,110.30 67.47,110.09 67.50,109.88 67.60,109.70 67.70,109.51 67.86,109.36 68.01,109.22 68.21,109.13 68.40,109.04 68.61,109.02 68.82,109.00 69.03,109.04 69.24,109.09 69.42,109.20 69.60,109.31 69.74,109.47 69.87,109.64 69.95,109.83 70.03,110.03 70.04,110.24 70.05,110.46 69.99,110.66 69.93,110.86 69.81,111.04 69.69,111.21 69.52,111.34 69.35,111.47 69.15,111.54 68.95,111.60 68.74,111.60 68.53,111.60 68.33,111.53 68.12,111.47 67.96,111.34 67.79,111.21 67.67,111.03 67.55,110.85 67.55,110.85 67.55,110.85 66.82,108.69 66.10,106.53 65.28,105.20 64.46,103.87 63.74,102.98 63.02,102.08 62.15,101.03 61.29,99.97 60.30,98.74 59.32,97.52 58.28,96.12 57.25,94.73 56.12,92.98 54.99,91.24 53.83,89.26 52.67,87.28 51.67,85.23 50.67,83.18 49.81,81.13 48.95,79.09 48.22,76.89 47.50,74.69 46.87,72.30 46.24,69.91 45.85,67.57 45.45,65.23 45.15,63.08 44.86,60.92 44.81,58.80 44.76,56.68 44.64,54.44 44.53,52.19 44.25,50.03 43.98,47.87 43.56,45.93 43.15,43.99 42.33,41.99 41.51,39.98 40.62,38.36 39.72,36.73 38.77,35.46 37.81,34.20 36.91,33.00 36.01,31.81 34.84,30.74 33.66,29.68 32.29,28.78 30.91,27.87 29.23,27.13 27.55,26.39 25.44,25.83 23.33,25.27 21.38,24.59 19.43,23.91 17.89,23.20 16.36,22.48 14.94,21.68 13.52,20.89 11.88,19.85 10.24,18.81 8.51,17.40 6.78,15.98 5.48,14.14 4.18,12.30 2.92,9.82 1.66,7.33 0.22,3.92 -1.21,0.50 -1.25,0.35 -1.29,0.20 -1.30,0.04 -1.30,-0.11 -1.27,-0.26 -1.24,-0.42 -1.17,-0.56 -1.10,-0.70 -1.00,-0.82 -0.90,-0.95 -0.77,-1.04 -0.65,-1.14 -0.50,-1.20 -0.35,-1.26 -0.20,-1.28 -0.04,-1.31 0.11,-1.29 0.26,-1.28 0.41,-1.23 0.56,-1.18 0.70,-1.09 0.83,-1.01 0.94,-0.89 1.05,-0.78 1.13,-0.64 1.21,-0.50 1.21,-0.50 L 1.21,-0.50 Z"></path></g><g stroke-linecap="round" transform="translate(178.75 136.87499999999994) rotate(0 7.34375 7.65625)"><path d="M14.69 7.66 C14.69 8.1, 14.65 8.55, 14.58 8.99 C14.5 9.42, 14.39 9.86, 14.24 10.27 C14.1 10.69, 13.92 11.1, 13.7 11.48 C13.49 11.87, 13.24 12.24, 12.97 12.58 C12.7 12.92, 12.39 13.24, 12.06 13.52 C11.74 13.81, 11.38 14.07, 11.02 14.29 C10.65 14.51, 10.25 14.7, 9.86 14.85 C9.46 15, 9.04 15.12, 8.62 15.2 C8.2 15.27, 7.77 15.31, 7.34 15.31 C6.92 15.31, 6.49 15.27, 6.07 15.2 C5.65 15.12, 5.23 15, 4.83 14.85 C4.43 14.7, 4.04 14.51, 3.67 14.29 C3.3 14.07, 2.95 13.81, 2.62 13.52 C2.3 13.24, 1.99 12.92, 1.72 12.58 C1.44 12.24, 1.2 11.87, 0.98 11.48 C0.77 11.1, 0.59 10.69, 0.44 10.27 C0.3 9.86, 0.19 9.42, 0.11 8.99 C0.04 8.55, 0 8.1, 0 7.66 C0 7.21, 0.04 6.76, 0.11 6.33 C0.19 5.89, 0.3 5.45, 0.44 5.04 C0.59 4.62, 0.77 4.21, 0.98 3.83 C1.2 3.44, 1.44 3.07, 1.72 2.73 C1.99 2.4, 2.3 2.08, 2.62 1.79 C2.95 1.51, 3.3 1.25, 3.67 1.03 C4.04 0.8, 4.43 0.61, 4.83 0.46 C5.23 0.31, 5.65 0.19, 6.07 0.12 C6.49 0.04, 6.92 0, 7.34 0 C7.77 0, 8.2 0.04, 8.62 0.12 C9.04 0.19, 9.46 0.31, 9.86 0.46 C10.25 0.61, 10.65 0.8, 11.02 1.03 C11.38 1.25, 11.74 1.51, 12.06 1.79 C12.39 2.08, 12.7 2.4, 12.97 2.73 C13.24 3.07, 13.49 3.44, 13.7 3.83 C13.92 4.21, 14.1 4.62, 14.24 5.04 C14.39 5.45, 14.5 5.89, 14.58 6.33 C14.65 6.76, 14.67 7.43, 14.69 7.66 C14.71 7.88, 14.71 7.43, 14.69 7.66" stroke="#777777" stroke-width="1" fill="none"></path></g><g transform="translate(183.80999565124512 138.43749999999994) rotate(0 3.1749963760375977 7.8125)"><text x="0" y="10.95" font-family="Virgil, Segoe UI Emoji" font-size="12.5px" fill="#777777" text-anchor="start" style="white-space: pre;" direction="ltr" dominant-baseline="alphabetic">b</text></g><g transform="translate(102.8125 10) rotate(0 4.54400634765625 10)"><text x="0" y="14.016" font-family="Virgil, Segoe UI Emoji" font-size="16px" fill="#777777" text-anchor="start" style="white-space: pre;" direction="ltr" dominant-baseline="alphabetic">u</text></g><g transform="translate(95.625 187.1874999999999) rotate(0 4.1840057373046875 10)"><text x="0" y="14.016" font-family="Virgil, Segoe UI Emoji" font-size="16px" fill="#777777" text-anchor="start" style="white-space: pre;" direction="ltr" dominant-baseline="alphabetic">v</text></g><g transform="translate(25.3125 105.93749999999996) rotate(0 5.3360137939453125 10)"><text x="0" y="14.016" font-family="Virgil, Segoe UI Emoji" font-size="16px" fill="#777777" text-anchor="start" style="white-space: pre;" direction="ltr" dominant-baseline="alphabetic">a</text></g><g stroke-linecap="round" transform="translate(101.25 11.875) rotate(0 6.875 8.749999999999993)"><path d="M13.75 8.75 C13.75 9.26, 13.71 9.77, 13.65 10.27 C13.58 10.77, 13.47 11.27, 13.34 11.74 C13.2 12.22, 13.03 12.69, 12.83 13.12 C12.63 13.56, 12.4 13.99, 12.14 14.37 C11.89 14.76, 11.6 15.13, 11.29 15.45 C10.99 15.78, 10.66 16.07, 10.31 16.33 C9.97 16.58, 9.6 16.8, 9.23 16.97 C8.85 17.15, 8.46 17.28, 8.07 17.37 C7.68 17.46, 7.27 17.5, 6.88 17.5 C6.48 17.5, 6.07 17.46, 5.68 17.37 C5.29 17.28, 4.9 17.15, 4.52 16.97 C4.15 16.8, 3.78 16.58, 3.44 16.33 C3.09 16.07, 2.76 15.78, 2.46 15.45 C2.15 15.13, 1.86 14.76, 1.61 14.37 C1.35 13.99, 1.12 13.56, 0.92 13.12 C0.72 12.69, 0.55 12.22, 0.41 11.74 C0.28 11.27, 0.17 10.77, 0.1 10.27 C0.04 9.77, 0 9.26, 0 8.75 C0 8.24, 0.04 7.73, 0.1 7.23 C0.17 6.73, 0.28 6.23, 0.41 5.76 C0.55 5.28, 0.72 4.81, 0.92 4.38 C1.12 3.94, 1.35 3.51, 1.61 3.13 C1.86 2.74, 2.15 2.37, 2.46 2.05 C2.76 1.72, 3.09 1.43, 3.44 1.17 C3.78 0.92, 4.15 0.7, 4.52 0.53 C4.9 0.35, 5.29 0.22, 5.68 0.13 C6.07 0.04, 6.48 0, 6.87 0 C7.27 0, 7.68 0.04, 8.07 0.13 C8.46 0.22, 8.85 0.35, 9.23 0.53 C9.6 0.7, 9.97 0.92, 10.31 1.17 C10.66 1.43, 10.99 1.72, 11.29 2.05 C11.6 2.37, 11.89 2.74, 12.14 3.13 C12.4 3.51, 12.63 3.94, 12.83 4.37 C13.03 4.81, 13.2 5.28, 13.34 5.76 C13.47 6.23, 13.58 6.73, 13.65 7.23 C13.71 7.73, 13.73 8.5, 13.75 8.75 C13.77 9, 13.77 8.5, 13.75 8.75" stroke="#777777" stroke-width="1" fill="none"></path></g><g stroke-linecap="round" transform="translate(94.375 190.6249999999999) rotate(0 5.78125 6.25)"><path d="M11.56 6.25 C11.56 6.61, 11.53 6.98, 11.47 7.34 C11.42 7.69, 11.33 8.05, 11.21 8.39 C11.1 8.73, 10.96 9.06, 10.79 9.38 C10.62 9.69, 10.43 9.99, 10.21 10.27 C9.99 10.54, 9.75 10.81, 9.5 11.04 C9.24 11.27, 8.96 11.48, 8.67 11.66 C8.38 11.84, 8.07 12, 7.76 12.12 C7.44 12.25, 7.11 12.34, 6.79 12.41 C6.46 12.47, 6.12 12.5, 5.78 12.5 C5.45 12.5, 5.11 12.47, 4.78 12.41 C4.45 12.34, 4.12 12.25, 3.8 12.12 C3.49 12, 3.18 11.84, 2.89 11.66 C2.6 11.48, 2.32 11.27, 2.07 11.04 C1.81 10.81, 1.57 10.54, 1.35 10.27 C1.14 9.99, 0.94 9.69, 0.77 9.38 C0.61 9.06, 0.46 8.73, 0.35 8.39 C0.23 8.05, 0.15 7.69, 0.09 7.34 C0.03 6.98, 0 6.61, 0 6.25 C0 5.89, 0.03 5.52, 0.09 5.16 C0.15 4.81, 0.23 4.45, 0.35 4.11 C0.46 3.77, 0.61 3.44, 0.77 3.13 C0.94 2.81, 1.14 2.51, 1.35 2.23 C1.57 1.96, 1.81 1.69, 2.07 1.46 C2.32 1.23, 2.6 1.02, 2.89 0.84 C3.18 0.66, 3.49 0.5, 3.8 0.38 C4.12 0.25, 4.45 0.16, 4.78 0.09 C5.11 0.03, 5.45 0, 5.78 0 C6.12 0, 6.46 0.03, 6.79 0.09 C7.11 0.16, 7.44 0.25, 7.76 0.38 C8.07 0.5, 8.38 0.66, 8.67 0.84 C8.96 1.02, 9.24 1.23, 9.5 1.46 C9.75 1.69, 9.99 1.96, 10.21 2.23 C10.43 2.51, 10.62 2.81, 10.79 3.12 C10.96 3.44, 11.1 3.77, 11.21 4.11 C11.33 4.45, 11.42 4.81, 11.47 5.16 C11.53 5.52, 11.55 6.07, 11.56 6.25 C11.58 6.43, 11.58 6.07, 11.56 6.25" stroke="#777777" stroke-width="1" fill="none"></path></g><g stroke-linecap="round" transform="translate(23.4375 108.74999999999996) rotate(0 6.5625 9.53125)"><path d="M13.13 9.53 C13.13 10.08, 13.09 10.64, 13.03 11.19 C12.96 11.73, 12.86 12.27, 12.73 12.79 C12.6 13.31, 12.44 13.82, 12.25 14.3 C12.06 14.77, 11.83 15.24, 11.59 15.66 C11.35 16.08, 11.07 16.48, 10.78 16.83 C10.49 17.19, 10.17 17.51, 9.84 17.79 C9.51 18.06, 9.16 18.3, 8.81 18.49 C8.45 18.68, 8.08 18.82, 7.7 18.92 C7.33 19.01, 6.94 19.06, 6.56 19.06 C6.18 19.06, 5.8 19.01, 5.42 18.92 C5.05 18.82, 4.67 18.68, 4.32 18.49 C3.96 18.3, 3.61 18.06, 3.28 17.79 C2.95 17.51, 2.64 17.19, 2.34 16.83 C2.05 16.48, 1.78 16.08, 1.54 15.66 C1.29 15.24, 1.07 14.77, 0.88 14.3 C0.69 13.82, 0.53 13.31, 0.4 12.79 C0.27 12.27, 0.17 11.73, 0.1 11.19 C0.03 10.64, 0 10.08, 0 9.53 C0 8.98, 0.03 8.42, 0.1 7.88 C0.17 7.33, 0.27 6.79, 0.4 6.27 C0.53 5.75, 0.69 5.24, 0.88 4.77 C1.07 4.29, 1.29 3.83, 1.54 3.4 C1.78 2.98, 2.05 2.58, 2.34 2.23 C2.64 1.88, 2.95 1.55, 3.28 1.28 C3.61 1, 3.96 0.76, 4.32 0.57 C4.67 0.39, 5.05 0.24, 5.42 0.14 C5.8 0.05, 6.18 0, 6.56 0 C6.94 0, 7.33 0.05, 7.7 0.14 C8.08 0.24, 8.45 0.39, 8.81 0.57 C9.16 0.76, 9.51 1, 9.84 1.28 C10.17 1.55, 10.49 1.88, 10.78 2.23 C11.07 2.58, 11.35 2.98, 11.59 3.4 C11.83 3.83, 12.06 4.29, 12.25 4.77 C12.44 5.24, 12.6 5.75, 12.73 6.27 C12.86 6.79, 12.96 7.33, 13.03 7.88 C13.09 8.42, 13.11 9.26, 13.13 9.53 C13.14 9.81, 13.14 9.26, 13.13 9.53" stroke="#777777" stroke-width="1" fill="none"></path></g><g transform="translate(181.875 148.43749999999994) rotate(0 -35.15625 23.437499999999986)" stroke="none"><path fill="#777777" d="M 1.06,0.77 Q 1.06,0.77 0.34,1.76 -0.37,2.74 -1.07,3.56 -1.76,4.38 -3.10,5.70 -4.44,7.02 -5.69,8.19 -6.94,9.36 -8.17,10.62 -9.40,11.87 -10.65,13.12 -11.89,14.37 -13.52,15.69 -15.16,17.00 -16.11,17.57 -17.06,18.15 -18.37,18.61 -19.69,19.07 -20.90,19.51 -22.11,19.95 -23.13,20.39 -24.16,20.84 -25.92,21.87 -27.69,22.90 -29.51,24.05 -31.34,25.21 -32.93,26.42 -34.52,27.64 -35.99,28.85 -37.46,30.06 -38.65,31.21 -39.85,32.36 -41.13,33.43 -42.41,34.50 -43.38,35.13 -44.35,35.76 -45.37,36.34 -46.40,36.92 -47.79,37.65 -49.18,38.38 -50.39,39.15 -51.59,39.91 -52.72,40.48 -53.85,41.05 -55.08,41.66 -56.30,42.27 -57.45,43.13 -58.60,43.98 -59.63,44.86 -60.67,45.75 -61.76,46.07 -62.86,46.39 -64.24,46.63 -65.61,46.86 -67.75,47.49 -69.89,48.11 -70.10,48.15 -70.31,48.18 -70.52,48.15 -70.73,48.12 -70.91,48.02 -71.10,47.92 -71.25,47.76 -71.39,47.61 -71.48,47.42 -71.57,47.22 -71.60,47.01 -71.62,46.80 -71.57,46.59 -71.53,46.39 -71.42,46.20 -71.31,46.02 -71.15,45.88 -70.99,45.75 -70.79,45.67 -70.59,45.59 -70.38,45.58 -70.17,45.56 -69.96,45.62 -69.76,45.68 -69.58,45.80 -69.41,45.92 -69.28,46.08 -69.15,46.25 -69.08,46.45 -69.01,46.66 -69.01,46.87 -69.01,47.08 -69.08,47.28 -69.15,47.48 -69.27,47.65 -69.40,47.82 -69.58,47.94 -69.75,48.06 -69.96,48.12 -70.16,48.18 -70.38,48.16 -70.59,48.15 -70.79,48.07 -70.98,48.00 -71.15,47.86 -71.31,47.72 -71.42,47.54 -71.53,47.36 -71.57,47.15 -71.62,46.94 -71.60,46.73 -71.57,46.52 -71.48,46.33 -71.40,46.13 -71.25,45.98 -71.10,45.83 -70.92,45.73 -70.73,45.63 -70.73,45.63 -70.73,45.63 -68.61,44.95 -66.48,44.28 -65.29,44.11 -64.10,43.94 -62.89,43.61 -61.68,43.27 -60.56,42.27 -59.43,41.26 -58.46,40.59 -57.48,39.93 -56.25,39.31 -55.03,38.70 -53.59,37.99 -52.16,37.29 -51.27,36.67 -50.38,36.05 -49.07,35.36 -47.76,34.68 -46.73,34.09 -45.70,33.51 -44.81,32.93 -43.91,32.35 -42.80,31.42 -41.69,30.48 -40.44,29.28 -39.20,28.09 -37.63,26.80 -36.05,25.51 -34.41,24.26 -32.76,23.00 -31.82,22.39 -30.87,21.78 -29.02,20.70 -27.17,19.62 -26.18,19.02 -25.20,18.43 -24.10,17.95 -23.01,17.48 -21.77,17.03 -20.54,16.59 -19.47,16.24 -18.40,15.89 -16.76,14.80 -15.12,13.71 -13.81,12.49 -12.51,11.27 -11.28,10.03 -10.04,8.79 -8.82,7.51 -7.59,6.23 -6.30,5.12 -5.01,4.02 -3.75,2.61 -2.49,1.20 -1.78,0.21 -1.06,-0.77 -0.95,-0.88 -0.84,-1.00 -0.71,-1.09 -0.58,-1.17 -0.43,-1.23 -0.28,-1.28 -0.12,-1.29 0.03,-1.31 0.18,-1.28 0.34,-1.26 0.49,-1.20 0.63,-1.14 0.76,-1.05 0.89,-0.96 0.99,-0.84 1.09,-0.71 1.16,-0.57 1.23,-0.43 1.27,-0.28 1.30,-0.12 1.30,0.03 1.29,0.19 1.25,0.34 1.21,0.49 1.13,0.63 1.06,0.77 1.06,0.77 L 1.06,0.77 Z"></path></g><g transform="translate(92.1875 195.3124999999999) rotate(0 -30.3125 -34.06249999999997)" stroke="none"><path fill="#777777" d="M -0.08,1.31 Q -0.08,1.31 -1.51,1.22 -2.95,1.13 -4.60,0.90 -6.25,0.68 -8.16,0.22 -10.08,-0.24 -11.92,-0.90 -13.76,-1.56 -15.48,-2.40 -17.19,-3.24 -18.90,-4.13 -20.60,-5.02 -22.01,-5.65 -23.41,-6.28 -24.75,-6.92 -26.09,-7.56 -27.09,-8.00 -28.09,-8.45 -28.99,-9.06 -29.89,-9.67 -30.67,-10.42 -31.45,-11.18 -32.18,-12.18 -32.91,-13.19 -33.59,-14.46 -34.27,-15.73 -34.98,-16.94 -35.69,-18.14 -36.37,-19.40 -37.04,-20.66 -38.29,-22.35 -39.54,-24.04 -40.74,-25.30 -41.94,-26.56 -42.93,-27.66 -43.91,-28.76 -45.16,-30.40 -46.41,-32.04 -47.16,-33.36 -47.90,-34.68 -48.69,-36.69 -49.48,-38.70 -49.84,-40.23 -50.20,-41.76 -50.27,-43.02 -50.34,-44.28 -50.75,-45.44 -51.16,-46.61 -51.60,-48.02 -52.04,-49.42 -52.53,-50.91 -53.02,-52.40 -53.25,-53.46 -53.47,-54.51 -53.74,-56.08 -54.00,-57.65 -54.06,-58.87 -54.11,-60.10 -54.55,-61.08 -54.99,-62.05 -55.88,-62.88 -56.78,-63.71 -57.84,-64.31 -58.90,-64.91 -60.19,-66.01 -61.47,-67.12 -61.61,-67.28 -61.75,-67.45 -61.83,-67.64 -61.90,-67.84 -61.91,-68.05 -61.93,-68.27 -61.87,-68.47 -61.81,-68.68 -61.69,-68.85 -61.57,-69.03 -61.40,-69.15 -61.23,-69.28 -61.03,-69.35 -60.83,-69.42 -60.62,-69.42 -60.40,-69.42 -60.20,-69.35 -60.00,-69.28 -59.83,-69.15 -59.66,-69.02 -59.54,-68.84 -59.43,-68.67 -59.37,-68.46 -59.31,-68.26 -59.33,-68.04 -59.34,-67.83 -59.42,-67.64 -59.50,-67.44 -59.64,-67.28 -59.77,-67.12 -59.96,-67.01 -60.14,-66.90 -60.35,-66.85 -60.55,-66.81 -60.77,-66.83 -60.98,-66.86 -61.17,-66.95 -61.36,-67.04 -61.51,-67.18 -61.67,-67.33 -61.77,-67.52 -61.87,-67.71 -61.90,-67.92 -61.93,-68.13 -61.90,-68.33 -61.86,-68.54 -61.76,-68.73 -61.66,-68.92 -61.51,-69.06 -61.35,-69.21 -61.16,-69.30 -60.97,-69.39 -60.76,-69.41 -60.54,-69.43 -60.34,-69.38 -60.13,-69.34 -59.95,-69.23 -59.77,-69.12 -59.77,-69.12 -59.77,-69.12 -58.46,-67.99 -57.16,-66.87 -56.11,-66.27 -55.07,-65.67 -54.18,-64.89 -53.29,-64.10 -52.66,-63.08 -52.02,-62.05 -51.75,-60.77 -51.47,-59.49 -51.37,-58.14 -51.26,-56.79 -50.89,-55.00 -50.52,-53.22 -49.99,-51.57 -49.46,-49.92 -49.07,-48.71 -48.69,-47.50 -48.20,-45.94 -47.72,-44.37 -47.67,-43.30 -47.62,-42.22 -47.30,-40.89 -46.99,-39.55 -46.30,-37.76 -45.61,-35.96 -44.94,-34.77 -44.27,-33.57 -43.12,-32.04 -41.96,-30.51 -41.00,-29.44 -40.04,-28.37 -38.79,-27.06 -37.54,-25.74 -36.71,-24.75 -35.88,-23.76 -35.30,-22.83 -34.73,-21.91 -34.08,-20.69 -33.42,-19.47 -32.69,-18.22 -31.96,-16.96 -30.78,-15.00 -29.61,-13.04 -28.31,-11.94 -27.02,-10.84 -25.99,-10.39 -24.96,-9.93 -23.65,-9.30 -22.33,-8.68 -20.86,-8.01 -19.39,-7.35 -17.71,-6.48 -16.04,-5.60 -14.45,-4.82 -12.86,-4.03 -11.16,-3.41 -9.45,-2.79 -7.67,-2.35 -5.89,-1.91 -4.34,-1.70 -2.79,-1.49 -1.35,-1.40 0.08,-1.31 0.23,-1.28 0.39,-1.25 0.53,-1.18 0.68,-1.12 0.80,-1.02 0.93,-0.92 1.02,-0.80 1.12,-0.67 1.18,-0.53 1.25,-0.38 1.28,-0.23 1.31,-0.07 1.30,0.08 1.29,0.23 1.24,0.39 1.19,0.54 1.11,0.67 1.03,0.81 0.91,0.92 0.80,1.03 0.67,1.11 0.53,1.19 0.38,1.24 0.23,1.29 0.07,1.30 -0.08,1.31 -0.08,1.31 L -0.08,1.31 Z"></path></g><g transform="translate(34.6875 101.56249999999996) rotate(0 32.1875 -39.531249999999986)" stroke="none"><path fill="#777777" d="M -1.24,-0.42 Q -1.24,-0.42 -0.07,-3.83 1.09,-7.25 1.95,-9.45 2.82,-11.64 3.53,-13.79 4.24,-15.94 4.82,-17.67 5.40,-19.41 6.09,-21.57 6.78,-23.74 7.24,-25.61 7.71,-27.48 7.80,-28.82 7.90,-30.15 7.76,-31.55 7.63,-32.96 7.57,-34.53 7.52,-36.11 7.58,-37.54 7.65,-38.97 8.06,-40.43 8.48,-41.89 9.24,-43.29 10.00,-44.69 10.81,-45.69 11.63,-46.69 12.56,-47.51 13.49,-48.33 14.40,-49.10 15.31,-49.87 16.21,-50.71 17.11,-51.55 17.94,-52.36 18.77,-53.17 19.78,-54.07 20.78,-54.97 21.82,-55.97 22.85,-56.96 23.94,-57.94 25.03,-58.92 26.01,-59.85 26.99,-60.79 28.19,-61.70 29.40,-62.60 30.55,-63.35 31.70,-64.09 32.87,-64.92 34.04,-65.75 35.28,-66.57 36.52,-67.40 38.37,-68.66 40.22,-69.92 41.91,-71.02 43.61,-72.12 44.63,-72.74 45.65,-73.35 46.60,-73.96 47.55,-74.57 48.98,-75.47 50.40,-76.37 51.57,-76.96 52.74,-77.56 53.74,-78.07 54.75,-78.59 56.25,-79.09 57.74,-79.59 59.07,-79.81 60.40,-80.03 62.24,-80.18 64.08,-80.34 64.30,-80.35 64.51,-80.36 64.71,-80.31 64.92,-80.25 65.09,-80.13 65.27,-80.01 65.40,-79.85 65.53,-79.68 65.60,-79.48 65.67,-79.27 65.67,-79.06 65.67,-78.85 65.60,-78.65 65.53,-78.45 65.40,-78.28 65.28,-78.11 65.10,-77.99 64.93,-77.87 64.72,-77.81 64.52,-77.75 64.30,-77.76 64.09,-77.77 63.89,-77.85 63.70,-77.93 63.53,-78.07 63.37,-78.20 63.26,-78.39 63.15,-78.57 63.11,-78.77 63.06,-78.98 63.08,-79.19 63.10,-79.40 63.19,-79.60 63.28,-79.79 63.43,-79.95 63.57,-80.10 63.76,-80.20 63.95,-80.30 64.16,-80.34 64.37,-80.37 64.58,-80.34 64.79,-80.30 64.97,-80.20 65.16,-80.11 65.31,-79.95 65.45,-79.80 65.54,-79.61 65.63,-79.41 65.66,-79.20 65.68,-78.99 65.64,-78.78 65.59,-78.58 65.48,-78.39 65.37,-78.21 65.21,-78.07 65.05,-77.93 64.85,-77.86 64.66,-77.78 64.66,-77.78 64.66,-77.78 62.89,-77.60 61.13,-77.42 59.97,-77.31 58.80,-77.19 57.39,-76.66 55.97,-76.13 54.87,-75.64 53.78,-75.14 52.78,-74.64 51.78,-74.14 50.37,-73.25 48.96,-72.35 47.99,-71.73 47.01,-71.10 46.03,-70.51 45.05,-69.92 43.43,-68.87 41.81,-67.82 39.89,-66.51 37.97,-65.20 36.76,-64.41 35.55,-63.61 34.34,-62.75 33.12,-61.89 32.05,-61.19 30.97,-60.49 29.89,-59.69 28.80,-58.89 27.79,-57.93 26.79,-56.97 25.73,-56.01 24.67,-55.06 23.60,-54.04 22.54,-53.02 21.57,-52.15 20.60,-51.28 19.75,-50.46 18.90,-49.63 17.96,-48.75 17.01,-47.86 16.11,-47.10 15.21,-46.34 13.75,-44.88 12.29,-43.41 11.64,-42.27 10.99,-41.13 10.63,-39.98 10.27,-38.83 10.21,-37.52 10.14,-36.20 10.19,-34.70 10.25,-33.19 10.38,-31.57 10.51,-29.95 10.38,-28.40 10.26,-26.85 9.77,-24.90 9.28,-22.94 8.59,-20.76 7.89,-18.58 7.31,-16.84 6.74,-15.11 6.00,-12.89 5.26,-10.68 4.42,-8.54 3.57,-6.40 2.41,-2.98 1.24,0.42 1.17,0.56 1.10,0.71 1.00,0.83 0.90,0.95 0.77,1.04 0.64,1.14 0.50,1.20 0.35,1.26 0.19,1.28 0.04,1.31 -0.11,1.29 -0.27,1.28 -0.42,1.23 -0.57,1.18 -0.70,1.09 -0.83,1.01 -0.94,0.89 -1.05,0.78 -1.13,0.64 -1.21,0.50 -1.25,0.35 -1.29,0.20 -1.30,0.04 -1.30,-0.11 -1.27,-0.27 -1.24,-0.42 -1.24,-0.42 L -1.24,-0.42 Z"></path></g><g transform="translate(107.8125 31.562499999999986) rotate(0 -5 78.12499999999996)" stroke="none"><path fill="#777777" d="M 1.27,0.30 Q 1.27,0.30 0.91,1.83 0.55,3.35 -0.17,5.02 -0.90,6.68 -1.74,8.43 -2.58,10.18 -3.66,12.37 -4.73,14.55 -5.91,16.91 -7.08,19.28 -8.21,21.62 -9.33,23.96 -10.05,26.14 -10.77,28.32 -11.06,30.08 -11.35,31.84 -11.39,33.34 -11.43,34.85 -11.11,36.07 -10.78,37.30 -10.39,38.37 -10.00,39.43 -9.04,41.38 -8.08,43.32 -7.22,44.97 -6.36,46.62 -5.63,48.05 -4.90,49.48 -4.48,50.49 -4.06,51.50 -3.69,52.79 -3.31,54.08 -2.97,55.73 -2.63,57.37 -2.48,59.02 -2.33,60.67 -2.27,62.09 -2.21,63.51 -2.09,65.07 -1.98,66.63 -1.67,68.31 -1.36,69.99 -0.96,71.88 -0.56,73.77 -0.12,75.45 0.30,77.14 0.83,78.51 1.35,79.89 1.94,81.40 2.53,82.91 2.99,84.71 3.44,86.51 3.73,88.19 4.01,89.87 3.96,91.69 3.90,93.50 3.59,95.04 3.28,96.58 2.77,98.00 2.26,99.42 1.68,100.82 1.11,102.22 0.50,103.62 -0.09,105.02 -0.60,106.47 -1.11,107.92 -1.51,109.08 -1.91,110.25 -2.12,111.89 -2.33,113.54 -2.16,115.03 -1.99,116.51 -1.50,118.28 -1.01,120.05 -0.72,121.10 -0.42,122.15 -0.27,123.42 -0.13,124.70 -0.16,125.82 -0.19,126.95 -0.40,128.04 -0.61,129.12 -1.18,131.01 -1.76,132.90 -2.38,134.66 -2.99,136.41 -3.31,137.69 -3.63,138.97 -3.66,140.04 -3.68,141.11 -3.68,142.44 -3.68,143.78 -3.68,145.09 -3.68,146.40 -3.68,147.67 -3.68,148.94 -3.68,150.10 -3.68,151.26 -3.68,153.75 -3.68,156.25 -3.72,156.45 -3.75,156.66 -3.85,156.85 -3.95,157.04 -4.10,157.19 -4.26,157.33 -4.45,157.42 -4.64,157.51 -4.85,157.53 -5.07,157.56 -5.27,157.51 -5.48,157.47 -5.66,157.36 -5.85,157.25 -5.98,157.08 -6.12,156.92 -6.20,156.72 -6.28,156.53 -6.29,156.32 -6.30,156.10 -6.24,155.90 -6.19,155.69 -6.07,155.52 -5.95,155.34 -5.78,155.21 -5.61,155.08 -5.41,155.02 -5.21,154.95 -4.99,154.95 -4.78,154.95 -4.58,155.02 -4.38,155.08 -4.21,155.21 -4.04,155.34 -3.92,155.52 -3.80,155.69 -3.75,155.90 -3.69,156.10 -3.70,156.32 -3.71,156.53 -3.79,156.72 -3.87,156.92 -4.01,157.08 -4.15,157.25 -4.33,157.36 -4.51,157.47 -4.72,157.51 -4.92,157.56 -5.14,157.53 -5.35,157.51 -5.54,157.42 -5.73,157.33 -5.89,157.19 -6.04,157.04 -6.14,156.85 -6.24,156.66 -6.27,156.45 -6.31,156.24 -6.31,156.24 -6.31,156.24 -6.31,154.22 -6.31,152.20 -6.31,151.05 -6.31,149.91 -6.31,148.65 -6.31,147.40 -6.31,146.27 -6.31,145.13 -6.31,144.05 -6.31,142.97 -6.31,141.72 -6.30,140.47 -6.22,139.15 -6.14,137.82 -5.80,136.66 -5.46,135.50 -4.85,133.78 -4.25,132.06 -3.71,130.33 -3.18,128.60 -2.96,126.79 -2.74,124.97 -2.84,123.92 -2.95,122.86 -3.25,121.81 -3.54,120.76 -4.07,118.84 -4.59,116.92 -4.77,115.14 -4.95,113.36 -4.67,111.38 -4.39,109.40 -3.99,108.22 -3.58,107.04 -3.04,105.51 -2.50,103.98 -1.91,102.60 -1.31,101.22 -0.75,99.87 -0.20,98.52 0.25,97.28 0.71,96.05 0.99,94.72 1.28,93.39 1.35,91.85 1.42,90.30 1.16,88.72 0.90,87.14 0.49,85.50 0.08,83.86 -0.50,82.34 -1.09,80.82 -1.66,79.31 -2.23,77.80 -2.68,76.06 -3.13,74.32 -3.54,72.39 -3.95,70.46 -4.27,68.64 -4.60,66.82 -4.72,65.22 -4.83,63.62 -4.89,62.26 -4.95,60.90 -5.08,59.40 -5.20,57.90 -5.52,56.35 -5.84,54.80 -6.54,52.74 -7.24,50.67 -7.97,49.25 -8.69,47.83 -9.57,46.16 -10.44,44.48 -11.45,42.41 -12.47,40.33 -12.90,39.13 -13.34,37.93 -13.69,36.36 -14.05,34.80 -14.00,33.10 -13.94,31.40 -13.60,29.45 -13.26,27.50 -12.48,25.16 -11.70,22.83 -10.57,20.47 -9.43,18.11 -8.26,15.75 -7.09,13.39 -6.02,11.22 -4.95,9.05 -4.12,7.33 -3.30,5.61 -2.64,4.18 -1.99,2.74 -1.63,1.22 -1.27,-0.30 -1.22,-0.44 -1.16,-0.59 -1.08,-0.72 -0.99,-0.86 -0.87,-0.96 -0.75,-1.07 -0.61,-1.14 -0.47,-1.22 -0.32,-1.26 -0.17,-1.30 -0.01,-1.30 0.14,-1.30 0.29,-1.26 0.45,-1.23 0.59,-1.16 0.73,-1.08 0.85,-0.98 0.97,-0.88 1.06,-0.75 1.15,-0.62 1.21,-0.47 1.27,-0.32 1.29,-0.17 1.31,-0.01 1.29,0.14 1.27,0.30 1.27,0.30 L 1.27,0.30 Z"></path></g><g stroke-linecap="round" transform="translate(89.6875 260.3124999999999) rotate(0 9.375 9.6875)"><path d="M18.75 9.69 C18.75 10.25, 18.7 10.82, 18.61 11.37 C18.51 11.92, 18.37 12.47, 18.18 13 C18 13.53, 17.77 14.05, 17.49 14.53 C17.22 15.02, 16.91 15.48, 16.56 15.91 C16.21 16.34, 15.82 16.75, 15.4 17.11 C14.99 17.47, 14.53 17.8, 14.06 18.08 C13.59 18.36, 13.09 18.6, 12.58 18.79 C12.07 18.98, 11.54 19.13, 11 19.23 C10.47 19.33, 9.92 19.38, 9.38 19.38 C8.83 19.38, 8.28 19.33, 7.75 19.23 C7.21 19.13, 6.68 18.98, 6.17 18.79 C5.66 18.6, 5.16 18.36, 4.69 18.08 C4.22 17.8, 3.76 17.47, 3.35 17.11 C2.93 16.75, 2.54 16.34, 2.19 15.91 C1.84 15.48, 1.53 15.02, 1.26 14.53 C0.98 14.05, 0.75 13.53, 0.57 13 C0.38 12.47, 0.24 11.92, 0.14 11.37 C0.05 10.82, 0 10.25, 0 9.69 C0 9.13, 0.05 8.56, 0.14 8.01 C0.24 7.45, 0.38 6.9, 0.57 6.37 C0.75 5.85, 0.98 5.33, 1.26 4.84 C1.53 4.36, 1.84 3.89, 2.19 3.46 C2.54 3.03, 2.93 2.63, 3.35 2.27 C3.76 1.91, 4.22 1.58, 4.69 1.3 C5.16 1.02, 5.66 0.78, 6.17 0.58 C6.68 0.39, 7.21 0.24, 7.75 0.15 C8.28 0.05, 8.83 0, 9.37 0 C9.92 0, 10.47 0.05, 11 0.15 C11.54 0.24, 12.07 0.39, 12.58 0.58 C13.09 0.78, 13.59 1.02, 14.06 1.3 C14.53 1.58, 14.99 1.91, 15.4 2.27 C15.82 2.63, 16.21 3.03, 16.56 3.46 C16.91 3.89, 17.22 4.36, 17.49 4.84 C17.77 5.33, 18 5.85, 18.18 6.37 C18.37 6.9, 18.51 7.45, 18.61 8.01 C18.7 8.56, 18.73 9.41, 18.75 9.69 C18.77 9.97, 18.77 9.41, 18.75 9.69" stroke="#777777" stroke-width="1" fill="none"></path></g><g transform="translate(190.9375 154.06249999999994) rotate(0 -41.5625 58.124999999999986)" stroke="none"><path fill="#777777" d="M 1.07,0.74 Q 1.07,0.74 0.27,1.91 -0.53,3.08 -1.22,4.18 -1.90,5.28 -2.54,6.44 -3.18,7.61 -3.78,9.20 -4.39,10.80 -4.81,12.60 -5.24,14.40 -5.51,15.96 -5.78,17.53 -5.90,18.96 -6.01,20.39 -5.88,21.91 -5.75,23.43 -5.44,25.13 -5.12,26.83 -4.80,28.67 -4.48,30.50 -4.17,32.07 -3.86,33.64 -3.63,35.06 -3.40,36.48 -3.30,37.66 -3.20,38.84 -3.25,40.12 -3.30,41.40 -3.51,42.55 -3.72,43.69 -4.09,45.00 -4.46,46.31 -5.00,47.56 -5.54,48.81 -6.14,49.89 -6.75,50.98 -7.37,51.99 -7.98,52.99 -9.24,55.08 -10.49,57.18 -11.28,58.46 -12.08,59.74 -13.32,62.13 -14.57,64.53 -15.73,66.64 -16.90,68.75 -17.72,70.18 -18.55,71.62 -19.73,73.51 -20.91,75.41 -22.44,77.27 -23.98,79.13 -25.65,80.75 -27.31,82.37 -29.06,83.64 -30.81,84.90 -32.34,85.96 -33.88,87.02 -35.75,88.04 -37.62,89.07 -39.41,89.95 -41.19,90.83 -42.55,91.55 -43.91,92.27 -45.00,92.92 -46.10,93.57 -47.79,94.82 -49.48,96.07 -50.37,96.77 -51.26,97.47 -52.22,98.15 -53.17,98.83 -55.05,99.91 -56.93,100.99 -58.92,101.93 -60.91,102.88 -61.91,103.38 -62.92,103.87 -63.89,104.35 -64.85,104.83 -66.45,105.57 -68.05,106.30 -69.02,106.84 -69.99,107.38 -70.96,108.14 -71.93,108.90 -72.76,109.83 -73.60,110.76 -74.34,111.53 -75.09,112.30 -76.07,113.41 -77.05,114.52 -78.07,115.13 -79.09,115.74 -80.76,116.71 -82.42,117.67 -82.62,117.75 -82.82,117.84 -83.03,117.85 -83.24,117.87 -83.45,117.81 -83.65,117.76 -83.83,117.64 -84.01,117.53 -84.14,117.36 -84.27,117.19 -84.34,116.99 -84.41,116.79 -84.42,116.58 -84.42,116.37 -84.35,116.16 -84.29,115.96 -84.16,115.79 -84.04,115.62 -83.86,115.50 -83.69,115.37 -83.49,115.31 -83.28,115.25 -83.07,115.26 -82.86,115.27 -82.66,115.35 -82.46,115.42 -82.30,115.56 -82.13,115.69 -82.02,115.87 -81.91,116.05 -81.86,116.26 -81.81,116.47 -81.83,116.68 -81.85,116.89 -81.94,117.08 -82.02,117.28 -82.17,117.43 -82.31,117.59 -82.49,117.69 -82.68,117.80 -82.89,117.83 -83.10,117.87 -83.31,117.84 -83.52,117.81 -83.71,117.71 -83.90,117.62 -84.05,117.46 -84.20,117.31 -84.29,117.12 -84.38,116.93 -84.41,116.72 -84.43,116.51 -84.39,116.30 -84.35,116.09 -84.24,115.91 -84.13,115.72 -83.97,115.58 -83.81,115.44 -83.81,115.44 -83.82,115.44 -82.21,114.52 -80.60,113.60 -79.47,112.84 -78.33,112.08 -77.58,111.20 -76.82,110.32 -76.09,109.36 -75.35,108.40 -74.36,107.55 -73.36,106.70 -72.30,105.88 -71.24,105.06 -70.21,104.50 -69.17,103.93 -67.60,103.20 -66.02,102.48 -65.05,102.00 -64.08,101.52 -63.07,101.02 -62.05,100.52 -60.93,99.97 -59.81,99.43 -58.11,98.71 -56.41,97.99 -55.55,97.34 -54.70,96.69 -53.79,96.05 -52.88,95.40 -51.94,94.66 -50.99,93.92 -50.12,93.31 -49.25,92.69 -48.34,92.00 -47.44,91.32 -46.29,90.63 -45.14,89.94 -43.74,89.21 -42.35,88.47 -40.61,87.61 -38.88,86.76 -37.12,85.81 -35.37,84.86 -33.86,83.82 -32.35,82.77 -30.74,81.63 -29.14,80.48 -27.57,78.97 -26.00,77.45 -24.57,75.74 -23.14,74.02 -21.98,72.16 -20.82,70.30 -19.97,68.82 -19.11,67.33 -18.02,65.35 -16.93,63.37 -16.15,61.78 -15.37,60.19 -14.84,59.27 -14.31,58.35 -13.52,57.07 -12.72,55.79 -11.47,53.70 -10.22,51.61 -9.63,50.66 -9.04,49.70 -8.49,48.73 -7.94,47.75 -7.46,46.67 -6.98,45.59 -6.45,43.44 -5.92,41.29 -5.87,40.17 -5.82,39.06 -5.91,37.98 -6.00,36.89 -6.22,35.52 -6.44,34.16 -6.75,32.55 -7.07,30.95 -7.39,29.13 -7.70,27.31 -8.04,25.47 -8.37,23.64 -8.50,21.91 -8.63,20.19 -8.50,18.63 -8.37,17.08 -8.08,15.43 -7.79,13.78 -7.32,11.82 -6.84,9.86 -6.16,8.10 -5.49,6.34 -4.81,5.12 -4.13,3.89 -3.41,2.73 -2.69,1.58 -1.88,0.42 -1.07,-0.74 -0.97,-0.86 -0.86,-0.98 -0.73,-1.07 -0.60,-1.16 -0.46,-1.21 -0.31,-1.27 -0.15,-1.29 0.00,-1.31 0.15,-1.29 0.31,-1.27 0.46,-1.21 0.61,-1.16 0.74,-1.07 0.87,-0.98 0.97,-0.86 1.08,-0.74 1.15,-0.60 1.22,-0.46 1.26,-0.31 1.30,-0.15 1.30,0.00 1.30,0.16 1.26,0.31 1.22,0.46 1.15,0.60 1.07,0.74 1.07,0.74 L 1.07,0.74 Z"></path></g><g transform="translate(94.375 270.6249999999999) rotate(0 -42.1875 -72.49999999999997)" stroke="none"><path fill="#777777" d="M -0.34,1.26 Q -0.34,1.26 -4.02,0.28 -7.70,-0.70 -10.59,-1.77 -13.47,-2.84 -15.28,-3.77 -17.09,-4.69 -18.18,-5.25 -19.28,-5.81 -20.46,-6.64 -21.64,-7.46 -22.95,-8.54 -24.26,-9.62 -25.71,-11.42 -27.15,-13.22 -28.41,-15.37 -29.67,-17.52 -30.57,-19.64 -31.48,-21.77 -32.22,-23.64 -32.95,-25.52 -33.62,-27.10 -34.28,-28.69 -35.06,-30.00 -35.85,-31.32 -36.80,-32.68 -37.75,-34.04 -38.87,-35.52 -39.99,-36.99 -41.33,-38.48 -42.68,-39.97 -44.23,-41.50 -45.78,-43.02 -47.35,-44.58 -48.92,-46.14 -50.40,-47.71 -51.89,-49.29 -53.27,-50.98 -54.65,-52.66 -55.82,-54.72 -57.00,-56.77 -57.88,-59.23 -58.75,-61.69 -59.47,-63.88 -60.19,-66.06 -60.93,-68.04 -61.67,-70.01 -62.24,-71.17 -62.80,-72.32 -63.57,-73.59 -64.33,-74.87 -65.18,-76.11 -66.04,-77.36 -66.94,-78.61 -67.84,-79.86 -68.75,-81.00 -69.65,-82.14 -70.66,-83.34 -71.67,-84.54 -72.86,-85.63 -74.05,-86.71 -75.32,-88.03 -76.60,-89.36 -77.81,-90.96 -79.02,-92.56 -80.00,-94.16 -80.98,-95.77 -81.74,-97.07 -82.50,-98.36 -83.04,-99.61 -83.58,-100.87 -83.99,-102.04 -84.40,-103.21 -84.77,-104.54 -85.13,-105.88 -85.29,-107.80 -85.46,-109.72 -85.44,-111.54 -85.41,-113.36 -85.31,-114.77 -85.20,-116.18 -85.14,-117.98 -85.09,-119.78 -84.88,-121.44 -84.67,-123.10 -84.31,-124.24 -83.95,-125.37 -83.52,-126.57 -83.10,-127.76 -82.39,-129.51 -81.69,-131.27 -81.22,-132.38 -80.75,-133.49 -80.72,-134.79 -80.68,-136.09 -80.53,-137.36 -80.38,-138.62 -79.85,-139.78 -79.31,-140.94 -78.50,-142.11 -77.69,-143.28 -75.74,-144.70 -73.79,-146.12 -73.60,-146.20 -73.40,-146.28 -73.19,-146.29 -72.98,-146.30 -72.77,-146.24 -72.57,-146.19 -72.39,-146.07 -72.21,-145.95 -72.09,-145.78 -71.96,-145.61 -71.89,-145.41 -71.82,-145.20 -71.82,-144.99 -71.82,-144.78 -71.89,-144.58 -71.96,-144.38 -72.09,-144.21 -72.22,-144.04 -72.40,-143.92 -72.57,-143.80 -72.78,-143.75 -72.98,-143.69 -73.19,-143.70 -73.41,-143.71 -73.60,-143.79 -73.80,-143.87 -73.96,-144.01 -74.12,-144.15 -74.23,-144.33 -74.34,-144.51 -74.39,-144.72 -74.43,-144.93 -74.41,-145.14 -74.38,-145.35 -74.29,-145.54 -74.21,-145.73 -74.06,-145.89 -73.91,-146.04 -73.72,-146.14 -73.54,-146.24 -73.33,-146.27 -73.12,-146.31 -72.91,-146.27 -72.70,-146.24 -72.51,-146.14 -72.32,-146.04 -72.18,-145.88 -72.03,-145.73 -71.94,-145.54 -71.85,-145.34 -71.83,-145.13 -71.81,-144.92 -71.85,-144.71 -71.90,-144.51 -72.01,-144.32 -72.12,-144.14 -72.28,-144.01 -72.45,-143.87 -72.45,-143.87 -72.45,-143.87 -73.86,-142.90 -75.28,-141.93 -76.10,-140.90 -76.91,-139.88 -77.36,-138.53 -77.81,-137.18 -77.94,-135.93 -78.07,-134.68 -78.21,-133.40 -78.35,-132.13 -78.82,-131.18 -79.28,-130.22 -79.95,-128.55 -80.62,-126.88 -81.04,-125.72 -81.45,-124.57 -81.78,-123.55 -82.11,-122.54 -82.28,-121.13 -82.46,-119.72 -82.52,-117.86 -82.59,-115.99 -82.68,-114.65 -82.78,-113.32 -82.81,-111.62 -82.84,-109.93 -82.72,-108.24 -82.59,-106.55 -82.26,-105.31 -81.92,-104.07 -81.55,-102.98 -81.17,-101.90 -80.70,-100.79 -80.24,-99.69 -79.49,-98.41 -78.73,-97.13 -77.82,-95.63 -76.92,-94.13 -75.81,-92.66 -74.70,-91.18 -73.49,-89.91 -72.27,-88.64 -70.97,-87.44 -69.67,-86.23 -68.63,-85.01 -67.60,-83.78 -66.65,-82.59 -65.71,-81.40 -64.79,-80.12 -63.87,-78.84 -62.97,-77.53 -62.08,-76.21 -61.26,-74.84 -60.44,-73.47 -59.83,-72.20 -59.22,-70.94 -58.46,-68.91 -57.69,-66.88 -56.99,-64.73 -56.28,-62.57 -55.49,-60.31 -54.71,-58.06 -53.66,-56.19 -52.61,-54.32 -51.30,-52.70 -49.99,-51.09 -48.52,-49.55 -47.06,-48.00 -45.50,-46.44 -43.93,-44.89 -42.33,-43.31 -40.73,-41.73 -39.31,-40.16 -37.90,-38.58 -36.75,-37.06 -35.60,-35.55 -34.59,-34.10 -33.58,-32.66 -32.72,-31.18 -31.86,-29.70 -31.18,-28.09 -30.51,-26.48 -29.78,-24.63 -29.06,-22.79 -28.23,-20.82 -27.39,-18.84 -26.24,-16.85 -25.09,-14.85 -23.84,-13.25 -22.58,-11.64 -21.35,-10.62 -20.12,-9.60 -19.10,-8.88 -18.09,-8.15 -16.99,-7.59 -15.89,-7.03 -14.22,-6.16 -12.55,-5.30 -9.79,-4.27 -7.02,-3.24 -3.34,-2.25 0.34,-1.26 0.48,-1.20 0.63,-1.15 0.76,-1.05 0.89,-0.96 0.99,-0.84 1.09,-0.72 1.16,-0.58 1.23,-0.44 1.27,-0.28 1.30,-0.13 1.30,0.02 1.30,0.18 1.25,0.33 1.21,0.49 1.14,0.62 1.06,0.76 0.95,0.88 0.85,1.00 0.71,1.08 0.58,1.17 0.43,1.22 0.28,1.28 0.13,1.29 -0.02,1.31 -0.18,1.29 -0.34,1.26 -0.34,1.26 L -0.34,1.26 Z"></path></g></svg>