<?xml version="1.0" encoding="UTF-8" standalone="no"?>
<!DOCTYPE svg PUBLIC "-//W3C//DTD SVG 1.1//EN"
 "http://www.w3.org/Graphics/SVG/1.1/DTD/svg11.dtd">
<!-- Generated by graphviz version 2.43.0 (0)
 -->
<!-- Title: K5 Pages: 1 -->
<svg width="184pt" height="332pt"
 viewBox="0.00 0.00 183.70 332.00" xmlns="http://www.w3.org/2000/svg" xmlns:xlink="http://www.w3.org/1999/xlink">
<g id="page0,1_graph0" class="graph" transform="scale(1 1) rotate(0) translate(4 328)">
<title>K5</title>
<!-- 0 -->
<g id="node1" class="node">
<title>0</title>
<ellipse fill="white" stroke="red" cx="65.7" cy="-306" rx="27" ry="18"/>
<text text-anchor="middle" x="65.7" y="-302.3" font-family="Times,serif" font-size="14.00">0</text>
</g>
<!-- 1 -->
<g id="node2" class="node">
<title>1</title>
<ellipse fill="white" stroke="red" cx="93.7" cy="-234" rx="27" ry="18"/>
<text text-anchor="middle" x="93.7" y="-230.3" font-family="Times,serif" font-size="14.00">1</text>
</g>
<!-- 0&#45;&#45;1 -->
<g id="edge1" class="edge">
<title>0&#45;&#45;1</title>
<path fill="none" stroke="#777777" stroke-width="3" d="M72.34,-288.41C76.8,-277.25 82.66,-262.6 87.12,-251.47"/>
</g>
<!-- 2 -->
<g id="node3" class="node">
<title>2</title>
<ellipse fill="white" stroke="red" cx="38.7" cy="-162" rx="27" ry="18"/>
<text text-anchor="middle" x="38.7" y="-158.3" font-family="Times,serif" font-size="14.00">2</text>
</g>
<!-- 0&#45;&#45;2 -->
<g id="edge2" class="edge">
<title>0&#45;&#45;2</title>
<path fill="none" stroke="#777777" stroke-width="3" d="M62.45,-287.87C57.26,-260.58 47.17,-207.52 41.97,-180.19"/>
</g>
<!-- 3 -->
<g id="node4" class="node">
<title>3</title>
<ellipse fill="white" stroke="red" cx="148.7" cy="-90" rx="27" ry="18"/>
<text text-anchor="middle" x="148.7" y="-86.3" font-family="Times,serif" font-size="14.00">3</text>
</g>
<!-- 0&#45;&#45;3 -->
<g id="edge3" class="edge">
<title>0&#45;&#45;3</title>
<path fill="none" stroke="#777777" stroke-width="3" d="M86.03,-293.92C100.77,-284.74 119.78,-270.25 129.7,-252 155.26,-205.03 153.35,-139.09 150.66,-108.22"/>
</g>
<!-- 4 -->
<g id="node5" class="node">
<title>4</title>
<ellipse fill="white" stroke="red" cx="66.7" cy="-18" rx="27" ry="18"/>
<text text-anchor="middle" x="66.7" y="-14.3" font-family="Times,serif" font-size="14.00">4</text>
</g>
<!-- 0&#45;&#45;4 -->
<g id="edge4" class="edge">
<title>0&#45;&#45;4</title>
<path fill="none" stroke="#777777" stroke-width="3" d="M52.98,-289.91C30.95,-261.92 -10.73,-199.73 2.7,-144 12.93,-101.57 40.15,-57.37 55.59,-34.61"/>
</g>
<!-- 1&#45;&#45;2 -->
<g id="edge5" class="edge">
<title>1&#45;&#45;2</title>
<path fill="none" stroke="#777777" stroke-width="3" d="M81.77,-217.81C72.55,-206.07 59.84,-189.89 50.62,-178.16"/>
</g>
<!-- 1&#45;&#45;3 -->
<g id="edge6" class="edge">
<title>1&#45;&#45;3</title>
<path fill="none" stroke="#777777" stroke-width="3" d="M100.12,-216.43C110.66,-189.22 131.53,-135.33 142.16,-107.9"/>
</g>
<!-- 1&#45;&#45;4 -->
<g id="edge7" class="edge">
<title>1&#45;&#45;4</title>
<path fill="none" stroke="#777777" stroke-width="3" d="M91.54,-215.85C86.49,-175.78 73.94,-76.38 68.88,-36.23"/>
</g>
<!-- 2&#45;&#45;3 -->
<g id="edge8" class="edge">
<title>2&#45;&#45;3</title>
<path fill="none" stroke="#777777" stroke-width="3" d="M57.87,-148.81C78.05,-135.96 109.66,-115.85 129.76,-103.05"/>
</g>
<!-- 2&#45;&#45;4 -->
<g id="edge9" class="edge">
<title>2&#45;&#45;4</title>
<path fill="none" stroke="#777777" stroke-width="3" d="M42.08,-143.87C47.46,-116.58 57.93,-63.52 63.32,-36.19"/>
</g>
<!-- 3&#45;&#45;4 -->
<g id="edge10" class="edge">
<title>3&#45;&#45;4</title>
<path fill="none" stroke="#777777" stroke-width="3" d="M132.5,-75.17C118.04,-62.82 96.97,-44.83 82.59,-32.56"/>
</g>
</g>
</svg>
