<?xml version="1.0" encoding="UTF-8" standalone="no"?>
<!DOCTYPE svg PUBLIC "-//W3C//DTD SVG 1.1//EN"
 "http://www.w3.org/Graphics/SVG/1.1/DTD/svg11.dtd">
<!-- Generated by graphviz version 2.43.0 (0)
 -->
<!-- Title: Labled Pages: 1 -->
<svg width="161pt" height="241pt"
 viewBox="0.00 0.00 161.00 241.22" xmlns="http://www.w3.org/2000/svg" xmlns:xlink="http://www.w3.org/1999/xlink">
<g id="page0,1_graph0" class="graph" transform="scale(1 1) rotate(0) translate(4 237.22)">
<title>Labled</title>
<!-- a -->
<g id="node1" class="node">
<title>a</title>
<ellipse fill="white" stroke="red" cx="99" cy="-206.35" rx="27" ry="26.74"/>
<text text-anchor="middle" x="99" y="-210.15" font-family="Times,serif" font-size="14.00">a</text>
<text text-anchor="middle" x="99" y="-195.15" font-family="Times,serif" font-size="14.00">0</text>
</g>
<!-- b -->
<g id="node2" class="node">
<title>b</title>
<ellipse fill="white" stroke="red" cx="27" cy="-116.61" rx="27" ry="26.74"/>
<text text-anchor="middle" x="27" y="-120.41" font-family="Times,serif" font-size="14.00">b</text>
<text text-anchor="middle" x="27" y="-105.41" font-family="Times,serif" font-size="14.00">1</text>
</g>
<!-- a&#45;&#45;b -->
<g id="edge1" class="edge">
<title>a&#45;&#45;b</title>
<path fill="none" stroke="#777777" stroke-width="3" d="M82.3,-185C70.67,-170.83 55.22,-152 43.61,-137.85"/>
</g>
<!-- c -->
<g id="node3" class="node">
<title>c</title>
<ellipse fill="white" stroke="red" cx="99" cy="-116.61" rx="27" ry="26.74"/>
<text text-anchor="middle" x="99" y="-120.41" font-family="Times,serif" font-size="14.00">c</text>
<text text-anchor="middle" x="99" y="-105.41" font-family="Times,serif" font-size="14.00">2</text>
</g>
<!-- a&#45;&#45;c -->
<g id="edge2" class="edge">
<title>a&#45;&#45;c</title>
<path fill="none" stroke="#777777" stroke-width="3" d="M99,-179.03C99,-167.82 99,-154.78 99,-143.61"/>
</g>
<!-- d -->
<g id="node4" class="node">
<title>d</title>
<ellipse fill="white" stroke="red" cx="126" cy="-26.87" rx="27" ry="26.74"/>
<text text-anchor="middle" x="126" y="-30.67" font-family="Times,serif" font-size="14.00">d</text>
<text text-anchor="middle" x="126" y="-15.67" font-family="Times,serif" font-size="14.00">3</text>
</g>
<!-- a&#45;&#45;d -->
<g id="edge3" class="edge">
<title>a&#45;&#45;d</title>
<path fill="none" stroke="#777777" stroke-width="3" d="M114.83,-184.55C122.55,-173.1 131.02,-158.24 135,-143.48 143.18,-113.16 138.05,-76.86 132.79,-53.13"/>
</g>
<!-- c&#45;&#45;d -->
<g id="edge4" class="edge">
<title>c&#45;&#45;d</title>
<path fill="none" stroke="#777777" stroke-width="3" d="M106.66,-90.7C110.31,-78.85 114.67,-64.7 118.32,-52.84"/>
</g>
</g>
</svg>
