<?xml version="1.0" encoding="UTF-8" standalone="no"?>
<!DOCTYPE svg PUBLIC "-//W3C//DTD SVG 1.1//EN"
 "http://www.w3.org/Graphics/SVG/1.1/DTD/svg11.dtd">
<!-- Generated by graphviz version 2.43.0 (0)
 -->
<!-- Title: ElectronicCircuit Pages: 1 -->
<svg width="103pt" height="404pt"
 viewBox="0.00 0.00 102.64 404.00" xmlns="http://www.w3.org/2000/svg" xmlns:xlink="http://www.w3.org/1999/xlink">
<g id="page0,1_graph0" class="graph" transform="scale(1 1) rotate(0) translate(4 400)">
<title>ElectronicCircuit</title>
<!-- a -->
<g id="node1" class="node">
<title>a</title>
<ellipse fill="white" stroke="red" cx="60.2" cy="-378" rx="33.6" ry="18"/>
<text text-anchor="middle" x="60.2" y="-374.3" font-family="Times,serif" font-size="14.00">a, 10</text>
</g>
<!-- b -->
<g id="node2" class="node">
<title>b</title>
<ellipse fill="white" stroke="red" cx="60.2" cy="-306" rx="28.7" ry="18"/>
<text text-anchor="middle" x="60.2" y="-302.3" font-family="Times,serif" font-size="14.00">b, 5</text>
</g>
<!-- a&#45;&gt;b -->
<g id="edge1" class="edge">
<title>a&#45;&gt;b</title>
<path fill="none" stroke="#777777" stroke-width="3" d="M60.2,-359.7C60.2,-351.98 60.2,-342.71 60.2,-334.11"/>
<polygon fill="#777777" stroke="#777777" stroke-width="3" points="63.7,-334.1 60.2,-324.1 56.7,-334.1 63.7,-334.1"/>
</g>
<!-- c -->
<g id="node3" class="node">
<title>c</title>
<ellipse fill="white" stroke="red" cx="60.2" cy="-234" rx="27.1" ry="18"/>
<text text-anchor="middle" x="60.2" y="-230.3" font-family="Times,serif" font-size="14.00">c, 3</text>
</g>
<!-- b&#45;&gt;c -->
<g id="edge2" class="edge">
<title>b&#45;&gt;c</title>
<path fill="none" stroke="#777777" stroke-width="3" d="M60.2,-287.7C60.2,-279.98 60.2,-270.71 60.2,-262.11"/>
<polygon fill="#777777" stroke="#777777" stroke-width="3" points="63.7,-262.1 60.2,-252.1 56.7,-262.1 63.7,-262.1"/>
</g>
<!-- d -->
<g id="node4" class="node">
<title>d</title>
<ellipse fill="white" stroke="red" cx="31.2" cy="-162" rx="31.4" ry="18"/>
<text text-anchor="middle" x="31.2" y="-158.3" font-family="Times,serif" font-size="14.00">d, &#45;4</text>
</g>
<!-- c&#45;&gt;d -->
<g id="edge3" class="edge">
<title>c&#45;&gt;d</title>
<path fill="none" stroke="#777777" stroke-width="3" d="M53.32,-216.41C49.98,-208.34 45.88,-198.43 42.12,-189.35"/>
<polygon fill="#777777" stroke="#777777" stroke-width="3" points="45.28,-187.86 38.22,-179.96 38.82,-190.53 45.28,-187.86"/>
</g>
<!-- e -->
<g id="node5" class="node">
<title>e</title>
<ellipse fill="white" stroke="red" cx="60.2" cy="-90" rx="27.9" ry="18"/>
<text text-anchor="middle" x="60.2" y="-86.3" font-family="Times,serif" font-size="14.00">e, 3</text>
</g>
<!-- d&#45;&gt;e -->
<g id="edge4" class="edge">
<title>d&#45;&gt;e</title>
<path fill="none" stroke="#777777" stroke-width="3" d="M38.07,-144.41C41.46,-136.22 45.64,-126.14 49.44,-116.95"/>
<polygon fill="#777777" stroke="#777777" stroke-width="3" points="52.78,-118.05 53.37,-107.47 46.31,-115.37 52.78,-118.05"/>
</g>
<!-- e&#45;&gt;c -->
<g id="edge6" class="edge">
<title>e&#45;&gt;c</title>
<path fill="none" stroke="#777777" stroke-width="3" d="M64.66,-108.05C67.13,-118.37 69.95,-131.85 71.2,-144 72.83,-159.92 72.83,-164.08 71.2,-180 70.32,-188.54 68.67,-197.74 66.9,-206.04"/>
<polygon fill="#777777" stroke="#777777" stroke-width="3" points="63.45,-205.43 64.66,-215.95 70.28,-206.97 63.45,-205.43"/>
</g>
<!-- f -->
<g id="node6" class="node">
<title>f</title>
<ellipse fill="white" stroke="red" cx="60.2" cy="-18" rx="34.39" ry="18"/>
<text text-anchor="middle" x="60.2" y="-14.3" font-family="Times,serif" font-size="14.00">f, &#45;10</text>
</g>
<!-- e&#45;&gt;f -->
<g id="edge5" class="edge">
<title>e&#45;&gt;f</title>
<path fill="none" stroke="#777777" stroke-width="3" d="M60.2,-71.7C60.2,-63.98 60.2,-54.71 60.2,-46.11"/>
<polygon fill="#777777" stroke="#777777" stroke-width="3" points="63.7,-46.1 60.2,-36.1 56.7,-46.1 63.7,-46.1"/>
</g>
</g>
</svg>
