<svg version="1.1" xmlns="http://www.w3.org/2000/svg" viewBox="0 0 198.66666666666652 206.9999999999999" width="198.66666666666652" height="206.9999999999999">
  <!-- svg-source:excalidraw -->
  
  <defs>
    <style class="style-fonts">
      @font-face {
        font-family: "Virgil";
        src: url("https://excalidraw.com/Virgil.woff2");
      }
      @font-face {
        font-family: "Cascadia";
        src: url("https://excalidraw.com/Cascadia.woff2");
      }
      @font-face {
        font-family: "Assistant";
        src: url("https://excalidraw.com/Assistant-Regular.woff2");
      }
    </style>
    
  </defs>
  <g stroke-linecap="round" transform="translate(149.70833333333303 114.09883920351653) rotate(0 7.34375 7.65625)"><path d="M14.69 7.66 C14.69 8.1, 14.65 8.55, 14.58 8.99 C14.5 9.42, 14.39 9.86, 14.24 10.27 C14.1 10.69, 13.92 11.1, 13.7 11.48 C13.49 11.87, 13.24 12.24, 12.97 12.58 C12.7 12.92, 12.39 13.24, 12.06 13.52 C11.74 13.81, 11.38 14.07, 11.02 14.29 C10.65 14.51, 10.25 14.7, 9.86 14.85 C9.46 15, 9.04 15.12, 8.62 15.2 C8.2 15.27, 7.77 15.31, 7.34 15.31 C6.92 15.31, 6.49 15.27, 6.07 15.2 C5.65 15.12, 5.23 15, 4.83 14.85 C4.43 14.7, 4.04 14.51, 3.67 14.29 C3.3 14.07, 2.95 13.81, 2.62 13.52 C2.3 13.24, 1.99 12.92, 1.72 12.58 C1.44 12.24, 1.2 11.87, 0.98 11.48 C0.77 11.1, 0.59 10.69, 0.44 10.27 C0.3 9.86, 0.19 9.42, 0.11 8.99 C0.04 8.55, 0 8.1, 0 7.66 C0 7.21, 0.04 6.76, 0.11 6.33 C0.19 5.89, 0.3 5.45, 0.44 5.04 C0.59 4.62, 0.77 4.21, 0.98 3.83 C1.2 3.44, 1.44 3.07, 1.72 2.73 C1.99 2.4, 2.3 2.08, 2.62 1.79 C2.95 1.51, 3.3 1.25, 3.67 1.03 C4.04 0.8, 4.43 0.61, 4.83 0.46 C5.23 0.31, 5.65 0.19, 6.07 0.12 C6.49 0.04, 6.92 0, 7.34 0 C7.77 0, 8.2 0.04, 8.62 0.12 C9.04 0.19, 9.46 0.31, 9.86 0.46 C10.25 0.61, 10.65 0.8, 11.02 1.03 C11.38 1.25, 11.74 1.51, 12.06 1.79 C12.39 2.08, 12.7 2.4, 12.97 2.73 C13.24 3.07, 13.49 3.44, 13.7 3.83 C13.92 4.21, 14.1 4.62, 14.24 5.04 C14.39 5.45, 14.5 5.89, 14.58 6.33 C14.65 6.76, 14.67 7.43, 14.69 7.66 C14.71 7.88, 14.71 7.43, 14.69 7.66" stroke="#777777" stroke-width="1" fill="none"></path></g><g transform="translate(153.9349956512449 114.49467253684988) rotate(0 3.1749963760375977 7.8125)"><text x="0" y="10.95" font-family="Virgil, Segoe UI Emoji" font-size="12.5px" fill="#777777" text-anchor="start" style="white-space: pre;" direction="ltr" dominant-baseline="alphabetic">b</text></g><g transform="translate(40.291666666666515 156.41133920351655) rotate(0 4.552009582519531 10)"><text x="0" y="14.016" font-family="Virgil, Segoe UI Emoji" font-size="16px" fill="#777777" text-anchor="start" style="white-space: pre;" direction="ltr" dominant-baseline="alphabetic">d</text></g><g transform="translate(40.375 94.09883920351656) rotate(0 5.3360137939453125 10)"><text x="0" y="14.016" font-family="Virgil, Segoe UI Emoji" font-size="16px" fill="#777777" text-anchor="start" style="white-space: pre;" direction="ltr" dominant-baseline="alphabetic">a</text></g><g stroke-linecap="round" transform="translate(38.562499999999886 156.11967253684986) rotate(0 6.875 8.75)"><path d="M13.75 8.75 C13.75 9.26, 13.71 9.77, 13.65 10.27 C13.58 10.77, 13.47 11.27, 13.34 11.74 C13.2 12.22, 13.03 12.69, 12.83 13.12 C12.63 13.56, 12.4 13.99, 12.14 14.37 C11.89 14.76, 11.6 15.13, 11.29 15.45 C10.99 15.78, 10.66 16.07, 10.31 16.33 C9.97 16.58, 9.6 16.8, 9.23 16.97 C8.85 17.15, 8.46 17.28, 8.07 17.37 C7.68 17.46, 7.27 17.5, 6.88 17.5 C6.48 17.5, 6.07 17.46, 5.68 17.37 C5.29 17.28, 4.9 17.15, 4.52 16.97 C4.15 16.8, 3.78 16.58, 3.44 16.33 C3.09 16.07, 2.76 15.78, 2.46 15.45 C2.15 15.13, 1.86 14.76, 1.61 14.37 C1.35 13.99, 1.12 13.56, 0.92 13.12 C0.72 12.69, 0.55 12.22, 0.41 11.74 C0.28 11.27, 0.17 10.77, 0.1 10.27 C0.04 9.77, 0 9.26, 0 8.75 C0 8.24, 0.04 7.73, 0.1 7.23 C0.17 6.73, 0.28 6.23, 0.41 5.76 C0.55 5.28, 0.72 4.81, 0.92 4.38 C1.12 3.94, 1.35 3.51, 1.61 3.13 C1.86 2.74, 2.15 2.37, 2.46 2.05 C2.76 1.72, 3.09 1.43, 3.44 1.17 C3.78 0.92, 4.15 0.7, 4.52 0.53 C4.9 0.35, 5.29 0.22, 5.68 0.13 C6.07 0.04, 6.48 0, 6.87 0 C7.27 0, 7.68 0.04, 8.07 0.13 C8.46 0.22, 8.85 0.35, 9.23 0.53 C9.6 0.7, 9.97 0.92, 10.31 1.17 C10.66 1.43, 10.99 1.72, 11.29 2.05 C11.6 2.37, 11.89 2.74, 12.14 3.13 C12.4 3.51, 12.63 3.94, 12.83 4.37 C13.03 4.81, 13.2 5.28, 13.34 5.76 C13.47 6.23, 13.58 6.73, 13.65 7.23 C13.71 7.73, 13.73 8.5, 13.75 8.75 C13.77 9, 13.77 8.5, 13.75 8.75" stroke="#777777" stroke-width="1" fill="none"></path></g><g stroke-linecap="round" transform="translate(38.5 96.91133920351656) rotate(0 6.5625 9.53125)"><path d="M13.13 9.53 C13.13 10.08, 13.09 10.64, 13.03 11.19 C12.96 11.73, 12.86 12.27, 12.73 12.79 C12.6 13.31, 12.44 13.82, 12.25 14.3 C12.06 14.77, 11.83 15.24, 11.59 15.66 C11.35 16.08, 11.07 16.48, 10.78 16.83 C10.49 17.19, 10.17 17.51, 9.84 17.79 C9.51 18.06, 9.16 18.3, 8.81 18.49 C8.45 18.68, 8.08 18.82, 7.7 18.92 C7.33 19.01, 6.94 19.06, 6.56 19.06 C6.18 19.06, 5.8 19.01, 5.42 18.92 C5.05 18.82, 4.67 18.68, 4.32 18.49 C3.96 18.3, 3.61 18.06, 3.28 17.79 C2.95 17.51, 2.64 17.19, 2.34 16.83 C2.05 16.48, 1.78 16.08, 1.54 15.66 C1.29 15.24, 1.07 14.77, 0.88 14.3 C0.69 13.82, 0.53 13.31, 0.4 12.79 C0.27 12.27, 0.17 11.73, 0.1 11.19 C0.03 10.64, 0 10.08, 0 9.53 C0 8.98, 0.03 8.42, 0.1 7.88 C0.17 7.33, 0.27 6.79, 0.4 6.27 C0.53 5.75, 0.69 5.24, 0.88 4.77 C1.07 4.29, 1.29 3.83, 1.54 3.4 C1.78 2.98, 2.05 2.58, 2.34 2.23 C2.64 1.88, 2.95 1.55, 3.28 1.28 C3.61 1, 3.96 0.76, 4.32 0.57 C4.67 0.39, 5.05 0.24, 5.42 0.14 C5.8 0.05, 6.18 0, 6.56 0 C6.94 0, 7.33 0.05, 7.7 0.14 C8.08 0.24, 8.45 0.39, 8.81 0.57 C9.16 0.76, 9.51 1, 9.84 1.28 C10.17 1.55, 10.49 1.88, 10.78 2.23 C11.07 2.58, 11.35 2.98, 11.59 3.4 C11.83 3.83, 12.06 4.29, 12.25 4.77 C12.44 5.24, 12.6 5.75, 12.73 6.27 C12.86 6.79, 12.96 7.33, 13.03 7.88 C13.09 8.42, 13.11 9.26, 13.13 9.53 C13.14 9.81, 13.14 9.26, 13.13 9.53" stroke="#777777" stroke-width="1" fill="none"></path></g><g stroke-linecap="round" transform="translate(127.5625 59.24467253684993) rotate(0 9.375 9.6875)"><path d="M18.75 9.69 C18.75 10.25, 18.7 10.82, 18.61 11.37 C18.51 11.92, 18.37 12.47, 18.18 13 C18 13.53, 17.77 14.05, 17.49 14.53 C17.22 15.02, 16.91 15.48, 16.56 15.91 C16.21 16.34, 15.82 16.75, 15.4 17.11 C14.99 17.47, 14.53 17.8, 14.06 18.08 C13.59 18.36, 13.09 18.6, 12.58 18.79 C12.07 18.98, 11.54 19.13, 11 19.23 C10.47 19.33, 9.92 19.38, 9.38 19.38 C8.83 19.38, 8.28 19.33, 7.75 19.23 C7.21 19.13, 6.68 18.98, 6.17 18.79 C5.66 18.6, 5.16 18.36, 4.69 18.08 C4.22 17.8, 3.76 17.47, 3.35 17.11 C2.93 16.75, 2.54 16.34, 2.19 15.91 C1.84 15.48, 1.53 15.02, 1.26 14.53 C0.98 14.05, 0.75 13.53, 0.57 13 C0.38 12.47, 0.24 11.92, 0.14 11.37 C0.05 10.82, 0 10.25, 0 9.69 C0 9.13, 0.05 8.56, 0.14 8.01 C0.24 7.45, 0.38 6.9, 0.57 6.37 C0.75 5.85, 0.98 5.33, 1.26 4.84 C1.53 4.36, 1.84 3.89, 2.19 3.46 C2.54 3.03, 2.93 2.63, 3.35 2.27 C3.76 1.91, 4.22 1.58, 4.69 1.3 C5.16 1.02, 5.66 0.78, 6.17 0.58 C6.68 0.39, 7.21 0.24, 7.75 0.15 C8.28 0.05, 8.83 0, 9.37 0 C9.92 0, 10.47 0.05, 11 0.15 C11.54 0.24, 12.07 0.39, 12.58 0.58 C13.09 0.78, 13.59 1.02, 14.06 1.3 C14.53 1.58, 14.99 1.91, 15.4 2.27 C15.82 2.63, 16.21 3.03, 16.56 3.46 C16.91 3.89, 17.22 4.36, 17.49 4.84 C17.77 5.33, 18 5.85, 18.18 6.37 C18.37 6.9, 18.51 7.45, 18.61 8.01 C18.7 8.56, 18.73 9.41, 18.75 9.69 C18.77 9.97, 18.77 9.41, 18.75 9.69" stroke="#777777" stroke-width="1" fill="none"></path></g><g transform="translate(133.8125 58.61967253684993) rotate(0 4.0160064697265625 10)"><text x="0" y="14.016" font-family="Virgil, Segoe UI Emoji" font-size="16px" fill="#777777" text-anchor="start" style="white-space: pre;" direction="ltr" dominant-baseline="alphabetic">c</text></g><g stroke-linecap="round"><g transform="translate(51.33333333333337 107.3333333333333) rotate(0 49.66666666666657 6.249999999999986)"><path d="M0 0 C29.45 3.71, 58.9 7.41, 99.33 12.5 M0 0 C20.07 2.53, 40.14 5.05, 99.33 12.5" stroke="#777777" stroke-width="1" fill="none"></path></g></g><mask></mask><g stroke-linecap="round"><g transform="translate(131 75.99999999999999) rotate(0 -41 40.24999999999997)"><path d="M0 0 C-32.47 31.87, -64.93 63.74, -82 80.5 M0 0 C-30.42 29.86, -60.84 59.72, -82 80.5" stroke="#777777" stroke-width="1" fill="none"></path></g></g><mask></mask><g stroke-linecap="round"><g transform="translate(130.83333333333326 75.3333333333333) rotate(0 23 17.249999999999986)"><path d="M0 0 C9.92 7.44, 19.83 14.87, 46 34.5 M0 0 C16.05 12.04, 32.1 24.07, 46 34.5" stroke="#777777" stroke-width="1" fill="none"></path></g></g><mask></mask><g stroke-linecap="round"><g transform="translate(176.83333333333303 110.49999999999996) rotate(0 -7.499999999999886 42.24999999999997)"><path d="M0 0 C-4.24 23.9, -8.49 47.8, -15 84.5 M0 0 C-3.47 19.53, -6.93 39.06, -15 84.5" stroke="#777777" stroke-width="1" fill="none"></path></g></g><mask></mask><g stroke-linecap="round"><g transform="translate(162.16666666666652 194.9999999999999) rotate(0 -45.749999999999886 -4.666666666666657)"><path d="M0 0 C-30.56 -3.12, -61.12 -6.23, -91.5 -9.33 M0 0 C-22 -2.24, -44 -4.49, -91.5 -9.33" stroke="#777777" stroke-width="1" fill="none"></path></g></g><mask></mask><g stroke-linecap="round"><g transform="translate(70.83333333333337 185.4999999999999) rotate(0 39.833333333333314 -32.74999999999997)"><path d="M0 0 C28.13 -23.13, 56.25 -46.25, 79.67 -65.5 M0 0 C27.29 -22.44, 54.58 -44.87, 79.67 -65.5" stroke="#777777" stroke-width="1" fill="none"></path></g></g><mask></mask><g stroke-linecap="round"><g transform="translate(51.16666666666674 106.8333333333333) rotate(0 -1.6666666666666856 24.916666666666643)"><path d="M0 0 C-0.79 11.88, -1.59 23.76, -3.33 49.83 M0 0 C-1.2 17.99, -2.41 35.98, -3.33 49.83" stroke="#777777" stroke-width="1" fill="none"></path></g></g><mask></mask><g stroke-linecap="round"><g transform="translate(10 150.99999999999994) rotate(0 89.33333333333326 -40.999999999999986)"><path d="M0 0 C39.5 -18.13, 79.01 -36.26, 178.67 -82 M0 0 C64.08 -29.41, 128.17 -58.82, 178.67 -82" stroke="#e03131" stroke-width="1" fill="none"></path></g></g><mask></mask><g transform="translate(133.66666666666652 59.99999999999997) rotate(0 -44.08333333333326 -6.499999999999993)" stroke="none"><path fill="#777777" d="M -1.25,0.39 Q -1.25,0.39 -1.87,-1.56 -2.49,-3.53 -2.83,-5.96 -3.17,-8.39 -3.31,-10.47 -3.44,-12.56 -3.59,-14.27 -3.74,-15.99 -3.90,-17.28 -4.06,-18.56 -4.67,-19.96 -5.28,-21.35 -7.04,-22.46 -8.80,-23.58 -11.24,-24.83 -13.69,-26.09 -14.67,-26.72 -15.65,-27.34 -16.62,-28.39 -17.59,-29.44 -18.25,-30.92 -18.90,-32.40 -19.22,-33.94 -19.54,-35.48 -19.71,-36.64 -19.88,-37.80 -20.28,-38.82 -20.67,-39.83 -22.64,-39.83 -24.62,-39.83 -26.39,-39.47 -28.16,-39.10 -29.82,-38.79 -31.48,-38.49 -32.71,-38.26 -33.95,-38.04 -36.00,-38.45 -38.06,-38.87 -38.88,-39.93 -39.70,-40.98 -40.21,-42.19 -40.72,-43.39 -41.19,-44.40 -41.65,-45.41 -42.54,-46.68 -43.43,-47.94 -45.28,-48.01 -47.13,-48.08 -48.29,-47.75 -49.45,-47.42 -50.68,-46.79 -51.91,-46.16 -53.24,-45.12 -54.57,-44.08 -55.97,-42.62 -57.37,-41.17 -58.73,-39.51 -60.09,-37.84 -61.18,-36.30 -62.27,-34.75 -63.33,-33.34 -64.39,-31.93 -65.36,-30.58 -66.32,-29.24 -67.19,-27.80 -68.05,-26.35 -68.84,-24.80 -69.63,-23.25 -70.34,-21.61 -71.05,-19.96 -71.52,-18.32 -71.99,-16.67 -72.23,-14.93 -72.48,-13.19 -72.58,-11.41 -72.69,-9.63 -72.73,-7.67 -72.78,-5.72 -72.70,-3.96 -72.63,-2.21 -72.46,-0.68 -72.28,0.85 -72.11,2.28 -71.94,3.72 -71.96,5.04 -71.98,6.37 -72.19,7.57 -72.41,8.78 -72.87,9.91 -73.33,11.04 -74.43,12.64 -75.54,14.25 -76.45,15.31 -77.35,16.36 -78.06,17.32 -78.77,18.28 -79.28,19.55 -79.80,20.82 -80.07,22.19 -80.33,23.57 -80.68,24.88 -81.02,26.19 -81.69,27.36 -82.37,28.53 -82.98,29.44 -83.60,30.36 -84.17,31.39 -84.74,32.43 -85.20,33.45 -85.65,34.47 -86.25,35.79 -86.85,37.12 -86.91,37.32 -86.96,37.53 -87.08,37.71 -87.20,37.88 -87.36,38.02 -87.53,38.15 -87.73,38.22 -87.93,38.29 -88.14,38.29 -88.36,38.29 -88.56,38.23 -88.76,38.16 -88.93,38.04 -89.10,37.91 -89.22,37.74 -89.35,37.56 -89.41,37.36 -89.47,37.16 -89.46,36.94 -89.45,36.73 -89.37,36.53 -89.30,36.33 -89.16,36.17 -89.03,36.01 -88.85,35.89 -88.67,35.78 -88.46,35.73 -88.25,35.68 -88.04,35.70 -87.83,35.72 -87.63,35.81 -87.44,35.90 -87.28,36.04 -87.13,36.19 -87.03,36.37 -86.92,36.56 -86.89,36.77 -86.85,36.98 -86.88,37.19 -86.91,37.40 -87.01,37.59 -87.11,37.77 -87.26,37.92 -87.41,38.07 -87.60,38.16 -87.79,38.26 -88.00,38.28 -88.21,38.31 -88.42,38.26 -88.63,38.22 -88.81,38.11 -89.00,38.01 -89.14,37.85 -89.28,37.69 -89.36,37.49 -89.44,37.30 -89.45,37.08 -89.47,36.87 -89.47,36.87 -89.47,36.87 -88.46,34.47 -87.45,32.07 -86.91,30.94 -86.36,29.81 -85.75,28.87 -85.14,27.93 -84.32,26.60 -83.50,25.26 -83.20,24.11 -82.89,22.95 -82.62,21.60 -82.36,20.25 -81.61,18.47 -80.86,16.69 -80.14,15.72 -79.42,14.74 -78.48,13.65 -77.54,12.55 -76.64,11.28 -75.75,10.01 -75.18,8.16 -74.61,6.31 -74.58,5.17 -74.55,4.02 -74.72,2.58 -74.89,1.14 -75.07,-0.47 -75.25,-2.10 -75.33,-3.94 -75.40,-5.78 -75.36,-7.78 -75.31,-9.78 -75.19,-11.67 -75.08,-13.56 -74.80,-15.48 -74.52,-17.40 -73.99,-19.20 -73.46,-21.00 -72.71,-22.72 -71.97,-24.44 -71.13,-26.07 -70.30,-27.70 -69.38,-29.24 -68.46,-30.77 -67.47,-32.14 -66.49,-33.51 -65.45,-34.89 -64.41,-36.26 -63.27,-37.89 -62.12,-39.51 -60.69,-41.25 -59.26,-42.99 -57.72,-44.58 -56.17,-46.16 -54.63,-47.33 -53.10,-48.50 -51.63,-49.22 -50.16,-49.94 -48.82,-50.31 -47.47,-50.68 -46.16,-50.83 -44.84,-50.98 -43.14,-50.31 -41.43,-49.64 -40.35,-48.08 -39.26,-46.51 -38.78,-45.45 -38.29,-44.39 -37.55,-42.76 -36.80,-41.13 -35.61,-40.87 -34.41,-40.62 -33.18,-40.85 -31.96,-41.07 -30.32,-41.37 -28.68,-41.67 -26.74,-42.07 -24.79,-42.46 -23.01,-42.53 -21.22,-42.60 -20.00,-42.08 -18.78,-41.57 -18.03,-39.88 -17.28,-38.18 -17.12,-37.09 -16.96,-35.99 -16.72,-34.70 -16.48,-33.40 -15.35,-31.47 -14.22,-29.54 -13.32,-28.97 -12.42,-28.39 -9.97,-27.13 -7.51,-25.87 -6.29,-25.17 -5.06,-24.47 -4.06,-23.59 -3.05,-22.72 -2.25,-20.80 -1.45,-18.89 -1.29,-17.55 -1.13,-16.22 -0.97,-14.48 -0.82,-12.73 -0.69,-10.74 -0.56,-8.74 -0.28,-6.53 0.00,-4.32 0.62,-2.35 1.25,-0.39 1.28,-0.24 1.31,-0.08 1.30,0.07 1.29,0.23 1.24,0.38 1.20,0.53 1.11,0.66 1.03,0.80 0.92,0.91 0.81,1.02 0.67,1.11 0.54,1.19 0.39,1.24 0.24,1.29 0.08,1.30 -0.07,1.31 -0.22,1.28 -0.38,1.25 -0.52,1.19 -0.67,1.12 -0.79,1.03 -0.92,0.93 -1.02,0.80 -1.12,0.68 -1.18,0.54 -1.25,0.39 -1.25,0.39 L -1.25,0.39 Z"></path></g><g transform="translate(156 128.66666666666663) rotate(0 -53.16666666666663 34.16666666666664)" stroke="none"><path fill="#777777" d="M 1.28,0.24 Q 1.28,0.24 0.85,2.49 0.42,4.75 0.25,6.23 0.07,7.72 -0.03,9.58 -0.13,11.43 -0.20,13.23 -0.27,15.02 -0.90,16.85 -1.53,18.68 -2.49,20.01 -3.46,21.33 -4.53,22.60 -5.61,23.86 -6.75,25.08 -7.88,26.29 -8.89,27.34 -9.90,28.38 -11.01,29.73 -12.12,31.08 -12.44,32.13 -12.76,33.17 -13.44,35.51 -14.11,37.85 -14.69,39.26 -15.28,40.67 -15.98,42.01 -16.67,43.36 -17.34,44.63 -18.01,45.90 -18.59,46.97 -19.16,48.04 -19.63,49.00 -20.10,49.96 -20.63,51.50 -21.16,53.03 -21.48,54.39 -21.81,55.74 -23.10,57.75 -24.39,59.75 -26.05,60.65 -27.71,61.55 -29.56,62.23 -31.41,62.92 -33.43,63.59 -35.46,64.26 -37.23,64.96 -39.01,65.66 -40.62,66.34 -42.24,67.02 -43.71,67.61 -45.19,68.19 -46.44,68.56 -47.70,68.92 -49.01,69.13 -50.31,69.34 -51.68,69.38 -53.06,69.42 -54.28,69.44 -55.51,69.45 -56.80,69.36 -58.10,69.27 -59.50,69.14 -60.90,69.00 -62.45,68.64 -63.99,68.28 -65.61,67.62 -67.23,66.97 -68.91,66.38 -70.58,65.79 -72.04,65.35 -73.50,64.91 -74.91,64.70 -76.32,64.48 -77.85,64.28 -79.38,64.09 -80.71,63.91 -82.04,63.73 -83.39,63.51 -84.74,63.28 -86.10,62.99 -87.47,62.70 -88.59,62.49 -89.72,62.27 -90.86,61.92 -91.99,61.57 -93.23,60.90 -94.48,60.23 -95.67,59.28 -96.86,58.33 -97.91,57.28 -98.96,56.23 -99.81,55.18 -100.66,54.13 -101.34,53.27 -102.02,52.41 -102.86,51.27 -103.70,50.14 -104.50,49.38 -105.29,48.63 -106.47,46.27 -107.64,43.90 -107.62,43.69 -107.60,43.48 -107.51,43.29 -107.42,43.10 -107.27,42.94 -107.13,42.79 -106.94,42.69 -106.75,42.59 -106.54,42.55 -106.33,42.52 -106.12,42.55 -105.91,42.58 -105.73,42.68 -105.54,42.78 -105.39,42.93 -105.24,43.09 -105.15,43.28 -105.06,43.47 -105.04,43.68 -105.02,43.89 -105.06,44.10 -105.11,44.31 -105.22,44.49 -105.32,44.67 -105.49,44.81 -105.65,44.95 -105.84,45.03 -106.04,45.11 -106.25,45.12 -106.47,45.13 -106.67,45.08 -106.88,45.02 -107.05,44.90 -107.23,44.79 -107.36,44.62 -107.49,44.45 -107.55,44.25 -107.62,44.05 -107.62,43.83 -107.63,43.62 -107.56,43.42 -107.49,43.22 -107.36,43.05 -107.24,42.88 -107.06,42.76 -106.88,42.64 -106.68,42.58 -106.48,42.52 -106.26,42.53 -106.05,42.54 -105.85,42.62 -105.66,42.70 -105.49,42.84 -105.33,42.97 -105.22,43.16 -105.11,43.34 -105.06,43.55 -105.02,43.75 -105.02,43.75 -105.02,43.75 -104.07,45.37 -103.13,46.99 -102.36,47.78 -101.59,48.57 -100.78,49.68 -99.96,50.78 -99.29,51.63 -98.61,52.48 -97.85,53.43 -97.09,54.38 -96.15,55.33 -95.21,56.28 -94.21,57.11 -93.20,57.93 -91.21,58.81 -89.23,59.69 -88.07,59.91 -86.92,60.13 -85.62,60.41 -84.31,60.69 -83.00,60.91 -81.69,61.13 -80.37,61.30 -79.04,61.48 -77.48,61.68 -75.91,61.88 -74.33,62.14 -72.75,62.40 -71.23,62.85 -69.71,63.31 -67.97,63.92 -66.24,64.54 -64.81,65.13 -63.38,65.73 -62.01,66.06 -60.65,66.39 -59.28,66.52 -57.91,66.65 -56.72,66.74 -55.54,66.83 -54.33,66.81 -53.13,66.80 -51.92,66.77 -50.72,66.75 -49.57,66.57 -48.42,66.39 -47.29,66.07 -46.15,65.75 -44.71,65.18 -43.26,64.60 -41.61,63.91 -39.97,63.22 -38.13,62.49 -36.28,61.77 -34.30,61.11 -32.32,60.46 -30.61,59.83 -28.91,59.21 -27.61,58.59 -26.31,57.97 -25.34,56.56 -24.36,55.14 -24.03,53.74 -23.69,52.34 -23.08,50.57 -22.46,48.80 -21.97,47.80 -21.47,46.80 -20.90,45.74 -20.33,44.67 -19.67,43.41 -19.00,42.15 -18.35,40.90 -17.70,39.66 -17.16,38.36 -16.61,37.07 -15.99,34.93 -15.36,32.79 -15.05,31.52 -14.73,30.24 -14.00,29.25 -13.27,28.25 -12.53,27.40 -11.79,26.55 -10.80,25.53 -9.80,24.50 -8.71,23.33 -7.61,22.16 -6.59,20.96 -5.57,19.77 -4.75,18.69 -3.92,17.60 -3.41,16.22 -2.89,14.84 -2.83,13.09 -2.76,11.34 -2.64,9.38 -2.53,7.41 -2.34,5.83 -2.15,4.25 -1.72,2.00 -1.28,-0.24 -1.24,-0.39 -1.19,-0.54 -1.11,-0.68 -1.02,-0.81 -0.91,-0.92 -0.80,-1.04 -0.66,-1.12 -0.52,-1.20 -0.37,-1.24 -0.22,-1.29 -0.06,-1.30 0.08,-1.31 0.24,-1.28 0.40,-1.25 0.54,-1.18 0.68,-1.11 0.81,-1.01 0.93,-0.92 1.03,-0.79 1.12,-0.67 1.19,-0.52 1.25,-0.38 1.28,-0.22 1.31,-0.06 1.30,0.08 1.28,0.24 1.28,0.24 L 1.28,0.24 Z"></path></g></svg>