<svg version="1.1" xmlns="http://www.w3.org/2000/svg" viewBox="0 0 722.4999999999999 470.6249999999998" width="722.4999999999999" height="470.6249999999998">
  <!-- svg-source:excalidraw -->
  
  <defs>
    <style class="style-fonts">
      @font-face {
        font-family: "Virgil";
        src: url("https://excalidraw.com/Virgil.woff2");
      }
      @font-face {
        font-family: "Cascadia";
        src: url("https://excalidraw.com/Cascadia.woff2");
      }
      @font-face {
        font-family: "Assistant";
        src: url("https://excalidraw.com/Assistant-Regular.woff2");
      }
    </style>
    
  </defs>
  <g transform="translate(27.5 160.31249999999994) rotate(0 334.06249999999994 81.87499999999997)" stroke="none"><path fill="#777777" d="M -1.02,-2.41 Q -1.02,-2.41 3.19,-4.21 7.41,-6.01 11.83,-7.44 16.25,-8.87 20.72,-9.86 25.20,-10.84 30.13,-11.45 35.07,-12.05 40.58,-12.13 46.09,-12.21 51.39,-11.69 56.70,-11.17 61.77,-9.94 66.84,-8.70 71.24,-6.97 75.65,-5.23 79.88,-2.72 84.12,-0.20 87.43,2.45 90.74,5.12 93.31,7.96 95.88,10.81 98.19,14.26 100.50,17.72 102.85,21.07 105.20,24.43 107.73,27.91 110.25,31.40 113.37,34.64 116.48,37.87 120.34,40.99 124.20,44.12 128.77,47.22 133.34,50.32 138.29,53.14 143.23,55.96 148.40,58.30 153.57,60.63 159.31,62.21 165.05,63.78 171.34,64.53 177.62,65.28 184.37,65.43 191.13,65.58 198.39,65.37 205.65,65.17 213.20,64.64 220.75,64.10 228.71,63.34 236.68,62.58 245.08,61.62 253.49,60.67 262.28,59.64 271.06,58.60 279.98,57.98 288.90,57.35 297.69,57.27 306.48,57.18 315.13,57.78 323.79,58.37 329.82,59.08 335.85,59.79 343.10,61.36 350.35,62.94 357.82,65.44 365.30,67.93 372.60,71.37 379.91,74.81 386.75,78.91 393.59,83.02 399.81,87.00 406.02,90.99 412.31,94.81 418.59,98.64 425.07,102.02 431.54,105.41 438.43,108.83 445.32,112.25 452.33,115.30 459.34,118.35 466.54,120.69 473.74,123.03 480.90,124.36 488.07,125.70 495.19,125.81 502.32,125.92 509.50,125.18 516.69,124.43 523.86,123.22 531.03,122.02 538.05,120.78 545.08,119.55 552.10,118.74 559.12,117.94 566.15,118.22 573.17,118.50 580.07,120.01 586.97,121.51 593.26,124.67 599.54,127.84 605.06,131.95 610.57,136.06 614.94,140.29 619.31,144.52 623.14,147.94 626.96,151.36 630.73,154.51 634.50,157.66 638.47,160.57 642.44,163.49 646.37,165.34 650.30,167.19 655.49,168.39 660.68,169.59 664.70,170.55 668.73,171.50 669.12,171.67 669.51,171.83 669.83,172.11 670.15,172.39 670.36,172.76 670.58,173.12 670.66,173.54 670.74,173.96 670.69,174.38 670.64,174.80 670.45,175.18 670.27,175.57 669.97,175.87 669.68,176.17 669.30,176.37 668.92,176.56 668.50,176.62 668.08,176.68 667.66,176.61 667.24,176.53 666.87,176.33 666.50,176.12 666.21,175.81 665.92,175.50 665.75,175.11 665.58,174.72 665.54,174.30 665.50,173.87 665.60,173.46 665.70,173.05 665.92,172.69 666.15,172.32 666.47,172.05 666.80,171.79 667.20,171.63 667.60,171.48 668.02,171.47 668.45,171.45 668.85,171.57 669.26,171.69 669.61,171.94 669.96,172.18 670.21,172.52 670.46,172.87 670.59,173.27 670.72,173.67 670.71,174.10 670.70,174.52 670.56,174.93 670.42,175.33 670.16,175.66 669.89,175.99 669.54,176.23 669.18,176.46 668.77,176.57 668.36,176.67 667.94,176.64 667.51,176.61 667.51,176.61 667.51,176.61 663.49,175.66 659.47,174.71 653.76,173.32 648.06,171.94 643.71,169.84 639.35,167.73 635.24,164.71 631.13,161.69 627.30,158.48 623.46,155.28 619.55,151.78 615.65,148.28 611.53,144.27 607.42,140.26 602.28,136.38 597.14,132.51 591.47,129.57 585.80,126.63 579.36,125.19 572.93,123.75 566.32,123.45 559.71,123.15 552.85,123.94 545.99,124.72 538.94,125.96 531.90,127.20 524.56,128.43 517.22,129.66 509.72,130.41 502.23,131.17 494.67,131.02 487.12,130.86 479.62,129.44 472.12,128.03 464.68,125.60 457.24,123.17 450.11,120.06 442.98,116.96 436.04,113.51 429.10,110.06 422.48,106.59 415.86,103.12 409.52,99.27 403.19,95.41 397.04,91.46 390.88,87.52 384.27,83.54 377.66,79.56 370.64,76.24 363.62,72.91 356.42,70.49 349.22,68.07 342.23,66.54 335.24,65.00 329.33,64.31 323.42,63.61 314.97,63.02 306.52,62.43 297.90,62.51 289.27,62.59 280.47,63.21 271.68,63.82 262.88,64.86 254.08,65.89 245.63,66.85 237.18,67.81 229.15,68.58 221.12,69.34 213.46,69.88 205.80,70.42 198.40,70.62 191.01,70.83 184.00,70.66 176.98,70.50 170.32,69.67 163.66,68.85 157.54,67.13 151.42,65.42 146.02,62.97 140.63,60.53 135.51,57.60 130.38,54.67 125.64,51.43 120.89,48.19 116.79,44.85 112.69,41.51 109.35,38.00 106.00,34.48 103.45,30.96 100.90,27.44 98.51,24.03 96.12,20.63 94.04,17.47 91.96,14.31 89.69,11.75 87.42,9.19 84.42,6.74 81.41,4.29 77.56,1.97 73.70,-0.35 69.64,-1.98 65.58,-3.60 60.87,-4.78 56.17,-5.95 51.16,-6.45 46.15,-6.95 40.92,-6.90 35.70,-6.84 31.01,-6.27 26.32,-5.71 22.09,-4.79 17.87,-3.87 13.67,-2.52 9.47,-1.17 5.25,0.62 1.02,2.41 0.72,2.50 0.42,2.59 0.10,2.60 -0.21,2.61 -0.52,2.55 -0.83,2.49 -1.11,2.35 -1.40,2.21 -1.65,2.01 -1.89,1.81 -2.08,1.56 -2.27,1.31 -2.39,1.02 -2.52,0.72 -2.57,0.41 -2.62,0.10 -2.59,-0.21 -2.57,-0.52 -2.47,-0.82 -2.37,-1.12 -2.20,-1.39 -2.03,-1.66 -1.80,-1.88 -1.57,-2.10 -1.30,-2.25 -1.02,-2.41 -1.02,-2.41 L -1.02,-2.41 Z"></path></g><g stroke-linecap="round" transform="translate(10 151.87499999999994) rotate(0 10.46875 11.25)"><path d="M10 -0.07 C12.17 -0.26, 15.58 1.2, 17.29 2.71 C19 4.21, 19.88 6.64, 20.28 8.98 C20.69 11.33, 20.69 14.65, 19.72 16.77 C18.75 18.89, 16.56 20.83, 14.47 21.71 C12.38 22.6, 9.34 22.91, 7.18 22.1 C5.02 21.29, 2.63 18.88, 1.49 16.84 C0.36 14.8, 0.09 12.19, 0.39 9.88 C0.69 7.57, 1.7 4.72, 3.32 2.99 C4.94 1.26, 8.92 -0.07, 10.1 -0.5 C11.27 -0.92, 10.26 0.12, 10.36 0.45 M8.93 0.1 C10.95 -0.21, 13.9 0.64, 15.93 2.09 C17.96 3.54, 20.37 6.55, 21.13 8.78 C21.89 11.01, 21.54 13.42, 20.5 15.48 C19.47 17.54, 16.95 19.99, 14.9 21.13 C12.86 22.27, 10.32 22.83, 8.23 22.3 C6.15 21.78, 3.77 20.11, 2.39 18 C1 15.89, -0.23 12.03, -0.05 9.64 C0.13 7.24, 1.99 5.13, 3.48 3.65 C4.97 2.16, 7.76 1.23, 8.88 0.72 C9.99 0.21, 10.1 0.5, 10.17 0.59" stroke="#777777" stroke-width="2" fill="none"></path></g><g stroke-linecap="round" transform="translate(693.7499999999999 321.2499999999999) rotate(0 9.375 14.53125)"><path d="M7.47 0.39 C9.35 -0.37, 12.44 0.45, 14.29 1.93 C16.14 3.41, 17.94 6.25, 18.57 9.27 C19.21 12.3, 18.87 17.1, 18.1 20.08 C17.33 23.06, 15.74 25.67, 13.96 27.13 C12.17 28.58, 9.34 29.39, 7.39 28.82 C5.44 28.24, 3.56 26.13, 2.26 23.68 C0.96 21.23, -0.49 17.21, -0.42 14.12 C-0.35 11.02, 1.29 7.38, 2.67 5.11 C4.05 2.83, 6.9 1.27, 7.84 0.48 C8.78 -0.32, 8.16 0.08, 8.29 0.33 M9.63 0.55 C11.4 0.3, 13.25 1.15, 14.77 3.02 C16.29 4.9, 18.33 8.59, 18.77 11.79 C19.21 14.99, 18.41 19.51, 17.4 22.23 C16.38 24.96, 14.5 27.15, 12.67 28.15 C10.84 29.14, 8.33 29.24, 6.42 28.21 C4.5 27.19, 2.23 24.56, 1.2 21.99 C0.18 19.42, -0.19 15.81, 0.26 12.77 C0.72 9.74, 2.44 5.85, 3.93 3.77 C5.42 1.69, 8.29 0.77, 9.19 0.29 C10.1 -0.18, 9.47 0.74, 9.39 0.93" stroke="#777777" stroke-width="2" fill="none"></path></g><g transform="translate(240.9374999999999 224.99999999999991) rotate(0 152.1875 -102.34374999999996)" stroke="none"><path fill="#777777" d="M -1.96,-1.74 Q -1.96,-1.74 1.53,-5.69 5.04,-9.64 7.02,-12.16 8.99,-14.68 10.85,-17.72 12.70,-20.76 14.58,-24.04 16.47,-27.33 18.13,-30.81 19.79,-34.29 21.01,-37.51 22.23,-40.72 23.18,-44.09 24.13,-47.45 24.71,-50.60 25.28,-53.75 25.51,-56.98 25.75,-60.21 25.85,-63.57 25.96,-66.92 26.28,-70.42 26.60,-73.92 27.29,-77.83 27.98,-81.73 29.29,-86.01 30.60,-90.30 32.55,-94.55 34.51,-98.80 36.73,-102.39 38.96,-105.98 41.57,-109.35 44.18,-112.72 47.34,-115.94 50.49,-119.15 54.40,-121.88 58.31,-124.60 62.08,-126.67 65.84,-128.73 69.39,-130.26 72.94,-131.79 76.44,-132.83 79.93,-133.87 83.54,-134.59 87.14,-135.30 90.58,-135.79 94.02,-136.27 96.98,-136.91 99.94,-137.54 102.87,-138.34 105.80,-139.14 108.42,-140.08 111.03,-141.02 113.26,-142.25 115.48,-143.48 117.77,-145.27 120.06,-147.07 122.34,-149.31 124.62,-151.54 126.73,-153.98 128.84,-156.43 130.59,-158.92 132.33,-161.41 134.20,-163.98 136.07,-166.54 138.41,-169.01 140.74,-171.48 143.32,-173.65 145.90,-175.82 148.47,-177.66 151.04,-179.50 153.95,-181.07 156.86,-182.63 158.89,-183.50 160.92,-184.36 164.15,-184.53 167.39,-184.70 169.55,-184.35 171.71,-184.00 174.49,-182.89 177.28,-181.77 180.95,-179.94 184.62,-178.11 187.11,-176.91 189.61,-175.71 192.23,-174.38 194.85,-173.04 197.46,-171.99 200.07,-170.94 202.99,-170.55 205.92,-170.16 208.59,-170.25 211.27,-170.33 214.18,-170.88 217.10,-171.42 220.10,-172.27 223.11,-173.11 225.89,-174.32 228.67,-175.53 231.78,-176.96 234.89,-178.38 237.71,-180.09 240.53,-181.80 243.10,-183.44 245.68,-185.08 248.25,-186.61 250.83,-188.14 253.18,-189.51 255.53,-190.88 257.79,-191.96 260.05,-193.04 262.25,-194.02 264.45,-195.01 266.84,-195.83 269.23,-196.65 271.48,-197.35 273.74,-198.05 276.07,-198.71 278.39,-199.37 280.82,-200.01 283.26,-200.66 285.42,-201.12 287.59,-201.59 290.70,-202.29 293.82,-202.99 298.59,-205.05 303.37,-207.11 303.78,-207.21 304.19,-207.30 304.62,-207.26 305.04,-207.22 305.43,-207.05 305.81,-206.88 306.13,-206.59 306.44,-206.30 306.64,-205.93 306.85,-205.55 306.92,-205.14 307.00,-204.72 306.93,-204.30 306.87,-203.88 306.68,-203.50 306.48,-203.12 306.18,-202.82 305.87,-202.53 305.49,-202.34 305.11,-202.16 304.68,-202.11 304.26,-202.06 303.85,-202.14 303.43,-202.23 303.06,-202.44 302.70,-202.66 302.42,-202.98 302.14,-203.30 301.97,-203.69 301.81,-204.08 301.78,-204.51 301.76,-204.93 301.86,-205.34 301.97,-205.75 302.21,-206.11 302.44,-206.46 302.77,-206.73 303.11,-206.99 303.51,-207.13 303.91,-207.27 304.34,-207.27 304.76,-207.28 305.17,-207.15 305.57,-207.02 305.91,-206.77 306.25,-206.51 306.50,-206.17 306.74,-205.82 306.86,-205.41 306.98,-205.00 306.96,-204.58 306.94,-204.15 306.79,-203.75 306.64,-203.36 306.37,-203.03 306.10,-202.70 305.74,-202.48 305.37,-202.26 305.37,-202.26 305.37,-202.26 302.57,-201.10 299.77,-199.94 295.94,-198.57 292.10,-197.19 288.35,-196.38 284.60,-195.58 282.21,-194.95 279.82,-194.32 277.56,-193.67 275.30,-193.03 273.11,-192.35 270.92,-191.68 268.76,-190.95 266.60,-190.22 264.45,-189.25 262.30,-188.29 260.24,-187.31 258.17,-186.34 255.84,-184.98 253.52,-183.63 251.01,-182.14 248.50,-180.65 245.87,-178.97 243.24,-177.30 240.16,-175.46 237.08,-173.61 233.91,-172.16 230.74,-170.71 227.64,-169.38 224.53,-168.05 221.29,-167.16 218.05,-166.26 214.73,-165.67 211.41,-165.08 208.29,-165.02 205.17,-164.96 201.65,-165.51 198.13,-166.06 195.30,-167.21 192.47,-168.36 189.90,-169.67 187.33,-170.98 184.80,-172.20 182.27,-173.41 178.77,-175.16 175.27,-176.91 171.39,-178.18 167.50,-179.45 163.42,-178.72 159.33,-178.00 156.71,-176.61 154.09,-175.23 151.68,-173.51 149.28,-171.79 146.91,-169.82 144.54,-167.85 142.43,-165.64 140.31,-163.44 138.47,-160.91 136.63,-158.39 134.72,-155.69 132.81,-152.99 130.55,-150.39 128.29,-147.79 125.78,-145.35 123.28,-142.91 120.64,-140.89 118.00,-138.88 115.41,-137.48 112.81,-136.08 110.00,-135.08 107.18,-134.07 104.11,-133.24 101.04,-132.40 97.89,-131.74 94.75,-131.07 91.46,-130.61 88.16,-130.15 84.79,-129.49 81.41,-128.83 78.21,-127.90 75.01,-126.96 71.68,-125.54 68.36,-124.12 64.83,-122.20 61.30,-120.28 57.76,-117.86 54.22,-115.45 51.27,-112.47 48.33,-109.50 45.87,-106.35 43.42,-103.20 41.35,-99.90 39.27,-96.60 37.45,-92.67 35.62,-88.74 34.38,-84.77 33.15,-80.80 32.49,-77.12 31.83,-73.44 31.52,-70.09 31.21,-66.75 31.10,-63.28 30.99,-59.82 30.72,-56.31 30.44,-52.81 29.82,-49.41 29.19,-46.02 28.17,-42.43 27.14,-38.85 25.84,-35.44 24.53,-32.03 22.78,-28.37 21.02,-24.72 19.10,-21.36 17.18,-18.01 15.15,-14.72 13.12,-11.44 11.05,-8.80 8.97,-6.16 5.46,-2.21 1.96,1.74 1.72,1.95 1.49,2.16 1.21,2.30 0.93,2.45 0.62,2.53 0.31,2.60 -0.00,2.60 -0.31,2.60 -0.62,2.53 -0.93,2.45 -1.21,2.30 -1.49,2.16 -1.72,1.95 -1.96,1.74 -2.14,1.48 -2.32,1.21 -2.43,0.92 -2.55,0.62 -2.58,0.31 -2.62,-0.00 -2.58,-0.31 -2.55,-0.62 -2.43,-0.92 -2.32,-1.22 -2.14,-1.48 -1.96,-1.74 -1.96,-1.74 L -1.96,-1.74 Z"></path></g><g stroke-linecap="round" transform="translate(544.3749999999999 10) rotate(0 9.375 11.093749999999993)"><path d="M10.17 -0.21 C12.09 -0.23, 14.17 1.7, 15.66 3.31 C17.15 4.92, 18.8 7.18, 19.12 9.45 C19.45 11.73, 18.77 14.98, 17.59 16.97 C16.41 18.96, 13.97 20.72, 12.04 21.39 C10.12 22.06, 7.89 21.95, 6.03 20.99 C4.18 20.03, 1.87 17.8, 0.92 15.64 C-0.03 13.49, -0.11 10.25, 0.35 8.08 C0.8 5.9, 2.01 3.97, 3.64 2.6 C5.28 1.24, 8.81 0.24, 10.13 -0.12 C11.45 -0.47, 11.47 0.32, 11.56 0.47 M9.25 -0.63 C11.33 -0.86, 14.27 1.07, 15.82 2.7 C17.36 4.34, 18.11 6.85, 18.51 9.18 C18.91 11.5, 19.15 14.7, 18.22 16.64 C17.29 18.57, 14.91 20.03, 12.93 20.81 C10.95 21.59, 8.27 21.89, 6.31 21.3 C4.35 20.71, 2.33 19.35, 1.17 17.26 C0.02 15.17, -0.89 11.24, -0.62 8.75 C-0.36 6.27, 1.05 3.76, 2.77 2.33 C4.49 0.9, 8.72 0.56, 9.7 0.2 C10.68 -0.16, 8.71 0.01, 8.65 0.16" stroke="#777777" stroke-width="2" fill="none"></path></g><g transform="translate(379.0624999999999 225.62499999999991) rotate(0 -58.125 108.59374999999993)" stroke="none"><path fill="#777777" d="M 2.57,0.52 Q 2.57,0.52 1.94,3.58 1.31,6.63 0.02,10.05 -1.27,13.46 -3.57,17.24 -5.88,21.02 -7.37,23.08 -8.85,25.13 -10.74,27.62 -12.63,30.12 -14.36,32.79 -16.09,35.47 -17.51,38.15 -18.92,40.84 -19.71,44.07 -20.50,47.30 -20.66,50.53 -20.83,53.75 -20.38,56.77 -19.94,59.78 -18.93,62.32 -17.91,64.87 -16.71,67.08 -15.51,69.30 -14.04,70.98 -12.57,72.66 -11.03,74.33 -9.48,76.00 -8.01,77.89 -6.53,79.79 -5.45,81.85 -4.37,83.90 -3.85,86.21 -3.33,88.51 -3.78,91.86 -4.23,95.20 -5.67,98.95 -7.10,102.70 -9.78,106.84 -12.46,110.98 -15.59,114.89 -18.73,118.81 -22.15,122.56 -25.58,126.31 -29.12,129.82 -32.67,133.32 -35.65,136.46 -38.63,139.61 -40.57,141.97 -42.51,144.33 -44.63,147.50 -46.75,150.67 -48.51,154.02 -50.28,157.36 -51.53,160.58 -52.79,163.80 -53.47,166.68 -54.16,169.55 -54.45,172.46 -54.73,175.38 -54.77,178.11 -54.80,180.84 -54.73,183.06 -54.66,185.28 -54.85,187.89 -55.03,190.50 -56.92,192.36 -58.80,194.23 -60.76,195.15 -62.71,196.08 -65.20,197.26 -67.69,198.44 -70.49,199.67 -73.28,200.91 -76.14,201.99 -79.00,203.08 -81.74,203.83 -84.48,204.59 -86.95,205.26 -89.42,205.92 -91.69,206.79 -93.96,207.66 -96.23,208.73 -98.51,209.80 -100.35,211.00 -102.19,212.19 -105.15,214.16 -108.11,216.13 -111.71,217.89 -115.31,219.64 -115.73,219.72 -116.15,219.81 -116.57,219.75 -116.99,219.70 -117.37,219.52 -117.75,219.33 -118.06,219.03 -118.36,218.74 -118.55,218.36 -118.75,217.98 -118.81,217.56 -118.87,217.14 -118.80,216.72 -118.72,216.30 -118.51,215.93 -118.31,215.56 -118.00,215.27 -117.68,214.98 -117.29,214.81 -116.91,214.64 -116.48,214.60 -116.06,214.56 -115.65,214.66 -115.23,214.76 -114.87,214.98 -114.51,215.21 -114.24,215.54 -113.97,215.87 -113.82,216.26 -113.67,216.66 -113.65,217.08 -113.64,217.51 -113.76,217.92 -113.88,218.32 -114.12,218.67 -114.37,219.02 -114.71,219.27 -115.05,219.52 -115.46,219.65 -115.86,219.78 -116.29,219.77 -116.71,219.77 -117.11,219.62 -117.51,219.48 -117.85,219.22 -118.18,218.96 -118.41,218.60 -118.65,218.25 -118.75,217.83 -118.86,217.42 -118.83,217.00 -118.80,216.58 -118.64,216.18 -118.47,215.79 -118.19,215.47 -117.91,215.15 -117.54,214.94 -117.18,214.73 -117.18,214.73 -117.18,214.73 -114.12,213.26 -111.07,211.79 -108.05,209.78 -105.03,207.77 -102.88,206.41 -100.74,205.04 -98.28,203.90 -95.83,202.76 -93.31,201.80 -90.79,200.85 -88.33,200.19 -85.87,199.52 -83.37,198.84 -80.86,198.16 -78.13,197.13 -75.40,196.10 -72.67,194.90 -69.94,193.69 -65.71,191.70 -61.49,189.71 -60.70,187.58 -59.91,185.45 -59.98,183.10 -60.06,180.76 -60.01,177.80 -59.96,174.85 -59.61,171.58 -59.27,168.32 -58.47,165.10 -57.68,161.89 -56.30,158.40 -54.92,154.90 -53.02,151.33 -51.12,147.75 -48.84,144.37 -46.57,140.99 -44.51,138.49 -42.44,135.99 -39.40,132.79 -36.36,129.58 -32.91,126.18 -29.46,122.77 -26.14,119.15 -22.83,115.52 -19.84,111.81 -16.85,108.10 -14.42,104.43 -11.98,100.76 -10.70,97.56 -9.41,94.35 -8.94,91.91 -8.48,89.46 -9.59,86.22 -10.70,82.99 -12.01,81.28 -13.33,79.57 -14.95,77.82 -16.58,76.07 -18.35,73.94 -20.12,71.81 -21.46,69.28 -22.81,66.76 -23.97,63.65 -25.14,60.53 -25.60,57.00 -26.07,53.47 -25.83,49.75 -25.59,46.03 -24.58,42.22 -23.58,38.41 -22.04,35.51 -20.50,32.62 -18.66,29.78 -16.82,26.94 -14.96,24.50 -13.11,22.05 -11.69,20.09 -10.27,18.14 -8.11,14.60 -5.94,11.07 -4.88,8.32 -3.83,5.57 -3.20,2.52 -2.57,-0.52 -2.47,-0.82 -2.37,-1.12 -2.20,-1.39 -2.03,-1.66 -1.80,-1.88 -1.57,-2.10 -1.29,-2.26 -1.02,-2.41 -0.72,-2.50 -0.41,-2.59 -0.10,-2.60 0.21,-2.61 0.52,-2.55 0.83,-2.49 1.12,-2.35 1.40,-2.21 1.65,-2.01 1.89,-1.81 2.08,-1.56 2.27,-1.30 2.40,-1.01 2.52,-0.72 2.57,-0.41 2.62,-0.10 2.59,0.21 2.57,0.52 2.57,0.52 L 2.57,0.52 Z"></path></g><g stroke-linecap="round" transform="translate(250.6249999999999 438.1249999999998) rotate(0 10.78125 11.25)"><path d="M9.89 -0.13 C12.12 -0.48, 15.22 0.34, 17.05 1.76 C18.89 3.18, 20.32 6, 20.9 8.37 C21.48 10.74, 21.53 13.83, 20.53 15.97 C19.53 18.12, 17.06 20.26, 14.9 21.24 C12.74 22.23, 9.74 22.39, 7.57 21.86 C5.4 21.33, 3.11 19.93, 1.9 18.06 C0.68 16.18, 0.06 13.08, 0.28 10.63 C0.5 8.19, 1.56 5.11, 3.21 3.4 C4.86 1.69, 8.83 0.95, 10.17 0.37 C11.51 -0.2, 11.24 -0.12, 11.24 -0.04 M11.54 -0.57 C13.79 -0.64, 16.86 1.28, 18.43 3.13 C20 4.98, 20.82 8.08, 20.97 10.53 C21.13 12.98, 20.52 15.8, 19.37 17.83 C18.23 19.85, 16.31 22.12, 14.1 22.65 C11.89 23.17, 8.24 22.05, 6.11 20.97 C3.98 19.89, 2.24 18.29, 1.33 16.15 C0.43 14.02, 0.12 10.53, 0.69 8.14 C1.26 5.74, 3.01 3.05, 4.74 1.78 C6.48 0.51, 10 0.88, 11.11 0.5 C12.23 0.13, 11.41 -0.58, 11.44 -0.46" stroke="#777777" stroke-width="2" fill="none"></path></g><g transform="translate(234.3749999999999 230.3124999999999) rotate(0 5.373016357421875 12.843860478610793)"><text x="0" y="18.0019548468209" font-family="Virgil, Segoe UI Emoji" font-size="20.550176765777284px" fill="#777777" text-anchor="start" style="white-space: pre;" direction="ltr" dominant-baseline="alphabetic">v</text></g><g transform="translate(384.3749999999999 198.43749999999991) rotate(0 6.089996337890625 12.5)"><text x="0" y="17.52" font-family="Virgil, Segoe UI Emoji" font-size="20px" fill="#777777" text-anchor="start" style="white-space: pre;" direction="ltr" dominant-baseline="alphabetic">w</text></g><g stroke-linecap="round" transform="translate(230.9374999999999 232.8124999999999) rotate(0 8.90625 10.9375)"><path d="M9.53 -0.1 C11.34 0.08, 13.95 1.94, 15.36 3.56 C16.76 5.18, 17.85 7.4, 17.96 9.61 C18.07 11.82, 17.12 14.92, 15.99 16.83 C14.87 18.74, 13.03 20.35, 11.2 21.08 C9.37 21.82, 6.73 22.09, 4.99 21.26 C3.25 20.43, 1.51 18.25, 0.74 16.12 C-0.03 14, -0.13 10.85, 0.38 8.51 C0.88 6.17, 2.21 3.49, 3.78 2.09 C5.34 0.69, 8.74 0.45, 9.79 0.09 C10.83 -0.27, 10.01 -0.32, 10.05 -0.08 M9.35 -0.15 C11.14 -0.05, 14.33 2.11, 15.66 3.85 C17 5.6, 17.16 8, 17.33 10.32 C17.5 12.64, 17.82 15.85, 16.68 17.76 C15.54 19.67, 12.54 21.25, 10.5 21.79 C8.46 22.34, 6.12 22.07, 4.42 21.02 C2.73 19.98, 0.93 17.7, 0.33 15.51 C-0.27 13.32, 0.15 10.26, 0.81 7.88 C1.48 5.5, 2.89 2.49, 4.33 1.22 C5.77 -0.05, 8.37 0.47, 9.43 0.24 C10.49 0.02, 10.59 -0.21, 10.7 -0.15" stroke="#777777" stroke-width="2" fill="none"></path></g><g stroke-linecap="round" transform="translate(378.7499999999999 199.37499999999991) rotate(0 14 11.21875)"><path d="M12.12 -0.2 C14.91 -0.67, 18.54 0.17, 20.98 1.49 C23.43 2.8, 25.81 5.34, 26.79 7.68 C27.78 10.02, 27.83 13.32, 26.89 15.55 C25.95 17.78, 23.75 19.9, 21.17 21.05 C18.59 22.21, 14.47 22.97, 11.42 22.47 C8.36 21.97, 4.68 19.94, 2.84 18.04 C1.01 16.15, 0.4 13.51, 0.41 11.1 C0.42 8.68, 0.92 5.38, 2.9 3.56 C4.88 1.73, 10.6 0.7, 12.29 0.14 C13.97 -0.43, 12.98 -0.01, 13.03 0.16 M14.98 0.09 C18.04 -0.06, 21.93 1.21, 24.03 2.81 C26.13 4.41, 27.21 7.3, 27.56 9.7 C27.9 12.1, 27.63 15.11, 26.09 17.23 C24.56 19.35, 21.24 21.6, 18.37 22.42 C15.5 23.23, 11.69 23.04, 8.89 22.11 C6.1 21.18, 3.12 19.13, 1.61 16.83 C0.1 14.52, -0.89 10.66, -0.16 8.29 C0.56 5.93, 3.57 3.96, 5.98 2.64 C8.39 1.31, 12.81 0.62, 14.31 0.34 C15.81 0.06, 15.02 0.93, 14.97 0.95" stroke="#777777" stroke-width="2" fill="none"></path></g></svg>