<?xml version="1.0" encoding="UTF-8" standalone="no"?>
<!DOCTYPE svg PUBLIC "-//W3C//DTD SVG 1.1//EN"
 "http://www.w3.org/Graphics/SVG/1.1/DTD/svg11.dtd">
<!-- Generated by graphviz version 2.43.0 (0)
 -->
<!-- Title: K5 Pages: 1 -->
<svg width="243pt" height="235pt"
 viewBox="0.00 0.00 243.39 234.72" xmlns="http://www.w3.org/2000/svg" xmlns:xlink="http://www.w3.org/1999/xlink">
<g id="page0,1_graph0" class="graph" transform="scale(1 1) rotate(0) translate(4 230.72)">
<title>K5</title>
<!-- 0 -->
<g id="node1" class="node">
<title>0</title>
<ellipse fill="white" stroke="red" cx="139.1" cy="-18" rx="27" ry="18"/>
<text text-anchor="middle" x="139.1" y="-14.3" font-family="Times,serif" font-size="14.00">0</text>
</g>
<!-- 1 -->
<g id="node2" class="node">
<title>1</title>
<ellipse fill="white" stroke="red" cx="208.39" cy="-113.36" rx="27" ry="18"/>
<text text-anchor="middle" x="208.39" y="-109.66" font-family="Times,serif" font-size="14.00">1</text>
</g>
<!-- 0&#45;&#45;1 -->
<g id="edge1" class="edge">
<title>0&#45;&#45;1</title>
<path fill="none" stroke="#777777" stroke-width="3" d="M151.17,-34.61C163.89,-52.11 183.79,-79.51 196.46,-96.94"/>
</g>
<!-- 2 -->
<g id="node3" class="node">
<title>2</title>
<ellipse fill="white" stroke="red" cx="27" cy="-172.3" rx="27" ry="18"/>
<text text-anchor="middle" x="27" y="-168.6" font-family="Times,serif" font-size="14.00">2</text>
</g>
<!-- 0&#45;&#45;2 -->
<g id="edge2" class="edge">
<title>0&#45;&#45;2</title>
<path fill="none" stroke="#777777" stroke-width="3" d="M127.32,-34.22C105.84,-63.78 60.57,-126.09 38.96,-155.83"/>
</g>
<!-- 3 -->
<g id="node4" class="node">
<title>3</title>
<ellipse fill="white" stroke="red" cx="139.1" cy="-208.72" rx="27" ry="18"/>
<text text-anchor="middle" x="139.1" y="-205.02" font-family="Times,serif" font-size="14.00">3</text>
</g>
<!-- 0&#45;&#45;3 -->
<g id="edge3" class="edge">
<title>0&#45;&#45;3</title>
<path fill="none" stroke="#777777" stroke-width="3" d="M139.1,-36.29C139.1,-72.74 139.1,-154.08 139.1,-190.49"/>
</g>
<!-- 4 -->
<g id="node5" class="node">
<title>4</title>
<ellipse fill="white" stroke="red" cx="27" cy="-54.42" rx="27" ry="18"/>
<text text-anchor="middle" x="27" y="-50.72" font-family="Times,serif" font-size="14.00">4</text>
</g>
<!-- 0&#45;&#45;4 -->
<g id="edge4" class="edge">
<title>0&#45;&#45;4</title>
<path fill="none" stroke="#777777" stroke-width="3" d="M114.78,-25.9C95.97,-32.01 70.07,-40.43 51.28,-46.54"/>
</g>
<!-- 1&#45;&#45;2 -->
<g id="edge5" class="edge">
<title>1&#45;&#45;2</title>
<path fill="none" stroke="#777777" stroke-width="3" d="M183.92,-121.31C149.21,-132.59 86.03,-153.12 51.36,-164.38"/>
</g>
<!-- 1&#45;&#45;3 -->
<g id="edge6" class="edge">
<title>1&#45;&#45;3</title>
<path fill="none" stroke="#777777" stroke-width="3" d="M196.32,-129.97C183.6,-147.47 163.7,-174.87 151.03,-192.3"/>
</g>
<!-- 1&#45;&#45;4 -->
<g id="edge7" class="edge">
<title>1&#45;&#45;4</title>
<path fill="none" stroke="#777777" stroke-width="3" d="M183.92,-105.41C149.21,-94.13 86.03,-73.6 51.36,-62.34"/>
</g>
<!-- 2&#45;&#45;3 -->
<g id="edge8" class="edge">
<title>2&#45;&#45;3</title>
<path fill="none" stroke="#777777" stroke-width="3" d="M51.32,-180.2C70.13,-186.31 96.03,-194.73 114.83,-200.83"/>
</g>
<!-- 2&#45;&#45;4 -->
<g id="edge9" class="edge">
<title>2&#45;&#45;4</title>
<path fill="none" stroke="#777777" stroke-width="3" d="M27,-154.14C27,-132.05 27,-94.98 27,-72.8"/>
</g>
<!-- 3&#45;&#45;4 -->
<g id="edge10" class="edge">
<title>3&#45;&#45;4</title>
<path fill="none" stroke="#777777" stroke-width="3" d="M127.32,-192.5C105.84,-162.94 60.57,-100.63 38.96,-70.89"/>
</g>
</g>
</svg>
