<?xml version="1.0" encoding="UTF-8" standalone="no"?>
<!DOCTYPE svg PUBLIC "-//W3C//DTD SVG 1.1//EN"
 "http://www.w3.org/Graphics/SVG/1.1/DTD/svg11.dtd">
<!-- Generated by graphviz version 2.43.0 (0)
 -->
<!-- Title: KonigsbergSimple Pages: 1 -->
<svg width="196pt" height="160pt"
 viewBox="0.00 0.00 195.84 159.52" xmlns="http://www.w3.org/2000/svg" xmlns:xlink="http://www.w3.org/1999/xlink">
<g id="page0,1_graph0" class="graph" transform="scale(1 1) rotate(0) translate(4 155.52)">
<title>KonigsbergSimple</title>
<!-- 1 -->
<g id="node1" class="node">
<title>1</title>
<ellipse fill="white" stroke="red" cx="27" cy="-61.03" rx="27" ry="18"/>
<text text-anchor="middle" x="27" y="-57.33" font-family="Times,serif" font-size="14.00">1</text>
</g>
<!-- 2 -->
<g id="node2" class="node">
<title>2</title>
<ellipse fill="white" stroke="red" cx="92.52" cy="-92.85" rx="27" ry="18"/>
<text text-anchor="middle" x="92.52" y="-89.15" font-family="Times,serif" font-size="14.00">2</text>
</g>
<!-- 1&#45;&#45;2 -->
<g id="edge1" class="edge">
<title>1&#45;&#45;2</title>
<path fill="none" stroke="#777777" stroke-width="3" d="M49.18,-71.8C56.01,-75.12 63.53,-78.77 70.36,-82.09"/>
</g>
<!-- 4 -->
<g id="node3" class="node">
<title>4</title>
<ellipse fill="white" stroke="red" cx="88.28" cy="-18" rx="27" ry="18"/>
<text text-anchor="middle" x="88.28" y="-14.3" font-family="Times,serif" font-size="14.00">4</text>
</g>
<!-- 1&#45;&#45;4 -->
<g id="edge2" class="edge">
<title>1&#45;&#45;4</title>
<path fill="none" stroke="#777777" stroke-width="3" d="M45.72,-47.88C53.32,-42.55 62.09,-36.39 69.68,-31.06"/>
</g>
<!-- 5 -->
<g id="node4" class="node">
<title>5</title>
<ellipse fill="white" stroke="red" cx="28.38" cy="-133.52" rx="27" ry="18"/>
<text text-anchor="middle" x="28.38" y="-129.82" font-family="Times,serif" font-size="14.00">5</text>
</g>
<!-- 1&#45;&#45;5 -->
<g id="edge3" class="edge">
<title>1&#45;&#45;5</title>
<path fill="none" stroke="#777777" stroke-width="3" d="M27.35,-79.32C27.56,-90.4 27.82,-104.46 28.03,-115.49"/>
</g>
<!-- 2&#45;&#45;4 -->
<g id="edge5" class="edge">
<title>2&#45;&#45;4</title>
<path fill="none" stroke="#777777" stroke-width="3" d="M91.49,-74.73C90.83,-63.05 89.98,-47.91 89.31,-36.21"/>
</g>
<!-- 5&#45;&#45;2 -->
<g id="edge4" class="edge">
<title>5&#45;&#45;2</title>
<path fill="none" stroke="#777777" stroke-width="3" d="M47.97,-121.1C55.78,-116.15 64.76,-110.45 72.6,-105.48"/>
</g>
<!-- 3 -->
<g id="node5" class="node">
<title>3</title>
<ellipse fill="white" stroke="red" cx="154.03" cy="-53.84" rx="27" ry="18"/>
<text text-anchor="middle" x="154.03" y="-50.14" font-family="Times,serif" font-size="14.00">3</text>
</g>
<!-- 3&#45;&#45;2 -->
<g id="edge6" class="edge">
<title>3&#45;&#45;2</title>
<path fill="none" stroke="#777777" stroke-width="3" d="M134.23,-66.4C127.21,-70.85 119.3,-75.86 112.28,-80.32"/>
</g>
<!-- 3&#45;&#45;4 -->
<g id="edge7" class="edge">
<title>3&#45;&#45;4</title>
<path fill="none" stroke="#777777" stroke-width="3" d="M132.86,-42.3C125.36,-38.21 116.91,-33.6 109.41,-29.51"/>
</g>
<!-- 6 -->
<g id="node6" class="node">
<title>6</title>
<ellipse fill="white" stroke="red" cx="160.84" cy="-126.03" rx="27" ry="18"/>
<text text-anchor="middle" x="160.84" y="-122.33" font-family="Times,serif" font-size="14.00">6</text>
</g>
<!-- 3&#45;&#45;6 -->
<g id="edge8" class="edge">
<title>3&#45;&#45;6</title>
<path fill="none" stroke="#777777" stroke-width="3" d="M155.75,-72.05C156.78,-83 158.09,-96.87 159.13,-107.82"/>
</g>
<!-- 6&#45;&#45;2 -->
<g id="edge9" class="edge">
<title>6&#45;&#45;2</title>
<path fill="none" stroke="#777777" stroke-width="3" d="M138.85,-115.35C131.05,-111.56 122.27,-107.3 114.47,-103.51"/>
</g>
</g>
</svg>
