<?xml version="1.0" standalone="no"?>
<!DOCTYPE svg PUBLIC "-//W3C//DTD SVG 1.1//EN"
 "http://www.w3.org/Graphics/SVG/1.1/DTD/svg11.dtd">
<!-- Created with svg_stack (http://github.com/astraw/svg_stack) -->
<svg xmlns="http://www.w3.org/2000/svg" xmlns:sodipodi="http://sodipodi.sourceforge.net/DTD/sodipodi-0.dtd" xmlns:xlink="http://www.w3.org/1999/xlink" version="1.1" width="1540.0" height="685.0">
  <defs/>
  <g id="id0:id0" transform="matrix(1.2490707605068894,0,0,1.2504796360247765,0.0,114.375)"><g id="id0:graph0" class="graph" transform="scale(1 1) rotate(0) translate(4 360.86)">
<title>G</title>
<!-- 1 -->
<g id="id0:node1" class="node">
<title>1</title>
<ellipse fill="white" stroke="red" cx="347.86" cy="-178.43" rx="27" ry="18"/>
<text text-anchor="middle" x="347.86" y="-174.73" font-family="Times,serif" font-size="14.00">1</text>
</g>
<!-- 2 -->
<g id="id0:node2" class="node">
<title>2</title>
<ellipse fill="white" stroke="red" cx="73.99" cy="-291.87" rx="27" ry="18"/>
<text text-anchor="middle" x="73.99" y="-288.17" font-family="Times,serif" font-size="14.00">2</text>
</g>
<!-- 1&#45;&#45;2 -->
<g id="id0:edge1" class="edge">
<title>1--2</title>
<path fill="none" stroke="#777777" stroke-width="3" d="M324.51,-188.1C272.77,-209.53 148.97,-260.81 97.28,-282.22"/>
</g>
<!-- 3 -->
<g id="id0:node3" class="node">
<title>3</title>
<ellipse fill="white" stroke="red" cx="27" cy="-178.43" rx="27" ry="18"/>
<text text-anchor="middle" x="27" y="-174.73" font-family="Times,serif" font-size="14.00">3</text>
</g>
<!-- 2&#45;&#45;3 -->
<g id="id0:edge2" class="edge">
<title>2--3</title>
<path fill="none" stroke="#777777" stroke-width="3" d="M66.65,-274.14C57.82,-252.83 43.09,-217.28 34.29,-196.03"/>
</g>
<!-- 5 -->
<g id="id0:node5" class="node">
<title>5</title>
<ellipse fill="white" stroke="red" cx="300.87" cy="-64.99" rx="27" ry="18"/>
<text text-anchor="middle" x="300.87" y="-61.29" font-family="Times,serif" font-size="14.00">5</text>
</g>
<!-- 2&#45;&#45;5 -->
<g id="id0:edge5" class="edge">
<title>2--5</title>
<path fill="none" stroke="#777777" stroke-width="3" d="M89.23,-276.63C130.56,-235.3 244.44,-121.41 285.7,-80.16"/>
</g>
<!-- 4 -->
<g id="id0:node4" class="node">
<title>4</title>
<ellipse fill="white" stroke="red" cx="187.43" cy="-338.86" rx="27" ry="18"/>
<text text-anchor="middle" x="187.43" y="-335.16" font-family="Times,serif" font-size="14.00">4</text>
</g>
<!-- 3&#45;&#45;4 -->
<g id="id0:edge3" class="edge">
<title>3--4</title>
<path fill="none" stroke="#777777" stroke-width="3" d="M42.09,-193.52C72.67,-224.1 141.62,-293.05 172.26,-323.69"/>
</g>
<!-- 4&#45;&#45;2 -->
<g id="id0:edge4" class="edge">
<title>4--2</title>
<path fill="none" stroke="#777777" stroke-width="3" d="M164.47,-329.35C144.92,-321.25 116.95,-309.66 97.3,-301.52"/>
</g>
<!-- 6 -->
<g id="id0:node8" class="node">
<title>6</title>
<ellipse fill="white" stroke="red" cx="300.87" cy="-291.87" rx="27" ry="18"/>
<text text-anchor="middle" x="300.87" y="-288.17" font-family="Times,serif" font-size="14.00">6</text>
</g>
<!-- 4&#45;&#45;6 -->
<g id="id0:edge10" class="edge">
<title>4--6</title>
<path fill="none" stroke="#777777" stroke-width="3" d="M210.38,-329.35C229.94,-321.25 257.9,-309.66 277.56,-301.52"/>
</g>
<!-- 7 -->
<g id="id0:node6" class="node">
<title>7</title>
<ellipse fill="white" stroke="red" cx="187.43" cy="-18" rx="27" ry="18"/>
<text text-anchor="middle" x="187.43" y="-14.3" font-family="Times,serif" font-size="14.00">7</text>
</g>
<!-- 5&#45;&#45;7 -->
<g id="id0:edge6" class="edge">
<title>5--7</title>
<path fill="none" stroke="#777777" stroke-width="3" d="M277.91,-55.48C258.36,-47.38 230.39,-35.8 210.74,-27.66"/>
</g>
<!-- 7&#45;&#45;2 -->
<g id="id0:edge7" class="edge">
<title>7--2</title>
<path fill="none" stroke="#777777" stroke-width="3" d="M180.16,-35.55C159.67,-85.01 101.61,-225.18 81.2,-274.47"/>
</g>
<!-- 9 -->
<g id="id0:node7" class="node">
<title>9</title>
<ellipse fill="white" stroke="red" cx="73.99" cy="-64.99" rx="27" ry="18"/>
<text text-anchor="middle" x="73.99" y="-61.29" font-family="Times,serif" font-size="14.00">9</text>
</g>
<!-- 7&#45;&#45;9 -->
<g id="id0:edge8" class="edge">
<title>7--9</title>
<path fill="none" stroke="#777777" stroke-width="3" d="M164.47,-27.51C144.92,-35.61 116.95,-47.19 97.3,-55.33"/>
</g>
<!-- 9&#45;&#45;3 -->
<g id="id0:edge9" class="edge">
<title>9--3</title>
<path fill="none" stroke="#777777" stroke-width="3" d="M66.65,-82.71C57.82,-104.02 43.09,-139.57 34.29,-160.83"/>
</g>
<!-- 6&#45;&#45;1 -->
<g id="id0:edge11" class="edge">
<title>6--1</title>
<path fill="none" stroke="#777777" stroke-width="3" d="M308.21,-274.14C317.04,-252.83 331.76,-217.28 340.57,-196.03"/>
</g>
<!-- 0 -->
<g id="id0:node9" class="node">
<title>0</title>
<ellipse fill="white" stroke="red" cx="417.43" cy="-18.43" rx="27" ry="18"/>
<text text-anchor="middle" x="417.43" y="-14.73" font-family="Times,serif" font-size="14.00">0</text>
</g>
<!-- 10 -->
<g id="id0:node10" class="node">
<title>10</title>
<ellipse fill="white" stroke="red" cx="543.43" cy="-18.43" rx="27" ry="18"/>
<text text-anchor="middle" x="543.43" y="-14.73" font-family="Times,serif" font-size="14.00">10</text>
</g>
<!-- 0&#45;&#45;10 -->
<g id="id0:edge12" class="edge">
<title>0--10</title>
<path fill="none" stroke="#777777" stroke-width="3" d="M444.46,-18.43C465.57,-18.43 494.79,-18.43 516.01,-18.43"/>
</g>
</g>
</g>
  <g id="id1:id1" transform="matrix(1.25,0,0,1.25,762.5,214.375)"><g id="id1:graph0" class="graph" transform="scale(1 1) rotate(0) translate(4 201)">
<title>G</title>
<!-- 1 -->
<g id="id1:node1" class="node">
<title>1</title>
<ellipse fill="white" stroke="red" cx="187.27" cy="-18.2" rx="27" ry="18"/>
<text text-anchor="middle" x="187.27" y="-14.5" font-family="Times,serif" font-size="14.00">1</text>
</g>
<!-- 2 -->
<g id="id1:node2" class="node">
<title>2</title>
<ellipse fill="white" stroke="red" cx="108.24" cy="-85.77" rx="27" ry="18"/>
<text text-anchor="middle" x="108.24" y="-82.07" font-family="Times,serif" font-size="14.00">2</text>
</g>
<!-- 1&#45;&#45;2 -->
<g id="id1:edge1" class="edge">
<title>1--2</title>
<path fill="none" stroke="#777777" stroke-width="3" d="M170.51,-32.53C157.1,-44 138.38,-60 124.97,-71.46"/>
</g>
<!-- 3 -->
<g id="id1:node3" class="node">
<title>3</title>
<ellipse fill="white" stroke="red" cx="114.7" cy="-26.85" rx="27" ry="18"/>
<text text-anchor="middle" x="114.7" y="-23.15" font-family="Times,serif" font-size="14.00">3</text>
</g>
<!-- 2&#45;&#45;3 -->
<g id="id1:edge2" class="edge">
<title>2--3</title>
<path fill="none" stroke="#777777" stroke-width="3" d="M110.21,-67.77C111,-60.6 111.9,-52.35 112.69,-45.14"/>
</g>
<!-- 5 -->
<g id="id1:node5" class="node">
<title>5</title>
<ellipse fill="white" stroke="red" cx="95.42" cy="-171.03" rx="27" ry="18"/>
<text text-anchor="middle" x="95.42" y="-167.33" font-family="Times,serif" font-size="14.00">5</text>
</g>
<!-- 2&#45;&#45;5 -->
<g id="id1:edge5" class="edge">
<title>2--5</title>
<path fill="none" stroke="#777777" stroke-width="3" d="M105.52,-103.85C103.34,-118.32 100.31,-138.51 98.13,-152.97"/>
</g>
<!-- 4 -->
<g id="id1:node4" class="node">
<title>4</title>
<ellipse fill="white" stroke="red" cx="173.06" cy="-121.18" rx="27" ry="18"/>
<text text-anchor="middle" x="173.06" y="-117.48" font-family="Times,serif" font-size="14.00">4</text>
</g>
<!-- 3&#45;&#45;4 -->
<g id="id1:edge3" class="edge">
<title>3--4</title>
<path fill="none" stroke="#777777" stroke-width="3" d="M125.13,-43.71C135.76,-60.88 152.12,-87.34 162.71,-104.46"/>
</g>
<!-- 4&#45;&#45;2 -->
<g id="id1:edge4" class="edge">
<title>4--2</title>
<path fill="none" stroke="#777777" stroke-width="3" d="M151.83,-109.58C144.6,-105.63 136.51,-101.21 129.29,-97.27"/>
</g>
<!-- 6 -->
<g id="id1:node8" class="node">
<title>6</title>
<ellipse fill="white" stroke="red" cx="240.66" cy="-82.96" rx="27" ry="18"/>
<text text-anchor="middle" x="240.66" y="-79.26" font-family="Times,serif" font-size="14.00">6</text>
</g>
<!-- 4&#45;&#45;6 -->
<g id="id1:edge10" class="edge">
<title>4--6</title>
<path fill="none" stroke="#777777" stroke-width="3" d="M193.71,-109.5C201.94,-104.85 211.4,-99.5 219.67,-94.82"/>
</g>
<!-- 7 -->
<g id="id1:node6" class="node">
<title>7</title>
<ellipse fill="white" stroke="red" cx="29.97" cy="-109.37" rx="27" ry="18"/>
<text text-anchor="middle" x="29.97" y="-105.67" font-family="Times,serif" font-size="14.00">7</text>
</g>
<!-- 5&#45;&#45;7 -->
<g id="id1:edge6" class="edge">
<title>5--7</title>
<path fill="none" stroke="#777777" stroke-width="3" d="M79.57,-156.1C69.28,-146.41 55.93,-133.83 45.67,-124.16"/>
</g>
<!-- 7&#45;&#45;2 -->
<g id="id1:edge7" class="edge">
<title>7--2</title>
<path fill="none" stroke="#777777" stroke-width="3" d="M54.73,-101.9C63.96,-99.12 74.42,-95.97 83.63,-93.19"/>
</g>
<!-- 9 -->
<g id="id1:node7" class="node">
<title>9</title>
<ellipse fill="white" stroke="red" cx="27.15" cy="-42.25" rx="27" ry="18"/>
<text text-anchor="middle" x="27.15" y="-38.55" font-family="Times,serif" font-size="14.00">9</text>
</g>
<!-- 7&#45;&#45;9 -->
<g id="id1:edge8" class="edge">
<title>7--9</title>
<path fill="none" stroke="#777777" stroke-width="3" d="M29.2,-91.03C28.8,-81.56 28.32,-70.03 27.92,-60.57"/>
</g>
<!-- 9&#45;&#45;3 -->
<g id="id1:edge9" class="edge">
<title>9--3</title>
<path fill="none" stroke="#777777" stroke-width="3" d="M53.42,-37.63C64.5,-35.68 77.37,-33.41 88.45,-31.46"/>
</g>
<!-- 6&#45;&#45;1 -->
<g id="id1:edge11" class="edge">
<title>6--1</title>
<path fill="none" stroke="#777777" stroke-width="3" d="M227.46,-66.95C219.19,-56.91 208.56,-44.03 200.32,-34.02"/>
</g>
<!-- 0 -->
<g id="id1:node9" class="node">
<title>0</title>
<ellipse fill="white" stroke="red" cx="217.41" cy="-179.33" rx="27" ry="18"/>
<text text-anchor="middle" x="217.41" y="-175.63" font-family="Times,serif" font-size="14.00">0</text>
</g>
<!-- 10 -->
<g id="id1:node10" class="node">
<title>10</title>
<ellipse fill="white" stroke="red" cx="282.85" cy="-169.56" rx="27" ry="18"/>
<text text-anchor="middle" x="282.85" y="-165.86" font-family="Times,serif" font-size="14.00">10</text>
</g>
<!-- 0&#45;&#45;10 -->
<g id="id1:edge12" class="edge">
<title>0--10</title>
<path fill="none" stroke="#777777" stroke-width="3" d="M244.03,-175.36C248.14,-174.74 252.37,-174.11 256.47,-173.5"/>
</g>
</g>
</g>
  <g id="id2:id2" transform="matrix(1.25,0,0,1.25,1200.0,0.0)"><g id="id2:graph0" class="graph" transform="scale(1 1) rotate(0) translate(4 544)">
<title>G</title>
<!-- 1 -->
<g id="id2:node1" class="node">
<title>1</title>
<ellipse fill="white" stroke="red" cx="135" cy="-522" rx="27" ry="18"/>
<text text-anchor="middle" x="135" y="-518.3" font-family="Times,serif" font-size="14.00">1</text>
</g>
<!-- 2 -->
<g id="id2:node2" class="node">
<title>2</title>
<ellipse fill="white" stroke="red" cx="106" cy="-450" rx="27" ry="18"/>
<text text-anchor="middle" x="106" y="-446.3" font-family="Times,serif" font-size="14.00">2</text>
</g>
<!-- 1&#45;&#45;2 -->
<g id="id2:edge1" class="edge">
<title>1--2</title>
<path fill="none" stroke="#777777" stroke-width="3" d="M128.12,-504.41C123.5,-493.25 117.43,-478.6 112.82,-467.47"/>
</g>
<!-- 3 -->
<g id="id2:node3" class="node">
<title>3</title>
<ellipse fill="white" stroke="red" cx="70" cy="-162" rx="27" ry="18"/>
<text text-anchor="middle" x="70" y="-158.3" font-family="Times,serif" font-size="14.00">3</text>
</g>
<!-- 2&#45;&#45;3 -->
<g id="id2:edge2" class="edge">
<title>2--3</title>
<path fill="none" stroke="#777777" stroke-width="3" d="M81.27,-442.23C59.5,-434.82 29.12,-420.57 15,-396 -3.08,-364.56 -11.49,-335.42 34,-216 39.3,-202.07 48.92,-188.2 56.87,-178.15"/>
</g>
<!-- 5 -->
<g id="id2:node5" class="node">
<title>5</title>
<ellipse fill="white" stroke="red" cx="51" cy="-378" rx="27" ry="18"/>
<text text-anchor="middle" x="51" y="-374.3" font-family="Times,serif" font-size="14.00">5</text>
</g>
<!-- 2&#45;&#45;5 -->
<g id="id2:edge5" class="edge">
<title>2--5</title>
<path fill="none" stroke="#777777" stroke-width="3" d="M94.06,-433.81C84.84,-422.07 72.13,-405.89 62.91,-394.16"/>
</g>
<!-- 4 -->
<g id="id2:node4" class="node">
<title>4</title>
<ellipse fill="white" stroke="red" cx="127" cy="-90" rx="27" ry="18"/>
<text text-anchor="middle" x="127" y="-86.3" font-family="Times,serif" font-size="14.00">4</text>
</g>
<!-- 3&#45;&#45;4 -->
<g id="id2:edge3" class="edge">
<title>3--4</title>
<path fill="none" stroke="#777777" stroke-width="3" d="M82.36,-145.81C91.92,-134.07 105.1,-117.89 114.65,-106.16"/>
</g>
<!-- 4&#45;&#45;2 -->
<g id="id2:edge4" class="edge">
<title>4--2</title>
<path fill="none" stroke="#777777" stroke-width="3" d="M130.35,-107.97C135.31,-134.52 144,-187.56 144,-233 144,-307 144,-307 144,-307 144,-353.7 124.58,-406.2 113.5,-432.34"/>
</g>
<!-- 6 -->
<g id="id2:node8" class="node">
<title>6</title>
<ellipse fill="white" stroke="red" cx="154" cy="-18" rx="27" ry="18"/>
<text text-anchor="middle" x="154" y="-14.3" font-family="Times,serif" font-size="14.00">6</text>
</g>
<!-- 4&#45;&#45;6 -->
<g id="id2:edge10" class="edge">
<title>4--6</title>
<path fill="none" stroke="#777777" stroke-width="3" d="M133.39,-72.41C137.64,-61.41 143.18,-47.03 147.45,-35.96"/>
</g>
<!-- 7 -->
<g id="id2:node6" class="node">
<title>7</title>
<ellipse fill="white" stroke="red" cx="70" cy="-306" rx="27" ry="18"/>
<text text-anchor="middle" x="70" y="-302.3" font-family="Times,serif" font-size="14.00">7</text>
</g>
<!-- 5&#45;&#45;7 -->
<g id="id2:edge6" class="edge">
<title>5--7</title>
<path fill="none" stroke="#777777" stroke-width="3" d="M55.59,-360.05C58.58,-349.05 62.46,-334.76 65.44,-323.79"/>
</g>
<!-- 7&#45;&#45;2 -->
<g id="id2:edge7" class="edge">
<title>7--2</title>
<path fill="none" stroke="#777777" stroke-width="3" d="M75.79,-323.58C79.29,-333.97 83.71,-347.67 87,-360 93.58,-384.73 99.44,-413.8 102.86,-431.82"/>
</g>
<!-- 9 -->
<g id="id2:node7" class="node">
<title>9</title>
<ellipse fill="white" stroke="red" cx="70" cy="-234" rx="27" ry="18"/>
<text text-anchor="middle" x="70" y="-230.3" font-family="Times,serif" font-size="14.00">9</text>
</g>
<!-- 7&#45;&#45;9 -->
<g id="id2:edge8" class="edge">
<title>7--9</title>
<path fill="none" stroke="#777777" stroke-width="3" d="M70,-287.7C70,-276.85 70,-262.92 70,-252.1"/>
</g>
<!-- 9&#45;&#45;3 -->
<g id="id2:edge9" class="edge">
<title>9--3</title>
<path fill="none" stroke="#777777" stroke-width="3" d="M70,-215.7C70,-204.85 70,-190.92 70,-180.1"/>
</g>
<!-- 6&#45;&#45;1 -->
<g id="id2:edge11" class="edge">
<title>6--1</title>
<path fill="none" stroke="#777777" stroke-width="3" d="M159.53,-35.84C167.69,-62.21 182,-115.02 182,-161 182,-379 182,-379 182,-379 182,-426.78 157.71,-479.23 144.06,-504.96"/>
</g>
<!-- 0 -->
<g id="id2:node9" class="node">
<title>0</title>
<ellipse fill="white" stroke="red" cx="237" cy="-522" rx="27" ry="18"/>
<text text-anchor="middle" x="237" y="-518.3" font-family="Times,serif" font-size="14.00">0</text>
</g>
<!-- 10 -->
<g id="id2:node10" class="node">
<title>10</title>
<ellipse fill="white" stroke="red" cx="237" cy="-450" rx="27" ry="18"/>
<text text-anchor="middle" x="237" y="-446.3" font-family="Times,serif" font-size="14.00">10</text>
</g>
<!-- 0&#45;&#45;10 -->
<g id="id2:edge12" class="edge">
<title>0--10</title>
<path fill="none" stroke="#777777" stroke-width="3" d="M237,-503.7C237,-492.85 237,-478.92 237,-468.1"/>
</g>
</g>
</g>
</svg>
