<svg version="1.1" xmlns="http://www.w3.org/2000/svg" viewBox="0 0 358.7499999999999 379.0624999999999" width="358.7499999999999" height="379.0624999999999">
  <!-- svg-source:excalidraw -->
  
  <defs>
    <style class="style-fonts">
      @font-face {
        font-family: "Virgil";
        src: url("https://excalidraw.com/Virgil.woff2");
      }
      @font-face {
        font-family: "Cascadia";
        src: url("https://excalidraw.com/Cascadia.woff2");
      }
      @font-face {
        font-family: "Assistant";
        src: url("https://excalidraw.com/Assistant-Regular.woff2");
      }
    </style>
    
  </defs>
  <g stroke-linecap="round" transform="translate(10 10) rotate(0 169.37499999999994 179.21874999999994)"><path d="M0.11 1.43 L337.58 -1.32 L340.73 357.65 L-0.05 358.08" stroke="none" stroke-width="0" fill="#d0bfff"></path><path d="M0 0 C97.75 -2.56, 197.42 -1.54, 338.75 0 M0 0 C124.18 0.15, 247.1 0.2, 338.75 0 M338.75 0 C337.16 89.99, 336.55 177.6, 338.75 358.44 M338.75 0 C338.85 130.93, 338.99 260.91, 338.75 358.44 M338.75 358.44 C267.6 358.2, 197.98 358.15, 0 358.44 M338.75 358.44 C237.72 357.48, 135.49 357.5, 0 358.44 M0 358.44 C0.85 242.82, -0.4 130.1, 0 0 M0 358.44 C-1.85 273.77, -1.03 189, 0 0" stroke="#777777" stroke-width="2" fill="none"></path></g><g stroke-linecap="round" transform="translate(71.56249999999989 69.99999999999997) rotate(0 102.96875 102.03124999999997)"><path d="M205.94 102.03 C205.94 105.17, 205.79 108.32, 205.5 111.45 C205.21 114.57, 204.77 117.69, 204.18 120.78 C203.6 123.86, 202.87 126.94, 202.01 129.95 C201.14 132.97, 200.13 135.96, 198.98 138.89 C197.84 141.82, 196.55 144.7, 195.14 147.51 C193.73 150.32, 192.18 153.08, 190.51 155.74 C188.85 158.41, 187.05 161.01, 185.14 163.52 C183.23 166.02, 181.2 168.45, 179.06 170.77 C176.93 173.09, 174.68 175.32, 172.34 177.43 C170 179.55, 167.55 181.56, 165.02 183.45 C162.49 185.35, 159.87 187.13, 157.17 188.78 C154.48 190.43, 151.7 191.97, 148.87 193.37 C146.03 194.76, 143.12 196.04, 140.17 197.17 C137.21 198.31, 134.19 199.31, 131.15 200.17 C128.1 201.03, 125 201.75, 121.89 202.33 C118.78 202.9, 115.62 203.34, 112.47 203.63 C109.32 203.92, 106.14 204.06, 102.97 204.06 C99.8 204.06, 96.62 203.92, 93.47 203.63 C90.31 203.34, 87.16 202.9, 84.05 202.33 C80.94 201.75, 77.84 201.03, 74.79 200.17 C71.74 199.31, 68.73 198.31, 65.77 197.17 C62.82 196.04, 59.91 194.76, 57.07 193.37 C54.24 191.97, 51.46 190.43, 48.76 188.78 C46.07 187.13, 43.44 185.35, 40.92 183.45 C38.39 181.56, 35.94 179.55, 33.6 177.43 C31.26 175.32, 29.01 173.09, 26.87 170.77 C24.74 168.45, 22.71 166.02, 20.8 163.52 C18.89 161.01, 17.09 158.41, 15.42 155.74 C13.76 153.08, 12.21 150.32, 10.79 147.51 C9.38 144.7, 8.1 141.82, 6.95 138.89 C5.81 135.96, 4.8 132.97, 3.93 129.95 C3.06 126.94, 2.34 123.86, 1.75 120.78 C1.17 117.69, 0.73 114.57, 0.44 111.45 C0.15 108.32, 0 105.17, 0 102.03 C0 98.89, 0.15 95.74, 0.44 92.62 C0.73 89.49, 1.17 86.37, 1.75 83.28 C2.34 80.2, 3.06 77.13, 3.93 74.11 C4.8 71.09, 5.81 68.1, 6.95 65.17 C8.1 62.25, 9.38 59.36, 10.79 56.55 C12.21 53.74, 13.76 50.99, 15.42 48.32 C17.09 45.65, 18.89 43.05, 20.8 40.54 C22.71 38.04, 24.74 35.61, 26.87 33.29 C29.01 30.97, 31.26 28.74, 33.6 26.63 C35.94 24.52, 38.39 22.5, 40.92 20.61 C43.44 18.72, 46.07 16.93, 48.76 15.28 C51.46 13.63, 54.24 12.1, 57.07 10.7 C59.91 9.3, 62.82 8.02, 65.77 6.89 C68.73 5.76, 71.74 4.75, 74.79 3.89 C77.84 3.04, 80.94 2.31, 84.05 1.74 C87.16 1.16, 90.31 0.72, 93.47 0.44 C96.62 0.15, 99.8 0, 102.97 0 C106.14 0, 109.32 0.15, 112.47 0.44 C115.62 0.72, 118.78 1.16, 121.89 1.74 C125 2.31, 128.1 3.04, 131.15 3.89 C134.19 4.75, 137.21 5.76, 140.17 6.89 C143.12 8.02, 146.03 9.3, 148.87 10.7 C151.7 12.1, 154.48 13.63, 157.17 15.28 C159.87 16.93, 162.49 18.72, 165.02 20.61 C167.55 22.5, 170 24.52, 172.34 26.63 C174.68 28.74, 176.93 30.97, 179.06 33.29 C181.2 35.61, 183.23 38.04, 185.14 40.54 C187.05 43.05, 188.85 45.65, 190.51 48.32 C192.18 50.99, 193.73 53.74, 195.14 56.55 C196.55 59.36, 197.84 62.25, 198.98 65.17 C200.13 68.1, 201.14 71.09, 202.01 74.11 C202.87 77.13, 203.6 80.2, 204.18 83.28 C204.77 86.37, 205.21 89.49, 205.5 92.62 C205.79 95.74, 205.86 100.46, 205.94 102.03 C206.01 103.6, 206.01 100.46, 205.94 102.03" stroke="none" stroke-width="0" fill="#a5d8ff"></path><path d="M205.94 102.03 C205.94 105.17, 205.79 108.32, 205.5 111.45 C205.21 114.57, 204.77 117.69, 204.18 120.78 C203.6 123.86, 202.87 126.94, 202.01 129.95 C201.14 132.97, 200.13 135.96, 198.98 138.89 C197.84 141.82, 196.55 144.7, 195.14 147.51 C193.73 150.32, 192.18 153.08, 190.51 155.74 C188.85 158.41, 187.05 161.01, 185.14 163.52 C183.23 166.02, 181.2 168.45, 179.06 170.77 C176.93 173.09, 174.68 175.32, 172.34 177.43 C170 179.55, 167.55 181.56, 165.02 183.45 C162.49 185.35, 159.87 187.13, 157.17 188.78 C154.48 190.43, 151.7 191.97, 148.87 193.37 C146.03 194.76, 143.12 196.04, 140.17 197.17 C137.21 198.31, 134.19 199.31, 131.15 200.17 C128.1 201.03, 125 201.75, 121.89 202.33 C118.78 202.9, 115.62 203.34, 112.47 203.63 C109.32 203.92, 106.14 204.06, 102.97 204.06 C99.8 204.06, 96.62 203.92, 93.47 203.63 C90.31 203.34, 87.16 202.9, 84.05 202.33 C80.94 201.75, 77.84 201.03, 74.79 200.17 C71.74 199.31, 68.73 198.31, 65.77 197.17 C62.82 196.04, 59.91 194.76, 57.07 193.37 C54.24 191.97, 51.46 190.43, 48.76 188.78 C46.07 187.13, 43.44 185.35, 40.92 183.45 C38.39 181.56, 35.94 179.55, 33.6 177.43 C31.26 175.32, 29.01 173.09, 26.87 170.77 C24.74 168.45, 22.71 166.02, 20.8 163.52 C18.89 161.01, 17.09 158.41, 15.42 155.74 C13.76 153.08, 12.21 150.32, 10.79 147.51 C9.38 144.7, 8.1 141.82, 6.95 138.89 C5.81 135.96, 4.8 132.97, 3.93 129.95 C3.06 126.94, 2.34 123.86, 1.75 120.78 C1.17 117.69, 0.73 114.57, 0.44 111.45 C0.15 108.32, 0 105.17, 0 102.03 C0 98.89, 0.15 95.74, 0.44 92.62 C0.73 89.49, 1.17 86.37, 1.75 83.28 C2.34 80.2, 3.06 77.13, 3.93 74.11 C4.8 71.09, 5.81 68.1, 6.95 65.17 C8.1 62.25, 9.38 59.36, 10.79 56.55 C12.21 53.74, 13.76 50.99, 15.42 48.32 C17.09 45.65, 18.89 43.05, 20.8 40.54 C22.71 38.04, 24.74 35.61, 26.87 33.29 C29.01 30.97, 31.26 28.74, 33.6 26.63 C35.94 24.52, 38.39 22.5, 40.92 20.61 C43.44 18.72, 46.07 16.93, 48.76 15.28 C51.46 13.63, 54.24 12.1, 57.07 10.7 C59.91 9.3, 62.82 8.02, 65.77 6.89 C68.73 5.76, 71.74 4.75, 74.79 3.89 C77.84 3.04, 80.94 2.31, 84.05 1.74 C87.16 1.16, 90.31 0.72, 93.47 0.44 C96.62 0.15, 99.8 0, 102.97 0 C106.14 0, 109.32 0.15, 112.47 0.44 C115.62 0.72, 118.78 1.16, 121.89 1.74 C125 2.31, 128.1 3.04, 131.15 3.89 C134.19 4.75, 137.21 5.76, 140.17 6.89 C143.12 8.02, 146.03 9.3, 148.87 10.7 C151.7 12.1, 154.48 13.63, 157.17 15.28 C159.87 16.93, 162.49 18.72, 165.02 20.61 C167.55 22.5, 170 24.52, 172.34 26.63 C174.68 28.74, 176.93 30.97, 179.06 33.29 C181.2 35.61, 183.23 38.04, 185.14 40.54 C187.05 43.05, 188.85 45.65, 190.51 48.32 C192.18 50.99, 193.73 53.74, 195.14 56.55 C196.55 59.36, 197.84 62.25, 198.98 65.17 C200.13 68.1, 201.14 71.09, 202.01 74.11 C202.87 77.13, 203.6 80.2, 204.18 83.28 C204.77 86.37, 205.21 89.49, 205.5 92.62 C205.79 95.74, 205.86 100.46, 205.94 102.03 C206.01 103.6, 206.01 100.46, 205.94 102.03" stroke="#1e1e1e" stroke-width="2" fill="none"></path></g><g stroke-linecap="round"><g transform="translate(169.3749999999999 174.68749999999991) rotate(0 88.90625 -81.56249999999996)"><path d="M0 0 C66.07 -60.61, 132.13 -121.22, 177.81 -163.12 M0 0 C59.39 -54.48, 118.78 -108.97, 177.81 -163.12" stroke="#777777" stroke-width="2" fill="none"></path></g></g><mask></mask><g stroke-linecap="round"><g transform="translate(169.3749999999999 173.74999999999991) rotate(0 63.75 97.65625)"><path d="M0 0 C41.62 63.76, 83.24 127.51, 127.5 195.31 M0 0 C41.55 63.66, 83.11 127.31, 127.5 195.31" stroke="#777777" stroke-width="2" fill="none"></path></g></g><mask></mask><g stroke-linecap="round"><g transform="translate(168.4374999999999 173.74999999999991) rotate(0 -79.06249999999994 -9.218749999999986)"><path d="M0 0 C-47.88 -5.58, -95.76 -11.17, -158.12 -18.44 M0 0 C-42.28 -4.93, -84.55 -9.86, -158.12 -18.44" stroke="#777777" stroke-width="2" fill="none"></path></g></g><mask></mask></svg>