<?xml version="1.0" encoding="UTF-8" standalone="no"?>
<!DOCTYPE svg PUBLIC "-//W3C//DTD SVG 1.1//EN"
 "http://www.w3.org/Graphics/SVG/1.1/DTD/svg11.dtd">
<!-- Generated by graphviz version 2.43.0 (0)
 -->
<!-- Title: K4_subdivision Pages: 1 -->
<svg width="296pt" height="356pt"
 viewBox="0.00 0.00 296.00 355.77" xmlns="http://www.w3.org/2000/svg" xmlns:xlink="http://www.w3.org/1999/xlink">
<g id="page0,1_graph0" class="graph" transform="scale(1 1) rotate(0) translate(4 351.77)">
<title>K4_subdivision</title>
<!-- 0 -->
<g id="node1" class="node">
<title>0</title>
<ellipse fill="white" stroke="red" cx="162" cy="-142.71" rx="18" ry="18"/>
<text text-anchor="middle" x="162" y="-139.01" font-family="Times,serif" font-size="14.00">0</text>
</g>
<!-- a -->
<g id="node2" class="node">
<title>a</title>
<ellipse fill="white" stroke="red" cx="198" cy="-205.06" rx="18" ry="18"/>
<text text-anchor="middle" x="198" y="-201.36" font-family="Times,serif" font-size="14.00">a</text>
</g>
<!-- 0&#45;&#45;a -->
<g id="edge1" class="edge">
<title>0&#45;&#45;a</title>
<path fill="none" stroke="#777777" stroke-width="3" d="M171.08,-158.44C176.5,-167.82 183.36,-179.7 188.79,-189.12"/>
</g>
<!-- 2 -->
<g id="node4" class="node">
<title>2</title>
<ellipse fill="white" stroke="red" cx="90" cy="-142.71" rx="18" ry="18"/>
<text text-anchor="middle" x="90" y="-139.01" font-family="Times,serif" font-size="14.00">2</text>
</g>
<!-- 0&#45;&#45;2 -->
<g id="edge3" class="edge">
<title>0&#45;&#45;2</title>
<path fill="none" stroke="#777777" stroke-width="3" d="M143.83,-142.71C133,-142.71 119.29,-142.71 108.41,-142.71"/>
</g>
<!-- 3 -->
<g id="node5" class="node">
<title>3</title>
<ellipse fill="white" stroke="red" cx="198" cy="-80.35" rx="18" ry="18"/>
<text text-anchor="middle" x="198" y="-76.65" font-family="Times,serif" font-size="14.00">3</text>
</g>
<!-- 0&#45;&#45;3 -->
<g id="edge4" class="edge">
<title>0&#45;&#45;3</title>
<path fill="none" stroke="#777777" stroke-width="3" d="M171.08,-126.97C176.5,-117.59 183.36,-105.72 188.79,-96.3"/>
</g>
<!-- 1 -->
<g id="node3" class="node">
<title>1</title>
<ellipse fill="white" stroke="red" cx="234" cy="-267.42" rx="18" ry="18"/>
<text text-anchor="middle" x="234" y="-263.72" font-family="Times,serif" font-size="14.00">1</text>
</g>
<!-- a&#45;&#45;1 -->
<g id="edge2" class="edge">
<title>a&#45;&#45;1</title>
<path fill="none" stroke="#777777" stroke-width="3" d="M207.08,-220.8C212.5,-230.18 219.36,-242.05 224.79,-251.47"/>
</g>
<!-- b -->
<g id="node6" class="node">
<title>b</title>
<ellipse fill="white" stroke="red" cx="270" cy="-329.77" rx="18" ry="18"/>
<text text-anchor="middle" x="270" y="-326.07" font-family="Times,serif" font-size="14.00">b</text>
</g>
<!-- 1&#45;&#45;b -->
<g id="edge5" class="edge">
<title>1&#45;&#45;b</title>
<path fill="none" stroke="#777777" stroke-width="3" d="M243.08,-283.15C248.5,-292.53 255.36,-304.41 260.79,-313.82"/>
</g>
<!-- d -->
<g id="node8" class="node">
<title>d</title>
<ellipse fill="white" stroke="red" cx="234" cy="-18" rx="18" ry="18"/>
<text text-anchor="middle" x="234" y="-14.3" font-family="Times,serif" font-size="14.00">d</text>
</g>
<!-- 1&#45;&#45;d -->
<g id="edge8" class="edge">
<title>1&#45;&#45;d</title>
<path fill="none" stroke="#777777" stroke-width="3" d="M234,-249.08C234,-202.84 234,-81.93 234,-36.03"/>
</g>
<!-- 2&#45;&#45;3 -->
<g id="edge10" class="edge">
<title>2&#45;&#45;3</title>
<path fill="none" stroke="#777777" stroke-width="3" d="M105.94,-133.51C126.47,-121.65 161.95,-101.17 182.35,-89.39"/>
</g>
<!-- c -->
<g id="node7" class="node">
<title>c</title>
<ellipse fill="white" stroke="red" cx="18" cy="-142.71" rx="18" ry="18"/>
<text text-anchor="middle" x="18" y="-139.01" font-family="Times,serif" font-size="14.00">c</text>
</g>
<!-- b&#45;&#45;c -->
<g id="edge6" class="edge">
<title>b&#45;&#45;c</title>
<path fill="none" stroke="#777777" stroke-width="3" d="M255.36,-318.9C210.82,-285.84 77.27,-186.7 32.68,-153.6"/>
</g>
<!-- c&#45;&#45;2 -->
<g id="edge7" class="edge">
<title>c&#45;&#45;2</title>
<path fill="none" stroke="#777777" stroke-width="3" d="M36.17,-142.71C47,-142.71 60.71,-142.71 71.59,-142.71"/>
</g>
<!-- d&#45;&#45;3 -->
<g id="edge9" class="edge">
<title>d&#45;&#45;3</title>
<path fill="none" stroke="#777777" stroke-width="3" d="M224.92,-33.73C219.5,-43.11 212.64,-54.99 207.21,-64.41"/>
</g>
</g>
</svg>
