<?xml version="1.0" encoding="UTF-8" standalone="no"?>
<!DOCTYPE svg PUBLIC "-//W3C//DTD SVG 1.1//EN"
 "http://www.w3.org/Graphics/SVG/1.1/DTD/svg11.dtd">
<!-- Generated by graphviz version 2.43.0 (0)
 -->
<!-- Title: K4_TopologicalMinor Pages: 1 -->
<svg width="360pt" height="274pt"
 viewBox="0.00 0.00 359.69 274.34" xmlns="http://www.w3.org/2000/svg" xmlns:xlink="http://www.w3.org/1999/xlink">
<g id="page0,1_graph0" class="graph" transform="scale(1 1) rotate(0) translate(4 270.34)">
<title>K4_TopologicalMinor</title>
<!-- 0 -->
<g id="node1" class="node">
<title>0</title>
<ellipse fill="white" stroke="red" cx="218.32" cy="-93.85" rx="18" ry="18"/>
<text text-anchor="middle" x="218.32" y="-90.15" font-family="Times,serif" font-size="14.00">0</text>
</g>
<!-- a -->
<g id="node2" class="node">
<title>a</title>
<ellipse fill="white" stroke="red" cx="161.34" cy="-18" rx="18" ry="18"/>
<text text-anchor="middle" x="161.34" y="-14.3" font-family="Times,serif" font-size="14.00">a</text>
</g>
<!-- 0&#45;&#45;a -->
<g id="edge1" class="edge">
<title>0&#45;&#45;a</title>
<path fill="none" stroke="red" stroke-width="3" d="M207.33,-79.22C197.24,-65.79 182.37,-46 172.29,-32.58"/>
</g>
<!-- 2 -->
<g id="node4" class="node">
<title>2</title>
<ellipse fill="white" stroke="red" cx="164.01" cy="-98.06" rx="18" ry="18"/>
<text text-anchor="middle" x="164.01" y="-94.36" font-family="Times,serif" font-size="14.00">2</text>
</g>
<!-- 0&#45;&#45;2 -->
<g id="edge3" class="edge">
<title>0&#45;&#45;2</title>
<path fill="none" stroke="red" stroke-width="3" d="M200.24,-95.25C194.44,-95.7 188.01,-96.2 182.2,-96.65"/>
</g>
<!-- 3 -->
<g id="node5" class="node">
<title>3</title>
<ellipse fill="white" stroke="red" cx="189.38" cy="-168.47" rx="18" ry="18"/>
<text text-anchor="middle" x="189.38" y="-164.77" font-family="Times,serif" font-size="14.00">3</text>
</g>
<!-- 0&#45;&#45;3 -->
<g id="edge4" class="edge">
<title>0&#45;&#45;3</title>
<path fill="none" stroke="red" stroke-width="3" d="M211.75,-110.78C207.01,-122.99 200.65,-139.4 195.92,-151.6"/>
</g>
<!-- 1 -->
<g id="node3" class="node">
<title>1</title>
<ellipse fill="white" stroke="red" cx="88.74" cy="-51.5" rx="18" ry="18"/>
<text text-anchor="middle" x="88.74" y="-47.8" font-family="Times,serif" font-size="14.00">1</text>
</g>
<!-- a&#45;&#45;1 -->
<g id="edge2" class="edge">
<title>a&#45;&#45;1</title>
<path fill="none" stroke="red" stroke-width="3" d="M144.87,-25.6C132.99,-31.09 117.02,-38.46 105.15,-43.93"/>
</g>
<!-- b -->
<g id="node6" class="node">
<title>b</title>
<ellipse fill="white" stroke="red" cx="18" cy="-49.55" rx="18" ry="18"/>
<text text-anchor="middle" x="18" y="-45.85" font-family="Times,serif" font-size="14.00">b</text>
</g>
<!-- 1&#45;&#45;b -->
<g id="edge5" class="edge">
<title>1&#45;&#45;b</title>
<path fill="none" stroke="red" stroke-width="3" d="M70.53,-51C60.05,-50.71 46.91,-50.35 36.4,-50.06"/>
</g>
<!-- d -->
<g id="node8" class="node">
<title>d</title>
<ellipse fill="white" stroke="red" cx="107.66" cy="-151.72" rx="18" ry="18"/>
<text text-anchor="middle" x="107.66" y="-148.02" font-family="Times,serif" font-size="14.00">d</text>
</g>
<!-- 1&#45;&#45;d -->
<g id="edge8" class="edge">
<title>1&#45;&#45;d</title>
<path fill="none" stroke="red" stroke-width="3" d="M92.13,-69.42C95.57,-87.66 100.88,-115.77 104.31,-133.95"/>
</g>
<!-- 2&#45;&#45;3 -->
<g id="edge10" class="edge">
<title>2&#45;&#45;3</title>
<path fill="none" stroke="red" stroke-width="3" d="M170.15,-115.11C174.08,-126.01 179.16,-140.12 183.12,-151.09"/>
</g>
<!-- 9 -->
<g id="node13" class="node">
<title>9</title>
<ellipse fill="white" stroke="red" cx="267.4" cy="-199.75" rx="18" ry="18"/>
<text text-anchor="middle" x="267.4" y="-196.05" font-family="Times,serif" font-size="14.00">9</text>
</g>
<!-- 3&#45;&#45;9 -->
<g id="edge14" class="edge">
<title>3&#45;&#45;9</title>
<path fill="none" stroke="#777777" stroke-width="3" d="M206.3,-175.25C219.39,-180.5 237.42,-187.73 250.5,-192.98"/>
</g>
<!-- c -->
<g id="node7" class="node">
<title>c</title>
<ellipse fill="white" stroke="red" cx="70.32" cy="-105.54" rx="18" ry="18"/>
<text text-anchor="middle" x="70.32" y="-101.84" font-family="Times,serif" font-size="14.00">c</text>
</g>
<!-- b&#45;&#45;c -->
<g id="edge6" class="edge">
<title>b&#45;&#45;c</title>
<path fill="none" stroke="red" stroke-width="3" d="M30.4,-62.82C38.74,-71.75 49.69,-83.46 58.01,-92.37"/>
</g>
<!-- c&#45;&#45;2 -->
<g id="edge7" class="edge">
<title>c&#45;&#45;2</title>
<path fill="none" stroke="red" stroke-width="3" d="M88.38,-104.1C104.97,-102.78 129.43,-100.82 146,-99.5"/>
</g>
<!-- d&#45;&#45;3 -->
<g id="edge9" class="edge">
<title>d&#45;&#45;3</title>
<path fill="none" stroke="red" stroke-width="3" d="M125.39,-155.35C139.1,-158.16 157.98,-162.03 171.68,-164.84"/>
</g>
<!-- 5 -->
<g id="node9" class="node">
<title>5</title>
<ellipse fill="white" stroke="red" cx="333.69" cy="-152.32" rx="18" ry="18"/>
<text text-anchor="middle" x="333.69" y="-148.62" font-family="Times,serif" font-size="14.00">5</text>
</g>
<!-- 6 -->
<g id="node10" class="node">
<title>6</title>
<ellipse fill="white" stroke="red" cx="297.51" cy="-81.32" rx="18" ry="18"/>
<text text-anchor="middle" x="297.51" y="-77.62" font-family="Times,serif" font-size="14.00">6</text>
</g>
<!-- 5&#45;&#45;6 -->
<g id="edge11" class="edge">
<title>5&#45;&#45;6</title>
<path fill="none" stroke="#777777" stroke-width="3" d="M325.48,-136.21C319.56,-124.59 311.6,-108.97 305.68,-97.37"/>
</g>
<!-- 6&#45;&#45;0 -->
<g id="edge16" class="edge">
<title>6&#45;&#45;0</title>
<path fill="none" stroke="#777777" stroke-width="3" d="M279.54,-84.16C266.58,-86.21 249.16,-88.97 236.22,-91.02"/>
</g>
<!-- 7 -->
<g id="node11" class="node">
<title>7</title>
<ellipse fill="white" stroke="red" cx="242.4" cy="-34.56" rx="18" ry="18"/>
<text text-anchor="middle" x="242.4" y="-30.86" font-family="Times,serif" font-size="14.00">7</text>
</g>
<!-- 6&#45;&#45;7 -->
<g id="edge12" class="edge">
<title>6&#45;&#45;7</title>
<path fill="none" stroke="#777777" stroke-width="3" d="M283.6,-69.52C275.31,-62.49 264.82,-53.58 256.5,-46.52"/>
</g>
<!-- 7&#45;&#45;2 -->
<g id="edge17" class="edge">
<title>7&#45;&#45;2</title>
<path fill="none" stroke="#777777" stroke-width="3" d="M228.39,-45.91C214.21,-57.4 192.4,-75.07 178.17,-86.59"/>
</g>
<!-- 8 -->
<g id="node12" class="node">
<title>8</title>
<ellipse fill="white" stroke="red" cx="171.79" cy="-248.34" rx="18" ry="18"/>
<text text-anchor="middle" x="171.79" y="-244.64" font-family="Times,serif" font-size="14.00">8</text>
</g>
<!-- 8&#45;&#45;3 -->
<g id="edge13" class="edge">
<title>8&#45;&#45;3</title>
<path fill="none" stroke="#777777" stroke-width="3" d="M175.7,-230.62C178.61,-217.38 182.57,-199.37 185.48,-186.14"/>
</g>
<!-- 9&#45;&#45;5 -->
<g id="edge15" class="edge">
<title>9&#45;&#45;5</title>
<path fill="none" stroke="#777777" stroke-width="3" d="M282.11,-189.22C293.09,-181.36 308.04,-170.67 319.02,-162.81"/>
</g>
</g>
</svg>
