<?xml version="1.0" encoding="UTF-8" standalone="no"?>
<!DOCTYPE svg PUBLIC "-//W3C//DTD SVG 1.1//EN"
 "http://www.w3.org/Graphics/SVG/1.1/DTD/svg11.dtd">
<!-- Generated by graphviz version 2.43.0 (0)
 -->
<!-- Title: C4_JCT Pages: 1 -->
<svg width="222pt" height="204pt"
 viewBox="0.00 0.00 222.43 204.43" xmlns="http://www.w3.org/2000/svg" xmlns:xlink="http://www.w3.org/1999/xlink">
<g id="page0,1_graph0" class="graph" transform="scale(1 1) rotate(0) translate(4 200.43)">
<title>C4_JCT</title>
<!-- 0 -->
<g id="node1" class="node">
<title>0</title>
<ellipse fill="white" stroke="red" cx="107.21" cy="-18" rx="27" ry="18"/>
<text text-anchor="middle" x="107.21" y="-14.3" font-family="Times,serif" font-size="14.00">0</text>
</g>
<!-- 1 -->
<g id="node2" class="node">
<title>1</title>
<ellipse fill="white" stroke="red" cx="27" cy="-98.21" rx="27" ry="18"/>
<text text-anchor="middle" x="27" y="-94.51" font-family="Times,serif" font-size="14.00">1</text>
</g>
<!-- 0&#45;&#45;1 -->
<g id="edge1" class="edge">
<title>0&#45;&#45;1</title>
<path fill="none" stroke="#777777" stroke-width="3" d="M92.13,-33.09C77.79,-47.43 56.34,-68.88 42.02,-83.19"/>
</g>
<!-- 2 -->
<g id="node3" class="node">
<title>2</title>
<ellipse fill="white" stroke="red" cx="107.21" cy="-178.43" rx="27" ry="18"/>
<text text-anchor="middle" x="107.21" y="-174.73" font-family="Times,serif" font-size="14.00">2</text>
</g>
<!-- 0&#45;&#45;2 -->
<g id="edge5" class="edge">
<title>0&#45;&#45;2</title>
<path fill="none" stroke="#777777" stroke-width="3" d="M107.21,-36.09C107.21,-66.9 107.21,-129.22 107.21,-160.16"/>
</g>
<!-- 1&#45;&#45;2 -->
<g id="edge2" class="edge">
<title>1&#45;&#45;2</title>
<path fill="none" stroke="#777777" stroke-width="3" d="M42.09,-113.3C56.43,-127.64 77.88,-149.09 92.19,-163.41"/>
</g>
<!-- 3 -->
<g id="node4" class="node">
<title>3</title>
<ellipse fill="white" stroke="red" cx="187.43" cy="-98.21" rx="27" ry="18"/>
<text text-anchor="middle" x="187.43" y="-94.51" font-family="Times,serif" font-size="14.00">3</text>
</g>
<!-- 2&#45;&#45;3 -->
<g id="edge3" class="edge">
<title>2&#45;&#45;3</title>
<path fill="none" stroke="#777777" stroke-width="3" d="M122.3,-163.34C136.64,-149 158.09,-127.55 172.41,-113.23"/>
</g>
<!-- 3&#45;&#45;0 -->
<g id="edge4" class="edge">
<title>3&#45;&#45;0</title>
<path fill="none" stroke="#777777" stroke-width="3" d="M172.34,-83.13C158,-68.79 136.55,-47.34 122.23,-33.02"/>
</g>
</g>
</svg>
