<svg version="1.1" xmlns="http://www.w3.org/2000/svg" viewBox="0 0 381.02083333333314 198.5625999999999" width="381.02083333333314" height="198.5625999999999">
  <!-- svg-source:excalidraw -->
  
  <defs>
    <style class="style-fonts">
      @font-face {
        font-family: "Virgil";
        src: url("https://excalidraw.com/Virgil.woff2");
      }
      @font-face {
        font-family: "Cascadia";
        src: url("https://excalidraw.com/Cascadia.woff2");
      }
      @font-face {
        font-family: "Assistant";
        src: url("https://excalidraw.com/Assistant-Regular.woff2");
      }
    </style>
    
  </defs>
  <g stroke-linecap="round" transform="translate(203.20833333333314 90.62499999999994) rotate(0 7.34375 7.65625)"><path d="M14.69 7.66 C14.69 8.1, 14.65 8.55, 14.58 8.99 C14.5 9.42, 14.39 9.86, 14.24 10.27 C14.1 10.69, 13.92 11.1, 13.7 11.48 C13.49 11.87, 13.24 12.24, 12.97 12.58 C12.7 12.92, 12.39 13.24, 12.06 13.52 C11.74 13.81, 11.38 14.07, 11.02 14.29 C10.65 14.51, 10.25 14.7, 9.86 14.85 C9.46 15, 9.04 15.12, 8.62 15.2 C8.2 15.27, 7.77 15.31, 7.34 15.31 C6.92 15.31, 6.49 15.27, 6.07 15.2 C5.65 15.12, 5.23 15, 4.83 14.85 C4.43 14.7, 4.04 14.51, 3.67 14.29 C3.3 14.07, 2.95 13.81, 2.62 13.52 C2.3 13.24, 1.99 12.92, 1.72 12.58 C1.44 12.24, 1.2 11.87, 0.98 11.48 C0.77 11.1, 0.59 10.69, 0.44 10.27 C0.3 9.86, 0.19 9.42, 0.11 8.99 C0.04 8.55, 0 8.1, 0 7.66 C0 7.21, 0.04 6.76, 0.11 6.33 C0.19 5.89, 0.3 5.45, 0.44 5.04 C0.59 4.62, 0.77 4.21, 0.98 3.83 C1.2 3.44, 1.44 3.07, 1.72 2.73 C1.99 2.4, 2.3 2.08, 2.62 1.79 C2.95 1.51, 3.3 1.25, 3.67 1.03 C4.04 0.8, 4.43 0.61, 4.83 0.46 C5.23 0.31, 5.65 0.19, 6.07 0.12 C6.49 0.04, 6.92 0, 7.34 0 C7.77 0, 8.2 0.04, 8.62 0.12 C9.04 0.19, 9.46 0.31, 9.86 0.46 C10.25 0.61, 10.65 0.8, 11.02 1.03 C11.38 1.25, 11.74 1.51, 12.06 1.79 C12.39 2.08, 12.7 2.4, 12.97 2.73 C13.24 3.07, 13.49 3.44, 13.7 3.83 C13.92 4.21, 14.1 4.62, 14.24 5.04 C14.39 5.45, 14.5 5.89, 14.58 6.33 C14.65 6.76, 14.67 7.43, 14.69 7.66 C14.71 7.88, 14.71 7.43, 14.69 7.66" stroke="#777777" stroke-width="1" fill="none"></path></g><g transform="translate(208.26832898457826 92.18749999999994) rotate(0 3.1749963760375977 7.8125)"><text x="0" y="10.95" font-family="Virgil, Segoe UI Emoji" font-size="12.5px" fill="#777777" text-anchor="start" style="white-space: pre;" direction="ltr" dominant-baseline="alphabetic">b</text></g><g transform="translate(119.45833333333314 50.93749999999997) rotate(0 4.54400634765625 10)"><text x="0" y="14.016" font-family="Virgil, Segoe UI Emoji" font-size="16px" fill="#777777" text-anchor="start" style="white-space: pre;" direction="ltr" dominant-baseline="alphabetic">u</text></g><g transform="translate(360.70833333333314 74.06249999999994) rotate(0 4.1840057373046875 10)"><text x="0" y="14.016" font-family="Virgil, Segoe UI Emoji" font-size="16px" fill="#777777" text-anchor="start" style="white-space: pre;" direction="ltr" dominant-baseline="alphabetic">v</text></g><g transform="translate(223.20833333333314 33.12499999999997) rotate(0 5.3360137939453125 10)"><text x="0" y="14.016" font-family="Virgil, Segoe UI Emoji" font-size="16px" fill="#777777" text-anchor="start" style="white-space: pre;" direction="ltr" dominant-baseline="alphabetic">a</text></g><g stroke-linecap="round" transform="translate(117.89583333333314 52.81249999999997) rotate(0 6.875 8.75)"><path d="M13.75 8.75 C13.75 9.26, 13.71 9.77, 13.65 10.27 C13.58 10.77, 13.47 11.27, 13.34 11.74 C13.2 12.22, 13.03 12.69, 12.83 13.12 C12.63 13.56, 12.4 13.99, 12.14 14.37 C11.89 14.76, 11.6 15.13, 11.29 15.45 C10.99 15.78, 10.66 16.07, 10.31 16.33 C9.97 16.58, 9.6 16.8, 9.23 16.97 C8.85 17.15, 8.46 17.28, 8.07 17.37 C7.68 17.46, 7.27 17.5, 6.88 17.5 C6.48 17.5, 6.07 17.46, 5.68 17.37 C5.29 17.28, 4.9 17.15, 4.52 16.97 C4.15 16.8, 3.78 16.58, 3.44 16.33 C3.09 16.07, 2.76 15.78, 2.46 15.45 C2.15 15.13, 1.86 14.76, 1.61 14.37 C1.35 13.99, 1.12 13.56, 0.92 13.12 C0.72 12.69, 0.55 12.22, 0.41 11.74 C0.28 11.27, 0.17 10.77, 0.1 10.27 C0.04 9.77, 0 9.26, 0 8.75 C0 8.24, 0.04 7.73, 0.1 7.23 C0.17 6.73, 0.28 6.23, 0.41 5.76 C0.55 5.28, 0.72 4.81, 0.92 4.38 C1.12 3.94, 1.35 3.51, 1.61 3.13 C1.86 2.74, 2.15 2.37, 2.46 2.05 C2.76 1.72, 3.09 1.43, 3.44 1.17 C3.78 0.92, 4.15 0.7, 4.52 0.53 C4.9 0.35, 5.29 0.22, 5.68 0.13 C6.07 0.04, 6.48 0, 6.87 0 C7.27 0, 7.68 0.04, 8.07 0.13 C8.46 0.22, 8.85 0.35, 9.23 0.53 C9.6 0.7, 9.97 0.92, 10.31 1.17 C10.66 1.43, 10.99 1.72, 11.29 2.05 C11.6 2.37, 11.89 2.74, 12.14 3.13 C12.4 3.51, 12.63 3.94, 12.83 4.37 C13.03 4.81, 13.2 5.28, 13.34 5.76 C13.47 6.23, 13.58 6.73, 13.65 7.23 C13.71 7.73, 13.73 8.5, 13.75 8.75 C13.77 9, 13.77 8.5, 13.75 8.75" stroke="#777777" stroke-width="1" fill="none"></path></g><g stroke-linecap="round" transform="translate(359.45833333333314 77.49999999999994) rotate(0 5.78125 6.25)"><path d="M11.56 6.25 C11.56 6.61, 11.53 6.98, 11.47 7.34 C11.42 7.69, 11.33 8.05, 11.21 8.39 C11.1 8.73, 10.96 9.06, 10.79 9.38 C10.62 9.69, 10.43 9.99, 10.21 10.27 C9.99 10.54, 9.75 10.81, 9.5 11.04 C9.24 11.27, 8.96 11.48, 8.67 11.66 C8.38 11.84, 8.07 12, 7.76 12.12 C7.44 12.25, 7.11 12.34, 6.79 12.41 C6.46 12.47, 6.12 12.5, 5.78 12.5 C5.45 12.5, 5.11 12.47, 4.78 12.41 C4.45 12.34, 4.12 12.25, 3.8 12.12 C3.49 12, 3.18 11.84, 2.89 11.66 C2.6 11.48, 2.32 11.27, 2.07 11.04 C1.81 10.81, 1.57 10.54, 1.35 10.27 C1.14 9.99, 0.94 9.69, 0.77 9.38 C0.61 9.06, 0.46 8.73, 0.35 8.39 C0.23 8.05, 0.15 7.69, 0.09 7.34 C0.03 6.98, 0 6.61, 0 6.25 C0 5.89, 0.03 5.52, 0.09 5.16 C0.15 4.81, 0.23 4.45, 0.35 4.11 C0.46 3.77, 0.61 3.44, 0.77 3.13 C0.94 2.81, 1.14 2.51, 1.35 2.23 C1.57 1.96, 1.81 1.69, 2.07 1.46 C2.32 1.23, 2.6 1.02, 2.89 0.84 C3.18 0.66, 3.49 0.5, 3.8 0.38 C4.12 0.25, 4.45 0.16, 4.78 0.09 C5.11 0.03, 5.45 0, 5.78 0 C6.12 0, 6.46 0.03, 6.79 0.09 C7.11 0.16, 7.44 0.25, 7.76 0.38 C8.07 0.5, 8.38 0.66, 8.67 0.84 C8.96 1.02, 9.24 1.23, 9.5 1.46 C9.75 1.69, 9.99 1.96, 10.21 2.23 C10.43 2.51, 10.62 2.81, 10.79 3.12 C10.96 3.44, 11.1 3.77, 11.21 4.11 C11.33 4.45, 11.42 4.81, 11.47 5.16 C11.53 5.52, 11.55 6.07, 11.56 6.25 C11.58 6.43, 11.58 6.07, 11.56 6.25" stroke="#777777" stroke-width="1" fill="none"></path></g><g stroke-linecap="round" transform="translate(221.33333333333314 35.93749999999997) rotate(0 6.5625 9.53125)"><path d="M13.13 9.53 C13.13 10.08, 13.09 10.64, 13.03 11.19 C12.96 11.73, 12.86 12.27, 12.73 12.79 C12.6 13.31, 12.44 13.82, 12.25 14.3 C12.06 14.77, 11.83 15.24, 11.59 15.66 C11.35 16.08, 11.07 16.48, 10.78 16.83 C10.49 17.19, 10.17 17.51, 9.84 17.79 C9.51 18.06, 9.16 18.3, 8.81 18.49 C8.45 18.68, 8.08 18.82, 7.7 18.92 C7.33 19.01, 6.94 19.06, 6.56 19.06 C6.18 19.06, 5.8 19.01, 5.42 18.92 C5.05 18.82, 4.67 18.68, 4.32 18.49 C3.96 18.3, 3.61 18.06, 3.28 17.79 C2.95 17.51, 2.64 17.19, 2.34 16.83 C2.05 16.48, 1.78 16.08, 1.54 15.66 C1.29 15.24, 1.07 14.77, 0.88 14.3 C0.69 13.82, 0.53 13.31, 0.4 12.79 C0.27 12.27, 0.17 11.73, 0.1 11.19 C0.03 10.64, 0 10.08, 0 9.53 C0 8.98, 0.03 8.42, 0.1 7.88 C0.17 7.33, 0.27 6.79, 0.4 6.27 C0.53 5.75, 0.69 5.24, 0.88 4.77 C1.07 4.29, 1.29 3.83, 1.54 3.4 C1.78 2.98, 2.05 2.58, 2.34 2.23 C2.64 1.88, 2.95 1.55, 3.28 1.28 C3.61 1, 3.96 0.76, 4.32 0.57 C4.67 0.39, 5.05 0.24, 5.42 0.14 C5.8 0.05, 6.18 0, 6.56 0 C6.94 0, 7.33 0.05, 7.7 0.14 C8.08 0.24, 8.45 0.39, 8.81 0.57 C9.16 0.76, 9.51 1, 9.84 1.28 C10.17 1.55, 10.49 1.88, 10.78 2.23 C11.07 2.58, 11.35 2.98, 11.59 3.4 C11.83 3.83, 12.06 4.29, 12.25 4.77 C12.44 5.24, 12.6 5.75, 12.73 6.27 C12.86 6.79, 12.96 7.33, 13.03 7.88 C13.09 8.42, 13.11 9.26, 13.13 9.53 C13.14 9.81, 13.14 9.26, 13.13 9.53" stroke="#777777" stroke-width="1" fill="none"></path></g><g stroke-linecap="round" transform="translate(225.39583333333314 145.93749999999991) rotate(0 9.375 9.6875)"><path d="M18.75 9.69 C18.75 10.25, 18.7 10.82, 18.61 11.37 C18.51 11.92, 18.37 12.47, 18.18 13 C18 13.53, 17.77 14.05, 17.49 14.53 C17.22 15.02, 16.91 15.48, 16.56 15.91 C16.21 16.34, 15.82 16.75, 15.4 17.11 C14.99 17.47, 14.53 17.8, 14.06 18.08 C13.59 18.36, 13.09 18.6, 12.58 18.79 C12.07 18.98, 11.54 19.13, 11 19.23 C10.47 19.33, 9.92 19.38, 9.38 19.38 C8.83 19.38, 8.28 19.33, 7.75 19.23 C7.21 19.13, 6.68 18.98, 6.17 18.79 C5.66 18.6, 5.16 18.36, 4.69 18.08 C4.22 17.8, 3.76 17.47, 3.35 17.11 C2.93 16.75, 2.54 16.34, 2.19 15.91 C1.84 15.48, 1.53 15.02, 1.26 14.53 C0.98 14.05, 0.75 13.53, 0.57 13 C0.38 12.47, 0.24 11.92, 0.14 11.37 C0.05 10.82, 0 10.25, 0 9.69 C0 9.13, 0.05 8.56, 0.14 8.01 C0.24 7.45, 0.38 6.9, 0.57 6.37 C0.75 5.85, 0.98 5.33, 1.26 4.84 C1.53 4.36, 1.84 3.89, 2.19 3.46 C2.54 3.03, 2.93 2.63, 3.35 2.27 C3.76 1.91, 4.22 1.58, 4.69 1.3 C5.16 1.02, 5.66 0.78, 6.17 0.58 C6.68 0.39, 7.21 0.24, 7.75 0.15 C8.28 0.05, 8.83 0, 9.37 0 C9.92 0, 10.47 0.05, 11 0.15 C11.54 0.24, 12.07 0.39, 12.58 0.58 C13.09 0.78, 13.59 1.02, 14.06 1.3 C14.53 1.58, 14.99 1.91, 15.4 2.27 C15.82 2.63, 16.21 3.03, 16.56 3.46 C16.91 3.89, 17.22 4.36, 17.49 4.84 C17.77 5.33, 18 5.85, 18.18 6.37 C18.37 6.9, 18.51 7.45, 18.61 8.01 C18.7 8.56, 18.73 9.41, 18.75 9.69 C18.77 9.97, 18.77 9.41, 18.75 9.69" stroke="#777777" stroke-width="1" fill="none"></path></g><g transform="translate(231.64583333333314 145.31249999999991) rotate(0 4.0160064697265625 10)"><text x="0" y="14.016" font-family="Virgil, Segoe UI Emoji" font-size="16px" fill="#777777" text-anchor="start" style="white-space: pre;" direction="ltr" dominant-baseline="alphabetic">c</text></g><g transform="translate(359.45833333333314 86.24999999999994) rotate(0 -56.5625 34.374999999999986)" stroke="none"><path fill="#777777" d="M 0.65,1.14 Q 0.65,1.14 -0.60,1.85 -1.86,2.57 -3.02,3.53 -4.19,4.50 -5.48,5.79 -6.77,7.08 -7.94,8.42 -9.11,9.76 -10.11,11.19 -11.12,12.62 -12.10,14.05 -13.08,15.48 -13.92,16.95 -14.76,18.42 -15.99,20.03 -17.21,21.64 -18.53,23.29 -19.85,24.95 -21.15,26.39 -22.45,27.84 -23.92,29.28 -25.39,30.73 -27.54,32.13 -29.69,33.53 -31.77,34.65 -33.86,35.78 -35.81,36.79 -37.77,37.80 -39.50,38.68 -41.22,39.56 -42.89,40.30 -44.55,41.05 -46.21,41.57 -47.88,42.09 -49.26,42.56 -50.63,43.03 -51.83,43.49 -53.03,43.96 -54.38,44.67 -55.73,45.38 -57.29,46.30 -58.85,47.23 -60.27,48.31 -61.70,49.39 -63.05,50.40 -64.40,51.42 -65.58,52.38 -66.77,53.33 -67.90,54.28 -69.03,55.22 -69.97,55.99 -70.91,56.76 -71.83,57.32 -72.76,57.88 -74.70,58.87 -76.64,59.87 -78.08,60.28 -79.52,60.69 -80.82,61.04 -82.12,61.38 -83.29,61.71 -84.47,62.03 -86.03,62.57 -87.60,63.10 -88.81,63.54 -90.02,63.98 -91.34,64.37 -92.65,64.77 -94.23,65.29 -95.80,65.82 -97.41,66.41 -99.02,67.00 -100.20,67.23 -101.38,67.47 -102.72,67.63 -104.05,67.80 -105.30,67.96 -106.56,68.11 -107.67,68.15 -108.78,68.18 -111.24,68.89 -113.71,69.61 -113.88,69.48 -114.05,69.36 -114.18,69.18 -114.30,69.01 -114.36,68.81 -114.42,68.60 -114.42,68.39 -114.41,68.18 -114.33,67.98 -114.26,67.78 -114.13,67.62 -113.99,67.45 -113.81,67.34 -113.63,67.22 -113.43,67.17 -113.22,67.12 -113.01,67.14 -112.80,67.16 -112.60,67.24 -112.41,67.33 -112.25,67.47 -112.09,67.61 -111.99,67.80 -111.88,67.99 -111.85,68.19 -111.81,68.40 -111.84,68.61 -111.87,68.82 -111.96,69.01 -112.06,69.20 -112.21,69.35 -112.36,69.50 -112.55,69.60 -112.74,69.69 -112.95,69.72 -113.16,69.75 -113.37,69.70 -113.58,69.66 -113.76,69.56 -113.95,69.45 -114.09,69.29 -114.23,69.13 -114.31,68.94 -114.40,68.74 -114.41,68.53 -114.43,68.32 -114.38,68.11 -114.32,67.91 -114.21,67.73 -114.09,67.55 -113.93,67.42 -113.76,67.29 -113.56,67.21 -113.36,67.14 -113.15,67.14 -112.94,67.13 -112.73,67.20 -112.53,67.26 -112.53,67.26 -112.53,67.26 -111.12,66.41 -109.70,65.56 -108.56,65.55 -107.42,65.53 -106.16,65.38 -104.91,65.22 -103.64,65.06 -102.36,64.90 -101.19,64.74 -100.02,64.58 -98.32,63.95 -96.63,63.32 -94.94,62.77 -93.25,62.21 -92.07,61.85 -90.88,61.50 -89.63,61.05 -88.38,60.60 -86.77,60.05 -85.17,59.50 -83.98,59.17 -82.80,58.84 -81.51,58.51 -80.23,58.17 -78.97,57.82 -77.71,57.47 -76.72,57.03 -75.72,56.59 -74.15,55.66 -72.57,54.72 -71.64,53.96 -70.71,53.21 -69.57,52.25 -68.42,51.29 -67.20,50.30 -65.98,49.32 -64.63,48.31 -63.28,47.29 -61.73,46.13 -60.19,44.97 -58.57,44.01 -56.94,43.05 -55.46,42.28 -53.98,41.51 -52.73,41.03 -51.48,40.55 -50.07,40.06 -48.65,39.58 -47.14,39.11 -45.62,38.65 -44.02,37.93 -42.42,37.22 -40.69,36.34 -38.97,35.47 -37.04,34.46 -35.10,33.46 -33.11,32.39 -31.11,31.32 -29.17,30.08 -27.22,28.84 -25.81,27.46 -24.40,26.08 -23.15,24.70 -21.90,23.31 -20.60,21.68 -19.30,20.05 -18.17,18.58 -17.04,17.11 -16.14,15.55 -15.25,14.00 -14.26,12.55 -13.27,11.11 -12.18,9.57 -11.09,8.04 -9.86,6.63 -8.63,5.22 -7.24,3.84 -5.85,2.46 -4.51,1.38 -3.16,0.29 -1.91,-0.42 -0.65,-1.14 -0.50,-1.20 -0.35,-1.26 -0.20,-1.28 -0.04,-1.31 0.11,-1.29 0.26,-1.28 0.41,-1.23 0.56,-1.18 0.70,-1.09 0.83,-1.01 0.94,-0.89 1.05,-0.78 1.13,-0.64 1.21,-0.50 1.25,-0.35 1.29,-0.20 1.30,-0.04 1.30,0.11 1.27,0.26 1.24,0.42 1.17,0.56 1.10,0.70 1.00,0.82 0.90,0.95 0.77,1.04 0.65,1.14 0.65,1.14 L 0.65,1.14 Z"></path></g><g transform="translate(226.33333333333314 152.18749999999991) rotate(0 -48.4375 -40.93749999999997)" stroke="none"><path fill="#777777" d="M -0.04,1.31 Q -0.04,1.31 -2.56,1.22 -5.08,1.13 -7.43,0.63 -9.78,0.12 -11.87,-0.54 -13.96,-1.21 -15.29,-1.68 -16.62,-2.14 -17.94,-2.71 -19.26,-3.28 -20.65,-3.77 -22.05,-4.26 -23.50,-4.84 -24.95,-5.43 -26.36,-6.26 -27.77,-7.08 -29.09,-7.98 -30.40,-8.87 -31.75,-9.78 -33.10,-10.69 -34.71,-11.58 -36.32,-12.48 -38.42,-13.48 -40.52,-14.49 -42.96,-15.64 -45.39,-16.79 -47.61,-17.92 -49.83,-19.04 -52.02,-20.15 -54.22,-21.25 -56.13,-22.16 -58.03,-23.08 -59.89,-23.81 -61.74,-24.54 -63.29,-25.23 -64.84,-25.92 -66.08,-26.59 -67.32,-27.27 -68.31,-28.18 -69.31,-29.09 -70.14,-30.37 -70.97,-31.66 -71.61,-33.24 -72.24,-34.83 -72.67,-36.12 -73.11,-37.40 -73.54,-38.43 -73.98,-39.46 -74.43,-40.44 -74.88,-41.41 -75.87,-43.26 -76.87,-45.12 -77.45,-46.04 -78.04,-46.96 -78.64,-47.89 -79.25,-48.83 -79.94,-49.73 -80.62,-50.63 -81.29,-51.58 -81.97,-52.54 -82.63,-53.60 -83.29,-54.66 -83.88,-56.09 -84.47,-57.53 -84.90,-58.96 -85.34,-60.40 -85.69,-61.62 -86.05,-62.83 -86.58,-64.89 -87.11,-66.94 -87.24,-68.08 -87.37,-69.21 -87.77,-70.52 -88.16,-71.83 -88.60,-72.88 -89.03,-73.93 -89.67,-75.19 -90.31,-76.45 -91.28,-76.91 -92.24,-77.37 -93.41,-78.12 -94.58,-78.87 -96.36,-80.21 -98.14,-81.54 -98.16,-81.76 -98.18,-81.97 -98.13,-82.17 -98.08,-82.38 -97.97,-82.56 -97.85,-82.74 -97.69,-82.87 -97.52,-83.01 -97.33,-83.08 -97.13,-83.16 -96.91,-83.17 -96.70,-83.17 -96.50,-83.11 -96.30,-83.05 -96.12,-82.93 -95.95,-82.81 -95.82,-82.63 -95.70,-82.46 -95.63,-82.26 -95.57,-82.06 -95.57,-81.84 -95.58,-81.63 -95.65,-81.43 -95.72,-81.23 -95.85,-81.07 -95.99,-80.90 -96.16,-80.78 -96.34,-80.67 -96.55,-80.61 -96.75,-80.56 -96.97,-80.58 -97.18,-80.59 -97.37,-80.68 -97.57,-80.76 -97.73,-80.90 -97.89,-81.04 -97.99,-81.22 -98.10,-81.41 -98.14,-81.62 -98.18,-81.83 -98.16,-82.04 -98.13,-82.25 -98.04,-82.44 -97.94,-82.63 -97.79,-82.78 -97.64,-82.93 -97.45,-83.03 -97.26,-83.12 -97.05,-83.15 -96.84,-83.18 -96.63,-83.14 -96.43,-83.11 -96.24,-83.00 -96.05,-82.90 -95.91,-82.74 -95.77,-82.59 -95.68,-82.39 -95.60,-82.20 -95.60,-82.20 -95.60,-82.20 -94.37,-81.63 -93.14,-81.07 -91.94,-80.38 -90.74,-79.70 -89.52,-78.99 -88.30,-78.28 -87.67,-77.03 -87.04,-75.79 -86.53,-74.68 -86.02,-73.57 -85.64,-72.45 -85.27,-71.34 -84.91,-69.44 -84.55,-67.53 -84.04,-65.55 -83.52,-63.57 -83.17,-62.36 -82.82,-61.15 -82.43,-59.83 -82.04,-58.51 -81.55,-57.28 -81.06,-56.04 -80.44,-55.05 -79.82,-54.05 -79.17,-53.13 -78.52,-52.21 -77.79,-51.24 -77.05,-50.26 -76.43,-49.31 -75.82,-48.37 -75.21,-47.41 -74.60,-46.45 -74.02,-45.45 -73.44,-44.46 -72.97,-43.49 -72.50,-42.51 -72.03,-41.50 -71.56,-40.48 -71.09,-39.36 -70.62,-38.24 -70.21,-37.02 -69.79,-35.79 -69.27,-34.42 -68.75,-33.05 -67.39,-31.30 -66.04,-29.56 -64.91,-28.94 -63.77,-28.32 -62.27,-27.65 -60.77,-26.98 -58.84,-26.21 -56.90,-25.45 -54.97,-24.52 -53.04,-23.60 -50.84,-22.49 -48.64,-21.39 -46.46,-20.28 -44.27,-19.16 -41.83,-18.01 -39.39,-16.86 -37.21,-15.81 -35.03,-14.77 -33.34,-13.82 -31.64,-12.87 -30.28,-11.95 -28.93,-11.04 -27.68,-10.19 -26.43,-9.34 -25.20,-8.60 -23.96,-7.86 -22.57,-7.30 -21.18,-6.74 -19.70,-6.22 -18.21,-5.69 -16.98,-5.16 -15.75,-4.62 -14.45,-4.17 -13.15,-3.71 -11.19,-3.07 -9.22,-2.43 -7.10,-1.96 -4.98,-1.49 -2.46,-1.40 0.04,-1.31 0.20,-1.28 0.35,-1.26 0.50,-1.20 0.65,-1.14 0.77,-1.04 0.90,-0.95 1.00,-0.82 1.10,-0.70 1.17,-0.56 1.24,-0.42 1.27,-0.26 1.30,-0.11 1.30,0.04 1.29,0.20 1.25,0.35 1.21,0.50 1.13,0.64 1.05,0.78 0.94,0.89 0.83,1.01 0.70,1.09 0.56,1.18 0.41,1.23 0.26,1.28 0.11,1.29 -0.04,1.31 -0.04,1.31 L -0.04,1.31 Z"></path></g><g transform="translate(120.08333333333314 54.37499999999997) rotate(0 56.40625 -22.187499999999986)" stroke="none"><path fill="#777777" d="M -1.25,0.39 Q -1.25,0.39 -1.70,-1.04 -2.15,-2.49 -2.28,-4.05 -2.41,-5.62 -1.97,-8.52 -1.53,-11.43 -0.81,-13.75 -0.10,-16.08 0.64,-18.32 1.40,-20.56 1.98,-22.32 2.57,-24.07 3.19,-25.66 3.81,-27.24 4.84,-28.99 5.86,-30.73 7.53,-32.53 9.20,-34.34 11.20,-35.93 13.20,-37.52 15.33,-38.92 17.46,-40.32 19.71,-41.23 21.97,-42.15 23.90,-42.79 25.84,-43.43 27.58,-43.89 29.33,-44.35 30.97,-44.73 32.62,-45.10 34.29,-45.27 35.96,-45.44 37.47,-45.51 38.99,-45.58 40.40,-45.52 41.81,-45.46 43.05,-45.34 44.28,-45.22 45.49,-44.98 46.69,-44.75 48.80,-44.62 50.92,-44.49 52.14,-44.38 53.36,-44.27 54.64,-44.23 55.91,-44.19 57.00,-44.17 58.08,-44.15 59.95,-43.96 61.82,-43.77 63.28,-43.50 64.73,-43.23 66.19,-43.04 67.65,-42.84 69.04,-42.57 70.43,-42.30 72.30,-42.15 74.16,-42.00 75.30,-41.98 76.44,-41.96 77.57,-41.76 78.71,-41.57 79.81,-41.30 80.92,-41.03 82.09,-40.74 83.27,-40.45 84.41,-40.14 85.54,-39.84 86.66,-39.53 87.77,-39.22 88.87,-38.90 89.98,-38.59 91.00,-38.28 92.02,-37.96 93.83,-37.54 95.65,-37.12 96.74,-36.87 97.82,-36.62 99.74,-36.03 101.65,-35.43 103.00,-34.83 104.34,-34.24 105.63,-33.45 106.92,-32.66 107.90,-31.71 108.89,-30.76 110.05,-30.27 111.21,-29.77 112.36,-29.04 113.52,-28.31 113.66,-27.21 113.80,-26.10 114.23,-24.78 114.66,-23.46 114.87,-22.37 115.08,-21.27 115.22,-20.15 115.36,-19.04 115.36,-17.84 115.37,-16.64 115.53,-16.13 115.68,-15.62 115.66,-15.46 115.65,-15.31 115.59,-15.16 115.53,-15.01 115.44,-14.88 115.35,-14.75 115.24,-14.64 115.12,-14.54 114.98,-14.47 114.84,-14.39 114.68,-14.35 114.53,-14.32 114.37,-14.32 114.21,-14.32 114.06,-14.35 113.90,-14.39 113.76,-14.47 113.62,-14.54 113.51,-14.64 113.39,-14.75 113.30,-14.88 113.21,-15.01 113.15,-15.16 113.09,-15.31 113.08,-15.46 113.06,-15.62 113.19,-16.01 113.31,-16.40 113.47,-16.55 113.62,-16.70 113.81,-16.79 114.00,-16.88 114.21,-16.91 114.42,-16.93 114.63,-16.89 114.84,-16.85 115.02,-16.74 115.21,-16.63 115.35,-16.47 115.49,-16.31 115.57,-16.12 115.65,-15.92 115.66,-15.71 115.68,-15.50 115.62,-15.29 115.57,-15.08 115.45,-14.91 115.34,-14.73 115.17,-14.60 115.00,-14.47 114.80,-14.40 114.60,-14.33 114.39,-14.32 114.17,-14.32 113.97,-14.39 113.77,-14.45 113.60,-14.58 113.43,-14.70 113.31,-14.88 113.19,-15.05 113.13,-15.26 113.07,-15.46 113.08,-15.67 113.08,-15.89 113.16,-16.08 113.24,-16.28 113.37,-16.45 113.51,-16.61 113.69,-16.72 113.87,-16.83 114.08,-16.88 114.28,-16.93 114.49,-16.91 114.71,-16.89 114.90,-16.80 115.09,-16.72 115.25,-16.57 115.41,-16.43 115.51,-16.24 115.61,-16.06 115.65,-15.85 115.68,-15.64 115.65,-15.43 115.62,-15.22 115.65,-15.42 115.68,-15.62 115.66,-15.46 115.65,-15.31 115.59,-15.16 115.53,-15.01 115.44,-14.88 115.35,-14.75 115.24,-14.64 115.12,-14.54 114.98,-14.47 114.84,-14.39 114.68,-14.35 114.53,-14.32 114.37,-14.32 114.21,-14.32 114.06,-14.35 113.90,-14.39 113.76,-14.47 113.62,-14.54 113.51,-14.64 113.39,-14.75 113.30,-14.88 113.21,-15.01 113.15,-15.16 113.10,-15.31 113.08,-15.46 113.06,-15.62 112.90,-16.85 112.74,-18.09 112.70,-19.18 112.65,-20.27 112.37,-21.41 112.09,-22.55 111.75,-23.81 111.42,-25.06 111.20,-26.11 110.98,-27.16 109.68,-27.50 108.38,-27.83 107.40,-28.67 106.42,-29.51 105.33,-30.50 104.23,-31.49 102.95,-31.96 101.67,-32.43 100.40,-32.97 99.13,-33.52 97.20,-34.02 95.28,-34.52 94.22,-34.67 93.17,-34.83 91.21,-35.45 89.26,-36.07 88.16,-36.38 87.07,-36.69 85.97,-36.99 84.86,-37.30 83.75,-37.60 82.63,-37.90 81.46,-38.19 80.30,-38.48 78.34,-38.91 76.39,-39.34 75.21,-39.36 74.04,-39.38 71.99,-39.55 69.93,-39.72 68.62,-39.98 67.30,-40.24 65.77,-40.44 64.25,-40.65 62.90,-40.90 61.55,-41.15 59.79,-41.34 58.04,-41.52 56.93,-41.54 55.82,-41.56 54.47,-41.61 53.12,-41.66 51.97,-41.76 50.82,-41.87 49.68,-41.91 48.55,-41.96 47.36,-42.06 46.18,-42.17 45.10,-42.39 44.03,-42.61 42.86,-42.72 41.69,-42.84 40.40,-42.90 39.11,-42.96 37.66,-42.89 36.21,-42.83 34.71,-42.69 33.20,-42.54 31.60,-42.18 30.00,-41.81 28.33,-41.38 26.67,-40.94 24.80,-40.32 22.94,-39.70 20.91,-38.91 18.89,-38.12 16.86,-36.79 14.83,-35.46 12.97,-34.00 11.11,-32.54 9.61,-30.96 8.11,-29.38 7.18,-27.83 6.25,-26.28 5.66,-24.76 5.06,-23.24 4.47,-21.48 3.89,-19.73 3.14,-17.52 2.40,-15.31 1.72,-13.09 1.03,-10.87 0.62,-8.34 0.20,-5.80 0.28,-4.53 0.35,-3.25 0.80,-1.82 1.25,-0.39 1.28,-0.23 1.31,-0.08 1.30,0.07 1.29,0.23 1.24,0.38 1.19,0.53 1.11,0.67 1.03,0.80 0.92,0.92 0.81,1.03 0.67,1.11 0.53,1.19 0.38,1.24 0.23,1.29 0.07,1.30 -0.07,1.31 -0.23,1.28 -0.38,1.25 -0.53,1.18 -0.67,1.12 -0.80,1.02 -0.92,0.92 -1.02,0.80 -1.12,0.68 -1.18,0.53 -1.25,0.39 -1.25,0.39 L -1.25,0.39 Z"></path></g><g transform="translate(236.64583333333314 41.87499999999997) rotate(0 65.46875 7.656250000000014)" stroke="none"><path fill="#777777" d="M -0.55,-1.18 Q -0.55,-1.18 0.96,-1.90 2.49,-2.62 3.56,-3.18 4.64,-3.75 5.69,-4.41 6.74,-5.08 7.89,-5.90 9.05,-6.71 10.29,-7.53 11.53,-8.34 12.99,-9.16 14.45,-9.97 16.27,-10.79 18.10,-11.60 19.89,-12.22 21.68,-12.84 23.36,-13.29 25.05,-13.74 26.74,-13.95 28.42,-14.15 30.19,-14.32 31.96,-14.49 33.66,-14.74 35.37,-14.99 36.98,-15.27 38.60,-15.55 40.13,-15.77 41.65,-15.98 43.17,-16.25 44.68,-16.52 46.23,-16.81 47.77,-17.10 49.32,-17.40 50.88,-17.71 52.47,-17.93 54.07,-18.16 55.59,-18.26 57.12,-18.36 58.69,-18.12 60.27,-17.88 61.83,-17.50 63.39,-17.13 64.83,-16.79 66.27,-16.46 67.61,-16.13 68.95,-15.81 70.33,-15.69 71.70,-15.57 73.10,-15.51 74.49,-15.46 76.11,-15.34 77.73,-15.22 79.32,-15.08 80.90,-14.95 82.14,-14.79 83.37,-14.64 85.26,-14.56 87.15,-14.47 88.95,-14.23 90.75,-13.99 92.35,-13.69 93.96,-13.39 95.02,-13.24 96.08,-13.09 97.25,-12.93 98.42,-12.78 100.39,-12.69 102.35,-12.60 104.04,-12.49 105.73,-12.38 106.83,-12.19 107.93,-12.01 109.60,-11.65 111.27,-11.29 113.12,-10.70 114.97,-10.12 115.96,-9.71 116.95,-9.29 118.89,-8.27 120.83,-7.25 121.73,-6.63 122.62,-6.01 123.87,-5.05 125.11,-4.10 125.93,-3.24 126.75,-2.38 127.32,-1.40 127.89,-0.42 128.46,0.49 129.04,1.42 129.80,2.76 130.56,4.11 130.87,5.44 131.19,6.77 131.24,8.30 131.30,9.82 131.30,11.22 131.31,12.62 131.31,13.70 131.31,14.77 131.31,15.99 131.31,17.21 131.57,18.57 131.83,19.93 131.88,21.14 131.93,22.36 131.93,23.53 131.93,24.71 131.93,25.81 131.93,26.92 131.93,28.02 131.93,29.13 132.09,30.50 132.25,31.87 132.23,32.03 132.21,32.18 132.15,32.33 132.10,32.48 132.01,32.61 131.92,32.74 131.80,32.85 131.68,32.95 131.54,33.02 131.40,33.10 131.24,33.14 131.09,33.17 130.93,33.17 130.77,33.17 130.62,33.14 130.47,33.10 130.33,33.02 130.19,32.95 130.07,32.85 129.95,32.74 129.86,32.61 129.77,32.48 129.71,32.33 129.66,32.18 129.64,32.03 129.62,31.87 129.93,31.31 130.24,30.76 130.43,30.67 130.63,30.59 130.84,30.58 131.05,30.56 131.26,30.62 131.47,30.67 131.64,30.79 131.82,30.90 131.95,31.07 132.08,31.24 132.15,31.44 132.23,31.64 132.23,31.85 132.23,32.06 132.17,32.27 132.10,32.47 131.98,32.64 131.85,32.81 131.68,32.93 131.50,33.05 131.30,33.11 131.09,33.17 130.88,33.17 130.67,33.16 130.47,33.08 130.27,33.01 130.11,32.87 129.94,32.74 129.83,32.55 129.72,32.37 129.67,32.17 129.62,31.96 129.64,31.75 129.66,31.54 129.75,31.34 129.83,31.15 129.98,30.99 130.12,30.84 130.31,30.73 130.49,30.63 130.70,30.59 130.91,30.56 131.12,30.59 131.33,30.62 131.52,30.72 131.71,30.81 131.86,30.96 132.01,31.12 132.10,31.31 132.19,31.50 132.22,31.71 132.24,31.92 132.20,32.13 132.16,32.34 132.05,32.52 131.95,32.71 132.10,32.29 132.25,31.87 132.23,32.03 132.21,32.18 132.15,32.33 132.10,32.48 132.01,32.61 131.92,32.74 131.80,32.85 131.68,32.95 131.54,33.02 131.40,33.10 131.24,33.14 131.09,33.17 130.93,33.17 130.77,33.17 130.62,33.14 130.47,33.10 130.33,33.02 130.19,32.95 130.07,32.85 129.95,32.74 129.86,32.61 129.77,32.48 129.71,32.33 129.66,32.18 129.64,32.03 129.62,31.87 129.46,30.50 129.31,29.13 129.31,28.02 129.31,26.92 129.31,25.81 129.31,24.71 129.31,23.54 129.30,22.38 129.25,21.17 129.20,19.96 128.94,18.59 128.68,17.21 128.68,15.99 128.68,14.77 128.68,13.70 128.68,12.62 128.68,11.24 128.67,9.85 128.63,8.48 128.58,7.10 128.24,5.85 127.91,4.60 127.06,3.29 126.21,1.99 125.63,0.97 125.05,-0.04 124.24,-1.06 123.44,-2.08 122.28,-2.96 121.12,-3.85 119.43,-4.93 117.74,-6.02 115.95,-6.82 114.17,-7.62 112.38,-8.19 110.59,-8.75 109.10,-9.07 107.61,-9.40 106.53,-9.58 105.45,-9.77 103.87,-9.87 102.29,-9.97 100.19,-10.07 98.08,-10.17 96.90,-10.33 95.71,-10.49 93.74,-10.80 91.77,-11.11 90.19,-11.38 88.61,-11.65 86.92,-11.78 85.23,-11.90 84.14,-11.97 83.05,-12.04 81.86,-12.18 80.67,-12.33 79.11,-12.47 77.54,-12.60 75.96,-12.72 74.39,-12.83 72.92,-12.89 71.46,-12.95 69.90,-13.10 68.34,-13.26 67.01,-13.58 65.68,-13.90 64.22,-14.24 62.77,-14.57 61.31,-14.93 59.85,-15.29 58.56,-15.51 57.27,-15.73 55.85,-15.65 54.43,-15.56 52.91,-15.34 51.38,-15.13 49.82,-14.83 48.26,-14.52 46.70,-14.22 45.14,-13.93 43.58,-13.65 42.02,-13.38 40.54,-13.17 39.05,-12.97 37.40,-12.68 35.74,-12.39 33.98,-12.13 32.21,-11.88 30.47,-11.71 28.73,-11.54 27.22,-11.37 25.72,-11.21 24.13,-10.78 22.54,-10.36 20.85,-9.78 19.16,-9.20 17.44,-8.44 15.73,-7.68 14.35,-6.91 12.97,-6.15 11.77,-5.36 10.56,-4.56 9.35,-3.71 8.14,-2.86 7.00,-2.14 5.86,-1.42 4.73,-0.83 3.61,-0.24 2.08,0.46 0.55,1.18 0.40,1.23 0.25,1.28 0.10,1.29 -0.05,1.31 -0.21,1.28 -0.36,1.26 -0.51,1.19 -0.66,1.13 -0.78,1.03 -0.91,0.94 -1.01,0.82 -1.11,0.69 -1.17,0.55 -1.24,0.41 -1.27,0.25 -1.30,0.10 -1.30,-0.05 -1.29,-0.21 -1.25,-0.36 -1.20,-0.51 -1.12,-0.65 -1.04,-0.79 -0.93,-0.90 -0.82,-1.02 -0.69,-1.10 -0.55,-1.18 -0.55,-1.18 L -0.55,-1.18 Z"></path></g><g transform="translate(132.27083333333314 55.93749999999997) rotate(0 37.03125 21.874999999999986)" stroke="none"><path fill="#777777" d="M 0.67,-1.12 Q 0.67,-1.12 2.02,-0.31 3.36,0.48 5.28,1.23 7.19,1.98 8.70,2.38 10.20,2.78 12.08,3.13 13.95,3.48 15.67,3.82 17.39,4.15 18.86,4.48 20.33,4.80 21.56,5.23 22.79,5.66 23.90,6.22 25.01,6.79 26.23,7.59 27.45,8.39 29.04,9.54 30.63,10.69 32.20,12.33 33.77,13.97 35.21,15.54 36.65,17.11 37.98,18.59 39.32,20.06 40.39,21.11 41.47,22.15 42.43,22.93 43.39,23.70 44.85,24.59 46.30,25.47 47.42,25.87 48.53,26.26 50.11,27.20 51.70,28.13 53.03,29.15 54.37,30.16 55.51,30.96 56.65,31.75 58.26,32.64 59.87,33.52 61.21,34.17 62.56,34.82 63.67,35.50 64.79,36.18 65.90,36.90 67.01,37.62 68.06,38.63 69.11,39.64 69.27,40.99 69.43,42.34 71.50,42.28 73.57,42.21 73.77,42.17 73.98,42.12 74.19,42.14 74.40,42.17 74.60,42.25 74.79,42.34 74.94,42.49 75.10,42.63 75.20,42.82 75.30,43.01 75.34,43.22 75.37,43.43 75.34,43.64 75.30,43.85 75.21,44.03 75.11,44.22 74.95,44.37 74.80,44.52 74.61,44.61 74.41,44.70 74.20,44.72 73.99,44.74 73.78,44.70 73.58,44.65 73.39,44.55 73.21,44.44 73.07,44.28 72.93,44.11 72.86,43.92 72.78,43.72 72.76,43.51 72.75,43.30 72.81,43.09 72.86,42.89 72.98,42.71 73.10,42.53 73.27,42.40 73.44,42.27 73.64,42.21 73.84,42.14 74.05,42.14 74.26,42.14 74.47,42.20 74.67,42.27 74.84,42.40 75.01,42.53 75.13,42.70 75.25,42.88 75.30,43.08 75.36,43.29 75.35,43.50 75.34,43.71 75.26,43.91 75.19,44.11 75.05,44.27 74.91,44.43 74.73,44.54 74.55,44.65 74.55,44.65 74.55,44.65 72.02,44.84 69.49,45.03 68.34,44.54 67.18,44.04 66.99,42.92 66.79,41.79 66.24,40.84 65.68,39.88 64.59,39.18 63.50,38.47 62.45,37.82 61.40,37.17 60.09,36.54 58.78,35.91 57.81,35.46 56.85,35.01 55.38,34.08 53.92,33.14 52.78,32.22 51.65,31.29 50.19,30.33 48.73,29.36 47.55,28.84 46.37,28.32 45.01,27.61 43.65,26.91 42.69,26.33 41.74,25.75 40.69,24.89 39.63,24.03 38.50,22.93 37.37,21.82 36.04,20.36 34.72,18.89 33.29,17.33 31.86,15.78 30.47,14.30 29.09,12.82 27.54,11.70 26.00,10.58 24.90,9.85 23.81,9.13 22.86,8.63 21.91,8.13 20.83,7.75 19.76,7.36 18.32,7.05 16.89,6.73 15.18,6.40 13.47,6.06 11.49,5.69 9.51,5.32 7.87,4.87 6.23,4.42 4.12,3.58 2.02,2.74 0.67,1.93 -0.67,1.12 -0.80,1.02 -0.92,0.93 -1.02,0.80 -1.12,0.68 -1.18,0.53 -1.25,0.39 -1.28,0.23 -1.31,0.08 -1.30,-0.07 -1.29,-0.23 -1.24,-0.38 -1.19,-0.53 -1.11,-0.67 -1.03,-0.80 -0.92,-0.91 -0.81,-1.03 -0.67,-1.11 -0.54,-1.19 -0.39,-1.24 -0.24,-1.29 -0.08,-1.30 0.07,-1.31 0.23,-1.28 0.38,-1.25 0.53,-1.19 0.67,-1.12 0.67,-1.12 L 0.67,-1.12 Z"></path></g><g transform="translate(221.33333333333314 99.06249999999994) rotate(0 65 -8.90625)" stroke="none"><path fill="#777777" d="M -0.03,-1.31 Q -0.03,-1.31 3.01,-1.40 6.07,-1.49 8.03,-1.70 10.00,-1.92 11.94,-2.10 13.89,-2.28 15.23,-2.45 16.57,-2.61 18.12,-2.86 19.66,-3.11 21.11,-3.39 22.56,-3.67 23.75,-4.05 24.94,-4.42 26.13,-4.92 27.32,-5.43 28.66,-6.01 29.99,-6.59 31.54,-7.04 33.08,-7.50 34.48,-7.78 35.87,-8.07 37.71,-8.24 39.54,-8.42 40.77,-8.26 41.99,-8.09 43.30,-8.00 44.60,-7.91 46.35,-7.98 48.11,-8.05 49.18,-8.26 50.25,-8.47 51.43,-8.73 52.62,-9.00 53.84,-9.29 55.06,-9.59 56.19,-9.89 57.33,-10.19 58.54,-10.50 59.76,-10.81 61.13,-11.04 62.51,-11.28 64.00,-11.46 65.48,-11.65 67.01,-11.82 68.54,-11.99 69.86,-12.23 71.18,-12.48 72.40,-12.68 73.62,-12.88 74.87,-13.05 76.12,-13.23 77.78,-13.31 79.44,-13.39 80.95,-13.42 82.45,-13.45 83.92,-13.64 85.38,-13.83 86.84,-14.00 88.31,-14.17 89.87,-14.25 91.44,-14.32 93.00,-14.36 94.56,-14.39 96.09,-14.49 97.61,-14.59 99.02,-14.81 100.44,-15.03 101.55,-15.29 102.66,-15.55 104.68,-16.07 106.70,-16.58 108.57,-16.89 110.43,-17.20 111.56,-17.47 112.69,-17.74 113.79,-18.04 114.89,-18.33 115.93,-18.55 116.98,-18.77 118.37,-18.92 119.76,-19.06 120.88,-19.09 122.00,-19.12 123.30,-19.12 124.59,-19.12 125.74,-18.99 126.90,-18.85 128.48,-18.67 130.07,-18.49 130.27,-18.45 130.48,-18.40 130.66,-18.29 130.85,-18.18 130.98,-18.02 131.12,-17.86 131.20,-17.66 131.28,-17.46 131.29,-17.25 131.30,-17.04 131.24,-16.83 131.19,-16.63 131.07,-16.45 130.95,-16.28 130.78,-16.15 130.61,-16.02 130.41,-15.95 130.21,-15.89 129.99,-15.89 129.78,-15.89 129.58,-15.95 129.38,-16.02 129.21,-16.15 129.04,-16.28 128.92,-16.46 128.80,-16.63 128.75,-16.84 128.69,-17.04 128.70,-17.25 128.71,-17.47 128.79,-17.66 128.87,-17.86 129.01,-18.02 129.15,-18.18 129.33,-18.29 129.51,-18.40 129.72,-18.45 129.92,-18.49 130.14,-18.47 130.35,-18.45 130.54,-18.36 130.73,-18.27 130.89,-18.12 131.04,-17.98 131.14,-17.79 131.24,-17.60 131.27,-17.39 131.31,-17.18 131.27,-16.97 131.24,-16.76 131.14,-16.57 131.04,-16.39 130.89,-16.24 130.73,-16.09 130.54,-16.01 130.35,-15.92 130.13,-15.89 129.92,-15.87 129.92,-15.87 129.92,-15.87 127.83,-16.12 125.74,-16.37 124.68,-16.43 123.62,-16.49 122.50,-16.49 121.38,-16.48 120.18,-16.43 118.98,-16.37 117.27,-16.08 115.56,-15.79 114.43,-15.49 113.30,-15.19 112.14,-14.91 110.99,-14.64 109.92,-14.41 108.86,-14.18 107.12,-13.89 105.39,-13.61 104.33,-13.30 103.26,-13.00 102.05,-12.71 100.83,-12.43 99.31,-12.20 97.78,-11.97 96.20,-11.87 94.61,-11.76 93.09,-11.73 91.56,-11.70 90.09,-11.63 88.62,-11.56 87.16,-11.39 85.71,-11.22 84.11,-11.02 82.51,-10.82 81.04,-10.79 79.56,-10.76 78.02,-10.69 76.48,-10.63 75.26,-10.45 74.04,-10.28 72.85,-10.09 71.65,-9.89 70.24,-9.64 68.83,-9.38 67.32,-9.21 65.81,-9.05 64.38,-8.87 62.94,-8.69 61.68,-8.48 60.41,-8.27 59.21,-7.96 58.00,-7.65 56.84,-7.34 55.67,-7.03 54.43,-6.73 53.19,-6.44 51.97,-6.16 50.74,-5.89 48.48,-5.57 46.22,-5.26 44.59,-5.31 42.96,-5.35 41.32,-5.57 39.67,-5.80 38.03,-5.65 36.40,-5.49 35.11,-5.24 33.82,-4.98 32.43,-4.58 31.04,-4.18 29.69,-3.59 28.34,-3.01 27.03,-2.46 25.72,-1.91 24.39,-1.50 23.07,-1.10 21.57,-0.81 20.07,-0.51 18.48,-0.26 16.89,-0.01 15.51,0.15 14.13,0.32 12.21,0.50 10.28,0.69 8.21,0.91 6.14,1.13 3.09,1.22 0.03,1.31 -0.11,1.29 -0.27,1.28 -0.42,1.23 -0.57,1.18 -0.70,1.09 -0.84,1.00 -0.95,0.89 -1.05,0.77 -1.13,0.63 -1.21,0.50 -1.25,0.34 -1.29,0.19 -1.30,0.03 -1.30,-0.11 -1.27,-0.27 -1.24,-0.42 -1.17,-0.57 -1.10,-0.71 -1.00,-0.83 -0.89,-0.95 -0.77,-1.05 -0.64,-1.14 -0.49,-1.20 -0.35,-1.26 -0.19,-1.28 -0.03,-1.31 -0.03,-1.31 L -0.03,-1.31 Z"></path></g><g transform="translate(10 188.56249999999991) rotate(0 0.00004999999998744897 0.00004999999998744897)" stroke="none"><path fill="#777777" d="M 1.57,-1.57 Q 1.57,-1.57 1.77,-1.27 1.98,-0.98 2.09,-0.64 2.20,-0.29 2.19,0.05 2.18,0.41 2.05,0.75 1.93,1.09 1.70,1.37 1.48,1.65 1.18,1.84 0.87,2.04 0.52,2.12 0.18,2.21 -0.17,2.18 -0.53,2.15 -0.86,2.01 -1.19,1.87 -1.46,1.63 -1.73,1.39 -1.90,1.07 -2.08,0.76 -2.15,0.41 -2.21,0.05 -2.17,-0.29 -2.12,-0.65 -1.96,-0.97 -1.80,-1.29 -1.54,-1.54 -1.29,-1.80 -0.97,-1.96 -0.65,-2.12 -0.29,-2.17 0.06,-2.21 0.41,-2.15 0.76,-2.08 1.07,-1.90 1.39,-1.73 1.63,-1.46 1.87,-1.19 2.01,-0.86 2.15,-0.53 2.18,-0.17 2.21,0.18 2.12,0.52 2.03,0.87 1.84,1.18 1.65,1.48 1.37,1.70 1.09,1.93 0.75,2.05 0.41,2.18 0.05,2.19 -0.30,2.20 -0.64,2.09 -0.98,1.98 -1.27,1.77 -1.57,1.56 -1.57,1.57 -1.57,1.57 -1.73,1.35 -1.90,1.14 -2.01,0.90 -2.12,0.66 -2.16,0.39 -2.21,0.13 -2.20,-0.13 -2.18,-0.40 -2.10,-0.65 -2.02,-0.91 -1.88,-1.14 -1.74,-1.36 -1.55,-1.55 -1.36,-1.74 -1.14,-1.88 -0.91,-2.02 -0.65,-2.10 -0.40,-2.18 -0.13,-2.20 0.13,-2.21 0.39,-2.16 0.66,-2.12 0.90,-2.01 1.14,-1.90 1.35,-1.73 1.57,-1.57 1.57,-1.57 L 1.57,-1.57 Z"></path></g><g transform="translate(223.83333333333314 49.72916666666666) rotate(0 -6.416666666666629 19.166666666666657)" stroke="none"><path fill="#777777" d="M 1.08,0.74 Q 1.08,0.74 0.12,2.13 -0.83,3.52 -1.52,4.54 -2.22,5.56 -2.85,6.47 -3.48,7.39 -4.06,8.37 -4.64,9.34 -5.27,10.58 -5.90,11.82 -6.04,13.13 -6.17,14.45 -6.44,15.87 -6.71,17.29 -7.24,18.49 -7.77,19.68 -8.39,20.61 -9.02,21.54 -9.55,22.60 -10.08,23.66 -10.48,24.92 -10.89,26.18 -11.15,27.38 -11.41,28.59 -11.46,29.75 -11.51,30.90 -11.51,31.99 -11.52,33.08 -11.52,34.22 -11.52,35.35 -11.62,36.31 -11.73,37.26 -11.58,37.41 -11.43,37.56 -11.33,37.75 -11.24,37.94 -11.21,38.15 -11.18,38.36 -11.22,38.57 -11.26,38.78 -11.37,38.97 -11.47,39.15 -11.63,39.29 -11.79,39.44 -11.98,39.52 -12.18,39.60 -12.39,39.62 -12.60,39.64 -12.81,39.59 -13.01,39.53 -13.19,39.42 -13.37,39.31 -13.51,39.14 -13.64,38.97 -13.71,38.77 -13.78,38.58 -13.79,38.36 -13.80,38.15 -13.73,37.95 -13.67,37.74 -13.55,37.57 -13.42,37.40 -13.25,37.28 -13.08,37.15 -12.87,37.09 -12.67,37.03 -12.46,37.03 -12.25,37.04 -12.05,37.11 -11.85,37.19 -11.68,37.32 -11.52,37.45 -11.40,37.63 -11.29,37.81 -11.24,38.02 -11.19,38.22 -11.20,38.43 -11.22,38.65 -11.30,38.84 -11.39,39.04 -11.53,39.19 -11.67,39.35 -11.86,39.46 -12.04,39.56 -12.25,39.60 -12.46,39.64 -12.67,39.61 -12.88,39.58 -13.07,39.49 -13.26,39.39 -13.26,39.39 -13.26,39.39 -13.70,36.88 -14.14,34.36 -14.14,33.23 -14.14,32.09 -14.14,30.88 -14.13,29.66 -13.94,28.41 -13.76,27.17 -13.46,25.85 -13.17,24.54 -12.70,23.27 -12.24,21.99 -11.61,20.85 -10.98,19.70 -10.39,18.81 -9.79,17.92 -9.38,16.84 -8.96,15.75 -8.87,14.66 -8.78,13.56 -8.54,12.16 -8.30,10.75 -7.60,9.37 -6.90,7.99 -6.27,6.95 -5.64,5.90 -5.02,4.99 -4.39,4.08 -3.69,3.05 -2.99,2.03 -2.03,0.64 -1.08,-0.74 -0.97,-0.86 -0.87,-0.98 -0.74,-1.07 -0.61,-1.16 -0.46,-1.21 -0.31,-1.27 -0.15,-1.29 -0.00,-1.31 0.15,-1.29 0.31,-1.27 0.46,-1.21 0.60,-1.16 0.74,-1.07 0.87,-0.98 0.97,-0.86 1.08,-0.74 1.15,-0.60 1.22,-0.46 1.26,-0.31 1.30,-0.15 1.30,-0.00 1.30,0.15 1.26,0.31 1.22,0.46 1.15,0.60 1.08,0.74 1.08,0.74 L 1.08,0.74 Z"></path></g><g transform="translate(236.33333333333314 46.22916666666666) rotate(0 4.166666666666686 25.833333333333314)" stroke="none"><path fill="#777777" d="M 0.42,-1.24 Q 0.42,-1.24 1.96,-0.71 3.49,-0.18 4.98,0.23 6.47,0.65 7.59,0.92 8.71,1.18 10.04,1.99 11.36,2.81 11.54,4.12 11.72,5.43 11.60,6.89 11.49,8.35 12.17,9.58 12.84,10.81 13.69,11.45 14.55,12.08 15.59,13.20 16.63,14.31 17.09,15.55 17.55,16.79 18.90,17.76 20.25,18.74 21.42,19.11 22.59,19.48 23.88,20.29 25.17,21.09 25.65,22.67 26.13,24.25 25.84,25.74 25.54,27.23 25.11,28.46 24.67,29.69 24.22,30.94 23.76,32.19 22.85,32.96 21.95,33.73 20.83,34.34 19.72,34.94 18.48,35.37 17.25,35.80 16.07,36.20 14.88,36.59 13.52,37.20 12.16,37.81 10.78,38.79 9.39,39.77 8.05,40.66 6.71,41.56 5.30,42.42 3.89,43.28 2.60,43.78 1.31,44.28 -0.31,44.61 -1.95,44.94 -3.06,45.23 -4.17,45.52 -5.19,45.83 -6.22,46.14 -7.10,46.91 -7.99,47.68 -8.87,48.50 -9.74,49.33 -11.04,50.02 -12.34,50.72 -14.43,51.84 -16.53,52.97 -16.74,52.96 -16.95,52.94 -17.15,52.86 -17.35,52.78 -17.51,52.64 -17.67,52.50 -17.78,52.32 -17.89,52.14 -17.93,51.93 -17.97,51.72 -17.95,51.51 -17.92,51.30 -17.83,51.11 -17.74,50.92 -17.60,50.76 -17.45,50.61 -17.26,50.51 -17.07,50.41 -16.86,50.38 -16.65,50.35 -16.44,50.38 -16.23,50.42 -16.05,50.52 -15.86,50.62 -15.71,50.78 -15.57,50.93 -15.48,51.13 -15.39,51.32 -15.37,51.53 -15.35,51.74 -15.40,51.95 -15.45,52.16 -15.56,52.34 -15.67,52.52 -15.83,52.66 -15.99,52.79 -16.19,52.87 -16.39,52.95 -16.60,52.96 -16.81,52.97 -17.02,52.91 -17.22,52.85 -17.40,52.73 -17.57,52.61 -17.70,52.44 -17.83,52.27 -17.89,52.07 -17.96,51.86 -17.96,51.65 -17.96,51.44 -17.89,51.24 -17.82,51.04 -17.69,50.87 -17.56,50.70 -17.38,50.58 -17.20,50.47 -17.00,50.41 -16.79,50.35 -16.79,50.36 -16.79,50.36 -15.16,49.36 -13.53,48.37 -12.47,47.84 -11.41,47.30 -10.46,46.39 -9.50,45.48 -8.51,44.67 -7.52,43.85 -6.22,43.43 -4.93,43.00 -3.65,42.67 -2.36,42.35 -0.92,42.06 0.50,41.78 1.54,41.39 2.58,41.00 3.93,40.18 5.28,39.35 6.58,38.49 7.89,37.62 9.44,36.53 11.00,35.45 12.53,34.77 14.05,34.09 15.25,33.70 16.45,33.30 17.50,32.94 18.56,32.58 19.82,31.89 21.08,31.21 21.65,29.99 22.21,28.78 22.60,27.69 22.99,26.59 23.28,25.14 23.56,23.70 22.67,22.84 21.78,21.98 20.64,21.62 19.50,21.25 17.84,20.59 16.18,19.92 15.55,18.36 14.91,16.80 14.35,15.79 13.79,14.78 12.90,14.14 12.00,13.49 11.02,12.58 10.03,11.68 9.49,10.54 8.96,9.41 8.96,7.80 8.97,6.19 8.49,4.95 8.02,3.71 6.90,3.45 5.77,3.19 4.20,2.74 2.63,2.29 1.10,1.76 -0.42,1.24 -0.56,1.17 -0.71,1.10 -0.83,1.00 -0.95,0.90 -1.04,0.77 -1.14,0.64 -1.20,0.50 -1.26,0.35 -1.28,0.19 -1.31,0.04 -1.29,-0.11 -1.28,-0.27 -1.23,-0.42 -1.18,-0.57 -1.09,-0.70 -1.00,-0.83 -0.89,-0.94 -0.77,-1.05 -0.64,-1.13 -0.50,-1.21 -0.35,-1.25 -0.19,-1.29 -0.04,-1.30 0.11,-1.30 0.27,-1.27 0.42,-1.24 0.42,-1.24 L 0.42,-1.24 Z"></path></g><g transform="translate(212.83333333333314 80.06249999999997) rotate(0 -0.75 5.5)" stroke="none"><path fill="#777777" d="M 1.26,0.34 Q 1.26,0.34 0.88,1.73 0.49,3.12 0.28,4.26 0.06,5.40 0.02,6.48 -0.01,7.56 -0.21,9.65 -0.41,11.74 -0.56,11.89 -0.71,12.05 -0.90,12.15 -1.09,12.24 -1.30,12.28 -1.51,12.31 -1.72,12.27 -1.93,12.24 -2.11,12.13 -2.30,12.03 -2.44,11.88 -2.59,11.72 -2.68,11.53 -2.76,11.34 -2.78,11.12 -2.81,10.91 -2.76,10.71 -2.71,10.50 -2.60,10.32 -2.49,10.14 -2.33,10.00 -2.16,9.86 -1.96,9.79 -1.77,9.71 -1.55,9.70 -1.34,9.69 -1.14,9.75 -0.93,9.81 -0.76,9.93 -0.58,10.05 -0.46,10.22 -0.33,10.39 -0.26,10.59 -0.20,10.79 -0.20,11.01 -0.20,11.22 -0.27,11.42 -0.34,11.62 -0.47,11.79 -0.60,11.96 -0.78,12.07 -0.95,12.19 -1.16,12.25 -1.36,12.30 -1.58,12.29 -1.79,12.28 -1.99,12.19 -2.18,12.11 -2.34,11.98 -2.50,11.84 -2.61,11.65 -2.72,11.47 -2.76,11.26 -2.81,11.05 -2.78,10.84 -2.76,10.63 -2.67,10.44 -2.58,10.25 -2.58,10.25 -2.58,10.25 -2.60,8.88 -2.63,7.51 -2.58,6.25 -2.52,4.99 -2.28,3.71 -2.03,2.43 -1.64,1.04 -1.26,-0.34 -1.20,-0.49 -1.14,-0.64 -1.05,-0.76 -0.95,-0.89 -0.83,-0.99 -0.71,-1.10 -0.57,-1.17 -0.43,-1.24 -0.27,-1.27 -0.12,-1.30 0.03,-1.30 0.19,-1.29 0.34,-1.25 0.49,-1.21 0.63,-1.13 0.77,-1.05 0.89,-0.95 1.00,-0.84 1.09,-0.71 1.17,-0.57 1.23,-0.42 1.28,-0.27 1.29,-0.12 1.31,0.03 1.28,0.19 1.26,0.34 1.26,0.34 L 1.26,0.34 Z"></path></g></svg>