<?xml version="1.0" encoding="UTF-8" standalone="no"?>
<!DOCTYPE svg PUBLIC "-//W3C//DTD SVG 1.1//EN"
 "http://www.w3.org/Graphics/SVG/1.1/DTD/svg11.dtd">
<!-- Generated by graphviz version 2.43.0 (0)
 -->
<!-- Title: G Pages: 1 -->
<svg width="89pt" height="188pt"
 viewBox="0.00 0.00 89.00 188.00" xmlns="http://www.w3.org/2000/svg" xmlns:xlink="http://www.w3.org/1999/xlink">
<g id="graph0" class="graph" transform="scale(1 1) rotate(0) translate(4 184)">
<title>G</title>
<!-- a -->
<g id="node1" class="node">
<title>a</title>
<ellipse fill="white" stroke="red" cx="54" cy="-162" rx="27" ry="18"/>
<text text-anchor="middle" x="54" y="-158.3" font-family="Times,serif" font-size="14.00">a</text>
</g>
<!-- b -->
<g id="node2" class="node">
<title>b</title>
<ellipse fill="white" stroke="red" cx="27" cy="-90" rx="27" ry="18"/>
<text text-anchor="middle" x="27" y="-86.3" font-family="Times,serif" font-size="14.00">b</text>
</g>
<!-- a&#45;&#45;b -->
<g id="edge1" class="edge">
<title>a&#45;&#45;b</title>
<path fill="none" stroke="#777777" stroke-width="3" d="M47.6,-144.41C43.36,-133.41 37.81,-119.03 33.54,-107.96"/>
</g>
<!-- c -->
<g id="node3" class="node">
<title>c</title>
<ellipse fill="white" stroke="red" cx="54" cy="-18" rx="27" ry="18"/>
<text text-anchor="middle" x="54" y="-14.3" font-family="Times,serif" font-size="14.00">c</text>
</g>
<!-- b&#45;&#45;c -->
<g id="edge2" class="edge">
<title>b&#45;&#45;c</title>
<path fill="none" stroke="#777777" stroke-width="3" d="M33.4,-72.41C37.64,-61.41 43.19,-47.03 47.46,-35.96"/>
</g>
<!-- c&#45;&#45;a -->
<g id="edge3" class="edge">
<title>c&#45;&#45;a</title>
<path fill="none" stroke="#777777" stroke-width="3" d="M57.65,-36.09C59.68,-46.43 61.98,-59.91 63,-72 64.34,-87.94 64.34,-92.06 63,-108 61.98,-120.09 59.68,-133.57 57.65,-143.91"/>
</g>
</g>
</svg>
