<?xml version="1.0" encoding="UTF-8" standalone="no"?>
<!DOCTYPE svg PUBLIC "-//W3C//DTD SVG 1.1//EN"
 "http://www.w3.org/Graphics/SVG/1.1/DTD/svg11.dtd">
<!-- Generated by graphviz version 2.43.0 (0)
 -->
<!-- Title: Fanning Pages: 1 -->
<svg width="259pt" height="175pt"
 viewBox="0.00 0.00 259.42 175.14" xmlns="http://www.w3.org/2000/svg" xmlns:xlink="http://www.w3.org/1999/xlink">
<g id="page0,1_graph0" class="graph" transform="scale(1 1) rotate(0) translate(4 171.14)">
<title>Fanning</title>
<!-- 1 -->
<g id="node1" class="node">
<title>1</title>
<ellipse fill="white" stroke="red" cx="105.95" cy="-20.08" rx="27" ry="18"/>
<text text-anchor="middle" x="105.95" y="-16.38" font-family="Times,serif" font-size="14.00">1</text>
</g>
<!-- 2 -->
<g id="node2" class="node">
<title>2</title>
<ellipse fill="white" stroke="red" cx="182.72" cy="-18" rx="27" ry="18"/>
<text text-anchor="middle" x="182.72" y="-14.3" font-family="Times,serif" font-size="14.00">2</text>
</g>
<!-- 1&#45;&#45;2 -->
<g id="edge1" class="edge">
<title>1&#45;&#45;2</title>
<path fill="none" stroke="#777777" stroke-width="3" d="M133.23,-19.34C140.47,-19.15 148.29,-18.93 155.53,-18.74"/>
</g>
<!-- 3 -->
<g id="node3" class="node">
<title>3</title>
<ellipse fill="white" stroke="red" cx="224.42" cy="-83.13" rx="27" ry="18"/>
<text text-anchor="middle" x="224.42" y="-79.43" font-family="Times,serif" font-size="14.00">3</text>
</g>
<!-- 2&#45;&#45;3 -->
<g id="edge2" class="edge">
<title>2&#45;&#45;3</title>
<path fill="none" stroke="#777777" stroke-width="3" d="M193.46,-34.77C199.64,-44.42 207.38,-56.51 213.57,-66.19"/>
</g>
<!-- 4 -->
<g id="node4" class="node">
<title>4</title>
<ellipse fill="white" stroke="red" cx="183.89" cy="-149.14" rx="27" ry="18"/>
<text text-anchor="middle" x="183.89" y="-145.44" font-family="Times,serif" font-size="14.00">4</text>
</g>
<!-- 3&#45;&#45;4 -->
<g id="edge3" class="edge">
<title>3&#45;&#45;4</title>
<path fill="none" stroke="#777777" stroke-width="3" d="M213.98,-100.13C207.88,-110.06 200.22,-122.54 194.15,-132.43"/>
</g>
<!-- 5 -->
<g id="node5" class="node">
<title>5</title>
<ellipse fill="white" stroke="red" cx="106.88" cy="-148.38" rx="27" ry="18"/>
<text text-anchor="middle" x="106.88" y="-144.68" font-family="Times,serif" font-size="14.00">5</text>
</g>
<!-- 4&#45;&#45;5 -->
<g id="edge4" class="edge">
<title>4&#45;&#45;5</title>
<path fill="none" stroke="#777777" stroke-width="3" d="M156.52,-148.87C149.17,-148.8 141.23,-148.72 133.9,-148.64"/>
</g>
<!-- 6 -->
<g id="node6" class="node">
<title>6</title>
<ellipse fill="white" stroke="red" cx="27.52" cy="-126.77" rx="27" ry="18"/>
<text text-anchor="middle" x="27.52" y="-123.07" font-family="Times,serif" font-size="14.00">6</text>
</g>
<!-- 5&#45;&#45;6 -->
<g id="edge5" class="edge">
<title>5&#45;&#45;6</title>
<path fill="none" stroke="#777777" stroke-width="3" d="M81.77,-141.54C72.51,-139.02 62.01,-136.16 52.74,-133.63"/>
</g>
<!-- 7 -->
<g id="node7" class="node">
<title>7</title>
<ellipse fill="white" stroke="red" cx="27" cy="-42.51" rx="27" ry="18"/>
<text text-anchor="middle" x="27" y="-38.81" font-family="Times,serif" font-size="14.00">7</text>
</g>
<!-- 6&#45;&#45;7 -->
<g id="edge6" class="edge">
<title>6&#45;&#45;7</title>
<path fill="none" stroke="#777777" stroke-width="3" d="M27.41,-108.48C27.32,-94.35 27.2,-74.88 27.11,-60.76"/>
</g>
<!-- 7&#45;&#45;1 -->
<g id="edge7" class="edge">
<title>7&#45;&#45;1</title>
<path fill="none" stroke="#777777" stroke-width="3" d="M51.98,-35.41C61.19,-32.8 71.63,-29.83 80.86,-27.21"/>
</g>
<!-- u -->
<g id="node8" class="node">
<title>u</title>
<ellipse fill="white" stroke="red" cx="151.29" cy="-83.93" rx="27" ry="18"/>
<text text-anchor="middle" x="151.29" y="-80.23" font-family="Times,serif" font-size="14.00">u</text>
</g>
<!-- u&#45;&#45;1 -->
<g id="edge9" class="edge">
<title>u&#45;&#45;1</title>
<path fill="none" stroke="#777777" stroke-width="3" d="M139.61,-67.49C132.9,-58.03 124.48,-46.18 117.74,-36.69"/>
</g>
<!-- u&#45;&#45;2 -->
<g id="edge10" class="edge">
<title>u&#45;&#45;2</title>
<path fill="none" stroke="#777777" stroke-width="3" d="M159.55,-66.61C164.13,-56.99 169.82,-45.07 174.41,-35.43"/>
</g>
<!-- u&#45;&#45;3 -->
<g id="edge11" class="edge">
<title>u&#45;&#45;3</title>
<path fill="none" stroke="#777777" stroke-width="3" d="M178.52,-83.63C184.69,-83.56 191.25,-83.49 197.41,-83.42"/>
</g>
<!-- u&#45;&#45;4 -->
<g id="edge12" class="edge">
<title>u&#45;&#45;4</title>
<path fill="none" stroke="#777777" stroke-width="3" d="M159.85,-101.06C164.61,-110.57 170.51,-122.37 175.27,-131.89"/>
</g>
<!-- u&#45;&#45;5 -->
<g id="edge13" class="edge">
<title>u&#45;&#45;5</title>
<path fill="none" stroke="#777777" stroke-width="3" d="M139.85,-100.52C133.27,-110.07 125.03,-122.03 118.43,-131.61"/>
</g>
<!-- v -->
<g id="node9" class="node">
<title>v</title>
<ellipse fill="white" stroke="red" cx="78.41" cy="-84.42" rx="27" ry="18"/>
<text text-anchor="middle" x="78.41" y="-80.72" font-family="Times,serif" font-size="14.00">v</text>
</g>
<!-- u&#45;&#45;v -->
<g id="edge8" class="edge">
<title>u&#45;&#45;v</title>
<path fill="none" stroke="#777777" stroke-width="3" d="M124.15,-84.11C118.16,-84.15 111.81,-84.2 105.81,-84.24"/>
</g>
<!-- v&#45;&#45;1 -->
<g id="edge14" class="edge">
<title>v&#45;&#45;1</title>
<path fill="none" stroke="#777777" stroke-width="3" d="M85.93,-66.84C89.82,-57.76 94.55,-46.72 98.43,-37.64"/>
</g>
<!-- v&#45;&#45;5 -->
<g id="edge15" class="edge">
<title>v&#45;&#45;5</title>
<path fill="none" stroke="#777777" stroke-width="3" d="M86.19,-101.9C90.2,-110.92 95.09,-121.9 99.11,-130.92"/>
</g>
<!-- v&#45;&#45;6 -->
<g id="edge16" class="edge">
<title>v&#45;&#45;6</title>
<path fill="none" stroke="#777777" stroke-width="3" d="M61.46,-98.52C56.03,-103.05 50.01,-108.06 44.57,-112.58"/>
</g>
<!-- v&#45;&#45;7 -->
<g id="edge17" class="edge">
<title>v&#45;&#45;7</title>
<path fill="none" stroke="#777777" stroke-width="3" d="M61.29,-70.47C55.8,-65.99 49.72,-61.03 44.22,-56.55"/>
</g>
</g>
</svg>
