<?xml version="1.0" encoding="UTF-8" standalone="no"?>
<!DOCTYPE svg PUBLIC "-//W3C//DTD SVG 1.1//EN"
 "http://www.w3.org/Graphics/SVG/1.1/DTD/svg11.dtd">
<!-- Generated by graphviz version 2.43.0 (0)
 -->
<!-- Title: CycleSpace Pages: 1 -->
<svg width="176pt" height="309pt"
 viewBox="0.00 0.00 175.62 309.24" xmlns="http://www.w3.org/2000/svg" xmlns:xlink="http://www.w3.org/1999/xlink">
<g id="page0,1_graph0" class="graph" transform="scale(1 1) rotate(0) translate(4 305.24)">
<title>CycleSpace</title>
<!-- a -->
<g id="node1" class="node">
<title>a</title>
<ellipse fill="white" stroke="red" cx="95.63" cy="-87.71" rx="27" ry="18"/>
<text text-anchor="middle" x="95.63" y="-84.01" font-family="Times,serif" font-size="14.00">a</text>
</g>
<!-- b -->
<g id="node2" class="node">
<title>b</title>
<ellipse fill="white" stroke="red" cx="140.62" cy="-28.57" rx="27" ry="18"/>
<text text-anchor="middle" x="140.62" y="-24.87" font-family="Times,serif" font-size="14.00">b</text>
</g>
<!-- a&#45;&#45;b -->
<g id="edge1" class="edge">
<title>a&#45;&#45;b</title>
<path fill="none" stroke="#777777" stroke-width="3" d="M107.92,-71.55C114.27,-63.2 121.99,-53.05 128.34,-44.71"/>
</g>
<!-- c -->
<g id="node3" class="node">
<title>c</title>
<ellipse fill="white" stroke="red" cx="70.7" cy="-18" rx="27" ry="18"/>
<text text-anchor="middle" x="70.7" y="-14.3" font-family="Times,serif" font-size="14.00">c</text>
</g>
<!-- b&#45;&#45;c -->
<g id="edge2" class="edge">
<title>b&#45;&#45;c</title>
<path fill="none" stroke="#777777" stroke-width="3" d="M114.18,-24.57C108.61,-23.73 102.74,-22.84 97.17,-22"/>
</g>
<!-- c&#45;&#45;a -->
<g id="edge3" class="edge">
<title>c&#45;&#45;a</title>
<path fill="none" stroke="#777777" stroke-width="3" d="M76.99,-35.59C80.74,-46.08 85.49,-59.35 89.25,-69.88"/>
</g>
<!-- d -->
<g id="node4" class="node">
<title>d</title>
<ellipse fill="white" stroke="red" cx="27" cy="-217.54" rx="27" ry="18"/>
<text text-anchor="middle" x="27" y="-213.84" font-family="Times,serif" font-size="14.00">d</text>
</g>
<!-- e -->
<g id="node5" class="node">
<title>e</title>
<ellipse fill="white" stroke="red" cx="71.4" cy="-283.24" rx="27" ry="18"/>
<text text-anchor="middle" x="71.4" y="-279.54" font-family="Times,serif" font-size="14.00">e</text>
</g>
<!-- d&#45;&#45;e -->
<g id="edge4" class="edge">
<title>d&#45;&#45;e</title>
<path fill="none" stroke="#777777" stroke-width="3" d="M38.2,-234.12C44.88,-244 53.34,-256.52 60.04,-266.44"/>
</g>
<!-- f -->
<g id="node6" class="node">
<title>f</title>
<ellipse fill="white" stroke="red" cx="130.03" cy="-230.05" rx="27" ry="18"/>
<text text-anchor="middle" x="130.03" y="-226.35" font-family="Times,serif" font-size="14.00">f</text>
</g>
<!-- e&#45;&#45;f -->
<g id="edge5" class="edge">
<title>e&#45;&#45;f</title>
<path fill="none" stroke="#777777" stroke-width="3" d="M87.42,-268.7C95.69,-261.2 105.76,-252.07 114.03,-244.57"/>
</g>
<!-- g -->
<g id="node7" class="node">
<title>g</title>
<ellipse fill="white" stroke="red" cx="85.67" cy="-163.74" rx="27" ry="18"/>
<text text-anchor="middle" x="85.67" y="-160.04" font-family="Times,serif" font-size="14.00">g</text>
</g>
<!-- f&#45;&#45;g -->
<g id="edge6" class="edge">
<title>f&#45;&#45;g</title>
<path fill="none" stroke="#777777" stroke-width="3" d="M118.84,-213.32C112.06,-203.19 103.45,-190.33 96.71,-180.24"/>
</g>
<!-- g&#45;&#45;a -->
<g id="edge8" class="edge">
<title>g&#45;&#45;a</title>
<path fill="none" stroke="#777777" stroke-width="3" d="M88.03,-145.72C89.6,-133.69 91.67,-117.92 93.25,-105.86"/>
</g>
<!-- g&#45;&#45;d -->
<g id="edge7" class="edge">
<title>g&#45;&#45;d</title>
<path fill="none" stroke="#777777" stroke-width="3" d="M69.64,-178.44C61.36,-186.04 51.29,-195.27 43.01,-202.86"/>
</g>
</g>
</svg>
